solid IRB140_-_M2004C_COMPLETE
	color 0.1 0.1 0.1
  facet normal 5.195670e-15 -1.000000e+00 8.229132e-16
    outer loop
      vertex 1.495265e+02 -1.325000e+02 2.421879e+02
      vertex 1.495265e+02 -1.325000e+02 2.076500e+02
      vertex 1.540177e+02 -1.325000e+02 2.138316e+02
    endloop
  endfacet
  facet normal 8.090170e-01 2.724380e-14 -5.877853e-01
    outer loop
      vertex 1.540177e+02 -1.289000e+02 2.138316e+02
      vertex 1.540177e+02 -1.325000e+02 2.138316e+02
      vertex 1.495265e+02 -1.325000e+02 2.076500e+02
    endloop
  endfacet
  facet normal 8.092445e-15 -1.000000e+00 1.281717e-15
    outer loop
      vertex 1.540177e+02 -1.325000e+02 2.360063e+02
      vertex 1.495265e+02 -1.325000e+02 2.421879e+02
      vertex 1.540177e+02 -1.325000e+02 2.138316e+02
    endloop
  endfacet
  facet normal 8.092445e-15 -1.000000e+00 1.281717e-15
    outer loop
      vertex 1.563788e+02 -1.325000e+02 2.210985e+02
      vertex 1.540177e+02 -1.325000e+02 2.360063e+02
      vertex 1.540177e+02 -1.325000e+02 2.138316e+02
    endloop
  endfacet
  facet normal 9.510565e-01 4.927565e-15 -3.090170e-01
    outer loop
      vertex 1.563788e+02 -1.289000e+02 2.210985e+02
      vertex 1.563788e+02 -1.325000e+02 2.210985e+02
      vertex 1.540177e+02 -1.325000e+02 2.138316e+02
    endloop
  endfacet
  facet normal 9.510565e-01 1.871099e-15 -3.090170e-01
    outer loop
      vertex 1.540177e+02 -1.289000e+02 2.138316e+02
      vertex 1.563788e+02 -1.289000e+02 2.210985e+02
      vertex 1.540177e+02 -1.325000e+02 2.138316e+02
    endloop
  endfacet
  facet normal 8.721095e-15 -1.000000e+00 6.530676e-16
    outer loop
      vertex 1.433448e+02 -1.325000e+02 2.466791e+02
      vertex 1.433448e+02 -1.325000e+02 2.031588e+02
      vertex 1.495265e+02 -1.325000e+02 2.076500e+02
    endloop
  endfacet
  facet normal 5.877853e-01 -2.842608e-15 -8.090170e-01
    outer loop
      vertex 1.495265e+02 -1.289000e+02 2.076500e+02
      vertex 1.495265e+02 -1.325000e+02 2.076500e+02
      vertex 1.433448e+02 -1.325000e+02 2.031588e+02
    endloop
  endfacet
  facet normal 9.793458e-15 -1.000000e+00 8.229132e-16
    outer loop
      vertex 1.495265e+02 -1.325000e+02 2.421879e+02
      vertex 1.433448e+02 -1.325000e+02 2.466791e+02
      vertex 1.495265e+02 -1.325000e+02 2.076500e+02
    endloop
  endfacet
  facet normal 8.090170e-01 -4.126796e-14 -5.877853e-01
    outer loop
      vertex 1.495265e+02 -1.289000e+02 2.076500e+02
      vertex 1.540177e+02 -1.289000e+02 2.138316e+02
      vertex 1.495265e+02 -1.325000e+02 2.076500e+02
    endloop
  endfacet
  facet normal 3.911112e-15 -1.000000e+00 -5.990909e-29
    outer loop
      vertex 1.360779e+02 -1.325000e+02 2.490403e+02
      vertex 1.360779e+02 -1.325000e+02 2.007976e+02
      vertex 1.433448e+02 -1.325000e+02 2.031588e+02
    endloop
  endfacet
  facet normal 3.090170e-01 3.586099e-14 -9.510565e-01
    outer loop
      vertex 1.433448e+02 -1.289000e+02 2.031588e+02
      vertex 1.433448e+02 -1.325000e+02 2.031588e+02
      vertex 1.360779e+02 -1.325000e+02 2.007976e+02
    endloop
  endfacet
  facet normal 8.034419e-15 -1.000000e+00 6.530676e-16
    outer loop
      vertex 1.433448e+02 -1.325000e+02 2.466791e+02
      vertex 1.360779e+02 -1.325000e+02 2.490403e+02
      vertex 1.433448e+02 -1.325000e+02 2.031588e+02
    endloop
  endfacet
  facet normal 5.877853e-01 -2.842608e-15 -8.090170e-01
    outer loop
      vertex 1.433448e+02 -1.289000e+02 2.031588e+02
      vertex 1.495265e+02 -1.289000e+02 2.076500e+02
      vertex 1.433448e+02 -1.325000e+02 2.031588e+02
    endloop
  endfacet
  facet normal 7.439378e-15 -1.000000e+00 7.450830e-29
    outer loop
      vertex 1.284371e+02 -1.325000e+02 2.490403e+02
      vertex 1.284371e+02 -1.325000e+02 2.007976e+02
      vertex 1.360779e+02 -1.325000e+02 2.007976e+02
    endloop
  endfacet
  facet normal 0.000000e+00 0.000000e+00 -1.000000e+00
    outer loop
      vertex 1.360779e+02 -1.289000e+02 2.007976e+02
      vertex 1.360779e+02 -1.325000e+02 2.007976e+02
      vertex 1.284371e+02 -1.325000e+02 2.007976e+02
    endloop
  endfacet
  facet normal 7.439378e-15 -1.000000e+00 -1.139539e-28
    outer loop
      vertex 1.360779e+02 -1.325000e+02 2.490403e+02
      vertex 1.284371e+02 -1.325000e+02 2.490403e+02
      vertex 1.360779e+02 -1.325000e+02 2.007976e+02
    endloop
  endfacet
  facet normal 3.090170e-01 -4.907923e-15 -9.510565e-01
    outer loop
      vertex 1.433448e+02 -1.289000e+02 2.031588e+02
      vertex 1.360779e+02 -1.325000e+02 2.007976e+02
      vertex 1.360779e+02 -1.289000e+02 2.007976e+02
    endloop
  endfacet
  facet normal 8.034419e-15 -1.000000e+00 6.530676e-16
    outer loop
      vertex 1.211701e+02 -1.325000e+02 2.466791e+02
      vertex 1.211701e+02 -1.325000e+02 2.031588e+02
      vertex 1.284371e+02 -1.325000e+02 2.007976e+02
    endloop
  endfacet
  facet normal -3.090170e-01 -3.415530e-14 -9.510565e-01
    outer loop
      vertex 1.284371e+02 -1.289000e+02 2.007976e+02
      vertex 1.284371e+02 -1.325000e+02 2.007976e+02
      vertex 1.211701e+02 -1.325000e+02 2.031588e+02
    endloop
  endfacet
  facet normal 3.911112e-15 -1.000000e+00 3.917133e-29
    outer loop
      vertex 1.284371e+02 -1.325000e+02 2.490403e+02
      vertex 1.211701e+02 -1.325000e+02 2.466791e+02
      vertex 1.284371e+02 -1.325000e+02 2.007976e+02
    endloop
  endfacet
  facet normal 0.000000e+00 0.000000e+00 -1.000000e+00
    outer loop
      vertex 1.360779e+02 -1.289000e+02 2.007976e+02
      vertex 1.284371e+02 -1.325000e+02 2.007976e+02
      vertex 1.284371e+02 -1.289000e+02 2.007976e+02
    endloop
  endfacet
  facet normal 9.793458e-15 -1.000000e+00 8.229132e-16
    outer loop
      vertex 1.149885e+02 -1.325000e+02 2.421879e+02
      vertex 1.149885e+02 -1.325000e+02 2.076500e+02
      vertex 1.211701e+02 -1.325000e+02 2.031588e+02
    endloop
  endfacet
  facet normal -5.877853e-01 -5.391395e-14 -8.090170e-01
    outer loop
      vertex 1.211701e+02 -1.289000e+02 2.031588e+02
      vertex 1.211701e+02 -1.325000e+02 2.031588e+02
      vertex 1.149885e+02 -1.325000e+02 2.076500e+02
    endloop
  endfacet
  facet normal 8.721095e-15 -1.000000e+00 6.530676e-16
    outer loop
      vertex 1.211701e+02 -1.325000e+02 2.466791e+02
      vertex 1.149885e+02 -1.325000e+02 2.421879e+02
      vertex 1.211701e+02 -1.325000e+02 2.031588e+02
    endloop
  endfacet
  facet normal -3.090170e-01 -7.620196e-15 -9.510565e-01
    outer loop
      vertex 1.284371e+02 -1.289000e+02 2.007976e+02
      vertex 1.211701e+02 -1.325000e+02 2.031588e+02
      vertex 1.211701e+02 -1.289000e+02 2.031588e+02
    endloop
  endfacet
  facet normal 8.092445e-15 -1.000000e+00 1.281717e-15
    outer loop
      vertex 1.104973e+02 -1.325000e+02 2.360063e+02
      vertex 1.104973e+02 -1.325000e+02 2.138316e+02
      vertex 1.149885e+02 -1.325000e+02 2.076500e+02
    endloop
  endfacet
  facet normal -8.090170e-01 -6.883822e-15 -5.877853e-01
    outer loop
      vertex 1.149885e+02 -1.289000e+02 2.076500e+02
      vertex 1.149885e+02 -1.325000e+02 2.076500e+02
      vertex 1.104973e+02 -1.325000e+02 2.138316e+02
    endloop
  endfacet
  facet normal 5.195670e-15 -1.000000e+00 8.229132e-16
    outer loop
      vertex 1.149885e+02 -1.325000e+02 2.421879e+02
      vertex 1.104973e+02 -1.325000e+02 2.360063e+02
      vertex 1.149885e+02 -1.325000e+02 2.076500e+02
    endloop
  endfacet
  facet normal -5.877853e-01 -5.928254e-14 -8.090170e-01
    outer loop
      vertex 1.211701e+02 -1.289000e+02 2.031588e+02
      vertex 1.149885e+02 -1.325000e+02 2.076500e+02
      vertex 1.149885e+02 -1.289000e+02 2.076500e+02
    endloop
  endfacet
  facet normal 0.000000e+00 -1.000000e+00 0.000000e+00
    outer loop
      vertex 1.081362e+02 -1.325000e+02 2.287394e+02
      vertex 1.081362e+02 -1.325000e+02 2.210985e+02
      vertex 1.104973e+02 -1.325000e+02 2.138316e+02
    endloop
  endfacet
  facet normal -9.510565e-01 4.731329e-14 -3.090170e-01
    outer loop
      vertex 1.104973e+02 -1.289000e+02 2.138316e+02
      vertex 1.104973e+02 -1.325000e+02 2.138316e+02
      vertex 1.081362e+02 -1.325000e+02 2.210985e+02
    endloop
  endfacet
  facet normal 8.092445e-15 -1.000000e+00 1.281717e-15
    outer loop
      vertex 1.104973e+02 -1.325000e+02 2.360063e+02
      vertex 1.081362e+02 -1.325000e+02 2.287394e+02
      vertex 1.104973e+02 -1.325000e+02 2.138316e+02
    endloop
  endfacet
  facet normal -8.090170e-01 -7.749352e-16 -5.877853e-01
    outer loop
      vertex 1.149885e+02 -1.289000e+02 2.076500e+02
      vertex 1.104973e+02 -1.325000e+02 2.138316e+02
      vertex 1.104973e+02 -1.289000e+02 2.138316e+02
    endloop
  endfacet
  facet normal -1.000000e+00 0.000000e+00 0.000000e+00
    outer loop
      vertex 1.081362e+02 -1.289000e+02 2.210985e+02
      vertex 1.081362e+02 -1.325000e+02 2.210985e+02
      vertex 1.081362e+02 -1.325000e+02 2.287394e+02
    endloop
  endfacet
  facet normal -9.510565e-01 1.756520e-13 -3.090170e-01
    outer loop
      vertex 1.104973e+02 -1.289000e+02 2.138316e+02
      vertex 1.081362e+02 -1.325000e+02 2.210985e+02
      vertex 1.081362e+02 -1.289000e+02 2.210985e+02
    endloop
  endfacet
  facet normal -9.510565e-01 1.097849e-13 3.090170e-01
    outer loop
      vertex 1.081362e+02 -1.289000e+02 2.287394e+02
      vertex 1.081362e+02 -1.325000e+02 2.287394e+02
      vertex 1.104973e+02 -1.325000e+02 2.360063e+02
    endloop
  endfacet
  facet normal -1.000000e+00 0.000000e+00 0.000000e+00
    outer loop
      vertex 1.081362e+02 -1.289000e+02 2.210985e+02
      vertex 1.081362e+02 -1.325000e+02 2.287394e+02
      vertex 1.081362e+02 -1.289000e+02 2.287394e+02
    endloop
  endfacet
  facet normal -8.090170e-01 -5.539472e-15 5.877853e-01
    outer loop
      vertex 1.104973e+02 -1.289000e+02 2.360063e+02
      vertex 1.104973e+02 -1.325000e+02 2.360063e+02
      vertex 1.149885e+02 -1.325000e+02 2.421879e+02
    endloop
  endfacet
  facet normal -9.510565e-01 -2.156903e-14 3.090170e-01
    outer loop
      vertex 1.081362e+02 -1.289000e+02 2.287394e+02
      vertex 1.104973e+02 -1.325000e+02 2.360063e+02
      vertex 1.104973e+02 -1.289000e+02 2.360063e+02
    endloop
  endfacet
  facet normal -5.877853e-01 -4.997534e-14 8.090170e-01
    outer loop
      vertex 1.149885e+02 -1.289000e+02 2.421879e+02
      vertex 1.149885e+02 -1.325000e+02 2.421879e+02
      vertex 1.211701e+02 -1.325000e+02 2.466791e+02
    endloop
  endfacet
  facet normal -8.090170e-01 -1.071994e-14 5.877853e-01
    outer loop
      vertex 1.104973e+02 -1.289000e+02 2.360063e+02
      vertex 1.149885e+02 -1.325000e+02 2.421879e+02
      vertex 1.149885e+02 -1.289000e+02 2.421879e+02
    endloop
  endfacet
  facet normal -3.090170e-01 -9.379613e-15 9.510565e-01
    outer loop
      vertex 1.211701e+02 -1.289000e+02 2.466791e+02
      vertex 1.211701e+02 -1.325000e+02 2.466791e+02
      vertex 1.284371e+02 -1.325000e+02 2.490403e+02
    endloop
  endfacet
  facet normal -5.877853e-01 -3.363092e-14 8.090170e-01
    outer loop
      vertex 1.211701e+02 -1.289000e+02 2.466791e+02
      vertex 1.149885e+02 -1.289000e+02 2.421879e+02
      vertex 1.211701e+02 -1.325000e+02 2.466791e+02
    endloop
  endfacet
  facet normal 0.000000e+00 0.000000e+00 1.000000e+00
    outer loop
      vertex 1.284371e+02 -1.289000e+02 2.490403e+02
      vertex 1.284371e+02 -1.325000e+02 2.490403e+02
      vertex 1.360779e+02 -1.325000e+02 2.490403e+02
    endloop
  endfacet
  facet normal -3.090170e-01 7.232728e-15 9.510565e-01
    outer loop
      vertex 1.211701e+02 -1.289000e+02 2.466791e+02
      vertex 1.284371e+02 -1.325000e+02 2.490403e+02
      vertex 1.284371e+02 -1.289000e+02 2.490403e+02
    endloop
  endfacet
  facet normal 3.090170e-01 8.621526e-15 9.510565e-01
    outer loop
      vertex 1.360779e+02 -1.289000e+02 2.490403e+02
      vertex 1.360779e+02 -1.325000e+02 2.490403e+02
      vertex 1.433448e+02 -1.325000e+02 2.466791e+02
    endloop
  endfacet
  facet normal -2.231813e-14 -4.736952e-14 1.000000e+00
    outer loop
      vertex 1.284371e+02 -1.289000e+02 2.490403e+02
      vertex 1.360779e+02 -1.325000e+02 2.490403e+02
      vertex 1.360779e+02 -1.289000e+02 2.490403e+02
    endloop
  endfacet
  facet normal 5.877853e-01 -2.839110e-14 8.090170e-01
    outer loop
      vertex 1.433448e+02 -1.289000e+02 2.466791e+02
      vertex 1.433448e+02 -1.325000e+02 2.466791e+02
      vertex 1.495265e+02 -1.325000e+02 2.421879e+02
    endloop
  endfacet
  facet normal 3.090170e-01 5.812014e-15 9.510565e-01
    outer loop
      vertex 1.360779e+02 -1.289000e+02 2.490403e+02
      vertex 1.433448e+02 -1.325000e+02 2.466791e+02
      vertex 1.433448e+02 -1.289000e+02 2.466791e+02
    endloop
  endfacet
  facet normal 8.090170e-01 -2.674710e-14 5.877853e-01
    outer loop
      vertex 1.495265e+02 -1.289000e+02 2.421879e+02
      vertex 1.495265e+02 -1.325000e+02 2.421879e+02
      vertex 1.540177e+02 -1.325000e+02 2.360063e+02
    endloop
  endfacet
  facet normal 5.877853e-01 4.649611e-15 8.090170e-01
    outer loop
      vertex 1.433448e+02 -1.289000e+02 2.466791e+02
      vertex 1.495265e+02 -1.325000e+02 2.421879e+02
      vertex 1.495265e+02 -1.289000e+02 2.421879e+02
    endloop
  endfacet
  facet normal 0.000000e+00 -1.000000e+00 0.000000e+00
    outer loop
      vertex 1.563788e+02 -1.325000e+02 2.210985e+02
      vertex 1.563788e+02 -1.325000e+02 2.287394e+02
      vertex 1.540177e+02 -1.325000e+02 2.360063e+02
    endloop
  endfacet
  facet normal 9.510565e-01 1.653320e-14 3.090170e-01
    outer loop
      vertex 1.540177e+02 -1.289000e+02 2.360063e+02
      vertex 1.540177e+02 -1.325000e+02 2.360063e+02
      vertex 1.563788e+02 -1.325000e+02 2.287394e+02
    endloop
  endfacet
  facet normal 8.090170e-01 -4.752936e-14 5.877853e-01
    outer loop
      vertex 1.495265e+02 -1.289000e+02 2.421879e+02
      vertex 1.540177e+02 -1.325000e+02 2.360063e+02
      vertex 1.540177e+02 -1.289000e+02 2.360063e+02
    endloop
  endfacet
  facet normal 1.000000e+00 1.342136e-13 0.000000e+00
    outer loop
      vertex 1.563788e+02 -1.289000e+02 2.287394e+02
      vertex 1.563788e+02 -1.325000e+02 2.287394e+02
      vertex 1.563788e+02 -1.325000e+02 2.210985e+02
    endloop
  endfacet
  facet normal 9.510565e-01 1.291559e-14 3.090170e-01
    outer loop
      vertex 1.540177e+02 -1.289000e+02 2.360063e+02
      vertex 1.563788e+02 -1.325000e+02 2.287394e+02
      vertex 1.563788e+02 -1.289000e+02 2.287394e+02
    endloop
  endfacet
  facet normal 1.000000e+00 2.052679e-13 -3.347720e-14
    outer loop
      vertex 1.563788e+02 -1.289000e+02 2.287394e+02
      vertex 1.563788e+02 -1.325000e+02 2.210985e+02
      vertex 1.563788e+02 -1.289000e+02 2.210985e+02
    endloop
  endfacet
  facet normal 1.267712e-14 -1.000000e+00 -4.119046e-15
    outer loop
      vertex 1.659662e+02 -1.289000e+02 2.368052e+02
      vertex 1.563788e+02 -1.289000e+02 2.210985e+02
      vertex 1.540177e+02 -1.289000e+02 2.138316e+02
    endloop
  endfacet
  facet normal -1.235256e-14 -1.000000e+00 1.115907e-14
    outer loop
      vertex 1.563788e+02 -1.289000e+02 2.287394e+02
      vertex 1.563788e+02 -1.289000e+02 2.210985e+02
      vertex 1.659662e+02 -1.289000e+02 2.368052e+02
    endloop
  endfacet
  facet normal -3.345982e-15 -1.000000e+00 -6.764578e-15
    outer loop
      vertex 1.606003e+02 -1.289000e+02 2.063740e+02
      vertex 1.540177e+02 -1.289000e+02 2.138316e+02
      vertex 1.495265e+02 -1.289000e+02 2.076500e+02
    endloop
  endfacet
  facet normal 4.480683e-15 -1.000000e+00 1.439033e-16
    outer loop
      vertex 1.606003e+02 -1.289000e+02 2.063740e+02
      vertex 1.659662e+02 -1.289000e+02 2.368052e+02
      vertex 1.540177e+02 -1.289000e+02 2.138316e+02
    endloop
  endfacet
  facet normal -2.215242e-15 -1.000000e+00 3.049019e-15
    outer loop
      vertex 1.433448e+02 -1.289000e+02 2.031588e+02
      vertex 1.606003e+02 -1.289000e+02 2.063740e+02
      vertex 1.495265e+02 -1.289000e+02 2.076500e+02
    endloop
  endfacet
  facet normal 8.405726e-15 -1.000000e+00 -6.603545e-16
    outer loop
      vertex 1.104973e+02 -1.289000e+02 2.360063e+02
      vertex 1.046470e+02 -1.289000e+02 2.476174e+02
      vertex 9.854883e+01 -1.289000e+02 2.130327e+02
    endloop
  endfacet
  facet normal -9.848078e-01 1.427866e-14 1.736482e-01
    outer loop
      vertex 9.999354e+01 -1.254000e+02 2.212261e+02
      vertex 9.854883e+01 -1.289000e+02 2.130327e+02
      vertex 1.046470e+02 -1.289000e+02 2.476174e+02
    endloop
  endfacet
  facet normal 0.000000e+00 -1.000000e+00 0.000000e+00
    outer loop
      vertex 1.149885e+02 -1.289000e+02 2.076500e+02
      vertex 9.854883e+01 -1.289000e+02 2.130327e+02
      vertex 1.150730e+02 -1.289000e+02 1.894337e+02
    endloop
  endfacet
  facet normal -8.191520e-01 -6.972707e-15 -5.735764e-01
    outer loop
      vertex 1.150730e+02 -1.088661e+02 1.894337e+02
      vertex 1.150730e+02 -1.289000e+02 1.894337e+02
      vertex 9.854883e+01 -1.289000e+02 2.130327e+02
    endloop
  endfacet
  facet normal -2.106167e-14 -1.000000e+00 1.466558e-14
    outer loop
      vertex 1.081362e+02 -1.289000e+02 2.287394e+02
      vertex 1.104973e+02 -1.289000e+02 2.360063e+02
      vertex 9.854883e+01 -1.289000e+02 2.130327e+02
    endloop
  endfacet
  facet normal 2.964505e-15 -1.000000e+00 0.000000e+00
    outer loop
      vertex 1.081362e+02 -1.289000e+02 2.210985e+02
      vertex 1.081362e+02 -1.289000e+02 2.287394e+02
      vertex 9.854883e+01 -1.289000e+02 2.130327e+02
    endloop
  endfacet
  facet normal -2.559295e-16 -1.000000e+00 3.827956e-15
    outer loop
      vertex 1.104973e+02 -1.289000e+02 2.138316e+02
      vertex 1.081362e+02 -1.289000e+02 2.210985e+02
      vertex 9.854883e+01 -1.289000e+02 2.130327e+02
    endloop
  endfacet
  facet normal 0.000000e+00 -1.000000e+00 0.000000e+00
    outer loop
      vertex 1.149885e+02 -1.289000e+02 2.076500e+02
      vertex 1.104973e+02 -1.289000e+02 2.138316e+02
      vertex 9.854883e+01 -1.289000e+02 2.130327e+02
    endloop
  endfacet
  facet normal -8.191520e-01 -6.856977e-15 -5.735764e-01
    outer loop
      vertex 9.854883e+01 -1.088661e+02 2.130327e+02
      vertex 1.150730e+02 -1.088661e+02 1.894337e+02
      vertex 9.854883e+01 -1.289000e+02 2.130327e+02
    endloop
  endfacet
  facet normal -9.848078e-01 -5.797705e-15 1.736482e-01
    outer loop
      vertex 9.999354e+01 -1.254000e+02 2.212261e+02
      vertex 9.854883e+01 -1.088661e+02 2.130327e+02
      vertex 9.854883e+01 -1.289000e+02 2.130327e+02
    endloop
  endfacet
  facet normal 0.000000e+00 -1.000000e+00 0.000000e+00
    outer loop
      vertex 1.494419e+02 -1.289000e+02 2.604042e+02
      vertex 1.282460e+02 -1.289000e+02 2.641416e+02
      vertex 1.046470e+02 -1.289000e+02 2.476174e+02
    endloop
  endfacet
  facet normal -5.735764e-01 -3.137959e-15 8.191520e-01
    outer loop
      vertex 1.046470e+02 -1.088661e+02 2.476174e+02
      vertex 1.046470e+02 -1.289000e+02 2.476174e+02
      vertex 1.282460e+02 -1.289000e+02 2.641416e+02
    endloop
  endfacet
  facet normal 0.000000e+00 -1.000000e+00 0.000000e+00
    outer loop
      vertex 1.284371e+02 -1.289000e+02 2.490403e+02
      vertex 1.494419e+02 -1.289000e+02 2.604042e+02
      vertex 1.046470e+02 -1.289000e+02 2.476174e+02
    endloop
  endfacet
  facet normal 3.978895e-15 -1.000000e+00 -2.890837e-15
    outer loop
      vertex 1.104973e+02 -1.289000e+02 2.360063e+02
      vertex 1.149885e+02 -1.289000e+02 2.421879e+02
      vertex 1.046470e+02 -1.289000e+02 2.476174e+02
    endloop
  endfacet
  facet normal 1.262122e-15 -1.000000e+00 -8.065474e-15
    outer loop
      vertex 1.211701e+02 -1.289000e+02 2.466791e+02
      vertex 1.046470e+02 -1.289000e+02 2.476174e+02
      vertex 1.149885e+02 -1.289000e+02 2.421879e+02
    endloop
  endfacet
  facet normal 8.823795e-16 -1.000000e+00 -1.475285e-14
    outer loop
      vertex 1.211701e+02 -1.289000e+02 2.466791e+02
      vertex 1.284371e+02 -1.289000e+02 2.490403e+02
      vertex 1.046470e+02 -1.289000e+02 2.476174e+02
    endloop
  endfacet
  facet normal -9.848078e-01 -1.012934e-13 1.736482e-01
    outer loop
      vertex 9.999354e+01 -1.254000e+02 2.212261e+02
      vertex 1.046470e+02 -1.289000e+02 2.476174e+02
      vertex 1.032023e+02 -1.254000e+02 2.394240e+02
    endloop
  endfacet
  facet normal -9.848078e-01 -1.144944e-15 1.736482e-01
    outer loop
      vertex 1.032023e+02 -1.088661e+02 2.394240e+02
      vertex 1.032023e+02 -1.254000e+02 2.394240e+02
      vertex 1.046470e+02 -1.289000e+02 2.476174e+02
    endloop
  endfacet
  facet normal -9.848078e-01 -1.886386e-15 1.736482e-01
    outer loop
      vertex 1.032023e+02 -1.088661e+02 2.394240e+02
      vertex 1.046470e+02 -1.289000e+02 2.476174e+02
      vertex 1.046470e+02 -1.088661e+02 2.476174e+02
    endloop
  endfacet
  facet normal 1.736482e-01 -6.573931e-15 9.848078e-01
    outer loop
      vertex 1.282460e+02 -1.088661e+02 2.641416e+02
      vertex 1.282460e+02 -1.289000e+02 2.641416e+02
      vertex 1.494419e+02 -1.289000e+02 2.604042e+02
    endloop
  endfacet
  facet normal -5.735764e-01 -1.477330e-15 8.191520e-01
    outer loop
      vertex 1.046470e+02 -1.088661e+02 2.476174e+02
      vertex 1.282460e+02 -1.289000e+02 2.641416e+02
      vertex 1.282460e+02 -1.088661e+02 2.641416e+02
    endloop
  endfacet
  facet normal 0.000000e+00 -1.000000e+00 0.000000e+00
    outer loop
      vertex 1.495265e+02 -1.289000e+02 2.421879e+02
      vertex 1.659662e+02 -1.289000e+02 2.368052e+02
      vertex 1.494419e+02 -1.289000e+02 2.604042e+02
    endloop
  endfacet
  facet normal 8.191520e-01 5.810589e-15 5.735764e-01
    outer loop
      vertex 1.494419e+02 -1.088661e+02 2.604042e+02
      vertex 1.494419e+02 -1.289000e+02 2.604042e+02
      vertex 1.659662e+02 -1.289000e+02 2.368052e+02
    endloop
  endfacet
  facet normal 0.000000e+00 -1.000000e+00 0.000000e+00
    outer loop
      vertex 1.433448e+02 -1.289000e+02 2.466791e+02
      vertex 1.495265e+02 -1.289000e+02 2.421879e+02
      vertex 1.494419e+02 -1.289000e+02 2.604042e+02
    endloop
  endfacet
  facet normal 0.000000e+00 -1.000000e+00 0.000000e+00
    outer loop
      vertex 1.360779e+02 -1.289000e+02 2.490403e+02
      vertex 1.433448e+02 -1.289000e+02 2.466791e+02
      vertex 1.494419e+02 -1.289000e+02 2.604042e+02
    endloop
  endfacet
  facet normal 0.000000e+00 -1.000000e+00 0.000000e+00
    outer loop
      vertex 1.284371e+02 -1.289000e+02 2.490403e+02
      vertex 1.360779e+02 -1.289000e+02 2.490403e+02
      vertex 1.494419e+02 -1.289000e+02 2.604042e+02
    endloop
  endfacet
  facet normal 1.736482e-01 1.252388e-15 9.848078e-01
    outer loop
      vertex 1.282460e+02 -1.088661e+02 2.641416e+02
      vertex 1.494419e+02 -1.289000e+02 2.604042e+02
      vertex 1.494419e+02 -1.088661e+02 2.604042e+02
    endloop
  endfacet
  facet normal 9.848078e-01 5.321582e-15 -1.736482e-01
    outer loop
      vertex 1.645214e+02 -1.254000e+02 2.286118e+02
      vertex 1.659662e+02 -1.289000e+02 2.368052e+02
      vertex 1.606003e+02 -1.289000e+02 2.063740e+02
    endloop
  endfacet
  facet normal -2.328110e-15 -1.000000e+00 -7.564486e-16
    outer loop
      vertex 1.540177e+02 -1.289000e+02 2.360063e+02
      vertex 1.563788e+02 -1.289000e+02 2.287394e+02
      vertex 1.659662e+02 -1.289000e+02 2.368052e+02
    endloop
  endfacet
  facet normal -1.975333e-15 -1.000000e+00 -6.032952e-15
    outer loop
      vertex 1.495265e+02 -1.289000e+02 2.421879e+02
      vertex 1.540177e+02 -1.289000e+02 2.360063e+02
      vertex 1.659662e+02 -1.289000e+02 2.368052e+02
    endloop
  endfacet
  facet normal 9.848078e-01 6.895432e-15 -1.736482e-01
    outer loop
      vertex 1.645214e+02 -1.254000e+02 2.286118e+02
      vertex 1.659662e+02 -1.088661e+02 2.368052e+02
      vertex 1.659662e+02 -1.289000e+02 2.368052e+02
    endloop
  endfacet
  facet normal 8.191520e-01 -5.416878e-15 5.735764e-01
    outer loop
      vertex 1.494419e+02 -1.088661e+02 2.604042e+02
      vertex 1.659662e+02 -1.289000e+02 2.368052e+02
      vertex 1.659662e+02 -1.088661e+02 2.368052e+02
    endloop
  endfacet
  facet normal 0.000000e+00 -1.000000e+00 0.000000e+00
    outer loop
      vertex 1.455042e+02 -1.289000e+02 1.840679e+02
      vertex 1.792027e+02 -1.289000e+02 1.798071e+02
      vertex 1.606003e+02 -1.289000e+02 2.063740e+02
    endloop
  endfacet
  facet normal 8.191520e-01 4.417012e-15 5.735764e-01
    outer loop
      vertex 1.606003e+02 -1.088661e+02 2.063740e+02
      vertex 1.606003e+02 -1.289000e+02 2.063740e+02
      vertex 1.792027e+02 -1.289000e+02 1.798071e+02
    endloop
  endfacet
  facet normal 0.000000e+00 -1.000000e+00 0.000000e+00
    outer loop
      vertex 1.150730e+02 -1.289000e+02 1.894337e+02
      vertex 1.455042e+02 -1.289000e+02 1.840679e+02
      vertex 1.606003e+02 -1.289000e+02 2.063740e+02
    endloop
  endfacet
  facet normal 0.000000e+00 -1.000000e+00 0.000000e+00
    outer loop
      vertex 1.360779e+02 -1.289000e+02 2.007976e+02
      vertex 1.150730e+02 -1.289000e+02 1.894337e+02
      vertex 1.606003e+02 -1.289000e+02 2.063740e+02
    endloop
  endfacet
  facet normal -9.120177e-15 -1.000000e+00 4.010618e-14
    outer loop
      vertex 1.433448e+02 -1.289000e+02 2.031588e+02
      vertex 1.360779e+02 -1.289000e+02 2.007976e+02
      vertex 1.606003e+02 -1.289000e+02 2.063740e+02
    endloop
  endfacet
  facet normal 9.848078e-01 4.106860e-16 -1.736482e-01
    outer loop
      vertex 1.613127e+02 -1.088661e+02 2.104138e+02
      vertex 1.606003e+02 -1.289000e+02 2.063740e+02
      vertex 1.606003e+02 -1.088661e+02 2.063740e+02
    endloop
  endfacet
  facet normal 9.848078e-01 2.985013e-16 -1.736482e-01
    outer loop
      vertex 1.613127e+02 -1.088661e+02 2.104138e+02
      vertex 1.613127e+02 -1.254000e+02 2.104138e+02
      vertex 1.606003e+02 -1.289000e+02 2.063740e+02
    endloop
  endfacet
  facet normal 9.848078e-01 2.087391e-14 -1.736482e-01
    outer loop
      vertex 1.645214e+02 -1.254000e+02 2.286118e+02
      vertex 1.606003e+02 -1.289000e+02 2.063740e+02
      vertex 1.613127e+02 -1.254000e+02 2.104138e+02
    endloop
  endfacet
  facet normal 0.000000e+00 -1.000000e+00 0.000000e+00
    outer loop
      vertex 1.519547e+02 -1.289000e+02 1.748556e+02
      vertex 1.680725e+02 -1.289000e+02 1.720136e+02
      vertex 1.792027e+02 -1.289000e+02 1.798071e+02
    endloop
  endfacet
  facet normal 5.735764e-01 1.531183e-14 -8.191520e-01
    outer loop
      vertex 1.680725e+02 -1.254000e+02 1.720136e+02
      vertex 1.792027e+02 -1.289000e+02 1.798071e+02
      vertex 1.680725e+02 -1.289000e+02 1.720136e+02
    endloop
  endfacet
  facet normal 0.000000e+00 -1.000000e+00 0.000000e+00
    outer loop
      vertex 1.455042e+02 -1.289000e+02 1.840679e+02
      vertex 1.519547e+02 -1.289000e+02 1.748556e+02
      vertex 1.792027e+02 -1.289000e+02 1.798071e+02
    endloop
  endfacet
  facet normal 5.735764e-01 3.380079e-15 -8.191520e-01
    outer loop
      vertex 1.680725e+02 -1.088661e+02 1.720136e+02
      vertex 1.792027e+02 -1.289000e+02 1.798071e+02
      vertex 1.680725e+02 -1.254000e+02 1.720136e+02
    endloop
  endfacet
  facet normal 5.735764e-01 1.305139e-15 -8.191520e-01
    outer loop
      vertex 1.680725e+02 -1.088661e+02 1.720136e+02
      vertex 1.792027e+02 -1.088661e+02 1.798071e+02
      vertex 1.792027e+02 -1.289000e+02 1.798071e+02
    endloop
  endfacet
  facet normal 8.191520e-01 4.374295e-15 5.735764e-01
    outer loop
      vertex 1.606003e+02 -1.088661e+02 2.063740e+02
      vertex 1.792027e+02 -1.289000e+02 1.798071e+02
      vertex 1.792027e+02 -1.088661e+02 1.798071e+02
    endloop
  endfacet
  facet normal -1.736482e-01 -4.467945e-14 -9.848078e-01
    outer loop
      vertex 1.680725e+02 -1.254000e+02 1.720136e+02
      vertex 1.680725e+02 -1.289000e+02 1.720136e+02
      vertex 1.519547e+02 -1.289000e+02 1.748556e+02
    endloop
  endfacet
  facet normal -8.191520e-01 1.510512e-15 -5.735764e-01
    outer loop
      vertex 1.455042e+02 -1.088661e+02 1.840679e+02
      vertex 1.519547e+02 -1.289000e+02 1.748556e+02
      vertex 1.455042e+02 -1.289000e+02 1.840679e+02
    endloop
  endfacet
  facet normal -8.191520e-01 -2.660766e-14 -5.735764e-01
    outer loop
      vertex 1.519547e+02 -1.254000e+02 1.748556e+02
      vertex 1.519547e+02 -1.289000e+02 1.748556e+02
      vertex 1.455042e+02 -1.088661e+02 1.840679e+02
    endloop
  endfacet
  facet normal -1.736482e-01 -5.581867e-15 -9.848078e-01
    outer loop
      vertex 1.680725e+02 -1.254000e+02 1.720136e+02
      vertex 1.519547e+02 -1.289000e+02 1.748556e+02
      vertex 1.519547e+02 -1.254000e+02 1.748556e+02
    endloop
  endfacet
  facet normal -1.736482e-01 -9.044271e-16 -9.848078e-01
    outer loop
      vertex 1.455042e+02 -1.088661e+02 1.840679e+02
      vertex 1.455042e+02 -1.289000e+02 1.840679e+02
      vertex 1.150730e+02 -1.289000e+02 1.894337e+02
    endloop
  endfacet
  facet normal 0.000000e+00 -1.000000e+00 0.000000e+00
    outer loop
      vertex 1.211701e+02 -1.289000e+02 2.031588e+02
      vertex 1.149885e+02 -1.289000e+02 2.076500e+02
      vertex 1.150730e+02 -1.289000e+02 1.894337e+02
    endloop
  endfacet
  facet normal 0.000000e+00 -1.000000e+00 0.000000e+00
    outer loop
      vertex 1.284371e+02 -1.289000e+02 2.007976e+02
      vertex 1.211701e+02 -1.289000e+02 2.031588e+02
      vertex 1.150730e+02 -1.289000e+02 1.894337e+02
    endloop
  endfacet
  facet normal 0.000000e+00 -1.000000e+00 0.000000e+00
    outer loop
      vertex 1.360779e+02 -1.289000e+02 2.007976e+02
      vertex 1.284371e+02 -1.289000e+02 2.007976e+02
      vertex 1.150730e+02 -1.289000e+02 1.894337e+02
    endloop
  endfacet
  facet normal -1.736482e-01 -1.469160e-15 -9.848078e-01
    outer loop
      vertex 1.455042e+02 -1.088661e+02 1.840679e+02
      vertex 1.150730e+02 -1.289000e+02 1.894337e+02
      vertex 1.150730e+02 -1.088661e+02 1.894337e+02
    endloop
  endfacet
  facet normal 4.808410e-15 -1.000000e+00 9.581641e-16
    outer loop
      vertex 1.128218e+02 -1.088661e+02 1.859000e+02
      vertex 1.150730e+02 -1.088661e+02 1.894337e+02
      vertex 9.854883e+01 -1.088661e+02 2.130327e+02
    endloop
  endfacet
  facet normal 6.374817e-16 -1.000000e+00 3.615338e-15
    outer loop
      vertex 1.128218e+02 -1.088661e+02 1.859000e+02
      vertex 1.455042e+02 -1.088661e+02 1.840679e+02
      vertex 1.150730e+02 -1.088661e+02 1.894337e+02
    endloop
  endfacet
  facet normal -9.021594e-15 -1.000000e+00 -6.316988e-15
    outer loop
      vertex 1.128218e+02 -1.088661e+02 1.859000e+02
      vertex 9.854883e+01 -1.088661e+02 2.130327e+02
      vertex 8.894425e+01 -1.088661e+02 2.200006e+02
    endloop
  endfacet
  facet normal 5.270009e-16 -1.000000e+00 6.844852e-15
    outer loop
      vertex 9.999354e+01 -1.088661e+02 2.212261e+02
      vertex 8.894425e+01 -1.088661e+02 2.200006e+02
      vertex 9.854883e+01 -1.088661e+02 2.130327e+02
    endloop
  endfacet
  facet normal -9.848078e-01 -2.788767e-15 1.736482e-01
    outer loop
      vertex 9.999354e+01 -1.254000e+02 2.212261e+02
      vertex 9.999354e+01 -1.088661e+02 2.212261e+02
      vertex 9.854883e+01 -1.088661e+02 2.130327e+02
    endloop
  endfacet
  facet normal -8.191520e-01 -9.859782e-16 -5.735764e-01
    outer loop
      vertex 1.519547e+02 -1.088661e+02 1.748556e+02
      vertex 1.519547e+02 -1.254000e+02 1.748556e+02
      vertex 1.455042e+02 -1.088661e+02 1.840679e+02
    endloop
  endfacet
  facet normal 3.707325e-15 -1.000000e+00 5.681092e-15
    outer loop
      vertex 1.432529e+02 -1.088661e+02 1.805341e+02
      vertex 1.519547e+02 -1.088661e+02 1.748556e+02
      vertex 1.455042e+02 -1.088661e+02 1.840679e+02
    endloop
  endfacet
  facet normal 8.551391e-16 -1.000000e+00 7.498134e-15
    outer loop
      vertex 1.432529e+02 -1.088661e+02 1.805341e+02
      vertex 1.455042e+02 -1.088661e+02 1.840679e+02
      vertex 1.128218e+02 -1.088661e+02 1.859000e+02
    endloop
  endfacet
  facet normal -9.714488e-01 -4.028363e-16 -2.372494e-01
    outer loop
      vertex 1.544857e+02 -1.254000e+02 1.644921e+02
      vertex 1.519547e+02 -1.254000e+02 1.748556e+02
      vertex 1.519547e+02 -1.088661e+02 1.748556e+02
    endloop
  endfacet
  facet normal 6.501687e-15 -1.000000e+00 6.871188e-15
    outer loop
      vertex 1.621496e+02 -1.254000e+02 1.631407e+02
      vertex 1.680725e+02 -1.254000e+02 1.720136e+02
      vertex 1.519547e+02 -1.254000e+02 1.748556e+02
    endloop
  endfacet
  facet normal -1.086143e-14 -1.000000e+00 -2.652603e-15
    outer loop
      vertex 1.564948e+02 -1.254000e+02 1.616227e+02
      vertex 1.519547e+02 -1.254000e+02 1.748556e+02
      vertex 1.544857e+02 -1.254000e+02 1.644921e+02
    endloop
  endfacet
  facet normal 2.015519e-16 -1.000000e+00 1.143058e-15
    outer loop
      vertex 1.592803e+02 -1.254000e+02 1.611316e+02
      vertex 1.519547e+02 -1.254000e+02 1.748556e+02
      vertex 1.564948e+02 -1.254000e+02 1.616227e+02
    endloop
  endfacet
  facet normal -5.277839e-16 -1.000000e+00 7.537535e-16
    outer loop
      vertex 1.592803e+02 -1.254000e+02 1.611316e+02
      vertex 1.621496e+02 -1.254000e+02 1.631407e+02
      vertex 1.519547e+02 -1.254000e+02 1.748556e+02
    endloop
  endfacet
  facet normal 0.000000e+00 -1.000000e+00 0.000000e+00
    outer loop
      vertex 1.544857e+02 -1.088661e+02 1.644921e+02
      vertex 1.519547e+02 -1.088661e+02 1.748556e+02
      vertex 1.432529e+02 -1.088661e+02 1.805341e+02
    endloop
  endfacet
  facet normal -9.714488e-01 -6.327144e-15 -2.372494e-01
    outer loop
      vertex 1.544857e+02 -1.254000e+02 1.644921e+02
      vertex 1.519547e+02 -1.088661e+02 1.748556e+02
      vertex 1.544857e+02 -1.088661e+02 1.644921e+02
    endloop
  endfacet
  facet normal 8.317192e-01 3.786661e-15 -5.551966e-01
    outer loop
      vertex 1.621496e+02 -1.088661e+02 1.631407e+02
      vertex 1.680725e+02 -1.088661e+02 1.720136e+02
      vertex 1.680725e+02 -1.254000e+02 1.720136e+02
    endloop
  endfacet
  facet normal 8.317192e-01 7.605480e-15 -5.551966e-01
    outer loop
      vertex 1.621496e+02 -1.088661e+02 1.631407e+02
      vertex 1.680725e+02 -1.254000e+02 1.720136e+02
      vertex 1.621496e+02 -1.254000e+02 1.631407e+02
    endloop
  endfacet
  facet normal -8.422651e-15 -1.000000e+00 1.202879e-14
    outer loop
      vertex 1.829557e+02 -1.088661e+02 1.777093e+02
      vertex 1.792027e+02 -1.088661e+02 1.798071e+02
      vertex 1.680725e+02 -1.088661e+02 1.720136e+02
    endloop
  endfacet
  facet normal -9.021594e-15 -1.000000e+00 -6.316988e-15
    outer loop
      vertex 1.702049e+02 -1.088661e+02 1.994061e+02
      vertex 1.606003e+02 -1.088661e+02 2.063740e+02
      vertex 1.792027e+02 -1.088661e+02 1.798071e+02
    endloop
  endfacet
  facet normal -1.213814e-14 -1.000000e+00 -7.747776e-15
    outer loop
      vertex 1.834468e+02 -1.088661e+02 1.804947e+02
      vertex 1.702049e+02 -1.088661e+02 1.994061e+02
      vertex 1.792027e+02 -1.088661e+02 1.798071e+02
    endloop
  endfacet
  facet normal -1.378745e-14 -1.000000e+00 2.431100e-15
    outer loop
      vertex 1.834468e+02 -1.088661e+02 1.804947e+02
      vertex 1.792027e+02 -1.088661e+02 1.798071e+02
      vertex 1.829557e+02 -1.088661e+02 1.777093e+02
    endloop
  endfacet
  facet normal -8.422651e-15 -1.000000e+00 1.202879e-14
    outer loop
      vertex 1.829557e+02 -1.088661e+02 1.777093e+02
      vertex 1.680725e+02 -1.088661e+02 1.720136e+02
      vertex 1.621496e+02 -1.088661e+02 1.631407e+02
    endloop
  endfacet
  facet normal 6.285890e-15 -1.000000e+00 -1.869690e-14
    outer loop
      vertex 1.700006e+02 -1.088661e+02 2.133347e+02
      vertex 1.613127e+02 -1.088661e+02 2.104138e+02
      vertex 1.606003e+02 -1.088661e+02 2.063740e+02
    endloop
  endfacet
  facet normal -5.982783e-15 -1.000000e+00 -2.128273e-15
    outer loop
      vertex 1.702049e+02 -1.088661e+02 1.994061e+02
      vertex 1.700006e+02 -1.088661e+02 2.133347e+02
      vertex 1.606003e+02 -1.088661e+02 2.063740e+02
    endloop
  endfacet
  facet normal 3.186719e-01 1.617569e-15 -9.478651e-01
    outer loop
      vertex 1.700006e+02 -1.254000e+02 2.133347e+02
      vertex 1.613127e+02 -1.254000e+02 2.104138e+02
      vertex 1.613127e+02 -1.088661e+02 2.104138e+02
    endloop
  endfacet
  facet normal 5.461679e-16 -1.000000e+00 6.845984e-16
    outer loop
      vertex 1.716865e+02 -1.254000e+02 2.228956e+02
      vertex 1.645214e+02 -1.254000e+02 2.286118e+02
      vertex 1.613127e+02 -1.254000e+02 2.104138e+02
    endloop
  endfacet
  facet normal 0.000000e+00 -1.000000e+00 0.000000e+00
    outer loop
      vertex 1.730843e+02 -1.254000e+02 2.157358e+02
      vertex 1.613127e+02 -1.254000e+02 2.104138e+02
      vertex 1.700006e+02 -1.254000e+02 2.133347e+02
    endloop
  endfacet
  facet normal 0.000000e+00 -1.000000e+00 0.000000e+00
    outer loop
      vertex 1.737629e+02 -1.254000e+02 2.195847e+02
      vertex 1.613127e+02 -1.254000e+02 2.104138e+02
      vertex 1.730843e+02 -1.254000e+02 2.157358e+02
    endloop
  endfacet
  facet normal -2.162532e-15 -1.000000e+00 2.935845e-15
    outer loop
      vertex 1.716865e+02 -1.254000e+02 2.228956e+02
      vertex 1.613127e+02 -1.254000e+02 2.104138e+02
      vertex 1.737629e+02 -1.254000e+02 2.195847e+02
    endloop
  endfacet
  facet normal 3.186719e-01 3.806558e-15 -9.478651e-01
    outer loop
      vertex 1.700006e+02 -1.254000e+02 2.133347e+02
      vertex 1.613127e+02 -1.088661e+02 2.104138e+02
      vertex 1.700006e+02 -1.088661e+02 2.133347e+02
    endloop
  endfacet
  facet normal 9.848078e-01 7.070042e-15 -1.736482e-01
    outer loop
      vertex 1.645214e+02 -1.254000e+02 2.286118e+02
      vertex 1.645214e+02 -1.088661e+02 2.286118e+02
      vertex 1.659662e+02 -1.088661e+02 2.368052e+02
    endloop
  endfacet
  facet normal 0.000000e+00 -1.000000e+00 0.000000e+00
    outer loop
      vertex 1.716865e+02 -1.088661e+02 2.228956e+02
      vertex 1.659662e+02 -1.088661e+02 2.368052e+02
      vertex 1.645214e+02 -1.088661e+02 2.286118e+02
    endloop
  endfacet
  facet normal -1.783038e-15 -1.000000e+00 -2.457751e-15
    outer loop
      vertex 1.755707e+02 -1.088661e+02 2.298373e+02
      vertex 1.659662e+02 -1.088661e+02 2.368052e+02
      vertex 1.737629e+02 -1.088661e+02 2.195847e+02
    endloop
  endfacet
  facet normal 3.976087e-14 -1.000000e+00 1.635174e-14
    outer loop
      vertex 1.716865e+02 -1.088661e+02 2.228956e+02
      vertex 1.737629e+02 -1.088661e+02 2.195847e+02
      vertex 1.659662e+02 -1.088661e+02 2.368052e+02
    endloop
  endfacet
  facet normal 6.144700e-16 -1.000000e+00 8.469891e-16
    outer loop
      vertex 1.516932e+02 -1.088661e+02 2.639379e+02
      vertex 1.659662e+02 -1.088661e+02 2.368052e+02
      vertex 1.755707e+02 -1.088661e+02 2.298373e+02
    endloop
  endfacet
  facet normal -1.082281e-14 -1.000000e+00 -5.169489e-15
    outer loop
      vertex 1.494419e+02 -1.088661e+02 2.604042e+02
      vertex 1.659662e+02 -1.088661e+02 2.368052e+02
      vertex 1.516932e+02 -1.088661e+02 2.639379e+02
    endloop
  endfacet
  facet normal 6.236426e-01 2.953822e-15 7.817096e-01
    outer loop
      vertex 1.716865e+02 -1.088661e+02 2.228956e+02
      vertex 1.645214e+02 -1.088661e+02 2.286118e+02
      vertex 1.645214e+02 -1.254000e+02 2.286118e+02
    endloop
  endfacet
  facet normal 6.236426e-01 4.831602e-15 7.817096e-01
    outer loop
      vertex 1.716865e+02 -1.254000e+02 2.228956e+02
      vertex 1.716865e+02 -1.088661e+02 2.228956e+02
      vertex 1.645214e+02 -1.254000e+02 2.286118e+02
    endloop
  endfacet
  facet normal 6.143717e-01 3.766160e-15 -7.890168e-01
    outer loop
      vertex 1.730843e+02 -1.254000e+02 2.157358e+02
      vertex 1.700006e+02 -1.254000e+02 2.133347e+02
      vertex 1.700006e+02 -1.088661e+02 2.133347e+02
    endloop
  endfacet
  facet normal 6.143717e-01 4.224421e-15 -7.890168e-01
    outer loop
      vertex 1.730843e+02 -1.254000e+02 2.157358e+02
      vertex 1.700006e+02 -1.088661e+02 2.133347e+02
      vertex 1.730843e+02 -1.088661e+02 2.157358e+02
    endloop
  endfacet
  facet normal 1.570928e-15 -1.000000e+00 -2.017490e-15
    outer loop
      vertex 1.702049e+02 -1.088661e+02 1.994061e+02
      vertex 1.730843e+02 -1.088661e+02 2.157358e+02
      vertex 1.700006e+02 -1.088661e+02 2.133347e+02
    endloop
  endfacet
  facet normal 9.848078e-01 6.769467e-15 -1.736482e-01
    outer loop
      vertex 1.737629e+02 -1.254000e+02 2.195847e+02
      vertex 1.730843e+02 -1.254000e+02 2.157358e+02
      vertex 1.730843e+02 -1.088661e+02 2.157358e+02
    endloop
  endfacet
  facet normal 9.848078e-01 7.031093e-15 -1.736482e-01
    outer loop
      vertex 1.702049e+02 -1.088661e+02 1.994061e+02
      vertex 1.702049e+02 -8.100000e+01 1.994061e+02
      vertex 1.730843e+02 -1.088661e+02 2.157358e+02
    endloop
  endfacet
  facet normal 9.848078e-01 -7.861811e-15 -1.736482e-01
    outer loop
      vertex 1.737629e+02 -1.088661e+02 2.195847e+02
      vertex 1.730843e+02 -1.088661e+02 2.157358e+02
      vertex 1.702049e+02 -8.100000e+01 1.994061e+02
    endloop
  endfacet
  facet normal 9.848078e-01 1.194005e-15 -1.736482e-01
    outer loop
      vertex 1.737629e+02 -1.088661e+02 2.195847e+02
      vertex 1.737629e+02 -1.254000e+02 2.195847e+02
      vertex 1.730843e+02 -1.088661e+02 2.157358e+02
    endloop
  endfacet
  facet normal 9.848078e-01 1.773554e-15 -1.736482e-01
    outer loop
      vertex 1.755707e+02 -1.088661e+02 2.298373e+02
      vertex 1.702049e+02 -8.100000e+01 1.994061e+02
      vertex 1.755707e+02 -8.100000e+01 2.298373e+02
    endloop
  endfacet
  facet normal 1.030319e-14 1.000000e+00 -8.827609e-16
    outer loop
      vertex 1.741823e+02 -8.100000e+01 2.297302e+02
      vertex 1.755707e+02 -8.100000e+01 2.298373e+02
      vertex 1.702049e+02 -8.100000e+01 1.994061e+02
    endloop
  endfacet
  facet normal 8.191520e-01 6.664139e-15 5.735764e-01
    outer loop
      vertex 1.516932e+02 -8.100000e+01 2.639379e+02
      vertex 1.755707e+02 -1.088661e+02 2.298373e+02
      vertex 1.755707e+02 -8.100000e+01 2.298373e+02
    endloop
  endfacet
  facet normal 1.942155e-14 1.000000e+00 1.359912e-14
    outer loop
      vertex 1.511177e+02 -8.100000e+01 2.626698e+02
      vertex 1.516932e+02 -8.100000e+01 2.639379e+02
      vertex 1.755707e+02 -8.100000e+01 2.298373e+02
    endloop
  endfacet
  facet normal 9.742340e-15 1.000000e+00 6.390239e-15
    outer loop
      vertex 1.741823e+02 -8.100000e+01 2.297302e+02
      vertex 1.511177e+02 -8.100000e+01 2.626698e+02
      vertex 1.755707e+02 -8.100000e+01 2.298373e+02
    endloop
  endfacet
  facet normal 8.191520e-01 5.831606e-15 5.735764e-01
    outer loop
      vertex 1.834468e+02 -8.100000e+01 1.804947e+02
      vertex 1.702049e+02 -8.100000e+01 1.994061e+02
      vertex 1.702049e+02 -1.088661e+02 1.994061e+02
    endloop
  endfacet
  facet normal 9.848078e-01 1.775698e-14 -1.736482e-01
    outer loop
      vertex 1.755707e+02 -1.088661e+02 2.298373e+02
      vertex 1.737629e+02 -1.088661e+02 2.195847e+02
      vertex 1.702049e+02 -8.100000e+01 1.994061e+02
    endloop
  endfacet
  facet normal -1.262543e-16 1.000000e+00 -2.342736e-15
    outer loop
      vertex 1.370687e+02 -8.100000e+01 1.829941e+02
      vertex 1.702049e+02 -8.100000e+01 1.994061e+02
      vertex 1.834468e+02 -8.100000e+01 1.804947e+02
    endloop
  endfacet
  facet normal -3.353535e-15 1.000000e+00 4.173211e-15
    outer loop
      vertex 1.370687e+02 -8.100000e+01 1.829941e+02
      vertex 1.700084e+02 -8.100000e+01 2.060587e+02
      vertex 1.702049e+02 -8.100000e+01 1.994061e+02
    endloop
  endfacet
  facet normal -2.366850e-14 1.000000e+00 3.573059e-15
    outer loop
      vertex 1.741823e+02 -8.100000e+01 2.297302e+02
      vertex 1.702049e+02 -8.100000e+01 1.994061e+02
      vertex 1.700084e+02 -8.100000e+01 2.060587e+02
    endloop
  endfacet
  facet normal 8.191520e-01 3.257865e-15 5.735764e-01
    outer loop
      vertex 1.834468e+02 -1.088661e+02 1.804947e+02
      vertex 1.834468e+02 -8.100000e+01 1.804947e+02
      vertex 1.702049e+02 -1.088661e+02 1.994061e+02
    endloop
  endfacet
  facet normal 8.471802e-01 -3.656199e-15 5.313057e-01
    outer loop
      vertex 1.716865e+02 -1.254000e+02 2.228956e+02
      vertex 1.737629e+02 -1.254000e+02 2.195847e+02
      vertex 1.737629e+02 -1.088661e+02 2.195847e+02
    endloop
  endfacet
  facet normal 8.471802e-01 4.739236e-15 5.313057e-01
    outer loop
      vertex 1.716865e+02 -1.254000e+02 2.228956e+02
      vertex 1.737629e+02 -1.088661e+02 2.195847e+02
      vertex 1.716865e+02 -1.088661e+02 2.228956e+02
    endloop
  endfacet
  facet normal 8.191520e-01 7.020142e-15 5.735764e-01
    outer loop
      vertex 1.516932e+02 -1.088661e+02 2.639379e+02
      vertex 1.755707e+02 -1.088661e+02 2.298373e+02
      vertex 1.516932e+02 -8.100000e+01 2.639379e+02
    endloop
  endfacet
  facet normal -1.942155e-14 1.000000e+00 -1.359912e-14
    outer loop
      vertex 1.133973e+02 -8.100000e+01 1.871681e+02
      vertex 1.128218e+02 -8.100000e+01 1.859000e+02
      vertex 8.894425e+01 -8.100000e+01 2.200006e+02
    endloop
  endfacet
  facet normal -8.191520e-01 -6.182057e-15 -5.735764e-01
    outer loop
      vertex 8.894425e+01 -1.088661e+02 2.200006e+02
      vertex 8.894425e+01 -8.100000e+01 2.200006e+02
      vertex 1.128218e+02 -8.100000e+01 1.859000e+02
    endloop
  endfacet
  facet normal -2.066116e-14 1.000000e+00 2.476098e-15
    outer loop
      vertex 9.033269e+01 -8.100000e+01 2.201077e+02
      vertex 8.894425e+01 -8.100000e+01 2.200006e+02
      vertex 9.323852e+01 -8.100000e+01 2.443547e+02
    endloop
  endfacet
  facet normal -9.848078e-01 -1.007353e-14 1.736482e-01
    outer loop
      vertex 8.894425e+01 -1.088661e+02 2.200006e+02
      vertex 9.323852e+01 -8.100000e+01 2.443547e+02
      vertex 8.894425e+01 -8.100000e+01 2.200006e+02
    endloop
  endfacet
  facet normal -1.942155e-14 1.000000e+00 -1.359912e-14
    outer loop
      vertex 9.033269e+01 -8.100000e+01 2.201077e+02
      vertex 1.133973e+02 -8.100000e+01 1.871681e+02
      vertex 8.894425e+01 -8.100000e+01 2.200006e+02
    endloop
  endfacet
  facet normal 1.520167e-16 1.000000e+00 6.158929e-15
    outer loop
      vertex 1.370687e+02 -8.100000e+01 1.829941e+02
      vertex 1.432529e+02 -8.100000e+01 1.805341e+02
      vertex 1.128218e+02 -8.100000e+01 1.859000e+02
    endloop
  endfacet
  facet normal -1.736482e-01 -4.903318e-15 -9.848078e-01
    outer loop
      vertex 1.128218e+02 -1.088661e+02 1.859000e+02
      vertex 1.128218e+02 -8.100000e+01 1.859000e+02
      vertex 1.432529e+02 -8.100000e+01 1.805341e+02
    endloop
  endfacet
  facet normal -3.103351e-15 1.000000e+00 -2.100466e-14
    outer loop
      vertex 1.133973e+02 -8.100000e+01 1.871681e+02
      vertex 1.370687e+02 -8.100000e+01 1.829941e+02
      vertex 1.128218e+02 -8.100000e+01 1.859000e+02
    endloop
  endfacet
  facet normal -8.191520e-01 -6.517465e-15 -5.735764e-01
    outer loop
      vertex 1.128218e+02 -1.088661e+02 1.859000e+02
      vertex 8.894425e+01 -1.088661e+02 2.200006e+02
      vertex 1.128218e+02 -8.100000e+01 1.859000e+02
    endloop
  endfacet
  facet normal 3.766983e-16 1.000000e+00 2.637670e-16
    outer loop
      vertex 1.829557e+02 -8.100000e+01 1.777093e+02
      vertex 1.564948e+02 -8.100000e+01 1.616227e+02
      vertex 1.432529e+02 -8.100000e+01 1.805341e+02
    endloop
  endfacet
  facet normal -8.191520e-01 -2.227718e-14 -5.735764e-01
    outer loop
      vertex 1.544857e+02 -1.088661e+02 1.644921e+02
      vertex 1.432529e+02 -8.100000e+01 1.805341e+02
      vertex 1.564948e+02 -8.100000e+01 1.616227e+02
    endloop
  endfacet
  facet normal 3.534963e-16 1.000000e+00 -6.233094e-17
    outer loop
      vertex 1.834468e+02 -8.100000e+01 1.804947e+02
      vertex 1.829557e+02 -8.100000e+01 1.777093e+02
      vertex 1.432529e+02 -8.100000e+01 1.805341e+02
    endloop
  endfacet
  facet normal 3.601077e-16 1.000000e+00 6.682047e-15
    outer loop
      vertex 1.370687e+02 -8.100000e+01 1.829941e+02
      vertex 1.834468e+02 -8.100000e+01 1.804947e+02
      vertex 1.432529e+02 -8.100000e+01 1.805341e+02
    endloop
  endfacet
  facet normal -1.736482e-01 -7.385313e-15 -9.848078e-01
    outer loop
      vertex 1.432529e+02 -1.088661e+02 1.805341e+02
      vertex 1.128218e+02 -1.088661e+02 1.859000e+02
      vertex 1.432529e+02 -8.100000e+01 1.805341e+02
    endloop
  endfacet
  facet normal -8.191520e-01 -5.728891e-15 -5.735764e-01
    outer loop
      vertex 1.544857e+02 -1.088661e+02 1.644921e+02
      vertex 1.432529e+02 -1.088661e+02 1.805341e+02
      vertex 1.432529e+02 -8.100000e+01 1.805341e+02
    endloop
  endfacet
  facet normal 1.207460e-16 1.000000e+00 6.847845e-16
    outer loop
      vertex 1.829557e+02 -8.100000e+01 1.777093e+02
      vertex 1.592803e+02 -8.100000e+01 1.611316e+02
      vertex 1.564948e+02 -8.100000e+01 1.616227e+02
    endloop
  endfacet
  facet normal -1.736482e-01 -1.000414e-15 -9.848078e-01
    outer loop
      vertex 1.592803e+02 -1.254000e+02 1.611316e+02
      vertex 1.564948e+02 -8.100000e+01 1.616227e+02
      vertex 1.592803e+02 -8.100000e+01 1.611316e+02
    endloop
  endfacet
  facet normal -8.191520e-01 -3.513339e-15 -5.735764e-01
    outer loop
      vertex 1.564948e+02 -1.254000e+02 1.616227e+02
      vertex 1.544857e+02 -1.088661e+02 1.644921e+02
      vertex 1.564948e+02 -8.100000e+01 1.616227e+02
    endloop
  endfacet
  facet normal -1.736482e-01 -1.297802e-15 -9.848078e-01
    outer loop
      vertex 1.592803e+02 -1.254000e+02 1.611316e+02
      vertex 1.564948e+02 -1.254000e+02 1.616227e+02
      vertex 1.564948e+02 -8.100000e+01 1.616227e+02
    endloop
  endfacet
  facet normal 5.735764e-01 6.601533e-15 -8.191520e-01
    outer loop
      vertex 1.829557e+02 -1.088661e+02 1.777093e+02
      vertex 1.592803e+02 -8.100000e+01 1.611316e+02
      vertex 1.829557e+02 -8.100000e+01 1.777093e+02
    endloop
  endfacet
  facet normal 5.735764e-01 3.304464e-15 -8.191520e-01
    outer loop
      vertex 1.592803e+02 -1.254000e+02 1.611316e+02
      vertex 1.592803e+02 -8.100000e+01 1.611316e+02
      vertex 1.621496e+02 -1.254000e+02 1.631407e+02
    endloop
  endfacet
  facet normal 5.735764e-01 -6.754314e-15 -8.191520e-01
    outer loop
      vertex 1.621496e+02 -1.088661e+02 1.631407e+02
      vertex 1.621496e+02 -1.254000e+02 1.631407e+02
      vertex 1.592803e+02 -8.100000e+01 1.611316e+02
    endloop
  endfacet
  facet normal 5.735764e-01 3.533709e-15 -8.191520e-01
    outer loop
      vertex 1.829557e+02 -1.088661e+02 1.777093e+02
      vertex 1.621496e+02 -1.088661e+02 1.631407e+02
      vertex 1.592803e+02 -8.100000e+01 1.611316e+02
    endloop
  endfacet
  facet normal 9.848078e-01 6.557982e-15 -1.736482e-01
    outer loop
      vertex 1.834468e+02 -1.088661e+02 1.804947e+02
      vertex 1.829557e+02 -8.100000e+01 1.777093e+02
      vertex 1.834468e+02 -8.100000e+01 1.804947e+02
    endloop
  endfacet
  facet normal 9.848078e-01 7.561377e-15 -1.736482e-01
    outer loop
      vertex 1.834468e+02 -1.088661e+02 1.804947e+02
      vertex 1.829557e+02 -1.088661e+02 1.777093e+02
      vertex 1.829557e+02 -8.100000e+01 1.777093e+02
    endloop
  endfacet
  facet normal -5.493851e-17 1.000000e+00 -1.023935e-14
    outer loop
      vertex 1.274462e+02 -8.100000e+01 2.668437e+02
      vertex 1.273392e+02 -8.100000e+01 2.682322e+02
      vertex 1.516932e+02 -8.100000e+01 2.639379e+02
    endloop
  endfacet
  facet normal 1.736482e-01 1.859657e-15 9.848078e-01
    outer loop
      vertex 1.273392e+02 -1.088661e+02 2.682322e+02
      vertex 1.516932e+02 -8.100000e+01 2.639379e+02
      vertex 1.273392e+02 -8.100000e+01 2.682322e+02
    endloop
  endfacet
  facet normal 3.659208e-15 1.000000e+00 2.075240e-14
    outer loop
      vertex 1.511177e+02 -8.100000e+01 2.626698e+02
      vertex 1.274462e+02 -8.100000e+01 2.668437e+02
      vertex 1.516932e+02 -8.100000e+01 2.639379e+02
    endloop
  endfacet
  facet normal 1.736482e-01 1.205330e-14 9.848078e-01
    outer loop
      vertex 1.516932e+02 -1.088661e+02 2.639379e+02
      vertex 1.516932e+02 -8.100000e+01 2.639379e+02
      vertex 1.273392e+02 -1.088661e+02 2.682322e+02
    endloop
  endfacet
  facet normal 5.613408e-15 1.000000e+00 -9.802244e-15
    outer loop
      vertex 1.274462e+02 -8.100000e+01 2.668437e+02
      vertex 9.323852e+01 -8.100000e+01 2.443547e+02
      vertex 1.273392e+02 -8.100000e+01 2.682322e+02
    endloop
  endfacet
  facet normal -5.735764e-01 -6.142624e-15 8.191520e-01
    outer loop
      vertex 1.273392e+02 -1.088661e+02 2.682322e+02
      vertex 1.273392e+02 -8.100000e+01 2.682322e+02
      vertex 9.323852e+01 -8.100000e+01 2.443547e+02
    endloop
  endfacet
  facet normal -1.062846e-14 1.000000e+00 1.273747e-15
    outer loop
      vertex 9.450661e+01 -8.100000e+01 2.437792e+02
      vertex 9.033269e+01 -8.100000e+01 2.201077e+02
      vertex 9.323852e+01 -8.100000e+01 2.443547e+02
    endloop
  endfacet
  facet normal -6.969215e-15 1.000000e+00 9.336937e-15
    outer loop
      vertex 1.274462e+02 -8.100000e+01 2.668437e+02
      vertex 9.450661e+01 -8.100000e+01 2.437792e+02
      vertex 9.323852e+01 -8.100000e+01 2.443547e+02
    endloop
  endfacet
  facet normal -9.848078e-01 8.327411e-16 1.736482e-01
    outer loop
      vertex 9.075206e+01 -1.088661e+02 2.302532e+02
      vertex 9.323852e+01 -8.100000e+01 2.443547e+02
      vertex 8.894425e+01 -1.088661e+02 2.200006e+02
    endloop
  endfacet
  facet normal -9.848078e-01 -7.237500e-15 1.736482e-01
    outer loop
      vertex 9.143071e+01 -1.088661e+02 2.341021e+02
      vertex 9.323852e+01 -1.088661e+02 2.443547e+02
      vertex 9.323852e+01 -8.100000e+01 2.443547e+02
    endloop
  endfacet
  facet normal -5.735764e-01 -7.154149e-15 8.191520e-01
    outer loop
      vertex 1.273392e+02 -1.088661e+02 2.682322e+02
      vertex 9.323852e+01 -8.100000e+01 2.443547e+02
      vertex 9.323852e+01 -1.088661e+02 2.443547e+02
    endloop
  endfacet
  facet normal -9.848078e-01 -1.508750e-14 1.736482e-01
    outer loop
      vertex 9.075206e+01 -1.088661e+02 2.302532e+02
      vertex 9.143071e+01 -1.088661e+02 2.341021e+02
      vertex 9.323852e+01 -8.100000e+01 2.443547e+02
    endloop
  endfacet
  facet normal 5.735764e-01 7.575101e-15 -8.191520e-01
    outer loop
      vertex 1.384690e+02 -3.367076e+01 1.839746e+02
      vertex 1.700084e+02 -8.100000e+01 2.060587e+02
      vertex 1.370687e+02 -8.100000e+01 1.829941e+02
    endloop
  endfacet
  facet normal 9.848078e-01 7.265629e-15 -1.736482e-01
    outer loop
      vertex 1.700084e+02 5.950000e+01 2.060587e+02
      vertex 1.741823e+02 -8.100000e+01 2.297302e+02
      vertex 1.700084e+02 -8.100000e+01 2.060587e+02
    endloop
  endfacet
  facet normal 5.735764e-01 3.796096e-15 -8.191520e-01
    outer loop
      vertex 1.686081e+02 5.167076e+01 2.050782e+02
      vertex 1.700084e+02 5.950000e+01 2.060587e+02
      vertex 1.700084e+02 -8.100000e+01 2.060587e+02
    endloop
  endfacet
  facet normal 5.735764e-01 7.787301e-15 -8.191520e-01
    outer loop
      vertex 1.686081e+02 -3.367076e+01 2.050782e+02
      vertex 1.700084e+02 -8.100000e+01 2.060587e+02
      vertex 1.384690e+02 -3.367076e+01 1.839746e+02
    endloop
  endfacet
  facet normal 5.735764e-01 2.184715e-16 -8.191520e-01
    outer loop
      vertex 1.686081e+02 -3.367076e+01 2.050782e+02
      vertex 1.686081e+02 5.167076e+01 2.050782e+02
      vertex 1.700084e+02 -8.100000e+01 2.060587e+02
    endloop
  endfacet
  facet normal -1.736482e-01 -1.739285e-15 -9.848078e-01
    outer loop
      vertex 1.133973e+02 5.950000e+01 1.871681e+02
      vertex 1.370687e+02 -8.100000e+01 1.829941e+02
      vertex 1.133973e+02 -8.100000e+01 1.871681e+02
    endloop
  endfacet
  facet normal -1.736482e-01 -1.957038e-15 -9.848078e-01
    outer loop
      vertex 1.370687e+02 5.950000e+01 1.829941e+02
      vertex 1.370687e+02 -8.100000e+01 1.829941e+02
      vertex 1.133973e+02 5.950000e+01 1.871681e+02
    endloop
  endfacet
  facet normal 5.735764e-01 -1.773237e-15 -8.191520e-01
    outer loop
      vertex 1.384690e+02 -3.367076e+01 1.839746e+02
      vertex 1.370687e+02 -8.100000e+01 1.829941e+02
      vertex 1.370687e+02 5.950000e+01 1.829941e+02
    endloop
  endfacet
  facet normal -8.191520e-01 -6.164300e-15 -5.735764e-01
    outer loop
      vertex 9.033269e+01 5.950000e+01 2.201077e+02
      vertex 1.133973e+02 -8.100000e+01 1.871681e+02
      vertex 9.033269e+01 -8.100000e+01 2.201077e+02
    endloop
  endfacet
  facet normal -8.191520e-01 -5.733533e-15 -5.735764e-01
    outer loop
      vertex 1.133973e+02 5.950000e+01 1.871681e+02
      vertex 1.133973e+02 -8.100000e+01 1.871681e+02
      vertex 9.033269e+01 5.950000e+01 2.201077e+02
    endloop
  endfacet
  facet normal -9.848078e-01 -6.011623e-15 1.736482e-01
    outer loop
      vertex 9.450661e+01 5.950000e+01 2.437792e+02
      vertex 9.033269e+01 -8.100000e+01 2.201077e+02
      vertex 9.450661e+01 -8.100000e+01 2.437792e+02
    endloop
  endfacet
  facet normal -9.848078e-01 -7.236275e-15 1.736482e-01
    outer loop
      vertex 9.033269e+01 5.950000e+01 2.201077e+02
      vertex 9.033269e+01 -8.100000e+01 2.201077e+02
      vertex 9.450661e+01 5.950000e+01 2.437792e+02
    endloop
  endfacet
  facet normal -5.735764e-01 2.233765e-16 8.191520e-01
    outer loop
      vertex 1.274462e+02 5.950000e+01 2.668437e+02
      vertex 9.450661e+01 -8.100000e+01 2.437792e+02
      vertex 1.274462e+02 -8.100000e+01 2.668437e+02
    endloop
  endfacet
  facet normal -5.735764e-01 -3.646565e-15 8.191520e-01
    outer loop
      vertex 9.450661e+01 5.950000e+01 2.437792e+02
      vertex 9.450661e+01 -8.100000e+01 2.437792e+02
      vertex 1.274462e+02 5.950000e+01 2.668437e+02
    endloop
  endfacet
  facet normal 1.736482e-01 1.839623e-15 9.848078e-01
    outer loop
      vertex 1.511177e+02 5.950000e+01 2.626698e+02
      vertex 1.274462e+02 -8.100000e+01 2.668437e+02
      vertex 1.511177e+02 -8.100000e+01 2.626698e+02
    endloop
  endfacet
  facet normal 1.736482e-01 1.927441e-15 9.848078e-01
    outer loop
      vertex 1.274462e+02 5.950000e+01 2.668437e+02
      vertex 1.274462e+02 -8.100000e+01 2.668437e+02
      vertex 1.511177e+02 5.950000e+01 2.626698e+02
    endloop
  endfacet
  facet normal 8.191520e-01 6.412859e-15 5.735764e-01
    outer loop
      vertex 1.741823e+02 5.950000e+01 2.297302e+02
      vertex 1.511177e+02 -8.100000e+01 2.626698e+02
      vertex 1.741823e+02 -8.100000e+01 2.297302e+02
    endloop
  endfacet
  facet normal 8.191520e-01 2.088171e-15 5.735764e-01
    outer loop
      vertex 1.511177e+02 5.950000e+01 2.626698e+02
      vertex 1.511177e+02 -8.100000e+01 2.626698e+02
      vertex 1.741823e+02 5.950000e+01 2.297302e+02
    endloop
  endfacet
  facet normal 9.848078e-01 7.536431e-15 -1.736482e-01
    outer loop
      vertex 1.700084e+02 5.950000e+01 2.060587e+02
      vertex 1.741823e+02 5.950000e+01 2.297302e+02
      vertex 1.741823e+02 -8.100000e+01 2.297302e+02
    endloop
  endfacet
  facet normal -1.891687e-15 -1.000000e+00 3.105704e-15
    outer loop
      vertex 9.282851e+01 -1.088661e+02 2.269423e+02
      vertex 9.075206e+01 -1.088661e+02 2.302532e+02
      vertex 8.894425e+01 -1.088661e+02 2.200006e+02
    endloop
  endfacet
  facet normal 1.129162e-15 -1.000000e+00 1.415357e-15
    outer loop
      vertex 9.999354e+01 -1.088661e+02 2.212261e+02
      vertex 9.282851e+01 -1.088661e+02 2.269423e+02
      vertex 8.894425e+01 -1.088661e+02 2.200006e+02
    endloop
  endfacet
  facet normal 0.000000e+00 -1.000000e+00 0.000000e+00
    outer loop
      vertex 9.451436e+01 -1.088661e+02 2.365032e+02
      vertex 9.323852e+01 -1.088661e+02 2.443547e+02
      vertex 9.143071e+01 -1.088661e+02 2.341021e+02
    endloop
  endfacet
  facet normal 0.000000e+00 -1.000000e+00 0.000000e+00
    outer loop
      vertex 1.032023e+02 -1.088661e+02 2.394240e+02
      vertex 9.323852e+01 -1.088661e+02 2.443547e+02
      vertex 9.451436e+01 -1.088661e+02 2.365032e+02
    endloop
  endfacet
  facet normal 8.134925e-15 -1.000000e+00 -1.102272e-14
    outer loop
      vertex 1.046470e+02 -1.088661e+02 2.476174e+02
      vertex 1.273392e+02 -1.088661e+02 2.682322e+02
      vertex 9.323852e+01 -1.088661e+02 2.443547e+02
    endloop
  endfacet
  facet normal 3.157644e-15 -1.000000e+00 6.380998e-15
    outer loop
      vertex 1.032023e+02 -1.088661e+02 2.394240e+02
      vertex 1.046470e+02 -1.088661e+02 2.476174e+02
      vertex 9.323852e+01 -1.088661e+02 2.443547e+02
    endloop
  endfacet
  facet normal -9.848078e-01 -7.319271e-15 1.736482e-01
    outer loop
      vertex 9.075206e+01 -1.254000e+02 2.302532e+02
      vertex 9.143071e+01 -1.254000e+02 2.341021e+02
      vertex 9.143071e+01 -1.088661e+02 2.341021e+02
    endloop
  endfacet
  facet normal -6.143717e-01 -3.395042e-15 7.890168e-01
    outer loop
      vertex 9.451436e+01 -1.088661e+02 2.365032e+02
      vertex 9.143071e+01 -1.088661e+02 2.341021e+02
      vertex 9.143071e+01 -1.254000e+02 2.341021e+02
    endloop
  endfacet
  facet normal -9.848078e-01 -5.328095e-15 1.736482e-01
    outer loop
      vertex 9.075206e+01 -1.088661e+02 2.302532e+02
      vertex 9.075206e+01 -1.254000e+02 2.302532e+02
      vertex 9.143071e+01 -1.088661e+02 2.341021e+02
    endloop
  endfacet
  facet normal 0.000000e+00 -1.000000e+00 0.000000e+00
    outer loop
      vertex 1.032023e+02 -1.254000e+02 2.394240e+02
      vertex 9.143071e+01 -1.254000e+02 2.341021e+02
      vertex 9.075206e+01 -1.254000e+02 2.302532e+02
    endloop
  endfacet
  facet normal 0.000000e+00 -1.000000e+00 0.000000e+00
    outer loop
      vertex 1.032023e+02 -1.254000e+02 2.394240e+02
      vertex 9.451436e+01 -1.254000e+02 2.365032e+02
      vertex 9.143071e+01 -1.254000e+02 2.341021e+02
    endloop
  endfacet
  facet normal -6.143717e-01 -1.356320e-15 7.890168e-01
    outer loop
      vertex 9.451436e+01 -1.088661e+02 2.365032e+02
      vertex 9.143071e+01 -1.254000e+02 2.341021e+02
      vertex 9.451436e+01 -1.254000e+02 2.365032e+02
    endloop
  endfacet
  facet normal -8.471802e-01 -6.927536e-15 -5.313057e-01
    outer loop
      vertex 9.282851e+01 -1.254000e+02 2.269423e+02
      vertex 9.075206e+01 -1.254000e+02 2.302532e+02
      vertex 9.075206e+01 -1.088661e+02 2.302532e+02
    endloop
  endfacet
  facet normal 0.000000e+00 -1.000000e+00 0.000000e+00
    outer loop
      vertex 1.032023e+02 -1.254000e+02 2.394240e+02
      vertex 9.075206e+01 -1.254000e+02 2.302532e+02
      vertex 9.282851e+01 -1.254000e+02 2.269423e+02
    endloop
  endfacet
  facet normal -8.471802e-01 -4.011084e-15 -5.313057e-01
    outer loop
      vertex 9.282851e+01 -1.254000e+02 2.269423e+02
      vertex 9.075206e+01 -1.088661e+02 2.302532e+02
      vertex 9.282851e+01 -1.088661e+02 2.269423e+02
    endloop
  endfacet
  facet normal -8.191520e-01 2.676108e-14 -5.735764e-01
    outer loop
      vertex 1.564948e+02 -1.254000e+02 1.616227e+02
      vertex 1.544857e+02 -1.254000e+02 1.644921e+02
      vertex 1.544857e+02 -1.088661e+02 1.644921e+02
    endloop
  endfacet
  facet normal -6.236426e-01 -4.831602e-15 -7.817096e-01
    outer loop
      vertex 9.999354e+01 -1.254000e+02 2.212261e+02
      vertex 9.282851e+01 -1.088661e+02 2.269423e+02
      vertex 9.999354e+01 -1.088661e+02 2.212261e+02
    endloop
  endfacet
  facet normal -6.236426e-01 -4.266632e-15 -7.817096e-01
    outer loop
      vertex 9.999354e+01 -1.254000e+02 2.212261e+02
      vertex 9.282851e+01 -1.254000e+02 2.269423e+02
      vertex 9.282851e+01 -1.088661e+02 2.269423e+02
    endloop
  endfacet
  facet normal 0.000000e+00 -1.000000e+00 0.000000e+00
    outer loop
      vertex 9.999354e+01 -1.254000e+02 2.212261e+02
      vertex 1.032023e+02 -1.254000e+02 2.394240e+02
      vertex 9.282851e+01 -1.254000e+02 2.269423e+02
    endloop
  endfacet
  facet normal -3.186719e-01 -1.903279e-15 9.478651e-01
    outer loop
      vertex 1.032023e+02 -1.088661e+02 2.394240e+02
      vertex 9.451436e+01 -1.254000e+02 2.365032e+02
      vertex 1.032023e+02 -1.254000e+02 2.394240e+02
    endloop
  endfacet
  facet normal -3.186719e-01 -1.617569e-15 9.478651e-01
    outer loop
      vertex 1.032023e+02 -1.088661e+02 2.394240e+02
      vertex 9.451436e+01 -1.088661e+02 2.365032e+02
      vertex 9.451436e+01 -1.254000e+02 2.365032e+02
    endloop
  endfacet
  facet normal -1.912445e-15 -1.000000e+00 -1.084602e-14
    outer loop
      vertex 1.494419e+02 -1.088661e+02 2.604042e+02
      vertex 1.516932e+02 -1.088661e+02 2.639379e+02
      vertex 1.273392e+02 -1.088661e+02 2.682322e+02
    endloop
  endfacet
  facet normal -1.912445e-15 -1.000000e+00 -1.084602e-14
    outer loop
      vertex 1.282460e+02 -1.088661e+02 2.641416e+02
      vertex 1.494419e+02 -1.088661e+02 2.604042e+02
      vertex 1.273392e+02 -1.088661e+02 2.682322e+02
    endloop
  endfacet
  facet normal 6.316988e-15 -1.000000e+00 -9.021594e-15
    outer loop
      vertex 1.046470e+02 -1.088661e+02 2.476174e+02
      vertex 1.282460e+02 -1.088661e+02 2.641416e+02
      vertex 1.273392e+02 -1.088661e+02 2.682322e+02
    endloop
  endfacet
  facet normal 2.973851e-16 -1.000000e+00 7.151605e-15
    outer loop
      vertex 1.877891e+02 5.950000e+01 2.083000e+02
      vertex 1.741823e+02 5.950000e+01 2.297302e+02
      vertex 1.700084e+02 5.950000e+01 2.060587e+02
    endloop
  endfacet
  facet normal 6.011181e-15 -1.000000e+00 7.577053e-16
    outer loop
      vertex 1.488765e+02 5.950000e+01 2.804506e+02
      vertex 1.511177e+02 5.950000e+01 2.626698e+02
      vertex 1.741823e+02 5.950000e+01 2.297302e+02
    endloop
  endfacet
  facet normal -6.767376e-14 -1.000000e+00 -3.600579e-14
    outer loop
      vertex 1.488765e+02 5.950000e+01 2.804506e+02
      vertex 1.741823e+02 5.950000e+01 2.297302e+02
      vertex 1.877891e+02 5.950000e+01 2.083000e+02
    endloop
  endfacet
  facet normal 5.735764e-01 1.446686e-14 -8.191520e-01
    outer loop
      vertex 1.686081e+02 5.167076e+01 2.050782e+02
      vertex 1.370687e+02 5.950000e+01 1.829941e+02
      vertex 1.700084e+02 5.950000e+01 2.060587e+02
    endloop
  endfacet
  facet normal 1.651457e-15 -1.000000e+00 -3.590791e-15
    outer loop
      vertex 1.877891e+02 5.950000e+01 2.083000e+02
      vertex 1.700084e+02 5.950000e+01 2.060587e+02
      vertex 1.370687e+02 5.950000e+01 1.829941e+02
    endloop
  endfacet
  facet normal 7.206431e-17 -1.000000e+00 4.086970e-16
    outer loop
      vertex 1.356337e+02 5.950000e+01 2.827856e+02
      vertex 1.274462e+02 5.950000e+01 2.668437e+02
      vertex 1.511177e+02 5.950000e+01 2.626698e+02
    endloop
  endfacet
  facet normal -5.487486e-16 -1.000000e+00 -6.916939e-17
    outer loop
      vertex 1.488765e+02 5.950000e+01 2.804506e+02
      vertex 1.356337e+02 5.950000e+01 2.827856e+02
      vertex 1.511177e+02 5.950000e+01 2.626698e+02
    endloop
  endfacet
  facet normal 7.878432e-15 -1.000000e+00 -1.494837e-14
    outer loop
      vertex 7.672586e+01 5.950000e+01 2.415379e+02
      vertex 9.450661e+01 5.950000e+01 2.437792e+02
      vertex 1.274462e+02 5.950000e+01 2.668437e+02
    endloop
  endfacet
  facet normal 2.660728e-16 -1.000000e+00 3.090578e-16
    outer loop
      vertex 1.356337e+02 5.950000e+01 2.827856e+02
      vertex 7.672586e+01 5.950000e+01 2.415379e+02
      vertex 1.274462e+02 5.950000e+01 2.668437e+02
    endloop
  endfacet
  facet normal 6.130455e-15 -1.000000e+00 -1.080965e-15
    outer loop
      vertex 7.672586e+01 5.950000e+01 2.415379e+02
      vertex 9.033269e+01 5.950000e+01 2.201077e+02
      vertex 9.450661e+01 5.950000e+01 2.437792e+02
    endloop
  endfacet
  facet normal -3.227187e-15 -1.000000e+00 1.191669e-15
    outer loop
      vertex 1.156385e+02 5.950000e+01 1.693873e+02
      vertex 1.133973e+02 5.950000e+01 1.871681e+02
      vertex 9.033269e+01 5.950000e+01 2.201077e+02
    endloop
  endfacet
  facet normal 5.716704e-14 -1.000000e+00 3.132405e-14
    outer loop
      vertex 7.672586e+01 5.950000e+01 2.415379e+02
      vertex 1.156385e+02 5.950000e+01 1.693873e+02
      vertex 9.033269e+01 5.950000e+01 2.201077e+02
    endloop
  endfacet
  facet normal 3.603216e-16 -1.000000e+00 2.043485e-15
    outer loop
      vertex 1.288813e+02 5.950000e+01 1.670523e+02
      vertex 1.370687e+02 5.950000e+01 1.829941e+02
      vertex 1.133973e+02 5.950000e+01 1.871681e+02
    endloop
  endfacet
  facet normal -2.604914e-16 -1.000000e+00 1.565619e-15
    outer loop
      vertex 1.156385e+02 5.950000e+01 1.693873e+02
      vertex 1.288813e+02 5.950000e+01 1.670523e+02
      vertex 1.133973e+02 5.950000e+01 1.871681e+02
    endloop
  endfacet
  facet normal 5.735764e-01 1.691739e-15 -8.191520e-01
    outer loop
      vertex 1.384690e+02 5.167076e+01 1.839746e+02
      vertex 1.384690e+02 -3.367076e+01 1.839746e+02
      vertex 1.370687e+02 5.950000e+01 1.829941e+02
    endloop
  endfacet
  facet normal 5.735764e-01 -9.708668e-14 -8.191520e-01
    outer loop
      vertex 1.686081e+02 5.167076e+01 2.050782e+02
      vertex 1.384690e+02 5.167076e+01 1.839746e+02
      vertex 1.370687e+02 5.950000e+01 1.829941e+02
    endloop
  endfacet
  facet normal -1.683301e-15 -1.000000e+00 3.093052e-15
    outer loop
      vertex 1.288813e+02 5.950000e+01 1.670523e+02
      vertex 1.877891e+02 5.950000e+01 2.083000e+02
      vertex 1.370687e+02 5.950000e+01 1.829941e+02
    endloop
  endfacet
  facet normal -8.191520e-01 -1.254992e-15 -5.735764e-01
    outer loop
      vertex 1.407046e+02 -3.367076e+01 1.807819e+02
      vertex 1.384690e+02 -3.367076e+01 1.839746e+02
      vertex 1.384690e+02 5.167076e+01 1.839746e+02
    endloop
  endfacet
  facet normal -4.877068e-15 -1.000000e+00 3.261561e-15
    outer loop
      vertex 1.407046e+02 -3.367076e+01 1.807819e+02
      vertex 1.686081e+02 -3.367076e+01 2.050782e+02
      vertex 1.384690e+02 -3.367076e+01 1.839746e+02
    endloop
  endfacet
  facet normal 4.244294e-15 1.000000e+00 -3.704634e-15
    outer loop
      vertex 1.407046e+02 5.167076e+01 1.807819e+02
      vertex 1.384690e+02 5.167076e+01 1.839746e+02
      vertex 1.686081e+02 5.167076e+01 2.050782e+02
    endloop
  endfacet
  facet normal -8.191520e-01 9.139108e-15 -5.735764e-01
    outer loop
      vertex 1.407046e+02 -2.322450e+01 1.807819e+02
      vertex 1.407046e+02 -3.367076e+01 1.807819e+02
      vertex 1.384690e+02 5.167076e+01 1.839746e+02
    endloop
  endfacet
  facet normal -8.191520e-01 -2.271432e-15 -5.735764e-01
    outer loop
      vertex 1.407046e+02 4.646132e+01 1.807819e+02
      vertex 1.407046e+02 -2.322450e+01 1.807819e+02
      vertex 1.384690e+02 5.167076e+01 1.839746e+02
    endloop
  endfacet
  facet normal -8.191520e-01 -1.072780e-14 -5.735764e-01
    outer loop
      vertex 1.407046e+02 5.167076e+01 1.807819e+02
      vertex 1.407046e+02 4.646132e+01 1.807819e+02
      vertex 1.384690e+02 5.167076e+01 1.839746e+02
    endloop
  endfacet
  facet normal 8.191520e-01 1.473948e-15 5.735764e-01
    outer loop
      vertex 1.708437e+02 5.167076e+01 2.018855e+02
      vertex 1.686081e+02 5.167076e+01 2.050782e+02
      vertex 1.686081e+02 -3.367076e+01 2.050782e+02
    endloop
  endfacet
  facet normal -4.182585e-15 1.000000e+00 5.973350e-15
    outer loop
      vertex 1.708437e+02 5.167076e+01 2.018855e+02
      vertex 1.407046e+02 5.167076e+01 1.807819e+02
      vertex 1.686081e+02 5.167076e+01 2.050782e+02
    endloop
  endfacet
  facet normal 8.365169e-15 -1.000000e+00 -1.194670e-14
    outer loop
      vertex 1.708437e+02 -3.367076e+01 2.018855e+02
      vertex 1.686081e+02 -3.367076e+01 2.050782e+02
      vertex 1.407046e+02 -3.367076e+01 1.807819e+02
    endloop
  endfacet
  facet normal 8.191520e-01 -1.136782e-14 5.735764e-01
    outer loop
      vertex 1.708437e+02 -2.322450e+01 2.018855e+02
      vertex 1.686081e+02 -3.367076e+01 2.050782e+02
      vertex 1.708437e+02 -3.367076e+01 2.018855e+02
    endloop
  endfacet
  facet normal 8.191520e-01 1.937336e-15 5.735764e-01
    outer loop
      vertex 1.708437e+02 4.646132e+01 2.018855e+02
      vertex 1.686081e+02 -3.367076e+01 2.050782e+02
      vertex 1.708437e+02 -2.322450e+01 2.018855e+02
    endloop
  endfacet
  facet normal 8.191520e-01 1.966609e-14 5.735764e-01
    outer loop
      vertex 1.708437e+02 4.646132e+01 2.018855e+02
      vertex 1.708437e+02 5.167076e+01 2.018855e+02
      vertex 1.686081e+02 -3.367076e+01 2.050782e+02
    endloop
  endfacet
  facet normal 6.169157e-17 -1.000000e+00 5.256743e-16
    outer loop
      vertex 1.488765e+02 5.950000e+01 2.804506e+02
      vertex 1.877891e+02 5.950000e+01 2.083000e+02
      vertex 1.901242e+02 5.950000e+01 2.215427e+02
    endloop
  endfacet
  facet normal 9.848078e-01 1.049622e-14 -1.736482e-01
    outer loop
      vertex 1.901242e+02 6.750000e+01 2.215427e+02
      vertex 1.901242e+02 5.950000e+01 2.215427e+02
      vertex 1.877891e+02 5.950000e+01 2.083000e+02
    endloop
  endfacet
  facet normal 8.191520e-01 2.910213e-14 5.735764e-01
    outer loop
      vertex 1.488765e+02 6.750000e+01 2.804506e+02
      vertex 1.488765e+02 5.950000e+01 2.804506e+02
      vertex 1.901242e+02 5.950000e+01 2.215427e+02
    endloop
  endfacet
  facet normal 8.191520e-01 8.730638e-15 5.735764e-01
    outer loop
      vertex 1.901242e+02 6.750000e+01 2.215427e+02
      vertex 1.488765e+02 6.750000e+01 2.804506e+02
      vertex 1.901242e+02 5.950000e+01 2.215427e+02
    endloop
  endfacet
  facet normal 5.735764e-01 5.808346e-15 -8.191520e-01
    outer loop
      vertex 1.877891e+02 6.750000e+01 2.083000e+02
      vertex 1.877891e+02 5.950000e+01 2.083000e+02
      vertex 1.288813e+02 5.950000e+01 1.670523e+02
    endloop
  endfacet
  facet normal 9.848078e-01 -6.010404e-14 -1.736482e-01
    outer loop
      vertex 1.877891e+02 6.750000e+01 2.083000e+02
      vertex 1.901242e+02 6.750000e+01 2.215427e+02
      vertex 1.877891e+02 5.950000e+01 2.083000e+02
    endloop
  endfacet
  facet normal -1.736482e-01 -1.233845e-15 -9.848078e-01
    outer loop
      vertex 1.288813e+02 6.750000e+01 1.670523e+02
      vertex 1.288813e+02 5.950000e+01 1.670523e+02
      vertex 1.156385e+02 5.950000e+01 1.693873e+02
    endloop
  endfacet
  facet normal 5.735764e-01 4.075506e-15 -8.191520e-01
    outer loop
      vertex 1.288813e+02 6.750000e+01 1.670523e+02
      vertex 1.877891e+02 6.750000e+01 2.083000e+02
      vertex 1.288813e+02 5.950000e+01 1.670523e+02
    endloop
  endfacet
  facet normal 6.169157e-17 -1.000000e+00 5.256743e-16
    outer loop
      vertex 7.672586e+01 5.950000e+01 2.415379e+02
      vertex 7.439080e+01 5.950000e+01 2.282952e+02
      vertex 1.156385e+02 5.950000e+01 1.693873e+02
    endloop
  endfacet
  facet normal -8.191520e-01 1.338577e-14 -5.735764e-01
    outer loop
      vertex 1.156385e+02 6.750000e+01 1.693873e+02
      vertex 1.156385e+02 5.950000e+01 1.693873e+02
      vertex 7.439080e+01 5.950000e+01 2.282952e+02
    endloop
  endfacet
  facet normal -1.736482e-01 -3.295946e-15 -9.848078e-01
    outer loop
      vertex 1.156385e+02 6.750000e+01 1.693873e+02
      vertex 1.288813e+02 6.750000e+01 1.670523e+02
      vertex 1.156385e+02 5.950000e+01 1.693873e+02
    endloop
  endfacet
  facet normal -9.848078e-01 -6.896083e-15 1.736482e-01
    outer loop
      vertex 7.439080e+01 6.750000e+01 2.282952e+02
      vertex 7.439080e+01 5.950000e+01 2.282952e+02
      vertex 7.672586e+01 5.950000e+01 2.415379e+02
    endloop
  endfacet
  facet normal -8.191520e-01 -1.338879e-14 -5.735764e-01
    outer loop
      vertex 7.439080e+01 6.750000e+01 2.282952e+02
      vertex 1.156385e+02 6.750000e+01 1.693873e+02
      vertex 7.439080e+01 5.950000e+01 2.282952e+02
    endloop
  endfacet
  facet normal -5.735764e-01 -3.203046e-15 8.191520e-01
    outer loop
      vertex 7.672586e+01 6.750000e+01 2.415379e+02
      vertex 7.672586e+01 5.950000e+01 2.415379e+02
      vertex 1.356337e+02 5.950000e+01 2.827856e+02
    endloop
  endfacet
  facet normal -9.848078e-01 -9.874489e-15 1.736482e-01
    outer loop
      vertex 7.439080e+01 6.750000e+01 2.282952e+02
      vertex 7.672586e+01 5.950000e+01 2.415379e+02
      vertex 7.672586e+01 6.750000e+01 2.415379e+02
    endloop
  endfacet
  facet normal 1.736482e-01 -2.407705e-14 9.848078e-01
    outer loop
      vertex 1.356337e+02 6.750000e+01 2.827856e+02
      vertex 1.356337e+02 5.950000e+01 2.827856e+02
      vertex 1.488765e+02 5.950000e+01 2.804506e+02
    endloop
  endfacet
  facet normal -5.735764e-01 -7.114003e-15 8.191520e-01
    outer loop
      vertex 7.672586e+01 6.750000e+01 2.415379e+02
      vertex 1.356337e+02 5.950000e+01 2.827856e+02
      vertex 1.356337e+02 6.750000e+01 2.827856e+02
    endloop
  endfacet
  facet normal 1.736482e-01 6.175684e-15 9.848078e-01
    outer loop
      vertex 1.356337e+02 6.750000e+01 2.827856e+02
      vertex 1.488765e+02 5.950000e+01 2.804506e+02
      vertex 1.488765e+02 6.750000e+01 2.804506e+02
    endloop
  endfacet
  facet normal -8.604348e-16 1.000000e+00 -1.326199e-15
    outer loop
      vertex 7.672586e+01 6.750000e+01 2.415379e+02
      vertex 1.488765e+02 6.750000e+01 2.804506e+02
      vertex 1.901242e+02 6.750000e+01 2.215427e+02
    endloop
  endfacet
  facet normal -6.857878e-15 1.000000e+00 9.794064e-15
    outer loop
      vertex 7.672586e+01 6.750000e+01 2.415379e+02
      vertex 1.356337e+02 6.750000e+01 2.827856e+02
      vertex 1.488765e+02 6.750000e+01 2.804506e+02
    endloop
  endfacet
  facet normal -1.811060e-16 1.000000e+00 1.105038e-15
    outer loop
      vertex 7.439080e+01 6.750000e+01 2.282952e+02
      vertex 1.901242e+02 6.750000e+01 2.215427e+02
      vertex 1.877891e+02 6.750000e+01 2.083000e+02
    endloop
  endfacet
  facet normal -5.716113e-17 1.000000e+00 3.229392e-15
    outer loop
      vertex 7.439080e+01 6.750000e+01 2.282952e+02
      vertex 7.672586e+01 6.750000e+01 2.415379e+02
      vertex 1.901242e+02 6.750000e+01 2.215427e+02
    endloop
  endfacet
  facet normal -5.143408e-15 1.000000e+00 7.345548e-15
    outer loop
      vertex 1.156385e+02 6.750000e+01 1.693873e+02
      vertex 1.877891e+02 6.750000e+01 2.083000e+02
      vertex 1.288813e+02 6.750000e+01 1.670523e+02
    endloop
  endfacet
  facet normal -5.744951e-16 1.000000e+00 -1.125982e-15
    outer loop
      vertex 7.439080e+01 6.750000e+01 2.282952e+02
      vertex 1.877891e+02 6.750000e+01 2.083000e+02
      vertex 1.156385e+02 6.750000e+01 1.693873e+02
    endloop
  endfacet
  facet normal 5.735764e-01 3.549481e-15 -8.191520e-01
    outer loop
      vertex 1.708437e+02 -2.322450e+01 2.018855e+02
      vertex 1.407046e+02 -3.367076e+01 1.807819e+02
      vertex 1.407046e+02 -2.322450e+01 1.807819e+02
    endloop
  endfacet
  facet normal 5.735764e-01 2.004453e-15 -8.191520e-01
    outer loop
      vertex 1.708437e+02 -2.322450e+01 2.018855e+02
      vertex 1.708437e+02 -3.367076e+01 2.018855e+02
      vertex 1.407046e+02 -3.367076e+01 1.807819e+02
    endloop
  endfacet
  facet normal -7.019605e-01 -1.403971e-15 -7.122159e-01
    outer loop
      vertex 1.566358e+02 -2.275041e+01 1.650800e+02
      vertex 1.407046e+02 -2.322450e+01 1.807819e+02
      vertex 1.407046e+02 4.646132e+01 1.807819e+02
    endloop
  endfacet
  facet normal 1.235740e-02 -9.997679e-01 -1.764820e-02
    outer loop
      vertex 1.566358e+02 -2.275041e+01 1.650800e+02
      vertex 1.708437e+02 -2.322450e+01 2.018855e+02
      vertex 1.407046e+02 -2.322450e+01 1.807819e+02
    endloop
  endfacet
  facet normal 5.735764e-01 -5.931356e-15 -8.191520e-01
    outer loop
      vertex 1.708437e+02 5.167076e+01 2.018855e+02
      vertex 1.407046e+02 4.646132e+01 1.807819e+02
      vertex 1.407046e+02 5.167076e+01 1.807819e+02
    endloop
  endfacet
  facet normal 5.735764e-01 4.496970e-16 -8.191520e-01
    outer loop
      vertex 1.708437e+02 4.646132e+01 2.018855e+02
      vertex 1.407046e+02 4.646132e+01 1.807819e+02
      vertex 1.708437e+02 5.167076e+01 2.018855e+02
    endloop
  endfacet
  facet normal 2.665636e-01 8.854475e-01 -3.806922e-01
    outer loop
      vertex 1.566358e+02 3.491432e+01 1.650800e+02
      vertex 1.407046e+02 4.646132e+01 1.807819e+02
      vertex 1.708437e+02 4.646132e+01 2.018855e+02
    endloop
  endfacet
  facet normal -7.019605e-01 7.222904e-16 -7.122159e-01
    outer loop
      vertex 1.566358e+02 -2.275041e+01 1.650800e+02
      vertex 1.407046e+02 4.646132e+01 1.807819e+02
      vertex 1.566358e+02 3.491432e+01 1.650800e+02
    endloop
  endfacet
  facet normal 9.093486e-01 2.680308e-15 4.160350e-01
    outer loop
      vertex 1.801498e+02 3.491432e+01 1.815447e+02
      vertex 1.708437e+02 4.646132e+01 2.018855e+02
      vertex 1.708437e+02 -2.322450e+01 2.018855e+02
    endloop
  endfacet
  facet normal 9.093486e-01 8.056092e-16 4.160350e-01
    outer loop
      vertex 1.801498e+02 -2.275041e+01 1.815447e+02
      vertex 1.801498e+02 3.491432e+01 1.815447e+02
      vertex 1.708437e+02 -2.322450e+01 2.018855e+02
    endloop
  endfacet
  facet normal 1.235740e-02 -9.997679e-01 -1.764820e-02
    outer loop
      vertex 1.801498e+02 -2.275041e+01 1.815447e+02
      vertex 1.708437e+02 -2.322450e+01 2.018855e+02
      vertex 1.566358e+02 -2.275041e+01 1.650800e+02
    endloop
  endfacet
  facet normal 2.665636e-01 8.854475e-01 -3.806922e-01
    outer loop
      vertex 1.566358e+02 3.491432e+01 1.650800e+02
      vertex 1.708437e+02 4.646132e+01 2.018855e+02
      vertex 1.801498e+02 3.491432e+01 1.815447e+02
    endloop
  endfacet
  facet normal 5.735764e-01 4.239715e-15 -8.191520e-01
    outer loop
      vertex 1.801498e+02 -2.275041e+01 1.815447e+02
      vertex 1.566358e+02 3.491432e+01 1.650800e+02
      vertex 1.801498e+02 3.491432e+01 1.815447e+02
    endloop
  endfacet
  facet normal 5.735764e-01 3.571429e-15 -8.191520e-01
    outer loop
      vertex 1.801498e+02 -2.275041e+01 1.815447e+02
      vertex 1.566358e+02 -2.275041e+01 1.650800e+02
      vertex 1.566358e+02 3.491432e+01 1.650800e+02
    endloop
  endfacet
endsolid IRB140_-_M2004C_COMPLETE
