solid IRB140_-_M2004C_COMPLETE
	color 0.1 0.1 0.1
  facet normal 8.403709e-01 2.533745e-07 5.420118e-01
    outer loop
      vertex 4.105358e+02 9.000000e+00 6.903769e+02
      vertex 4.105358e+02 -9.000000e+00 6.903769e+02
      vertex 4.140266e+02 -9.000000e+00 6.849646e+02
    endloop
  endfacet
  facet normal 0.000000e+00 -1.000000e+00 0.000000e+00
    outer loop
      vertex 4.075010e+02 -9.000000e+00 6.876109e+02
      vertex 4.140266e+02 -9.000000e+00 6.849646e+02
      vertex 4.105358e+02 -9.000000e+00 6.903769e+02
    endloop
  endfacet
  facet normal 8.403705e-01 0.000000e+00 5.420124e-01
    outer loop
      vertex 4.140266e+02 9.000000e+00 6.849646e+02
      vertex 4.105358e+02 9.000000e+00 6.903769e+02
      vertex 4.140266e+02 -9.000000e+00 6.849646e+02
    endloop
  endfacet
  facet normal 8.222505e-01 0.000000e+00 5.691257e-01
    outer loop
      vertex 4.141595e+02 -9.000000e+00 6.847725e+02
      vertex 4.140266e+02 9.000000e+00 6.849646e+02
      vertex 4.140266e+02 -9.000000e+00 6.849646e+02
    endloop
  endfacet
  facet normal 0.000000e+00 -1.000000e+00 0.000000e+00
    outer loop
      vertex 4.075010e+02 -9.000000e+00 6.876109e+02
      vertex 4.110293e+02 -9.000000e+00 6.822967e+02
      vertex 4.140266e+02 -9.000000e+00 6.849646e+02
    endloop
  endfacet
  facet normal 0.000000e+00 -1.000000e+00 0.000000e+00
    outer loop
      vertex 4.141595e+02 -9.000000e+00 6.847725e+02
      vertex 4.140266e+02 -9.000000e+00 6.849646e+02
      vertex 4.110293e+02 -9.000000e+00 6.822967e+02
    endloop
  endfacet
  facet normal 9.091385e-01 4.485877e-07 4.164939e-01
    outer loop
      vertex 4.078534e+02 9.000000e+00 6.962323e+02
      vertex 4.078533e+02 -9.000000e+00 6.962324e+02
      vertex 4.105358e+02 -9.000000e+00 6.903769e+02
    endloop
  endfacet
  facet normal 0.000000e+00 -1.000000e+00 0.000000e+00
    outer loop
      vertex 4.046930e+02 -9.000000e+00 6.933386e+02
      vertex 4.105358e+02 -9.000000e+00 6.903769e+02
      vertex 4.078533e+02 -9.000000e+00 6.962324e+02
    endloop
  endfacet
  facet normal 9.091377e-01 -2.597989e-07 4.164957e-01
    outer loop
      vertex 4.105358e+02 9.000000e+00 6.903769e+02
      vertex 4.078534e+02 9.000000e+00 6.962323e+02
      vertex 4.105358e+02 -9.000000e+00 6.903769e+02
    endloop
  endfacet
  facet normal 0.000000e+00 -1.000000e+00 0.000000e+00
    outer loop
      vertex 4.046930e+02 -9.000000e+00 6.933386e+02
      vertex 4.075010e+02 -9.000000e+00 6.876109e+02
      vertex 4.105358e+02 -9.000000e+00 6.903769e+02
    endloop
  endfacet
  facet normal 9.592753e-01 5.806746e-07 2.824727e-01
    outer loop
      vertex 4.060343e+02 9.000000e+00 7.024098e+02
      vertex 4.060342e+02 -9.000000e+00 7.024100e+02
      vertex 4.078533e+02 -9.000000e+00 6.962324e+02
    endloop
  endfacet
  facet normal 0.000000e+00 -1.000000e+00 0.000000e+00
    outer loop
      vertex 4.026528e+02 -9.000000e+00 6.993821e+02
      vertex 4.078533e+02 -9.000000e+00 6.962324e+02
      vertex 4.060342e+02 -9.000000e+00 7.024100e+02
    endloop
  endfacet
  facet normal 9.592745e-01 -4.498375e-07 2.824754e-01
    outer loop
      vertex 4.078534e+02 9.000000e+00 6.962323e+02
      vertex 4.060343e+02 9.000000e+00 7.024098e+02
      vertex 4.078533e+02 -9.000000e+00 6.962324e+02
    endloop
  endfacet
  facet normal 0.000000e+00 -1.000000e+00 0.000000e+00
    outer loop
      vertex 4.026528e+02 -9.000000e+00 6.993821e+02
      vertex 4.046930e+02 -9.000000e+00 6.933386e+02
      vertex 4.078533e+02 -9.000000e+00 6.962324e+02
    endloop
  endfacet
  facet normal 9.897674e-01 6.448224e-07 1.426905e-01
    outer loop
      vertex 4.051156e+02 9.000000e+00 7.087820e+02
      vertex 4.051156e+02 -9.000000e+00 7.087821e+02
      vertex 4.060342e+02 -9.000000e+00 7.024100e+02
    endloop
  endfacet
  facet normal 0.000000e+00 -1.000000e+00 0.000000e+00
    outer loop
      vertex 4.014150e+02 -9.000000e+00 7.056381e+02
      vertex 4.060342e+02 -9.000000e+00 7.024100e+02
      vertex 4.051156e+02 -9.000000e+00 7.087821e+02
    endloop
  endfacet
  facet normal 9.897669e-01 -5.746692e-07 1.426939e-01
    outer loop
      vertex 4.060343e+02 9.000000e+00 7.024098e+02
      vertex 4.051156e+02 9.000000e+00 7.087820e+02
      vertex 4.060342e+02 -9.000000e+00 7.024100e+02
    endloop
  endfacet
  facet normal 0.000000e+00 -1.000000e+00 0.000000e+00
    outer loop
      vertex 4.014150e+02 -9.000000e+00 7.056381e+02
      vertex 4.026528e+02 -9.000000e+00 6.993821e+02
      vertex 4.060342e+02 -9.000000e+00 7.024100e+02
    endloop
  endfacet
  facet normal 1.000000e+00 6.389620e-07 -1.787095e-06
    outer loop
      vertex 4.051156e+02 9.000000e+00 7.152179e+02
      vertex 4.051156e+02 -9.000000e+00 7.152180e+02
      vertex 4.051156e+02 -9.000000e+00 7.087821e+02
    endloop
  endfacet
  facet normal 0.000000e+00 -1.000000e+00 0.000000e+00
    outer loop
      vertex 4.010002e+02 -9.000000e+00 7.120001e+02
      vertex 4.051156e+02 -9.000000e+00 7.087821e+02
      vertex 4.051156e+02 -9.000000e+00 7.152180e+02
    endloop
  endfacet
  facet normal 1.000000e+00 -6.389620e-07 1.787095e-06
    outer loop
      vertex 4.051156e+02 9.000000e+00 7.087820e+02
      vertex 4.051156e+02 9.000000e+00 7.152179e+02
      vertex 4.051156e+02 -9.000000e+00 7.087821e+02
    endloop
  endfacet
  facet normal 0.000000e+00 -1.000000e+00 0.000000e+00
    outer loop
      vertex 4.010002e+02 -9.000000e+00 7.120001e+02
      vertex 4.014150e+02 -9.000000e+00 7.056381e+02
      vertex 4.051156e+02 -9.000000e+00 7.087821e+02
    endloop
  endfacet
  facet normal 9.897669e-01 5.746692e-07 -1.426939e-01
    outer loop
      vertex 4.060342e+02 9.000000e+00 7.215900e+02
      vertex 4.060343e+02 -9.000000e+00 7.215902e+02
      vertex 4.051156e+02 -9.000000e+00 7.152180e+02
    endloop
  endfacet
  facet normal 0.000000e+00 -1.000000e+00 0.000000e+00
    outer loop
      vertex 4.014150e+02 -9.000000e+00 7.183620e+02
      vertex 4.051156e+02 -9.000000e+00 7.152180e+02
      vertex 4.060343e+02 -9.000000e+00 7.215902e+02
    endloop
  endfacet
  facet normal 9.897674e-01 -6.448224e-07 -1.426905e-01
    outer loop
      vertex 4.051156e+02 9.000000e+00 7.152179e+02
      vertex 4.060342e+02 9.000000e+00 7.215900e+02
      vertex 4.051156e+02 -9.000000e+00 7.152180e+02
    endloop
  endfacet
  facet normal 0.000000e+00 -1.000000e+00 0.000000e+00
    outer loop
      vertex 4.014150e+02 -9.000000e+00 7.183620e+02
      vertex 4.010002e+02 -9.000000e+00 7.120001e+02
      vertex 4.051156e+02 -9.000000e+00 7.152180e+02
    endloop
  endfacet
  facet normal 9.592745e-01 4.498375e-07 -2.824754e-01
    outer loop
      vertex 4.078533e+02 9.000000e+00 7.277676e+02
      vertex 4.078534e+02 -9.000000e+00 7.277677e+02
      vertex 4.060343e+02 -9.000000e+00 7.215902e+02
    endloop
  endfacet
  facet normal 0.000000e+00 -1.000000e+00 0.000000e+00
    outer loop
      vertex 4.026528e+02 -9.000000e+00 7.246180e+02
      vertex 4.060343e+02 -9.000000e+00 7.215902e+02
      vertex 4.078534e+02 -9.000000e+00 7.277677e+02
    endloop
  endfacet
  facet normal 9.592753e-01 -5.806746e-07 -2.824727e-01
    outer loop
      vertex 4.060342e+02 9.000000e+00 7.215900e+02
      vertex 4.078533e+02 9.000000e+00 7.277676e+02
      vertex 4.060343e+02 -9.000000e+00 7.215902e+02
    endloop
  endfacet
  facet normal 0.000000e+00 -1.000000e+00 0.000000e+00
    outer loop
      vertex 4.026528e+02 -9.000000e+00 7.246180e+02
      vertex 4.014150e+02 -9.000000e+00 7.183620e+02
      vertex 4.060343e+02 -9.000000e+00 7.215902e+02
    endloop
  endfacet
  facet normal 9.091377e-01 2.597989e-07 -4.164957e-01
    outer loop
      vertex 4.105358e+02 9.000000e+00 7.336231e+02
      vertex 4.105358e+02 -9.000000e+00 7.336231e+02
      vertex 4.078534e+02 -9.000000e+00 7.277677e+02
    endloop
  endfacet
  facet normal 0.000000e+00 -1.000000e+00 0.000000e+00
    outer loop
      vertex 4.046930e+02 -9.000000e+00 7.306614e+02
      vertex 4.078534e+02 -9.000000e+00 7.277677e+02
      vertex 4.105358e+02 -9.000000e+00 7.336231e+02
    endloop
  endfacet
  facet normal 9.091385e-01 -4.485877e-07 -4.164939e-01
    outer loop
      vertex 4.078533e+02 9.000000e+00 7.277676e+02
      vertex 4.105358e+02 9.000000e+00 7.336231e+02
      vertex 4.078534e+02 -9.000000e+00 7.277677e+02
    endloop
  endfacet
  facet normal 0.000000e+00 -1.000000e+00 0.000000e+00
    outer loop
      vertex 4.046930e+02 -9.000000e+00 7.306614e+02
      vertex 4.026528e+02 -9.000000e+00 7.246180e+02
      vertex 4.078534e+02 -9.000000e+00 7.277677e+02
    endloop
  endfacet
  facet normal 8.403705e-01 0.000000e+00 -5.420124e-01
    outer loop
      vertex 4.140266e+02 9.000000e+00 7.390354e+02
      vertex 4.140266e+02 -9.000000e+00 7.390354e+02
      vertex 4.105358e+02 -9.000000e+00 7.336231e+02
    endloop
  endfacet
  facet normal 0.000000e+00 -1.000000e+00 0.000000e+00
    outer loop
      vertex 4.075011e+02 -9.000000e+00 7.363891e+02
      vertex 4.105358e+02 -9.000000e+00 7.336231e+02
      vertex 4.140266e+02 -9.000000e+00 7.390354e+02
    endloop
  endfacet
  facet normal 8.403709e-01 -2.533745e-07 -5.420118e-01
    outer loop
      vertex 4.105358e+02 9.000000e+00 7.336231e+02
      vertex 4.140266e+02 9.000000e+00 7.390354e+02
      vertex 4.105358e+02 -9.000000e+00 7.336231e+02
    endloop
  endfacet
  facet normal 0.000000e+00 -1.000000e+00 0.000000e+00
    outer loop
      vertex 4.075011e+02 -9.000000e+00 7.363891e+02
      vertex 4.046930e+02 -9.000000e+00 7.306614e+02
      vertex 4.105358e+02 -9.000000e+00 7.336231e+02
    endloop
  endfacet
  facet normal 8.222505e-01 0.000000e+00 -5.691257e-01
    outer loop
      vertex 4.141595e+02 9.000000e+00 7.392275e+02
      vertex 4.140266e+02 -9.000000e+00 7.390354e+02
      vertex 4.140266e+02 9.000000e+00 7.390354e+02
    endloop
  endfacet
  facet normal 0.000000e+00 -1.000000e+00 0.000000e+00
    outer loop
      vertex 4.141595e+02 -9.000000e+00 7.392275e+02
      vertex 4.075011e+02 -9.000000e+00 7.363891e+02
      vertex 4.140266e+02 -9.000000e+00 7.390354e+02
    endloop
  endfacet
  facet normal 8.222505e-01 4.229955e-14 -5.691257e-01
    outer loop
      vertex 4.141595e+02 9.000000e+00 7.392275e+02
      vertex 4.141595e+02 -9.000000e+00 7.392275e+02
      vertex 4.140266e+02 -9.000000e+00 7.390354e+02
    endloop
  endfacet
  facet normal 8.146929e-18 1.000000e+00 6.511576e-16
    outer loop
      vertex 4.075010e+02 9.000000e+00 7.363891e+02
      vertex 4.140266e+02 9.000000e+00 7.390354e+02
      vertex 4.105358e+02 9.000000e+00 7.336231e+02
    endloop
  endfacet
  facet normal 0.000000e+00 1.000000e+00 0.000000e+00
    outer loop
      vertex 4.110293e+02 9.000000e+00 7.417033e+02
      vertex 4.141595e+02 9.000000e+00 7.392275e+02
      vertex 4.140266e+02 9.000000e+00 7.390354e+02
    endloop
  endfacet
  facet normal 1.870115e-16 1.000000e+00 2.101024e-16
    outer loop
      vertex 4.075010e+02 9.000000e+00 7.363891e+02
      vertex 4.110293e+02 9.000000e+00 7.417033e+02
      vertex 4.140266e+02 9.000000e+00 7.390354e+02
    endloop
  endfacet
  facet normal -2.002873e-16 1.000000e+00 3.951232e-16
    outer loop
      vertex 4.046930e+02 9.000000e+00 7.306614e+02
      vertex 4.105358e+02 9.000000e+00 7.336231e+02
      vertex 4.078533e+02 9.000000e+00 7.277676e+02
    endloop
  endfacet
  facet normal -2.091943e-16 1.000000e+00 4.126947e-16
    outer loop
      vertex 4.046930e+02 9.000000e+00 7.306614e+02
      vertex 4.075010e+02 9.000000e+00 7.363891e+02
      vertex 4.105358e+02 9.000000e+00 7.336231e+02
    endloop
  endfacet
  facet normal -2.119559e-16 1.000000e+00 3.499616e-16
    outer loop
      vertex 4.026528e+02 9.000000e+00 7.246179e+02
      vertex 4.078533e+02 9.000000e+00 7.277676e+02
      vertex 4.060342e+02 9.000000e+00 7.215900e+02
    endloop
  endfacet
  facet normal -2.237732e-16 1.000000e+00 3.694733e-16
    outer loop
      vertex 4.026528e+02 9.000000e+00 7.246179e+02
      vertex 4.046930e+02 9.000000e+00 7.306614e+02
      vertex 4.078533e+02 9.000000e+00 7.277676e+02
    endloop
  endfacet
  facet normal -5.647074e-18 1.000000e+00 5.583521e-16
    outer loop
      vertex 4.014150e+02 9.000000e+00 7.183619e+02
      vertex 4.060342e+02 9.000000e+00 7.215900e+02
      vertex 4.051156e+02 9.000000e+00 7.152179e+02
    endloop
  endfacet
  facet normal -1.428536e-17 1.000000e+00 5.707128e-16
    outer loop
      vertex 4.014150e+02 9.000000e+00 7.183619e+02
      vertex 4.026528e+02 9.000000e+00 7.246179e+02
      vertex 4.060342e+02 9.000000e+00 7.215900e+02
    endloop
  endfacet
  facet normal -2.158183e-16 1.000000e+00 2.760061e-16
    outer loop
      vertex 4.010002e+02 9.000000e+00 7.119999e+02
      vertex 4.051156e+02 9.000000e+00 7.152179e+02
      vertex 4.051156e+02 9.000000e+00 7.087820e+02
    endloop
  endfacet
  facet normal -2.300570e-16 1.000000e+00 2.942158e-16
    outer loop
      vertex 4.010002e+02 9.000000e+00 7.119999e+02
      vertex 4.014150e+02 9.000000e+00 7.183619e+02
      vertex 4.051156e+02 9.000000e+00 7.152179e+02
    endloop
  endfacet
  facet normal 5.649374e-18 1.000000e+00 5.583542e-16
    outer loop
      vertex 4.014150e+02 9.000000e+00 7.056380e+02
      vertex 4.051156e+02 9.000000e+00 7.087820e+02
      vertex 4.060343e+02 9.000000e+00 7.024098e+02
    endloop
  endfacet
  facet normal 5.290233e-18 1.000000e+00 5.587769e-16
    outer loop
      vertex 4.014150e+02 9.000000e+00 7.056380e+02
      vertex 4.010002e+02 9.000000e+00 7.119999e+02
      vertex 4.051156e+02 9.000000e+00 7.087820e+02
    endloop
  endfacet
  facet normal -2.037566e-16 1.000000e+00 2.275500e-16
    outer loop
      vertex 4.026528e+02 9.000000e+00 6.993820e+02
      vertex 4.060343e+02 9.000000e+00 7.024098e+02
      vertex 4.078534e+02 9.000000e+00 6.962323e+02
    endloop
  endfacet
  facet normal -2.159876e-16 1.000000e+00 2.412093e-16
    outer loop
      vertex 4.026528e+02 9.000000e+00 6.993820e+02
      vertex 4.014150e+02 9.000000e+00 7.056380e+02
      vertex 4.060343e+02 9.000000e+00 7.024098e+02
    endloop
  endfacet
  facet normal 2.002870e-16 1.000000e+00 3.951261e-16
    outer loop
      vertex 4.046930e+02 9.000000e+00 6.933386e+02
      vertex 4.078534e+02 9.000000e+00 6.962323e+02
      vertex 4.105358e+02 9.000000e+00 6.903769e+02
    endloop
  endfacet
  facet normal 1.818774e-17 1.000000e+00 5.940052e-16
    outer loop
      vertex 4.046930e+02 9.000000e+00 6.933386e+02
      vertex 4.026528e+02 9.000000e+00 6.993820e+02
      vertex 4.078534e+02 9.000000e+00 6.962323e+02
    endloop
  endfacet
  facet normal -8.149163e-18 1.000000e+00 6.511631e-16
    outer loop
      vertex 4.075011e+02 9.000000e+00 6.876109e+02
      vertex 4.105358e+02 9.000000e+00 6.903769e+02
      vertex 4.140266e+02 9.000000e+00 6.849646e+02
    endloop
  endfacet
  facet normal 2.091936e-16 1.000000e+00 4.126969e-16
    outer loop
      vertex 4.075011e+02 9.000000e+00 6.876109e+02
      vertex 4.046930e+02 9.000000e+00 6.933386e+02
      vertex 4.105358e+02 9.000000e+00 6.903769e+02
    endloop
  endfacet
  facet normal 8.222505e-01 -1.157793e-14 5.691257e-01
    outer loop
      vertex 4.141595e+02 9.000000e+00 6.847725e+02
      vertex 4.140266e+02 9.000000e+00 6.849646e+02
      vertex 4.141595e+02 -9.000000e+00 6.847725e+02
    endloop
  endfacet
  facet normal -3.784429e-16 1.000000e+00 -2.619416e-16
    outer loop
      vertex 4.075011e+02 9.000000e+00 6.876109e+02
      vertex 4.140266e+02 9.000000e+00 6.849646e+02
      vertex 4.141595e+02 9.000000e+00 6.847725e+02
    endloop
  endfacet
  facet normal -1.771779e-16 -1.000000e+00 -3.799593e-16
    outer loop
      vertex 4.194993e+02 -9.000000e+00 6.739664e+02
      vertex 4.069448e+02 -9.000000e+00 6.751455e+02
      vertex 4.152321e+02 -9.000000e+00 6.712811e+02
    endloop
  endfacet
  facet normal -4.226183e-01 0.000000e+00 -9.063078e-01
    outer loop
      vertex 4.069448e+02 9.000000e+00 6.751455e+02
      vertex 4.152321e+02 -9.000000e+00 6.712811e+02
      vertex 4.069448e+02 -9.000000e+00 6.751455e+02
    endloop
  endfacet
  facet normal -5.003271e-16 -1.000000e+00 1.335444e-16
    outer loop
      vertex 4.191175e+02 -9.000000e+00 6.725359e+02
      vertex 4.194993e+02 -9.000000e+00 6.739664e+02
      vertex 4.152321e+02 -9.000000e+00 6.712811e+02
    endloop
  endfacet
  facet normal -6.592418e-16 -1.000000e+00 6.255817e-16
    outer loop
      vertex 4.180991e+02 -9.000000e+00 6.714628e+02
      vertex 4.191175e+02 -9.000000e+00 6.725359e+02
      vertex 4.152321e+02 -9.000000e+00 6.712811e+02
    endloop
  endfacet
  facet normal -7.703353e-16 -1.000000e+00 2.378497e-15
    outer loop
      vertex 4.166906e+02 -9.000000e+00 6.710066e+02
      vertex 4.180991e+02 -9.000000e+00 6.714628e+02
      vertex 4.152321e+02 -9.000000e+00 6.712811e+02
    endloop
  endfacet
  facet normal -1.849630e-01 -6.745843e-07 -9.827455e-01
    outer loop
      vertex 4.166905e+02 9.000000e+00 6.710066e+02
      vertex 4.166906e+02 -9.000000e+00 6.710066e+02
      vertex 4.152321e+02 -9.000000e+00 6.712811e+02
    endloop
  endfacet
  facet normal -1.849710e-01 0.000000e+00 -9.827440e-01
    outer loop
      vertex 4.152321e+02 9.000000e+00 6.712811e+02
      vertex 4.166905e+02 9.000000e+00 6.710066e+02
      vertex 4.152321e+02 -9.000000e+00 6.712811e+02
    endloop
  endfacet
  facet normal -4.226183e-01 0.000000e+00 -9.063078e-01
    outer loop
      vertex 4.069448e+02 9.000000e+00 6.751455e+02
      vertex 4.152321e+02 9.000000e+00 6.712811e+02
      vertex 4.152321e+02 -9.000000e+00 6.712811e+02
    endloop
  endfacet
  facet normal -2.496219e-16 -1.000000e+00 -1.926031e-15
    outer loop
      vertex 4.191488e+02 -9.000000e+00 6.754084e+02
      vertex 4.052984e+02 -9.000000e+00 6.762812e+02
      vertex 4.069448e+02 -9.000000e+00 6.751455e+02
    endloop
  endfacet
  facet normal -5.678134e-01 0.000000e+00 -8.231573e-01
    outer loop
      vertex 4.069448e+02 9.000000e+00 6.751455e+02
      vertex 4.069448e+02 -9.000000e+00 6.751455e+02
      vertex 4.052984e+02 -9.000000e+00 6.762812e+02
    endloop
  endfacet
  facet normal -2.631969e-16 -1.000000e+00 -1.295820e-15
    outer loop
      vertex 4.194993e+02 -9.000000e+00 6.739664e+02
      vertex 4.191488e+02 -9.000000e+00 6.754084e+02
      vertex 4.069448e+02 -9.000000e+00 6.751455e+02
    endloop
  endfacet
  facet normal 0.000000e+00 -1.000000e+00 0.000000e+00
    outer loop
      vertex 4.094157e+02 -9.000000e+00 6.782326e+02
      vertex 4.041175e+02 -9.000000e+00 6.778933e+02
      vertex 4.052984e+02 -9.000000e+00 6.762812e+02
    endloop
  endfacet
  facet normal -8.067086e-01 2.624747e-14 -5.909494e-01
    outer loop
      vertex 4.052984e+02 9.000000e+00 6.762812e+02
      vertex 4.052984e+02 -9.000000e+00 6.762812e+02
      vertex 4.041175e+02 -9.000000e+00 6.778933e+02
    endloop
  endfacet
  facet normal 0.000000e+00 -1.000000e+00 0.000000e+00
    outer loop
      vertex 4.106021e+02 -9.000000e+00 6.787643e+02
      vertex 4.094157e+02 -9.000000e+00 6.782326e+02
      vertex 4.052984e+02 -9.000000e+00 6.762812e+02
    endloop
  endfacet
  facet normal -1.130382e-16 -1.000000e+00 2.414440e-16
    outer loop
      vertex 4.191488e+02 -9.000000e+00 6.754084e+02
      vertex 4.106021e+02 -9.000000e+00 6.787643e+02
      vertex 4.052984e+02 -9.000000e+00 6.762812e+02
    endloop
  endfacet
  facet normal -5.678134e-01 -4.068212e-14 -8.231573e-01
    outer loop
      vertex 4.069448e+02 9.000000e+00 6.751455e+02
      vertex 4.052984e+02 -9.000000e+00 6.762812e+02
      vertex 4.052984e+02 9.000000e+00 6.762812e+02
    endloop
  endfacet
  facet normal 0.000000e+00 -1.000000e+00 0.000000e+00
    outer loop
      vertex 4.070577e+02 -9.000000e+00 6.790953e+02
      vertex 4.035311e+02 -9.000000e+00 6.798055e+02
      vertex 4.041175e+02 -9.000000e+00 6.778933e+02
    endloop
  endfacet
  facet normal -9.560661e-01 3.543094e-14 -2.931512e-01
    outer loop
      vertex 4.041175e+02 9.000000e+00 6.778933e+02
      vertex 4.041175e+02 -9.000000e+00 6.778933e+02
      vertex 4.035311e+02 -9.000000e+00 6.798055e+02
    endloop
  endfacet
  facet normal 0.000000e+00 -1.000000e+00 0.000000e+00
    outer loop
      vertex 4.081235e+02 -9.000000e+00 6.783538e+02
      vertex 4.070577e+02 -9.000000e+00 6.790953e+02
      vertex 4.041175e+02 -9.000000e+00 6.778933e+02
    endloop
  endfacet
  facet normal 0.000000e+00 -1.000000e+00 0.000000e+00
    outer loop
      vertex 4.094157e+02 -9.000000e+00 6.782326e+02
      vertex 4.081235e+02 -9.000000e+00 6.783538e+02
      vertex 4.041175e+02 -9.000000e+00 6.778933e+02
    endloop
  endfacet
  facet normal -8.067086e-01 -1.350606e-14 -5.909494e-01
    outer loop
      vertex 4.052984e+02 9.000000e+00 6.762812e+02
      vertex 4.041175e+02 -9.000000e+00 6.778933e+02
      vertex 4.041175e+02 9.000000e+00 6.778933e+02
    endloop
  endfacet
  facet normal 0.000000e+00 -1.000000e+00 0.000000e+00
    outer loop
      vertex 4.064925e+02 -9.000000e+00 6.802777e+02
      vertex 4.036937e+02 -9.000000e+00 6.807042e+02
      vertex 4.035311e+02 -9.000000e+00 6.798055e+02
    endloop
  endfacet
  facet normal -9.840193e-01 6.215003e-15 1.780616e-01
    outer loop
      vertex 4.035311e+02 9.000000e+00 6.798055e+02
      vertex 4.035311e+02 -9.000000e+00 6.798055e+02
      vertex 4.036937e+02 -9.000000e+00 6.807042e+02
    endloop
  endfacet
  facet normal 0.000000e+00 -1.000000e+00 0.000000e+00
    outer loop
      vertex 4.070577e+02 -9.000000e+00 6.790953e+02
      vertex 4.064925e+02 -9.000000e+00 6.802777e+02
      vertex 4.035311e+02 -9.000000e+00 6.798055e+02
    endloop
  endfacet
  facet normal -9.560661e-01 6.038174e-15 -2.931512e-01
    outer loop
      vertex 4.041175e+02 9.000000e+00 6.778933e+02
      vertex 4.035311e+02 -9.000000e+00 6.798055e+02
      vertex 4.035311e+02 9.000000e+00 6.798055e+02
    endloop
  endfacet
  facet normal 0.000000e+00 -1.000000e+00 0.000000e+00
    outer loop
      vertex 4.060585e+02 -9.000000e+00 6.810813e+02
      vertex 4.043445e+02 -9.000000e+00 6.813405e+02
      vertex 4.036937e+02 -9.000000e+00 6.807042e+02
    endloop
  endfacet
  facet normal -6.991008e-01 -7.727627e-07 7.150231e-01
    outer loop
      vertex 4.036938e+02 9.000000e+00 6.807043e+02
      vertex 4.036937e+02 -9.000000e+00 6.807042e+02
      vertex 4.043445e+02 -9.000000e+00 6.813405e+02
    endloop
  endfacet
  facet normal 0.000000e+00 -1.000000e+00 0.000000e+00
    outer loop
      vertex 4.064925e+02 -9.000000e+00 6.802777e+02
      vertex 4.060585e+02 -9.000000e+00 6.810813e+02
      vertex 4.036937e+02 -9.000000e+00 6.807042e+02
    endloop
  endfacet
  facet normal -9.840166e-01 7.703264e-07 1.780766e-01
    outer loop
      vertex 4.035311e+02 9.000000e+00 6.798055e+02
      vertex 4.036937e+02 -9.000000e+00 6.807042e+02
      vertex 4.036938e+02 9.000000e+00 6.807043e+02
    endloop
  endfacet
  facet normal 0.000000e+00 -1.000000e+00 0.000000e+00
    outer loop
      vertex 4.060585e+02 -9.000000e+00 6.810813e+02
      vertex 4.052422e+02 -9.000000e+00 6.814836e+02
      vertex 4.043445e+02 -9.000000e+00 6.813405e+02
    endloop
  endfacet
  facet normal -1.574621e-01 -1.157455e-06 9.875250e-01
    outer loop
      vertex 4.043445e+02 9.000000e+00 6.813405e+02
      vertex 4.043445e+02 -9.000000e+00 6.813405e+02
      vertex 4.052422e+02 -9.000000e+00 6.814836e+02
    endloop
  endfacet
  facet normal -6.990735e-01 1.156450e-06 7.150498e-01
    outer loop
      vertex 4.036938e+02 9.000000e+00 6.807043e+02
      vertex 4.043445e+02 -9.000000e+00 6.813405e+02
      vertex 4.043445e+02 9.000000e+00 6.813405e+02
    endloop
  endfacet
  facet normal 4.420712e-01 -1.156450e-06 8.969800e-01
    outer loop
      vertex 4.052422e+02 9.000000e+00 6.814836e+02
      vertex 4.052422e+02 -9.000000e+00 6.814836e+02
      vertex 4.060585e+02 -9.000000e+00 6.810813e+02
    endloop
  endfacet
  facet normal -1.574169e-01 1.157455e-06 9.875322e-01
    outer loop
      vertex 4.043445e+02 9.000000e+00 6.813405e+02
      vertex 4.052422e+02 -9.000000e+00 6.814836e+02
      vertex 4.052422e+02 9.000000e+00 6.814836e+02
    endloop
  endfacet
  facet normal 8.798682e-01 -7.703612e-07 4.752178e-01
    outer loop
      vertex 4.060585e+02 9.000000e+00 6.810812e+02
      vertex 4.060585e+02 -9.000000e+00 6.810813e+02
      vertex 4.064925e+02 -9.000000e+00 6.802777e+02
    endloop
  endfacet
  facet normal 4.421054e-01 7.727628e-07 8.969631e-01
    outer loop
      vertex 4.052422e+02 9.000000e+00 6.814836e+02
      vertex 4.060585e+02 -9.000000e+00 6.810813e+02
      vertex 4.060585e+02 9.000000e+00 6.810812e+02
    endloop
  endfacet
  facet normal 9.022242e-01 3.931220e-12 4.312673e-01
    outer loop
      vertex 4.064925e+02 9.000000e+00 6.802777e+02
      vertex 4.064925e+02 -9.000000e+00 6.802777e+02
      vertex 4.070577e+02 -9.000000e+00 6.790953e+02
    endloop
  endfacet
  facet normal 8.798754e-01 3.874893e-12 4.752045e-01
    outer loop
      vertex 4.060585e+02 9.000000e+00 6.810812e+02
      vertex 4.064925e+02 -9.000000e+00 6.802777e+02
      vertex 4.064925e+02 9.000000e+00 6.802777e+02
    endloop
  endfacet
  facet normal 5.711174e-01 2.300503e-04 8.208683e-01
    outer loop
      vertex 4.081079e+02 9.000000e+00 6.783596e+02
      vertex 4.070577e+02 -9.000000e+00 6.790953e+02
      vertex 4.081235e+02 -9.000000e+00 6.783538e+02
    endloop
  endfacet
  facet normal 5.752938e-01 -1.330373e-04 8.179469e-01
    outer loop
      vertex 4.070515e+02 9.000000e+00 6.791026e+02
      vertex 4.070577e+02 -9.000000e+00 6.790953e+02
      vertex 4.081079e+02 9.000000e+00 6.783596e+02
    endloop
  endfacet
  facet normal 9.030292e-01 1.361531e-04 4.295792e-01
    outer loop
      vertex 4.064925e+02 9.000000e+00 6.802777e+02
      vertex 4.070577e+02 -9.000000e+00 6.790953e+02
      vertex 4.070515e+02 9.000000e+00 6.791026e+02
    endloop
  endfacet
  facet normal 9.338202e-02 1.798233e-04 9.956303e-01
    outer loop
      vertex 4.094029e+02 9.000000e+00 6.782306e+02
      vertex 4.081235e+02 -9.000000e+00 6.783538e+02
      vertex 4.094157e+02 -9.000000e+00 6.782326e+02
    endloop
  endfacet
  facet normal 9.916738e-02 -2.352027e-04 9.950707e-01
    outer loop
      vertex 4.081079e+02 9.000000e+00 6.783596e+02
      vertex 4.081235e+02 -9.000000e+00 6.783538e+02
      vertex 4.094029e+02 9.000000e+00 6.782306e+02
    endloop
  endfacet
  facet normal -4.089270e-01 1.826775e-04 9.125671e-01
    outer loop
      vertex 4.105920e+02 9.000000e+00 6.787562e+02
      vertex 4.094157e+02 -9.000000e+00 6.782326e+02
      vertex 4.106021e+02 -9.000000e+00 6.787643e+02
    endloop
  endfacet
  facet normal -4.042609e-01 -1.826775e-04 9.146437e-01
    outer loop
      vertex 4.094029e+02 9.000000e+00 6.782306e+02
      vertex 4.094157e+02 -9.000000e+00 6.782326e+02
      vertex 4.105920e+02 9.000000e+00 6.787562e+02
    endloop
  endfacet
  facet normal -1.612784e-16 -1.000000e+00 1.185857e-16
    outer loop
      vertex 4.191488e+02 -9.000000e+00 6.754084e+02
      vertex 4.113730e+02 -9.000000e+00 6.798127e+02
      vertex 4.106021e+02 -9.000000e+00 6.787643e+02
    endloop
  endfacet
  facet normal -8.056543e-01 2.352028e-04 5.923860e-01
    outer loop
      vertex 4.113669e+02 9.000000e+00 6.797972e+02
      vertex 4.106021e+02 -9.000000e+00 6.787643e+02
      vertex 4.113730e+02 -9.000000e+00 6.798127e+02
    endloop
  endfacet
  facet normal -8.021975e-01 -1.798233e-04 5.970587e-01
    outer loop
      vertex 4.105920e+02 9.000000e+00 6.787562e+02
      vertex 4.106021e+02 -9.000000e+00 6.787643e+02
      vertex 4.113669e+02 9.000000e+00 6.797972e+02
    endloop
  endfacet
  facet normal -7.628445e-16 -1.000000e+00 9.228094e-17
    outer loop
      vertex 4.142772e+02 -9.000000e+00 6.845706e+02
      vertex 4.115281e+02 -9.000000e+00 6.810949e+02
      vertex 4.113730e+02 -9.000000e+00 6.798127e+02
    endloop
  endfacet
  facet normal -9.927625e-01 1.330373e-04 1.200940e-01
    outer loop
      vertex 4.115294e+02 9.000000e+00 6.810855e+02
      vertex 4.113730e+02 -9.000000e+00 6.798127e+02
      vertex 4.115281e+02 -9.000000e+00 6.810949e+02
    endloop
  endfacet
  facet normal -3.268970e-16 -1.000000e+00 -1.738142e-16
    outer loop
      vertex 4.191488e+02 -9.000000e+00 6.754084e+02
      vertex 4.142772e+02 -9.000000e+00 6.845706e+02
      vertex 4.113730e+02 -9.000000e+00 6.798127e+02
    endloop
  endfacet
  facet normal -9.921375e-01 -2.300503e-04 1.251523e-01
    outer loop
      vertex 4.113669e+02 9.000000e+00 6.797972e+02
      vertex 4.113730e+02 -9.000000e+00 6.798127e+02
      vertex 4.115294e+02 9.000000e+00 6.810855e+02
    endloop
  endfacet
  facet normal -4.237798e-16 -1.000000e+00 -1.758942e-16
    outer loop
      vertex 4.142772e+02 -9.000000e+00 6.845706e+02
      vertex 4.110293e+02 -9.000000e+00 6.822967e+02
      vertex 4.115281e+02 -9.000000e+00 6.810949e+02
    endloop
  endfacet
  facet normal -9.236028e-01 -1.361530e-04 -3.833509e-01
    outer loop
      vertex 4.115294e+02 9.000000e+00 6.810855e+02
      vertex 4.115281e+02 -9.000000e+00 6.810949e+02
      vertex 4.110293e+02 -9.000000e+00 6.822967e+02
    endloop
  endfacet
  facet normal -8.331008e-01 4.059997e-12 -5.531212e-01
    outer loop
      vertex 4.110293e+02 9.000000e+00 6.822967e+02
      vertex 4.110293e+02 -9.000000e+00 6.822967e+02
      vertex 4.075010e+02 -9.000000e+00 6.876109e+02
    endloop
  endfacet
  facet normal -4.764234e-15 -1.000000e+00 6.023674e-15
    outer loop
      vertex 4.142772e+02 -9.000000e+00 6.845706e+02
      vertex 4.141595e+02 -9.000000e+00 6.847725e+02
      vertex 4.110293e+02 -9.000000e+00 6.822967e+02
    endloop
  endfacet
  facet normal -9.243181e-01 3.931451e-12 -3.816229e-01
    outer loop
      vertex 4.115294e+02 9.000000e+00 6.810855e+02
      vertex 4.110293e+02 -9.000000e+00 6.822967e+02
      vertex 4.110293e+02 9.000000e+00 6.822967e+02
    endloop
  endfacet
  facet normal -8.978971e-01 1.860277e-07 -4.402053e-01
    outer loop
      vertex 4.075011e+02 9.000000e+00 6.876109e+02
      vertex 4.075010e+02 -9.000000e+00 6.876109e+02
      vertex 4.046930e+02 -9.000000e+00 6.933386e+02
    endloop
  endfacet
  facet normal -8.331005e-01 -1.816718e-07 -5.531216e-01
    outer loop
      vertex 4.110293e+02 9.000000e+00 6.822967e+02
      vertex 4.075010e+02 -9.000000e+00 6.876109e+02
      vertex 4.075011e+02 9.000000e+00 6.876109e+02
    endloop
  endfacet
  facet normal -9.474684e-01 -4.305689e-07 -3.198495e-01
    outer loop
      vertex 4.026528e+02 9.000000e+00 6.993820e+02
      vertex 4.046930e+02 -9.000000e+00 6.933386e+02
      vertex 4.026528e+02 -9.000000e+00 6.993821e+02
    endloop
  endfacet
  facet normal -9.474677e-01 3.278786e-07 -3.198516e-01
    outer loop
      vertex 4.046930e+02 9.000000e+00 6.933386e+02
      vertex 4.046930e+02 -9.000000e+00 6.933386e+02
      vertex 4.026528e+02 9.000000e+00 6.993820e+02
    endloop
  endfacet
  facet normal -8.978965e-01 -3.260161e-07 -4.402066e-01
    outer loop
      vertex 4.075011e+02 9.000000e+00 6.876109e+02
      vertex 4.046930e+02 -9.000000e+00 6.933386e+02
      vertex 4.046930e+02 9.000000e+00 6.933386e+02
    endloop
  endfacet
  facet normal -9.809832e-01 -4.929881e-07 -1.940924e-01
    outer loop
      vertex 4.014150e+02 9.000000e+00 7.056380e+02
      vertex 4.026528e+02 -9.000000e+00 6.993821e+02
      vertex 4.014150e+02 -9.000000e+00 7.056381e+02
    endloop
  endfacet
  facet normal -9.809827e-01 4.277862e-07 -1.940950e-01
    outer loop
      vertex 4.026528e+02 9.000000e+00 6.993820e+02
      vertex 4.026528e+02 -9.000000e+00 6.993821e+02
      vertex 4.014150e+02 9.000000e+00 7.056380e+02
    endloop
  endfacet
  facet normal -9.978811e-01 -5.109421e-07 -6.506345e-02
    outer loop
      vertex 4.010002e+02 9.000000e+00 7.119999e+02
      vertex 4.014150e+02 -9.000000e+00 7.056381e+02
      vertex 4.010002e+02 -9.000000e+00 7.120001e+02
    endloop
  endfacet
  facet normal -9.978809e-01 4.880012e-07 -6.506626e-02
    outer loop
      vertex 4.014150e+02 9.000000e+00 7.056380e+02
      vertex 4.014150e+02 -9.000000e+00 7.056381e+02
      vertex 4.010002e+02 9.000000e+00 7.119999e+02
    endloop
  endfacet
  facet normal -9.978809e-01 -4.880012e-07 6.506626e-02
    outer loop
      vertex 4.014150e+02 9.000000e+00 7.183619e+02
      vertex 4.010002e+02 -9.000000e+00 7.120001e+02
      vertex 4.014150e+02 -9.000000e+00 7.183620e+02
    endloop
  endfacet
  facet normal -9.978811e-01 5.109421e-07 6.506345e-02
    outer loop
      vertex 4.010002e+02 9.000000e+00 7.119999e+02
      vertex 4.010002e+02 -9.000000e+00 7.120001e+02
      vertex 4.014150e+02 9.000000e+00 7.183619e+02
    endloop
  endfacet
  facet normal -9.809827e-01 -4.277862e-07 1.940950e-01
    outer loop
      vertex 4.026528e+02 9.000000e+00 7.246179e+02
      vertex 4.014150e+02 -9.000000e+00 7.183620e+02
      vertex 4.026528e+02 -9.000000e+00 7.246180e+02
    endloop
  endfacet
  facet normal -9.809832e-01 4.929882e-07 1.940924e-01
    outer loop
      vertex 4.014150e+02 9.000000e+00 7.183619e+02
      vertex 4.014150e+02 -9.000000e+00 7.183620e+02
      vertex 4.026528e+02 9.000000e+00 7.246179e+02
    endloop
  endfacet
  facet normal -9.474677e-01 -3.278786e-07 3.198516e-01
    outer loop
      vertex 4.046930e+02 9.000000e+00 7.306614e+02
      vertex 4.026528e+02 -9.000000e+00 7.246180e+02
      vertex 4.046930e+02 -9.000000e+00 7.306614e+02
    endloop
  endfacet
  facet normal -9.474684e-01 4.305689e-07 3.198495e-01
    outer loop
      vertex 4.026528e+02 9.000000e+00 7.246179e+02
      vertex 4.026528e+02 -9.000000e+00 7.246180e+02
      vertex 4.046930e+02 9.000000e+00 7.306614e+02
    endloop
  endfacet
  facet normal -8.978965e-01 3.260161e-07 4.402066e-01
    outer loop
      vertex 4.046930e+02 9.000000e+00 7.306614e+02
      vertex 4.046930e+02 -9.000000e+00 7.306614e+02
      vertex 4.075011e+02 -9.000000e+00 7.363891e+02
    endloop
  endfacet
  facet normal 1.866859e-15 -1.000000e+00 -1.239466e-15
    outer loop
      vertex 4.142772e+02 -9.000000e+00 7.394294e+02
      vertex 4.110293e+02 -9.000000e+00 7.417033e+02
      vertex 4.075011e+02 -9.000000e+00 7.363891e+02
    endloop
  endfacet
  facet normal -8.331005e-01 1.816713e-07 5.531217e-01
    outer loop
      vertex 4.075010e+02 9.000000e+00 7.363891e+02
      vertex 4.075011e+02 -9.000000e+00 7.363891e+02
      vertex 4.110293e+02 -9.000000e+00 7.417033e+02
    endloop
  endfacet
  facet normal -2.495973e-14 -1.000000e+00 5.855171e-14
    outer loop
      vertex 4.141595e+02 -9.000000e+00 7.392275e+02
      vertex 4.142772e+02 -9.000000e+00 7.394294e+02
      vertex 4.075011e+02 -9.000000e+00 7.363891e+02
    endloop
  endfacet
  facet normal -8.978971e-01 -1.860282e-07 4.402053e-01
    outer loop
      vertex 4.046930e+02 9.000000e+00 7.306614e+02
      vertex 4.075011e+02 -9.000000e+00 7.363891e+02
      vertex 4.075010e+02 9.000000e+00 7.363891e+02
    endloop
  endfacet
  facet normal 1.683574e-15 -1.000000e+00 -6.950972e-16
    outer loop
      vertex 4.191488e+02 -9.000000e+00 7.485916e+02
      vertex 4.115294e+02 -9.000000e+00 7.429145e+02
      vertex 4.110293e+02 -9.000000e+00 7.417033e+02
    endloop
  endfacet
  facet normal -9.243180e-01 3.867876e-12 3.816231e-01
    outer loop
      vertex 4.110293e+02 9.000000e+00 7.417033e+02
      vertex 4.110293e+02 -9.000000e+00 7.417033e+02
      vertex 4.115294e+02 -9.000000e+00 7.429145e+02
    endloop
  endfacet
  facet normal 1.992795e-15 -1.000000e+00 -1.059588e-15
    outer loop
      vertex 4.142772e+02 -9.000000e+00 7.394294e+02
      vertex 4.191488e+02 -9.000000e+00 7.485916e+02
      vertex 4.110293e+02 -9.000000e+00 7.417033e+02
    endloop
  endfacet
  facet normal -8.331008e-01 3.993446e-12 5.531212e-01
    outer loop
      vertex 4.075010e+02 9.000000e+00 7.363891e+02
      vertex 4.110293e+02 -9.000000e+00 7.417033e+02
      vertex 4.110293e+02 9.000000e+00 7.417033e+02
    endloop
  endfacet
  facet normal 1.065530e-15 -1.000000e+00 1.344103e-16
    outer loop
      vertex 4.191488e+02 -9.000000e+00 7.485916e+02
      vertex 4.113669e+02 -9.000000e+00 7.442028e+02
      vertex 4.115294e+02 -9.000000e+00 7.429145e+02
    endloop
  endfacet
  facet normal -9.921375e-01 2.300503e-04 -1.251523e-01
    outer loop
      vertex 4.113730e+02 9.000000e+00 7.441873e+02
      vertex 4.115294e+02 -9.000000e+00 7.429145e+02
      vertex 4.113669e+02 -9.000000e+00 7.442028e+02
    endloop
  endfacet
  facet normal -9.927625e-01 -1.330373e-04 -1.200940e-01
    outer loop
      vertex 4.115281e+02 9.000000e+00 7.429051e+02
      vertex 4.115294e+02 -9.000000e+00 7.429145e+02
      vertex 4.113730e+02 9.000000e+00 7.441873e+02
    endloop
  endfacet
  facet normal -9.236027e-01 1.361531e-04 3.833510e-01
    outer loop
      vertex 4.110293e+02 9.000000e+00 7.417033e+02
      vertex 4.115294e+02 -9.000000e+00 7.429145e+02
      vertex 4.115281e+02 9.000000e+00 7.429051e+02
    endloop
  endfacet
  facet normal 8.038946e-16 -1.000000e+00 5.983218e-16
    outer loop
      vertex 4.191488e+02 -9.000000e+00 7.485916e+02
      vertex 4.105920e+02 -9.000000e+00 7.452438e+02
      vertex 4.113669e+02 -9.000000e+00 7.442028e+02
    endloop
  endfacet
  facet normal -8.021975e-01 1.798233e-04 -5.970587e-01
    outer loop
      vertex 4.106021e+02 9.000000e+00 7.452357e+02
      vertex 4.113669e+02 -9.000000e+00 7.442028e+02
      vertex 4.105920e+02 -9.000000e+00 7.452438e+02
    endloop
  endfacet
  facet normal -8.056543e-01 -2.352027e-04 -5.923859e-01
    outer loop
      vertex 4.113730e+02 9.000000e+00 7.441873e+02
      vertex 4.113669e+02 -9.000000e+00 7.442028e+02
      vertex 4.106021e+02 9.000000e+00 7.452357e+02
    endloop
  endfacet
  facet normal 5.506009e-16 -1.000000e+00 1.245739e-15
    outer loop
      vertex 4.191488e+02 -9.000000e+00 7.485916e+02
      vertex 4.094029e+02 -9.000000e+00 7.457694e+02
      vertex 4.105920e+02 -9.000000e+00 7.452438e+02
    endloop
  endfacet
  facet normal -4.042609e-01 1.826775e-04 -9.146437e-01
    outer loop
      vertex 4.094157e+02 9.000000e+00 7.457674e+02
      vertex 4.105920e+02 -9.000000e+00 7.452438e+02
      vertex 4.094029e+02 -9.000000e+00 7.457694e+02
    endloop
  endfacet
  facet normal -4.089270e-01 -1.826775e-04 -9.125671e-01
    outer loop
      vertex 4.106021e+02 9.000000e+00 7.452357e+02
      vertex 4.105920e+02 -9.000000e+00 7.452438e+02
      vertex 4.094157e+02 9.000000e+00 7.457674e+02
    endloop
  endfacet
  facet normal 0.000000e+00 -1.000000e+00 0.000000e+00
    outer loop
      vertex 4.041175e+02 -9.000000e+00 7.461067e+02
      vertex 4.081079e+02 -9.000000e+00 7.456404e+02
      vertex 4.094029e+02 -9.000000e+00 7.457694e+02
    endloop
  endfacet
  facet normal 9.916735e-02 2.352028e-04 -9.950707e-01
    outer loop
      vertex 4.081235e+02 9.000000e+00 7.456462e+02
      vertex 4.094029e+02 -9.000000e+00 7.457694e+02
      vertex 4.081079e+02 -9.000000e+00 7.456404e+02
    endloop
  endfacet
  facet normal 1.645378e-16 -1.000000e+00 2.578970e-15
    outer loop
      vertex 4.191488e+02 -9.000000e+00 7.485916e+02
      vertex 4.041175e+02 -9.000000e+00 7.461067e+02
      vertex 4.094029e+02 -9.000000e+00 7.457694e+02
    endloop
  endfacet
  facet normal 9.338199e-02 -1.798233e-04 -9.956303e-01
    outer loop
      vertex 4.094157e+02 9.000000e+00 7.457674e+02
      vertex 4.094029e+02 -9.000000e+00 7.457694e+02
      vertex 4.081235e+02 9.000000e+00 7.456462e+02
    endloop
  endfacet
  facet normal 0.000000e+00 -1.000000e+00 0.000000e+00
    outer loop
      vertex 4.035311e+02 -9.000000e+00 7.441945e+02
      vertex 4.070515e+02 -9.000000e+00 7.448974e+02
      vertex 4.081079e+02 -9.000000e+00 7.456404e+02
    endloop
  endfacet
  facet normal 5.752937e-01 1.330373e-04 -8.179469e-01
    outer loop
      vertex 4.070577e+02 9.000000e+00 7.449047e+02
      vertex 4.081079e+02 -9.000000e+00 7.456404e+02
      vertex 4.070515e+02 -9.000000e+00 7.448974e+02
    endloop
  endfacet
  facet normal 0.000000e+00 -1.000000e+00 0.000000e+00
    outer loop
      vertex 4.041175e+02 -9.000000e+00 7.461067e+02
      vertex 4.035311e+02 -9.000000e+00 7.441945e+02
      vertex 4.081079e+02 -9.000000e+00 7.456404e+02
    endloop
  endfacet
  facet normal 5.711174e-01 -2.300503e-04 -8.208684e-01
    outer loop
      vertex 4.081235e+02 9.000000e+00 7.456462e+02
      vertex 4.081079e+02 -9.000000e+00 7.456404e+02
      vertex 4.070577e+02 9.000000e+00 7.449047e+02
    endloop
  endfacet
  facet normal 0.000000e+00 -1.000000e+00 0.000000e+00
    outer loop
      vertex 4.035311e+02 -9.000000e+00 7.441945e+02
      vertex 4.064925e+02 -9.000000e+00 7.437223e+02
      vertex 4.070515e+02 -9.000000e+00 7.448974e+02
    endloop
  endfacet
  facet normal 9.030291e-01 -1.361530e-04 -4.295793e-01
    outer loop
      vertex 4.070577e+02 9.000000e+00 7.449047e+02
      vertex 4.070515e+02 -9.000000e+00 7.448974e+02
      vertex 4.064925e+02 -9.000000e+00 7.437223e+02
    endloop
  endfacet
  facet normal 0.000000e+00 -1.000000e+00 0.000000e+00
    outer loop
      vertex 4.036938e+02 -9.000000e+00 7.432957e+02
      vertex 4.060585e+02 -9.000000e+00 7.429188e+02
      vertex 4.064925e+02 -9.000000e+00 7.437223e+02
    endloop
  endfacet
  facet normal 8.798753e-01 3.813540e-12 -4.752046e-01
    outer loop
      vertex 4.064925e+02 9.000000e+00 7.437223e+02
      vertex 4.064925e+02 -9.000000e+00 7.437223e+02
      vertex 4.060585e+02 -9.000000e+00 7.429188e+02
    endloop
  endfacet
  facet normal 0.000000e+00 -1.000000e+00 0.000000e+00
    outer loop
      vertex 4.035311e+02 -9.000000e+00 7.441945e+02
      vertex 4.036938e+02 -9.000000e+00 7.432957e+02
      vertex 4.064925e+02 -9.000000e+00 7.437223e+02
    endloop
  endfacet
  facet normal 9.022242e-01 3.868659e-12 -4.312674e-01
    outer loop
      vertex 4.070577e+02 9.000000e+00 7.449047e+02
      vertex 4.064925e+02 -9.000000e+00 7.437223e+02
      vertex 4.064925e+02 9.000000e+00 7.437223e+02
    endloop
  endfacet
  facet normal 0.000000e+00 -1.000000e+00 0.000000e+00
    outer loop
      vertex 4.043445e+02 -9.000000e+00 7.426595e+02
      vertex 4.052422e+02 -9.000000e+00 7.425164e+02
      vertex 4.060585e+02 -9.000000e+00 7.429188e+02
    endloop
  endfacet
  facet normal 4.421054e-01 -7.727627e-07 -8.969631e-01
    outer loop
      vertex 4.060585e+02 9.000000e+00 7.429187e+02
      vertex 4.060585e+02 -9.000000e+00 7.429188e+02
      vertex 4.052422e+02 -9.000000e+00 7.425164e+02
    endloop
  endfacet
  facet normal 0.000000e+00 -1.000000e+00 0.000000e+00
    outer loop
      vertex 4.036938e+02 -9.000000e+00 7.432957e+02
      vertex 4.043445e+02 -9.000000e+00 7.426595e+02
      vertex 4.060585e+02 -9.000000e+00 7.429188e+02
    endloop
  endfacet
  facet normal 8.798681e-01 7.703607e-07 -4.752180e-01
    outer loop
      vertex 4.064925e+02 9.000000e+00 7.437223e+02
      vertex 4.060585e+02 -9.000000e+00 7.429188e+02
      vertex 4.060585e+02 9.000000e+00 7.429187e+02
    endloop
  endfacet
  facet normal -1.574169e-01 -1.157455e-06 -9.875322e-01
    outer loop
      vertex 4.052422e+02 9.000000e+00 7.425164e+02
      vertex 4.052422e+02 -9.000000e+00 7.425164e+02
      vertex 4.043445e+02 -9.000000e+00 7.426595e+02
    endloop
  endfacet
  facet normal 4.420712e-01 1.156450e-06 -8.969800e-01
    outer loop
      vertex 4.060585e+02 9.000000e+00 7.429187e+02
      vertex 4.052422e+02 -9.000000e+00 7.425164e+02
      vertex 4.052422e+02 9.000000e+00 7.425164e+02
    endloop
  endfacet
  facet normal -6.990735e-01 -1.156450e-06 -7.150498e-01
    outer loop
      vertex 4.043445e+02 9.000000e+00 7.426595e+02
      vertex 4.043445e+02 -9.000000e+00 7.426595e+02
      vertex 4.036938e+02 -9.000000e+00 7.432957e+02
    endloop
  endfacet
  facet normal -1.574621e-01 1.157455e-06 -9.875250e-01
    outer loop
      vertex 4.052422e+02 9.000000e+00 7.425164e+02
      vertex 4.043445e+02 -9.000000e+00 7.426595e+02
      vertex 4.043445e+02 9.000000e+00 7.426595e+02
    endloop
  endfacet
  facet normal -9.840166e-01 -7.703264e-07 -1.780766e-01
    outer loop
      vertex 4.036937e+02 9.000000e+00 7.432958e+02
      vertex 4.036938e+02 -9.000000e+00 7.432957e+02
      vertex 4.035311e+02 -9.000000e+00 7.441945e+02
    endloop
  endfacet
  facet normal -6.991008e-01 7.727627e-07 -7.150231e-01
    outer loop
      vertex 4.043445e+02 9.000000e+00 7.426595e+02
      vertex 4.036938e+02 -9.000000e+00 7.432957e+02
      vertex 4.036937e+02 9.000000e+00 7.432958e+02
    endloop
  endfacet
  facet normal -9.560661e-01 -1.851524e-15 2.931512e-01
    outer loop
      vertex 4.035311e+02 9.000000e+00 7.441945e+02
      vertex 4.035311e+02 -9.000000e+00 7.441945e+02
      vertex 4.041175e+02 -9.000000e+00 7.461067e+02
    endloop
  endfacet
  facet normal -9.840193e-01 1.124472e-15 -1.780616e-01
    outer loop
      vertex 4.036937e+02 9.000000e+00 7.432958e+02
      vertex 4.035311e+02 -9.000000e+00 7.441945e+02
      vertex 4.035311e+02 9.000000e+00 7.441945e+02
    endloop
  endfacet
  facet normal 6.722985e-16 -1.000000e+00 -4.924881e-16
    outer loop
      vertex 4.191488e+02 -9.000000e+00 7.485916e+02
      vertex 4.052984e+02 -9.000000e+00 7.477188e+02
      vertex 4.041175e+02 -9.000000e+00 7.461067e+02
    endloop
  endfacet
  facet normal -8.067086e-01 -3.732398e-15 5.909494e-01
    outer loop
      vertex 4.041175e+02 9.000000e+00 7.461067e+02
      vertex 4.041175e+02 -9.000000e+00 7.461067e+02
      vertex 4.052984e+02 -9.000000e+00 7.477188e+02
    endloop
  endfacet
  facet normal -9.560661e-01 -1.850309e-15 2.931512e-01
    outer loop
      vertex 4.035311e+02 9.000000e+00 7.441945e+02
      vertex 4.041175e+02 -9.000000e+00 7.461067e+02
      vertex 4.041175e+02 9.000000e+00 7.461067e+02
    endloop
  endfacet
  facet normal 7.057352e-16 -1.000000e+00 -1.023102e-15
    outer loop
      vertex 4.191488e+02 -9.000000e+00 7.485916e+02
      vertex 4.069448e+02 -9.000000e+00 7.488545e+02
      vertex 4.052984e+02 -9.000000e+00 7.477188e+02
    endloop
  endfacet
  facet normal -5.678134e-01 1.901377e-14 8.231573e-01
    outer loop
      vertex 4.052984e+02 9.000000e+00 7.477188e+02
      vertex 4.052984e+02 -9.000000e+00 7.477188e+02
      vertex 4.069448e+02 -9.000000e+00 7.488545e+02
    endloop
  endfacet
  facet normal -8.067086e-01 4.893788e-14 5.909494e-01
    outer loop
      vertex 4.041175e+02 9.000000e+00 7.461067e+02
      vertex 4.052984e+02 -9.000000e+00 7.477188e+02
      vertex 4.052984e+02 9.000000e+00 7.477188e+02
    endloop
  endfacet
  facet normal 0.000000e+00 -1.000000e+00 0.000000e+00
    outer loop
      vertex 4.180990e+02 -9.000000e+00 7.525373e+02
      vertex 4.152321e+02 -9.000000e+00 7.527189e+02
      vertex 4.069448e+02 -9.000000e+00 7.488545e+02
    endloop
  endfacet
  facet normal -4.226183e-01 0.000000e+00 9.063078e-01
    outer loop
      vertex 4.152321e+02 9.000000e+00 7.527189e+02
      vertex 4.069448e+02 -9.000000e+00 7.488545e+02
      vertex 4.152321e+02 -9.000000e+00 7.527189e+02
    endloop
  endfacet
  facet normal 0.000000e+00 -1.000000e+00 0.000000e+00
    outer loop
      vertex 4.191174e+02 -9.000000e+00 7.514641e+02
      vertex 4.180990e+02 -9.000000e+00 7.525373e+02
      vertex 4.069448e+02 -9.000000e+00 7.488545e+02
    endloop
  endfacet
  facet normal 0.000000e+00 -1.000000e+00 0.000000e+00
    outer loop
      vertex 4.194993e+02 -9.000000e+00 7.500336e+02
      vertex 4.191174e+02 -9.000000e+00 7.514641e+02
      vertex 4.069448e+02 -9.000000e+00 7.488545e+02
    endloop
  endfacet
  facet normal 5.920058e-16 -1.000000e+00 -6.302942e-15
    outer loop
      vertex 4.191488e+02 -9.000000e+00 7.485916e+02
      vertex 4.194993e+02 -9.000000e+00 7.500336e+02
      vertex 4.069448e+02 -9.000000e+00 7.488545e+02
    endloop
  endfacet
  facet normal -4.226183e-01 0.000000e+00 9.063078e-01
    outer loop
      vertex 4.069448e+02 9.000000e+00 7.488545e+02
      vertex 4.069448e+02 -9.000000e+00 7.488545e+02
      vertex 4.152321e+02 9.000000e+00 7.527189e+02
    endloop
  endfacet
  facet normal -5.678134e-01 0.000000e+00 8.231573e-01
    outer loop
      vertex 4.052984e+02 9.000000e+00 7.477188e+02
      vertex 4.069448e+02 -9.000000e+00 7.488545e+02
      vertex 4.069448e+02 9.000000e+00 7.488545e+02
    endloop
  endfacet
  facet normal 0.000000e+00 -1.000000e+00 0.000000e+00
    outer loop
      vertex 4.180990e+02 -9.000000e+00 7.525373e+02
      vertex 4.166905e+02 -9.000000e+00 7.529934e+02
      vertex 4.152321e+02 -9.000000e+00 7.527189e+02
    endloop
  endfacet
  facet normal -1.849710e-01 0.000000e+00 9.827440e-01
    outer loop
      vertex 4.152321e+02 9.000000e+00 7.527189e+02
      vertex 4.152321e+02 -9.000000e+00 7.527189e+02
      vertex 4.166905e+02 -9.000000e+00 7.529934e+02
    endloop
  endfacet
  facet normal 3.080982e-01 -6.780558e-07 9.513546e-01
    outer loop
      vertex 4.166906e+02 9.000000e+00 7.529934e+02
      vertex 4.166905e+02 -9.000000e+00 7.529934e+02
      vertex 4.180990e+02 -9.000000e+00 7.525373e+02
    endloop
  endfacet
  facet normal -1.849630e-01 6.745844e-07 9.827455e-01
    outer loop
      vertex 4.152321e+02 9.000000e+00 7.527189e+02
      vertex 4.166905e+02 -9.000000e+00 7.529934e+02
      vertex 4.166906e+02 9.000000e+00 7.529934e+02
    endloop
  endfacet
  facet normal 7.253659e-01 -1.015086e-06 6.883635e-01
    outer loop
      vertex 4.180991e+02 9.000000e+00 7.525372e+02
      vertex 4.180990e+02 -9.000000e+00 7.525373e+02
      vertex 4.191174e+02 -9.000000e+00 7.514641e+02
    endloop
  endfacet
  facet normal 3.081178e-01 1.013477e-06 9.513482e-01
    outer loop
      vertex 4.166906e+02 9.000000e+00 7.529934e+02
      vertex 4.180990e+02 -9.000000e+00 7.525373e+02
      vertex 4.180991e+02 9.000000e+00 7.525372e+02
    endloop
  endfacet
  facet normal 9.661701e-01 -1.013477e-06 2.579058e-01
    outer loop
      vertex 4.191175e+02 9.000000e+00 7.514641e+02
      vertex 4.191174e+02 -9.000000e+00 7.514641e+02
      vertex 4.194993e+02 -9.000000e+00 7.500336e+02
    endloop
  endfacet
  facet normal 7.253829e-01 1.015086e-06 6.883456e-01
    outer loop
      vertex 4.180991e+02 9.000000e+00 7.525372e+02
      vertex 4.191174e+02 -9.000000e+00 7.514641e+02
      vertex 4.191175e+02 9.000000e+00 7.514641e+02
    endloop
  endfacet
  facet normal 9.717184e-01 -6.745845e-07 -2.361424e-01
    outer loop
      vertex 4.194993e+02 9.000000e+00 7.500336e+02
      vertex 4.194993e+02 -9.000000e+00 7.500336e+02
      vertex 4.191488e+02 -9.000000e+00 7.485916e+02
    endloop
  endfacet
  facet normal 9.661754e-01 6.780557e-07 2.578859e-01
    outer loop
      vertex 4.191175e+02 9.000000e+00 7.514641e+02
      vertex 4.194993e+02 -9.000000e+00 7.500336e+02
      vertex 4.194993e+02 9.000000e+00 7.500336e+02
    endloop
  endfacet
  facet normal 8.829476e-01 0.000000e+00 -4.694716e-01
    outer loop
      vertex 4.142772e+02 9.000000e+00 7.394294e+02
      vertex 4.191488e+02 -9.000000e+00 7.485916e+02
      vertex 4.142772e+02 -9.000000e+00 7.394294e+02
    endloop
  endfacet
  facet normal 8.829476e-01 0.000000e+00 -4.694716e-01
    outer loop
      vertex 4.191488e+02 9.000000e+00 7.485916e+02
      vertex 4.191488e+02 -9.000000e+00 7.485916e+02
      vertex 4.142772e+02 9.000000e+00 7.394294e+02
    endloop
  endfacet
  facet normal 9.717165e-01 0.000000e+00 -2.361504e-01
    outer loop
      vertex 4.194993e+02 9.000000e+00 7.500336e+02
      vertex 4.191488e+02 -9.000000e+00 7.485916e+02
      vertex 4.191488e+02 9.000000e+00 7.485916e+02
    endloop
  endfacet
  facet normal 8.639499e-01 0.000000e+00 -5.035778e-01
    outer loop
      vertex 4.142772e+02 9.000000e+00 7.394294e+02
      vertex 4.142772e+02 -9.000000e+00 7.394294e+02
      vertex 4.141595e+02 -9.000000e+00 7.392275e+02
    endloop
  endfacet
  facet normal 8.639499e-01 9.860549e-15 -5.035778e-01
    outer loop
      vertex 4.142772e+02 9.000000e+00 7.394294e+02
      vertex 4.141595e+02 -9.000000e+00 7.392275e+02
      vertex 4.141595e+02 9.000000e+00 7.392275e+02
    endloop
  endfacet
  facet normal 8.639499e-01 -6.798477e-15 5.035778e-01
    outer loop
      vertex 4.141595e+02 9.000000e+00 6.847725e+02
      vertex 4.141595e+02 -9.000000e+00 6.847725e+02
      vertex 4.142772e+02 -9.000000e+00 6.845706e+02
    endloop
  endfacet
  facet normal 8.829476e-01 -1.190417e-13 4.694716e-01
    outer loop
      vertex 4.191488e+02 9.000000e+00 6.754084e+02
      vertex 4.142772e+02 -9.000000e+00 6.845706e+02
      vertex 4.191488e+02 -9.000000e+00 6.754084e+02
    endloop
  endfacet
  facet normal 8.829476e-01 -2.522099e-13 4.694716e-01
    outer loop
      vertex 4.142772e+02 9.000000e+00 6.845706e+02
      vertex 4.142772e+02 -9.000000e+00 6.845706e+02
      vertex 4.191488e+02 9.000000e+00 6.754084e+02
    endloop
  endfacet
  facet normal 8.639499e-01 -1.563184e-13 5.035778e-01
    outer loop
      vertex 4.141595e+02 9.000000e+00 6.847725e+02
      vertex 4.142772e+02 -9.000000e+00 6.845706e+02
      vertex 4.142772e+02 9.000000e+00 6.845706e+02
    endloop
  endfacet
  facet normal 9.717165e-01 9.959019e-17 2.361504e-01
    outer loop
      vertex 4.191488e+02 9.000000e+00 6.754084e+02
      vertex 4.191488e+02 -9.000000e+00 6.754084e+02
      vertex 4.194993e+02 -9.000000e+00 6.739664e+02
    endloop
  endfacet
  facet normal 9.661754e-01 -6.780556e-07 -2.578859e-01
    outer loop
      vertex 4.194993e+02 9.000000e+00 6.739664e+02
      vertex 4.194993e+02 -9.000000e+00 6.739664e+02
      vertex 4.191175e+02 -9.000000e+00 6.725359e+02
    endloop
  endfacet
  facet normal 9.717184e-01 6.745844e-07 2.361424e-01
    outer loop
      vertex 4.194993e+02 9.000000e+00 6.739664e+02
      vertex 4.191488e+02 9.000000e+00 6.754084e+02
      vertex 4.194993e+02 -9.000000e+00 6.739664e+02
    endloop
  endfacet
  facet normal 7.253829e-01 -1.015086e-06 -6.883456e-01
    outer loop
      vertex 4.191174e+02 9.000000e+00 6.725359e+02
      vertex 4.191175e+02 -9.000000e+00 6.725359e+02
      vertex 4.180991e+02 -9.000000e+00 6.714628e+02
    endloop
  endfacet
  facet normal 9.661701e-01 1.013477e-06 -2.579058e-01
    outer loop
      vertex 4.191174e+02 9.000000e+00 6.725359e+02
      vertex 4.194993e+02 9.000000e+00 6.739664e+02
      vertex 4.191175e+02 -9.000000e+00 6.725359e+02
    endloop
  endfacet
  facet normal 3.081178e-01 -1.013477e-06 -9.513482e-01
    outer loop
      vertex 4.180990e+02 9.000000e+00 6.714627e+02
      vertex 4.180991e+02 -9.000000e+00 6.714628e+02
      vertex 4.166906e+02 -9.000000e+00 6.710066e+02
    endloop
  endfacet
  facet normal 7.253659e-01 1.015086e-06 -6.883635e-01
    outer loop
      vertex 4.180990e+02 9.000000e+00 6.714627e+02
      vertex 4.191174e+02 9.000000e+00 6.725359e+02
      vertex 4.180991e+02 -9.000000e+00 6.714628e+02
    endloop
  endfacet
  facet normal 3.080982e-01 6.780556e-07 -9.513546e-01
    outer loop
      vertex 4.166905e+02 9.000000e+00 6.710066e+02
      vertex 4.180990e+02 9.000000e+00 6.714627e+02
      vertex 4.166906e+02 -9.000000e+00 6.710066e+02
    endloop
  endfacet
  facet normal 0.000000e+00 1.000000e+00 0.000000e+00
    outer loop
      vertex 4.069448e+02 9.000000e+00 6.751455e+02
      vertex 4.191488e+02 9.000000e+00 6.754084e+02
      vertex 4.194993e+02 9.000000e+00 6.739664e+02
    endloop
  endfacet
  facet normal -1.978316e-16 1.000000e+00 2.825674e-16
    outer loop
      vertex 4.110293e+02 9.000000e+00 6.822967e+02
      vertex 4.142772e+02 9.000000e+00 6.845706e+02
      vertex 4.191488e+02 9.000000e+00 6.754084e+02
    endloop
  endfacet
  facet normal -6.734296e-16 1.000000e+00 -2.780387e-16
    outer loop
      vertex 4.115294e+02 9.000000e+00 6.810855e+02
      vertex 4.110293e+02 9.000000e+00 6.822967e+02
      vertex 4.191488e+02 9.000000e+00 6.754084e+02
    endloop
  endfacet
  facet normal 5.129269e-16 1.000000e+00 1.314228e-15
    outer loop
      vertex 4.113669e+02 9.000000e+00 6.797972e+02
      vertex 4.115294e+02 9.000000e+00 6.810855e+02
      vertex 4.191488e+02 9.000000e+00 6.754084e+02
    endloop
  endfacet
  facet normal -1.607789e-16 1.000000e+00 1.196644e-16
    outer loop
      vertex 4.105920e+02 9.000000e+00 6.787562e+02
      vertex 4.113669e+02 9.000000e+00 6.797972e+02
      vertex 4.191488e+02 9.000000e+00 6.754084e+02
    endloop
  endfacet
  facet normal -1.101202e-16 1.000000e+00 2.491478e-16
    outer loop
      vertex 4.094029e+02 9.000000e+00 6.782306e+02
      vertex 4.105920e+02 9.000000e+00 6.787562e+02
      vertex 4.191488e+02 9.000000e+00 6.754084e+02
    endloop
  endfacet
  facet normal -3.290756e-17 1.000000e+00 5.157940e-16
    outer loop
      vertex 4.041175e+02 9.000000e+00 6.778933e+02
      vertex 4.094029e+02 9.000000e+00 6.782306e+02
      vertex 4.191488e+02 9.000000e+00 6.754084e+02
    endloop
  endfacet
  facet normal -1.344597e-16 1.000000e+00 -9.849762e-17
    outer loop
      vertex 4.052984e+02 9.000000e+00 6.762812e+02
      vertex 4.041175e+02 9.000000e+00 6.778933e+02
      vertex 4.191488e+02 9.000000e+00 6.754084e+02
    endloop
  endfacet
  facet normal -3.267213e-17 1.000000e+00 1.516790e-15
    outer loop
      vertex 4.069448e+02 9.000000e+00 6.751455e+02
      vertex 4.052984e+02 9.000000e+00 6.762812e+02
      vertex 4.191488e+02 9.000000e+00 6.754084e+02
    endloop
  endfacet
  facet normal 0.000000e+00 1.000000e+00 0.000000e+00
    outer loop
      vertex 4.069448e+02 9.000000e+00 6.751455e+02
      vertex 4.194993e+02 9.000000e+00 6.739664e+02
      vertex 4.191174e+02 9.000000e+00 6.725359e+02
    endloop
  endfacet
  facet normal 2.948816e-16 1.000000e+00 1.375460e-15
    outer loop
      vertex 4.069448e+02 9.000000e+00 6.751455e+02
      vertex 4.191174e+02 9.000000e+00 6.725359e+02
      vertex 4.180990e+02 9.000000e+00 6.714627e+02
    endloop
  endfacet
  facet normal -7.703286e-16 1.000000e+00 2.378643e-15
    outer loop
      vertex 4.152321e+02 9.000000e+00 6.712811e+02
      vertex 4.180990e+02 9.000000e+00 6.714627e+02
      vertex 4.166905e+02 9.000000e+00 6.710066e+02
    endloop
  endfacet
  facet normal -5.454852e-16 1.000000e+00 -1.169797e-15
    outer loop
      vertex 4.069448e+02 9.000000e+00 6.751455e+02
      vertex 4.180990e+02 9.000000e+00 6.714627e+02
      vertex 4.152321e+02 9.000000e+00 6.712811e+02
    endloop
  endfacet
  facet normal -3.549852e-16 1.000000e+00 -2.069132e-16
    outer loop
      vertex 4.075011e+02 9.000000e+00 6.876109e+02
      vertex 4.141595e+02 9.000000e+00 6.847725e+02
      vertex 4.142772e+02 9.000000e+00 6.845706e+02
    endloop
  endfacet
  facet normal -1.597645e-16 1.000000e+00 2.281952e-16
    outer loop
      vertex 4.110293e+02 9.000000e+00 6.822967e+02
      vertex 4.075011e+02 9.000000e+00 6.876109e+02
      vertex 4.142772e+02 9.000000e+00 6.845706e+02
    endloop
  endfacet
  facet normal 4.764234e-15 1.000000e+00 6.023674e-15
    outer loop
      vertex 4.110293e+02 9.000000e+00 7.417033e+02
      vertex 4.142772e+02 9.000000e+00 7.394294e+02
      vertex 4.141595e+02 9.000000e+00 7.392275e+02
    endloop
  endfacet
  facet normal 0.000000e+00 1.000000e+00 0.000000e+00
    outer loop
      vertex 4.113730e+02 9.000000e+00 7.441873e+02
      vertex 4.191488e+02 9.000000e+00 7.485916e+02
      vertex 4.142772e+02 9.000000e+00 7.394294e+02
    endloop
  endfacet
  facet normal 0.000000e+00 1.000000e+00 0.000000e+00
    outer loop
      vertex 4.115281e+02 9.000000e+00 7.429051e+02
      vertex 4.113730e+02 9.000000e+00 7.441873e+02
      vertex 4.142772e+02 9.000000e+00 7.394294e+02
    endloop
  endfacet
  facet normal 1.225593e-15 1.000000e+00 9.693536e-16
    outer loop
      vertex 4.110293e+02 9.000000e+00 7.417033e+02
      vertex 4.115281e+02 9.000000e+00 7.429051e+02
      vertex 4.142772e+02 9.000000e+00 7.394294e+02
    endloop
  endfacet
  facet normal -2.631969e-16 1.000000e+00 1.295820e-15
    outer loop
      vertex 4.069448e+02 9.000000e+00 7.488545e+02
      vertex 4.194993e+02 9.000000e+00 7.500336e+02
      vertex 4.191488e+02 9.000000e+00 7.485916e+02
    endloop
  endfacet
  facet normal -2.496219e-16 1.000000e+00 1.926031e-15
    outer loop
      vertex 4.052984e+02 9.000000e+00 7.477188e+02
      vertex 4.069448e+02 9.000000e+00 7.488545e+02
      vertex 4.191488e+02 9.000000e+00 7.485916e+02
    endloop
  endfacet
  facet normal -1.527706e-16 1.000000e+00 3.890772e-16
    outer loop
      vertex 4.106021e+02 9.000000e+00 7.452357e+02
      vertex 4.052984e+02 9.000000e+00 7.477188e+02
      vertex 4.191488e+02 9.000000e+00 7.485916e+02
    endloop
  endfacet
  facet normal 0.000000e+00 1.000000e+00 0.000000e+00
    outer loop
      vertex 4.113730e+02 9.000000e+00 7.441873e+02
      vertex 4.106021e+02 9.000000e+00 7.452357e+02
      vertex 4.191488e+02 9.000000e+00 7.485916e+02
    endloop
  endfacet
  facet normal -5.003271e-16 1.000000e+00 -1.335444e-16
    outer loop
      vertex 4.152321e+02 9.000000e+00 7.527189e+02
      vertex 4.191175e+02 9.000000e+00 7.514641e+02
      vertex 4.194993e+02 9.000000e+00 7.500336e+02
    endloop
  endfacet
  facet normal -1.771779e-16 1.000000e+00 3.799593e-16
    outer loop
      vertex 4.069448e+02 9.000000e+00 7.488545e+02
      vertex 4.152321e+02 9.000000e+00 7.527189e+02
      vertex 4.194993e+02 9.000000e+00 7.500336e+02
    endloop
  endfacet
  facet normal 1.116171e-16 1.000000e+00 1.761178e-15
    outer loop
      vertex 4.152321e+02 9.000000e+00 7.527189e+02
      vertex 4.180991e+02 9.000000e+00 7.525372e+02
      vertex 4.191175e+02 9.000000e+00 7.514641e+02
    endloop
  endfacet
  facet normal 0.000000e+00 1.000000e+00 0.000000e+00
    outer loop
      vertex 4.152321e+02 9.000000e+00 7.527189e+02
      vertex 4.166906e+02 9.000000e+00 7.529934e+02
      vertex 4.180991e+02 9.000000e+00 7.525372e+02
    endloop
  endfacet
  facet normal 6.739466e-17 1.000000e+00 1.052493e-15
    outer loop
      vertex 4.094157e+02 9.000000e+00 7.457674e+02
      vertex 4.041175e+02 9.000000e+00 7.461067e+02
      vertex 4.052984e+02 9.000000e+00 7.477188e+02
    endloop
  endfacet
  facet normal 7.478132e-15 1.000000e+00 1.668830e-14
    outer loop
      vertex 4.106021e+02 9.000000e+00 7.452357e+02
      vertex 4.094157e+02 9.000000e+00 7.457674e+02
      vertex 4.052984e+02 9.000000e+00 7.477188e+02
    endloop
  endfacet
  facet normal 0.000000e+00 1.000000e+00 0.000000e+00
    outer loop
      vertex 4.070577e+02 9.000000e+00 7.449047e+02
      vertex 4.035311e+02 9.000000e+00 7.441945e+02
      vertex 4.041175e+02 9.000000e+00 7.461067e+02
    endloop
  endfacet
  facet normal 0.000000e+00 1.000000e+00 0.000000e+00
    outer loop
      vertex 4.081235e+02 9.000000e+00 7.456462e+02
      vertex 4.070577e+02 9.000000e+00 7.449047e+02
      vertex 4.041175e+02 9.000000e+00 7.461067e+02
    endloop
  endfacet
  facet normal 0.000000e+00 1.000000e+00 0.000000e+00
    outer loop
      vertex 4.094157e+02 9.000000e+00 7.457674e+02
      vertex 4.081235e+02 9.000000e+00 7.456462e+02
      vertex 4.041175e+02 9.000000e+00 7.461067e+02
    endloop
  endfacet
  facet normal 0.000000e+00 1.000000e+00 0.000000e+00
    outer loop
      vertex 4.064925e+02 9.000000e+00 7.437223e+02
      vertex 4.036937e+02 9.000000e+00 7.432958e+02
      vertex 4.035311e+02 9.000000e+00 7.441945e+02
    endloop
  endfacet
  facet normal 0.000000e+00 1.000000e+00 0.000000e+00
    outer loop
      vertex 4.070577e+02 9.000000e+00 7.449047e+02
      vertex 4.064925e+02 9.000000e+00 7.437223e+02
      vertex 4.035311e+02 9.000000e+00 7.441945e+02
    endloop
  endfacet
  facet normal 0.000000e+00 1.000000e+00 0.000000e+00
    outer loop
      vertex 4.060585e+02 9.000000e+00 7.429187e+02
      vertex 4.043445e+02 9.000000e+00 7.426595e+02
      vertex 4.036937e+02 9.000000e+00 7.432958e+02
    endloop
  endfacet
  facet normal 0.000000e+00 1.000000e+00 0.000000e+00
    outer loop
      vertex 4.064925e+02 9.000000e+00 7.437223e+02
      vertex 4.060585e+02 9.000000e+00 7.429187e+02
      vertex 4.036937e+02 9.000000e+00 7.432958e+02
    endloop
  endfacet
  facet normal 0.000000e+00 1.000000e+00 0.000000e+00
    outer loop
      vertex 4.060585e+02 9.000000e+00 7.429187e+02
      vertex 4.052422e+02 9.000000e+00 7.425164e+02
      vertex 4.043445e+02 9.000000e+00 7.426595e+02
    endloop
  endfacet
  facet normal 0.000000e+00 1.000000e+00 0.000000e+00
    outer loop
      vertex 4.041175e+02 9.000000e+00 6.778933e+02
      vertex 4.081079e+02 9.000000e+00 6.783596e+02
      vertex 4.094029e+02 9.000000e+00 6.782306e+02
    endloop
  endfacet
  facet normal 0.000000e+00 1.000000e+00 0.000000e+00
    outer loop
      vertex 4.035311e+02 9.000000e+00 6.798055e+02
      vertex 4.070515e+02 9.000000e+00 6.791026e+02
      vertex 4.081079e+02 9.000000e+00 6.783596e+02
    endloop
  endfacet
  facet normal 0.000000e+00 1.000000e+00 0.000000e+00
    outer loop
      vertex 4.041175e+02 9.000000e+00 6.778933e+02
      vertex 4.035311e+02 9.000000e+00 6.798055e+02
      vertex 4.081079e+02 9.000000e+00 6.783596e+02
    endloop
  endfacet
  facet normal 0.000000e+00 1.000000e+00 0.000000e+00
    outer loop
      vertex 4.035311e+02 9.000000e+00 6.798055e+02
      vertex 4.064925e+02 9.000000e+00 6.802777e+02
      vertex 4.070515e+02 9.000000e+00 6.791026e+02
    endloop
  endfacet
  facet normal -3.244599e-16 1.000000e+00 2.035352e-15
    outer loop
      vertex 4.036938e+02 9.000000e+00 6.807043e+02
      vertex 4.060585e+02 9.000000e+00 6.810812e+02
      vertex 4.064925e+02 9.000000e+00 6.802777e+02
    endloop
  endfacet
  facet normal -3.244753e-16 1.000000e+00 2.035251e-15
    outer loop
      vertex 4.035311e+02 9.000000e+00 6.798055e+02
      vertex 4.036938e+02 9.000000e+00 6.807043e+02
      vertex 4.064925e+02 9.000000e+00 6.802777e+02
    endloop
  endfacet
  facet normal 0.000000e+00 1.000000e+00 0.000000e+00
    outer loop
      vertex 4.043445e+02 9.000000e+00 6.813405e+02
      vertex 4.052422e+02 9.000000e+00 6.814836e+02
      vertex 4.060585e+02 9.000000e+00 6.810812e+02
    endloop
  endfacet
  facet normal 0.000000e+00 1.000000e+00 0.000000e+00
    outer loop
      vertex 4.036938e+02 9.000000e+00 6.807043e+02
      vertex 4.043445e+02 9.000000e+00 6.813405e+02
      vertex 4.060585e+02 9.000000e+00 6.810812e+02
    endloop
  endfacet
endsolid IRB140_-_M2004C_COMPLETE
