solid IRB140_-_M2004C_COMPLETE
	color 0 0 0
  facet normal -9.522390e-04 -5.684339e-15 -9.999995e-01
    outer loop
      vertex 2.378478e+02 -6.400000e+01 7.074197e+02
      vertex 2.270250e+02 -4.400000e+01 7.074300e+02
      vertex 2.378478e+02 -4.400000e+01 7.074197e+02
    endloop
  endfacet
  facet normal 4.056940e-17 -1.000000e+00 4.260420e-14
    outer loop
      vertex 2.381713e+02 -4.400000e+01 7.065855e+02
      vertex 2.378478e+02 -4.400000e+01 7.074197e+02
      vertex 2.270250e+02 -4.400000e+01 7.074300e+02
    endloop
  endfacet
  facet normal 9.455014e-01 1.841742e-15 3.256181e-01
    outer loop
      vertex 2.318179e+02 -6.400000e+01 7.249289e+02
      vertex 2.378478e+02 -6.400000e+01 7.074197e+02
      vertex 2.378478e+02 -4.400000e+01 7.074197e+02
    endloop
  endfacet
  facet normal 9.455014e-01 -9.680563e-14 3.256181e-01
    outer loop
      vertex 2.318179e+02 -6.400000e+01 7.249289e+02
      vertex 2.378478e+02 -4.400000e+01 7.074197e+02
      vertex 2.370232e+02 -4.400000e+01 7.098140e+02
    endloop
  endfacet
  facet normal -1.184405e-12 -1.000000e+00 -4.167964e-13
    outer loop
      vertex 2.381713e+02 -4.400000e+01 7.065855e+02
      vertex 2.370232e+02 -4.400000e+01 7.098140e+02
      vertex 2.378478e+02 -4.400000e+01 7.074197e+02
    endloop
  endfacet
  facet normal -9.522390e-04 0.000000e+00 -9.999995e-01
    outer loop
      vertex 2.378478e+02 -6.400000e+01 7.074197e+02
      vertex 2.270250e+02 -6.400000e+01 7.074300e+02
      vertex 2.270250e+02 -4.400000e+01 7.074300e+02
    endloop
  endfacet
  facet normal -1.000000e+00 0.000000e+00 0.000000e+00
    outer loop
      vertex 2.270250e+02 -4.400000e+01 7.098140e+02
      vertex 2.270250e+02 -4.400000e+01 7.074300e+02
      vertex 2.270250e+02 -6.400000e+01 7.074300e+02
    endloop
  endfacet
  facet normal -4.450628e-15 -1.000000e+00 -1.667386e-14
    outer loop
      vertex 2.270250e+02 -4.400000e+01 7.065778e+02
      vertex 2.381713e+02 -4.400000e+01 7.065855e+02
      vertex 2.270250e+02 -4.400000e+01 7.074300e+02
    endloop
  endfacet
  facet normal -5.745297e-14 -1.000000e+00 -1.667386e-14
    outer loop
      vertex 2.260858e+02 -4.400000e+01 7.098140e+02
      vertex 2.270250e+02 -4.400000e+01 7.065778e+02
      vertex 2.270250e+02 -4.400000e+01 7.074300e+02
    endloop
  endfacet
  facet normal 0.000000e+00 -1.000000e+00 5.961050e-15
    outer loop
      vertex 2.270250e+02 -4.400000e+01 7.098140e+02
      vertex 2.260858e+02 -4.400000e+01 7.098140e+02
      vertex 2.270250e+02 -4.400000e+01 7.074300e+02
    endloop
  endfacet
  facet normal 1.159672e-18 -1.000000e+00 1.217837e-15
    outer loop
      vertex 2.318179e+02 -6.400000e+01 7.249289e+02
      vertex 2.270250e+02 -6.400000e+01 7.074300e+02
      vertex 2.378478e+02 -6.400000e+01 7.074197e+02
    endloop
  endfacet
  facet normal -2.964992e-15 -1.000000e+00 2.030258e-15
    outer loop
      vertex 2.270250e+02 -6.400000e+01 7.249289e+02
      vertex 2.270250e+02 -6.400000e+01 7.074300e+02
      vertex 2.318179e+02 -6.400000e+01 7.249289e+02
    endloop
  endfacet
  facet normal -1.000000e+00 2.333373e-16 -1.957567e-15
    outer loop
      vertex 2.270250e+02 -4.400000e+01 7.098140e+02
      vertex 2.270250e+02 -6.400000e+01 7.074300e+02
      vertex 2.270250e+02 -3.900000e+01 7.249289e+02
    endloop
  endfacet
  facet normal -1.000000e+00 -7.386034e-30 -1.624206e-15
    outer loop
      vertex 2.270250e+02 -6.400000e+01 7.249289e+02
      vertex 2.270250e+02 -3.900000e+01 7.249289e+02
      vertex 2.270250e+02 -6.400000e+01 7.074300e+02
    endloop
  endfacet
  facet normal 9.455014e-01 -3.893814e-15 3.256181e-01
    outer loop
      vertex 2.318179e+02 -6.400000e+01 7.249289e+02
      vertex 2.370232e+02 -3.900000e+01 7.098140e+02
      vertex 2.318179e+02 -3.900000e+01 7.249289e+02
    endloop
  endfacet
  facet normal 0.000000e+00 1.000000e+00 0.000000e+00
    outer loop
      vertex 2.330349e+02 -3.900000e+01 6.962427e+02
      vertex 2.318179e+02 -3.900000e+01 7.249289e+02
      vertex 2.370232e+02 -3.900000e+01 7.098140e+02
    endloop
  endfacet
  facet normal 1.348322e-29 4.547474e-15 1.000000e+00
    outer loop
      vertex 2.270250e+02 -6.400000e+01 7.249289e+02
      vertex 2.318179e+02 -6.400000e+01 7.249289e+02
      vertex 2.318179e+02 -3.900000e+01 7.249289e+02
    endloop
  endfacet
  facet normal 0.000000e+00 1.000000e+00 7.991612e-15
    outer loop
      vertex 2.270250e+02 -3.900000e+01 7.098140e+02
      vertex 2.270250e+02 -3.900000e+01 7.249289e+02
      vertex 2.318179e+02 -3.900000e+01 7.249289e+02
    endloop
  endfacet
  facet normal 0.000000e+00 4.547474e-15 1.000000e+00
    outer loop
      vertex 2.270250e+02 -6.400000e+01 7.249289e+02
      vertex 2.318179e+02 -3.900000e+01 7.249289e+02
      vertex 2.270250e+02 -3.900000e+01 7.249289e+02
    endloop
  endfacet
  facet normal 7.101562e-14 1.000000e+00 -1.452722e-14
    outer loop
      vertex 2.270250e+02 -3.900000e+01 7.014991e+02
      vertex 2.270250e+02 -3.900000e+01 7.098140e+02
      vertex 2.318179e+02 -3.900000e+01 7.249289e+02
    endloop
  endfacet
  facet normal 0.000000e+00 1.000000e+00 0.000000e+00
    outer loop
      vertex 2.270250e+02 -3.900000e+01 6.962427e+02
      vertex 2.270250e+02 -3.900000e+01 7.014991e+02
      vertex 2.318179e+02 -3.900000e+01 7.249289e+02
    endloop
  endfacet
  facet normal 0.000000e+00 1.000000e+00 0.000000e+00
    outer loop
      vertex 2.330349e+02 -3.900000e+01 6.962427e+02
      vertex 2.270250e+02 -3.900000e+01 6.962427e+02
      vertex 2.318179e+02 -3.900000e+01 7.249289e+02
    endloop
  endfacet
  facet normal 9.455014e-01 7.289395e-15 3.256181e-01
    outer loop
      vertex 2.318179e+02 -6.400000e+01 7.249289e+02
      vertex 2.370232e+02 -4.400000e+01 7.098140e+02
      vertex 2.370232e+02 -3.900000e+01 7.098140e+02
    endloop
  endfacet
  facet normal 0.000000e+00 2.273737e-14 1.000000e+00
    outer loop
      vertex 2.469635e+02 -4.400000e+01 7.098140e+02
      vertex 2.370232e+02 -3.900000e+01 7.098140e+02
      vertex 2.370232e+02 -4.400000e+01 7.098140e+02
    endloop
  endfacet
  facet normal 0.000000e+00 1.000000e+00 0.000000e+00
    outer loop
      vertex 2.399802e+02 -3.900000e+01 7.014991e+02
      vertex 2.370232e+02 -3.900000e+01 7.098140e+02
      vertex 2.469635e+02 -3.900000e+01 7.098140e+02
    endloop
  endfacet
  facet normal 0.000000e+00 2.273737e-14 1.000000e+00
    outer loop
      vertex 2.469635e+02 -4.400000e+01 7.098140e+02
      vertex 2.469635e+02 -3.900000e+01 7.098140e+02
      vertex 2.370232e+02 -3.900000e+01 7.098140e+02
    endloop
  endfacet
  facet normal 0.000000e+00 1.000000e+00 0.000000e+00
    outer loop
      vertex 2.354063e+02 -3.900000e+01 6.890210e+02
      vertex 2.330349e+02 -3.900000e+01 6.962427e+02
      vertex 2.370232e+02 -3.900000e+01 7.098140e+02
    endloop
  endfacet
  facet normal 0.000000e+00 1.000000e+00 0.000000e+00
    outer loop
      vertex 2.399802e+02 -3.900000e+01 7.014991e+02
      vertex 2.354063e+02 -3.900000e+01 6.890210e+02
      vertex 2.370232e+02 -3.900000e+01 7.098140e+02
    endloop
  endfacet
  facet normal -3.574066e-15 -1.000000e+00 1.994689e-29
    outer loop
      vertex 2.469635e+02 -4.400000e+01 7.065917e+02
      vertex 2.370232e+02 -4.400000e+01 7.098140e+02
      vertex 2.469635e+02 -4.400000e+01 7.014991e+02
    endloop
  endfacet
  facet normal 1.536457e-16 -1.000000e+00 4.456392e-15
    outer loop
      vertex 2.381713e+02 -4.400000e+01 7.065855e+02
      vertex 2.469635e+02 -4.400000e+01 7.014991e+02
      vertex 2.370232e+02 -4.400000e+01 7.098140e+02
    endloop
  endfacet
  facet normal -1.200737e-14 -1.000000e+00 -2.601520e-14
    outer loop
      vertex 2.469635e+02 -4.400000e+01 7.074111e+02
      vertex 2.370232e+02 -4.400000e+01 7.098140e+02
      vertex 2.469635e+02 -4.400000e+01 7.065917e+02
    endloop
  endfacet
  facet normal 0.000000e+00 -1.000000e+00 2.365580e-14
    outer loop
      vertex 2.469635e+02 -4.400000e+01 7.074111e+02
      vertex 2.469635e+02 -4.400000e+01 7.098140e+02
      vertex 2.370232e+02 -4.400000e+01 7.098140e+02
    endloop
  endfacet
  facet normal 0.000000e+00 1.000000e+00 0.000000e+00
    outer loop
      vertex 2.709056e+02 -3.900000e+01 6.952281e+02
      vertex 2.719863e+02 -3.900000e+01 7.014991e+02
      vertex 2.715705e+02 -3.900000e+01 6.970440e+02
    endloop
  endfacet
  facet normal 9.956734e-01 0.000000e+00 -9.292154e-02
    outer loop
      vertex 2.719863e+02 -4.400000e+01 7.014991e+02
      vertex 2.715705e+02 -3.900000e+01 6.970440e+02
      vertex 2.719863e+02 -3.900000e+01 7.014991e+02
    endloop
  endfacet
  facet normal 9.390241e-01 -7.968936e-15 -3.438514e-01
    outer loop
      vertex 2.715705e+02 -6.400000e+01 6.970440e+02
      vertex 2.709056e+02 -3.900000e+01 6.952281e+02
      vertex 2.715705e+02 -3.900000e+01 6.970440e+02
    endloop
  endfacet
  facet normal 9.956734e-01 -7.216487e-15 -9.292154e-02
    outer loop
      vertex 2.718934e+02 -6.400000e+01 7.005034e+02
      vertex 2.715705e+02 -6.400000e+01 6.970440e+02
      vertex 2.715705e+02 -3.900000e+01 6.970440e+02
    endloop
  endfacet
  facet normal 9.956734e-01 4.496403e-15 -9.292154e-02
    outer loop
      vertex 2.718934e+02 -4.400000e+01 7.005034e+02
      vertex 2.715705e+02 -3.900000e+01 6.970440e+02
      vertex 2.719863e+02 -4.400000e+01 7.014991e+02
    endloop
  endfacet
  facet normal 9.956734e-01 -2.829874e-15 -9.292154e-02
    outer loop
      vertex 2.718934e+02 -6.400000e+01 7.005034e+02
      vertex 2.715705e+02 -3.900000e+01 6.970440e+02
      vertex 2.718934e+02 -4.400000e+01 7.005034e+02
    endloop
  endfacet
  facet normal 0.000000e+00 1.000000e+00 0.000000e+00
    outer loop
      vertex 2.749635e+02 -3.900000e+01 7.098140e+02
      vertex 2.749635e+02 -3.900000e+01 7.014991e+02
      vertex 2.719863e+02 -3.900000e+01 7.014991e+02
    endloop
  endfacet
  facet normal 0.000000e+00 0.000000e+00 -1.000000e+00
    outer loop
      vertex 2.749635e+02 -4.400000e+01 7.014991e+02
      vertex 2.719863e+02 -3.900000e+01 7.014991e+02
      vertex 2.749635e+02 -3.900000e+01 7.014991e+02
    endloop
  endfacet
  facet normal 0.000000e+00 1.000000e+00 0.000000e+00
    outer loop
      vertex 2.684586e+02 -3.900000e+01 6.917194e+02
      vertex 2.749635e+02 -3.900000e+01 7.098140e+02
      vertex 2.719863e+02 -3.900000e+01 7.014991e+02
    endloop
  endfacet
  facet normal 0.000000e+00 1.000000e+00 0.000000e+00
    outer loop
      vertex 2.709056e+02 -3.900000e+01 6.952281e+02
      vertex 2.684586e+02 -3.900000e+01 6.917194e+02
      vertex 2.719863e+02 -3.900000e+01 7.014991e+02
    endloop
  endfacet
  facet normal 0.000000e+00 0.000000e+00 -1.000000e+00
    outer loop
      vertex 2.719863e+02 -4.400000e+01 7.014991e+02
      vertex 2.719863e+02 -3.900000e+01 7.014991e+02
      vertex 2.749635e+02 -4.400000e+01 7.014991e+02
    endloop
  endfacet
  facet normal 0.000000e+00 1.000000e+00 0.000000e+00
    outer loop
      vertex 2.853635e+02 -3.900000e+01 7.249210e+02
      vertex 2.749635e+02 -3.900000e+01 6.890210e+02
      vertex 2.749635e+02 -3.900000e+01 7.014991e+02
    endloop
  endfacet
  facet normal -1.000000e+00 4.547474e-15 9.110925e-15
    outer loop
      vertex 2.749635e+02 -6.400000e+01 6.890210e+02
      vertex 2.749635e+02 -3.900000e+01 7.014991e+02
      vertex 2.749635e+02 -3.900000e+01 6.890210e+02
    endloop
  endfacet
  facet normal 0.000000e+00 1.000000e+00 0.000000e+00
    outer loop
      vertex 2.749635e+02 -3.900000e+01 7.098140e+02
      vertex 2.853635e+02 -3.900000e+01 7.249210e+02
      vertex 2.749635e+02 -3.900000e+01 7.014991e+02
    endloop
  endfacet
  facet normal -1.000000e+00 1.136868e-14 -4.555463e-15
    outer loop
      vertex 2.749635e+02 -6.400000e+01 6.890210e+02
      vertex 2.749635e+02 -4.400000e+01 7.014991e+02
      vertex 2.749635e+02 -3.900000e+01 7.014991e+02
    endloop
  endfacet
  facet normal 0.000000e+00 1.000000e+00 6.263761e-15
    outer loop
      vertex 2.853635e+02 -3.900000e+01 7.014991e+02
      vertex 2.853635e+02 -3.900000e+01 6.890210e+02
      vertex 2.749635e+02 -3.900000e+01 6.890210e+02
    endloop
  endfacet
  facet normal 0.000000e+00 0.000000e+00 -1.000000e+00
    outer loop
      vertex 2.853635e+02 -6.400000e+01 6.890210e+02
      vertex 2.749635e+02 -3.900000e+01 6.890210e+02
      vertex 2.853635e+02 -3.900000e+01 6.890210e+02
    endloop
  endfacet
  facet normal 7.515355e-15 1.000000e+00 1.027550e-28
    outer loop
      vertex 2.853635e+02 -3.900000e+01 7.098140e+02
      vertex 2.853635e+02 -3.900000e+01 7.014991e+02
      vertex 2.749635e+02 -3.900000e+01 6.890210e+02
    endloop
  endfacet
  facet normal 1.785931e-14 1.000000e+00 -5.173729e-15
    outer loop
      vertex 2.853635e+02 -3.900000e+01 7.249210e+02
      vertex 2.853635e+02 -3.900000e+01 7.098140e+02
      vertex 2.749635e+02 -3.900000e+01 6.890210e+02
    endloop
  endfacet
  facet normal 0.000000e+00 0.000000e+00 -1.000000e+00
    outer loop
      vertex 2.749635e+02 -6.400000e+01 6.890210e+02
      vertex 2.749635e+02 -3.900000e+01 6.890210e+02
      vertex 2.853635e+02 -6.400000e+01 6.890210e+02
    endloop
  endfacet
  facet normal 1.000000e+00 0.000000e+00 0.000000e+00
    outer loop
      vertex 2.853635e+02 -4.400000e+01 7.014991e+02
      vertex 2.853635e+02 -3.900000e+01 6.890210e+02
      vertex 2.853635e+02 -3.900000e+01 7.014991e+02
    endloop
  endfacet
  facet normal 1.000000e+00 -9.501008e-15 -3.807080e-15
    outer loop
      vertex 2.853635e+02 -6.400000e+01 7.066185e+02
      vertex 2.853635e+02 -3.900000e+01 6.890210e+02
      vertex 2.853635e+02 -4.400000e+01 7.014991e+02
    endloop
  endfacet
  facet normal 1.000000e+00 -6.821210e-15 0.000000e+00
    outer loop
      vertex 2.853635e+02 -6.400000e+01 7.066185e+02
      vertex 2.853635e+02 -6.400000e+01 6.890210e+02
      vertex 2.853635e+02 -3.900000e+01 6.890210e+02
    endloop
  endfacet
  facet normal 0.000000e+00 1.000000e+00 0.000000e+00
    outer loop
      vertex 2.861135e+02 -3.900000e+01 7.098140e+02
      vertex 2.861135e+02 -3.900000e+01 7.014991e+02
      vertex 2.853635e+02 -3.900000e+01 7.014991e+02
    endloop
  endfacet
  facet normal 0.000000e+00 0.000000e+00 -1.000000e+00
    outer loop
      vertex 2.861135e+02 -4.400000e+01 7.014991e+02
      vertex 2.853635e+02 -3.900000e+01 7.014991e+02
      vertex 2.861135e+02 -3.900000e+01 7.014991e+02
    endloop
  endfacet
  facet normal 0.000000e+00 1.000000e+00 0.000000e+00
    outer loop
      vertex 2.853635e+02 -3.900000e+01 7.098140e+02
      vertex 2.861135e+02 -3.900000e+01 7.098140e+02
      vertex 2.853635e+02 -3.900000e+01 7.014991e+02
    endloop
  endfacet
  facet normal 0.000000e+00 0.000000e+00 -1.000000e+00
    outer loop
      vertex 2.853635e+02 -4.400000e+01 7.014991e+02
      vertex 2.853635e+02 -3.900000e+01 7.014991e+02
      vertex 2.861135e+02 -4.400000e+01 7.014991e+02
    endloop
  endfacet
  facet normal -7.813805e-15 1.000000e+00 6.263761e-15
    outer loop
      vertex 2.890019e+02 -3.900000e+01 7.073710e+02
      vertex 2.861135e+02 -3.900000e+01 6.890210e+02
      vertex 2.861135e+02 -3.900000e+01 7.014991e+02
    endloop
  endfacet
  facet normal -1.000000e+00 4.547474e-15 9.110925e-15
    outer loop
      vertex 2.861135e+02 -6.400000e+01 6.890210e+02
      vertex 2.861135e+02 -3.900000e+01 7.014991e+02
      vertex 2.861135e+02 -3.900000e+01 6.890210e+02
    endloop
  endfacet
  facet normal 2.624518e-14 1.000000e+00 -1.048991e-14
    outer loop
      vertex 2.922824e+02 -3.900000e+01 7.243842e+02
      vertex 2.890019e+02 -3.900000e+01 7.073710e+02
      vertex 2.861135e+02 -3.900000e+01 7.014991e+02
    endloop
  endfacet
  facet normal -1.267004e-14 1.000000e+00 -8.661668e-29
    outer loop
      vertex 2.861135e+02 -3.900000e+01 7.098140e+02
      vertex 2.922824e+02 -3.900000e+01 7.243842e+02
      vertex 2.861135e+02 -3.900000e+01 7.014991e+02
    endloop
  endfacet
  facet normal -1.000000e+00 0.000000e+00 1.822185e-14
    outer loop
      vertex 2.861135e+02 -6.400000e+01 6.890210e+02
      vertex 2.861135e+02 -4.400000e+01 7.014991e+02
      vertex 2.861135e+02 -3.900000e+01 7.014991e+02
    endloop
  endfacet
  facet normal -1.987008e-16 1.000000e+00 5.280937e-15
    outer loop
      vertex 2.890019e+02 -3.900000e+01 7.066210e+02
      vertex 2.914863e+02 -3.900000e+01 6.892232e+02
      vertex 2.861135e+02 -3.900000e+01 6.890210e+02
    endloop
  endfacet
  facet normal 3.759944e-02 -4.886223e-15 -9.992929e-01
    outer loop
      vertex 2.914863e+02 -6.400000e+01 6.892232e+02
      vertex 2.861135e+02 -3.900000e+01 6.890210e+02
      vertex 2.914863e+02 -3.900000e+01 6.892232e+02
    endloop
  endfacet
  facet normal 3.197973e-14 1.000000e+00 -3.369058e-25
    outer loop
      vertex 2.890019e+02 -3.900000e+01 7.073710e+02
      vertex 2.890019e+02 -3.900000e+01 7.066210e+02
      vertex 2.861135e+02 -3.900000e+01 6.890210e+02
    endloop
  endfacet
  facet normal 3.759944e-02 -1.709825e-16 -9.992929e-01
    outer loop
      vertex 2.861135e+02 -6.400000e+01 6.890210e+02
      vertex 2.861135e+02 -3.900000e+01 6.890210e+02
      vertex 2.914863e+02 -6.400000e+01 6.892232e+02
    endloop
  endfacet
  facet normal 0.000000e+00 1.000000e+00 0.000000e+00
    outer loop
      vertex 2.976635e+02 -3.900000e+01 7.066210e+02
      vertex 2.964586e+02 -3.900000e+01 6.917194e+02
      vertex 2.914863e+02 -3.900000e+01 6.892232e+02
    endloop
  endfacet
  facet normal 4.486592e-01 -5.100665e-15 -8.937029e-01
    outer loop
      vertex 2.964586e+02 -6.400000e+01 6.917194e+02
      vertex 2.914863e+02 -3.900000e+01 6.892232e+02
      vertex 2.964586e+02 -3.900000e+01 6.917194e+02
    endloop
  endfacet
  facet normal -1.066439e-14 1.000000e+00 3.786433e-15
    outer loop
      vertex 2.890019e+02 -3.900000e+01 7.066210e+02
      vertex 2.976635e+02 -3.900000e+01 7.066210e+02
      vertex 2.914863e+02 -3.900000e+01 6.892232e+02
    endloop
  endfacet
  facet normal 4.486592e-01 -8.144622e-15 -8.937029e-01
    outer loop
      vertex 2.914863e+02 -6.400000e+01 6.892232e+02
      vertex 2.914863e+02 -3.900000e+01 6.892232e+02
      vertex 2.964586e+02 -6.400000e+01 6.917194e+02
    endloop
  endfacet
  facet normal 0.000000e+00 1.000000e+00 0.000000e+00
    outer loop
      vertex 2.976635e+02 -3.900000e+01 7.066210e+02
      vertex 2.989056e+02 -3.900000e+01 6.952281e+02
      vertex 2.964586e+02 -3.900000e+01 6.917194e+02
    endloop
  endfacet
  facet normal 8.202345e-01 -7.362823e-16 -5.720274e-01
    outer loop
      vertex 2.989056e+02 -6.400000e+01 6.952281e+02
      vertex 2.964586e+02 -3.900000e+01 6.917194e+02
      vertex 2.989056e+02 -3.900000e+01 6.952281e+02
    endloop
  endfacet
  facet normal 8.202345e-01 -9.324987e-15 -5.720274e-01
    outer loop
      vertex 2.964586e+02 -6.400000e+01 6.917194e+02
      vertex 2.964586e+02 -3.900000e+01 6.917194e+02
      vertex 2.989056e+02 -6.400000e+01 6.952281e+02
    endloop
  endfacet
  facet normal 0.000000e+00 1.000000e+00 0.000000e+00
    outer loop
      vertex 2.995733e+02 -3.900000e+01 7.024098e+02
      vertex 2.995705e+02 -3.900000e+01 6.970440e+02
      vertex 2.989056e+02 -3.900000e+01 6.952281e+02
    endloop
  endfacet
  facet normal 9.390241e-01 -9.922164e-16 -3.438514e-01
    outer loop
      vertex 2.995705e+02 -6.400000e+01 6.970440e+02
      vertex 2.989056e+02 -3.900000e+01 6.952281e+02
      vertex 2.995705e+02 -3.900000e+01 6.970440e+02
    endloop
  endfacet
  facet normal 0.000000e+00 1.000000e+00 0.000000e+00
    outer loop
      vertex 2.976635e+02 -3.900000e+01 7.066210e+02
      vertex 2.995733e+02 -3.900000e+01 7.024098e+02
      vertex 2.989056e+02 -3.900000e+01 6.952281e+02
    endloop
  endfacet
  facet normal 9.390241e-01 5.714386e-16 -3.438514e-01
    outer loop
      vertex 2.989056e+02 -6.400000e+01 6.952281e+02
      vertex 2.989056e+02 -3.900000e+01 6.952281e+02
      vertex 2.995705e+02 -6.400000e+01 6.970440e+02
    endloop
  endfacet
  facet normal 0.000000e+00 1.000000e+00 0.000000e+00
    outer loop
      vertex 2.995733e+02 -3.900000e+01 7.024098e+02
      vertex 2.998934e+02 -3.900000e+01 7.005034e+02
      vertex 2.995705e+02 -3.900000e+01 6.970440e+02
    endloop
  endfacet
  facet normal 9.956735e-01 -7.248032e-16 -9.292084e-02
    outer loop
      vertex 2.998934e+02 -6.400000e+01 7.005034e+02
      vertex 2.995705e+02 -3.900000e+01 6.970440e+02
      vertex 2.998934e+02 -3.900000e+01 7.005034e+02
    endloop
  endfacet
  facet normal 9.956735e-01 1.418789e-15 -9.292084e-02
    outer loop
      vertex 2.995705e+02 -6.400000e+01 6.970440e+02
      vertex 2.995705e+02 -3.900000e+01 6.970440e+02
      vertex 2.998934e+02 -6.400000e+01 7.005034e+02
    endloop
  endfacet
  facet normal 9.861953e-01 -1.193145e-14 1.655860e-01
    outer loop
      vertex 2.995733e+02 -6.400000e+01 7.024098e+02
      vertex 2.998934e+02 -3.900000e+01 7.005034e+02
      vertex 2.995733e+02 -3.900000e+01 7.024098e+02
    endloop
  endfacet
  facet normal 9.861953e-01 -1.126168e-14 1.655860e-01
    outer loop
      vertex 2.998934e+02 -6.400000e+01 7.005034e+02
      vertex 2.998934e+02 -3.900000e+01 7.005034e+02
      vertex 2.995733e+02 -6.400000e+01 7.024098e+02
    endloop
  endfacet
  facet normal 9.107253e-01 -2.070750e-15 4.130126e-01
    outer loop
      vertex 2.976635e+02 -6.400000e+01 7.066210e+02
      vertex 2.995733e+02 -3.900000e+01 7.024098e+02
      vertex 2.976635e+02 -3.900000e+01 7.066210e+02
    endloop
  endfacet
  facet normal 9.107253e-01 -5.104428e-15 4.130126e-01
    outer loop
      vertex 2.995733e+02 -6.400000e+01 7.024098e+02
      vertex 2.995733e+02 -3.900000e+01 7.024098e+02
      vertex 2.976635e+02 -6.400000e+01 7.066210e+02
    endloop
  endfacet
  facet normal 0.000000e+00 0.000000e+00 1.000000e+00
    outer loop
      vertex 2.890019e+02 -4.400000e+01 7.066210e+02
      vertex 2.976635e+02 -3.900000e+01 7.066210e+02
      vertex 2.890019e+02 -3.900000e+01 7.066210e+02
    endloop
  endfacet
  facet normal 1.312541e-14 -2.273737e-14 1.000000e+00
    outer loop
      vertex 2.890019e+02 -6.400000e+01 7.066210e+02
      vertex 2.976635e+02 -3.900000e+01 7.066210e+02
      vertex 2.890019e+02 -4.400000e+01 7.066210e+02
    endloop
  endfacet
  facet normal -5.250163e-14 1.193749e-28 1.000000e+00
    outer loop
      vertex 2.890019e+02 -6.400000e+01 7.066210e+02
      vertex 2.976635e+02 -6.400000e+01 7.066210e+02
      vertex 2.976635e+02 -3.900000e+01 7.066210e+02
    endloop
  endfacet
  facet normal 1.000000e+00 0.000000e+00 -1.053498e-11
    outer loop
      vertex 2.890019e+02 -4.400000e+01 7.073710e+02
      vertex 2.890019e+02 -3.900000e+01 7.066210e+02
      vertex 2.890019e+02 -3.900000e+01 7.073710e+02
    endloop
  endfacet
  facet normal 1.000000e+00 0.000000e+00 -1.053498e-11
    outer loop
      vertex 2.890019e+02 -4.400000e+01 7.066210e+02
      vertex 2.890019e+02 -3.900000e+01 7.066210e+02
      vertex 2.890019e+02 -4.400000e+01 7.073710e+02
    endloop
  endfacet
  facet normal -1.152962e-14 1.000000e+00 -1.746219e-14
    outer loop
      vertex 2.933135e+02 -3.900000e+01 7.098140e+02
      vertex 2.970135e+02 -3.900000e+01 7.073710e+02
      vertex 2.890019e+02 -3.900000e+01 7.073710e+02
    endloop
  endfacet
  facet normal 1.419031e-14 4.547474e-15 -1.000000e+00
    outer loop
      vertex 2.970135e+02 -6.400000e+01 7.073710e+02
      vertex 2.890019e+02 -3.900000e+01 7.073710e+02
      vertex 2.970135e+02 -3.900000e+01 7.073710e+02
    endloop
  endfacet
  facet normal -2.059784e-14 1.000000e+00 -1.457714e-15
    outer loop
      vertex 2.922824e+02 -3.900000e+01 7.243842e+02
      vertex 2.933135e+02 -3.900000e+01 7.098140e+02
      vertex 2.890019e+02 -3.900000e+01 7.073710e+02
    endloop
  endfacet
  facet normal 0.000000e+00 0.000000e+00 -1.000000e+00
    outer loop
      vertex 2.970135e+02 -6.400000e+01 7.073710e+02
      vertex 2.890019e+02 -4.400000e+01 7.073710e+02
      vertex 2.890019e+02 -3.900000e+01 7.073710e+02
    endloop
  endfacet
  facet normal 5.509947e-01 -2.505634e-15 8.345088e-01
    outer loop
      vertex 2.933135e+02 -6.400000e+01 7.098140e+02
      vertex 2.970135e+02 -3.900000e+01 7.073710e+02
      vertex 2.933135e+02 -3.900000e+01 7.098140e+02
    endloop
  endfacet
  facet normal 5.509947e-01 -3.645615e-17 8.345088e-01
    outer loop
      vertex 2.970135e+02 -6.400000e+01 7.073710e+02
      vertex 2.970135e+02 -3.900000e+01 7.073710e+02
      vertex 2.933135e+02 -6.400000e+01 7.098140e+02
    endloop
  endfacet
  facet normal 0.000000e+00 1.000000e+00 0.000000e+00
    outer loop
      vertex 2.959603e+02 -3.900000e+01 7.209234e+02
      vertex 2.964456e+02 -3.900000e+01 7.135866e+02
      vertex 2.933135e+02 -3.900000e+01 7.098140e+02
    endloop
  endfacet
  facet normal 7.693986e-01 -8.153015e-15 -6.387690e-01
    outer loop
      vertex 2.964456e+02 -6.400000e+01 7.135866e+02
      vertex 2.933135e+02 -3.900000e+01 7.098140e+02
      vertex 2.964456e+02 -3.900000e+01 7.135866e+02
    endloop
  endfacet
  facet normal 0.000000e+00 1.000000e+00 0.000000e+00
    outer loop
      vertex 2.922824e+02 -3.900000e+01 7.243842e+02
      vertex 2.959603e+02 -3.900000e+01 7.209234e+02
      vertex 2.933135e+02 -3.900000e+01 7.098140e+02
    endloop
  endfacet
  facet normal 7.693986e-01 -3.498820e-15 -6.387690e-01
    outer loop
      vertex 2.933135e+02 -6.400000e+01 7.098140e+02
      vertex 2.933135e+02 -3.900000e+01 7.098140e+02
      vertex 2.964456e+02 -6.400000e+01 7.135866e+02
    endloop
  endfacet
  facet normal 0.000000e+00 1.000000e+00 0.000000e+00
    outer loop
      vertex 2.967557e+02 -3.900000e+01 7.192403e+02
      vertex 2.970172e+02 -3.900000e+01 7.153537e+02
      vertex 2.964456e+02 -3.900000e+01 7.135866e+02
    endloop
  endfacet
  facet normal 9.514574e-01 -6.490091e-15 -3.077806e-01
    outer loop
      vertex 2.970172e+02 -6.400000e+01 7.153537e+02
      vertex 2.964456e+02 -3.900000e+01 7.135866e+02
      vertex 2.970172e+02 -3.900000e+01 7.153537e+02
    endloop
  endfacet
  facet normal 0.000000e+00 1.000000e+00 0.000000e+00
    outer loop
      vertex 2.959603e+02 -3.900000e+01 7.209234e+02
      vertex 2.967557e+02 -3.900000e+01 7.192403e+02
      vertex 2.964456e+02 -3.900000e+01 7.135866e+02
    endloop
  endfacet
  facet normal 9.514574e-01 -7.889715e-15 -3.077806e-01
    outer loop
      vertex 2.964456e+02 -6.400000e+01 7.135866e+02
      vertex 2.964456e+02 -3.900000e+01 7.135866e+02
      vertex 2.970172e+02 -6.400000e+01 7.153537e+02
    endloop
  endfacet
  facet normal 9.977444e-01 -7.416347e-15 6.712768e-02
    outer loop
      vertex 2.967557e+02 -6.400000e+01 7.192403e+02
      vertex 2.970172e+02 -3.900000e+01 7.153537e+02
      vertex 2.967557e+02 -3.900000e+01 7.192403e+02
    endloop
  endfacet
  facet normal 9.977444e-01 -6.805824e-15 6.712768e-02
    outer loop
      vertex 2.970172e+02 -6.400000e+01 7.153537e+02
      vertex 2.970172e+02 -3.900000e+01 7.153537e+02
      vertex 2.967557e+02 -6.400000e+01 7.192403e+02
    endloop
  endfacet
  facet normal 9.041149e-01 -3.998806e-15 4.272893e-01
    outer loop
      vertex 2.959603e+02 -6.400000e+01 7.209234e+02
      vertex 2.967557e+02 -3.900000e+01 7.192403e+02
      vertex 2.959603e+02 -3.900000e+01 7.209234e+02
    endloop
  endfacet
  facet normal 9.041149e-01 -1.005333e-14 4.272893e-01
    outer loop
      vertex 2.967557e+02 -6.400000e+01 7.192403e+02
      vertex 2.967557e+02 -3.900000e+01 7.192403e+02
      vertex 2.959603e+02 -6.400000e+01 7.209234e+02
    endloop
  endfacet
  facet normal 6.852810e-01 -6.428126e-15 7.282787e-01
    outer loop
      vertex 2.922824e+02 -6.400000e+01 7.243842e+02
      vertex 2.959603e+02 -3.900000e+01 7.209234e+02
      vertex 2.922824e+02 -3.900000e+01 7.243842e+02
    endloop
  endfacet
  facet normal 6.852810e-01 -4.869977e-15 7.282787e-01
    outer loop
      vertex 2.959603e+02 -6.400000e+01 7.209234e+02
      vertex 2.959603e+02 -3.900000e+01 7.209234e+02
      vertex 2.922824e+02 -6.400000e+01 7.243842e+02
    endloop
  endfacet
  facet normal -4.502382e-16 1.000000e+00 -5.173729e-15
    outer loop
      vertex 2.861135e+02 -3.900000e+01 7.098140e+02
      vertex 2.861135e+02 -3.900000e+01 7.249210e+02
      vertex 2.922824e+02 -3.900000e+01 7.243842e+02
    endloop
  endfacet
  facet normal 8.669626e-02 -4.924600e-15 9.962348e-01
    outer loop
      vertex 2.861135e+02 -6.400000e+01 7.249210e+02
      vertex 2.922824e+02 -3.900000e+01 7.243842e+02
      vertex 2.861135e+02 -3.900000e+01 7.249210e+02
    endloop
  endfacet
  facet normal 8.669626e-02 -4.924600e-15 9.962348e-01
    outer loop
      vertex 2.922824e+02 -6.400000e+01 7.243842e+02
      vertex 2.922824e+02 -3.900000e+01 7.243842e+02
      vertex 2.861135e+02 -6.400000e+01 7.249210e+02
    endloop
  endfacet
  facet normal -1.000000e+00 0.000000e+00 0.000000e+00
    outer loop
      vertex 2.861135e+02 -4.400000e+01 7.098140e+02
      vertex 2.861135e+02 -3.900000e+01 7.249210e+02
      vertex 2.861135e+02 -3.900000e+01 7.098140e+02
    endloop
  endfacet
  facet normal -1.000000e+00 5.923688e-15 -1.960573e-15
    outer loop
      vertex 2.861135e+02 -6.400000e+01 7.073724e+02
      vertex 2.861135e+02 -3.900000e+01 7.249210e+02
      vertex 2.861135e+02 -4.400000e+01 7.098140e+02
    endloop
  endfacet
  facet normal -1.000000e+00 4.547474e-15 -1.841269e-30
    outer loop
      vertex 2.861135e+02 -6.400000e+01 7.073724e+02
      vertex 2.861135e+02 -6.400000e+01 7.249210e+02
      vertex 2.861135e+02 -3.900000e+01 7.249210e+02
    endloop
  endfacet
  facet normal 0.000000e+00 0.000000e+00 1.000000e+00
    outer loop
      vertex 2.853635e+02 -4.400000e+01 7.098140e+02
      vertex 2.861135e+02 -3.900000e+01 7.098140e+02
      vertex 2.853635e+02 -3.900000e+01 7.098140e+02
    endloop
  endfacet
  facet normal 0.000000e+00 0.000000e+00 1.000000e+00
    outer loop
      vertex 2.861135e+02 -4.400000e+01 7.098140e+02
      vertex 2.861135e+02 -3.900000e+01 7.098140e+02
      vertex 2.853635e+02 -4.400000e+01 7.098140e+02
    endloop
  endfacet
  facet normal 1.000000e+00 -2.273737e-15 1.176370e-29
    outer loop
      vertex 2.853635e+02 -6.400000e+01 7.249210e+02
      vertex 2.853635e+02 -3.900000e+01 7.098140e+02
      vertex 2.853635e+02 -3.900000e+01 7.249210e+02
    endloop
  endfacet
  facet normal 1.000000e+00 0.000000e+00 3.762712e-15
    outer loop
      vertex 2.853635e+02 -6.400000e+01 7.249210e+02
      vertex 2.853635e+02 -4.400000e+01 7.098140e+02
      vertex 2.853635e+02 -3.900000e+01 7.098140e+02
    endloop
  endfacet
  facet normal 0.000000e+00 1.000000e+00 0.000000e+00
    outer loop
      vertex 2.749635e+02 -3.900000e+01 7.098140e+02
      vertex 2.749635e+02 -3.900000e+01 7.249210e+02
      vertex 2.853635e+02 -3.900000e+01 7.249210e+02
    endloop
  endfacet
  facet normal 0.000000e+00 0.000000e+00 1.000000e+00
    outer loop
      vertex 2.749635e+02 -6.400000e+01 7.249210e+02
      vertex 2.853635e+02 -3.900000e+01 7.249210e+02
      vertex 2.749635e+02 -3.900000e+01 7.249210e+02
    endloop
  endfacet
  facet normal 0.000000e+00 0.000000e+00 1.000000e+00
    outer loop
      vertex 2.853635e+02 -6.400000e+01 7.249210e+02
      vertex 2.853635e+02 -3.900000e+01 7.249210e+02
      vertex 2.749635e+02 -6.400000e+01 7.249210e+02
    endloop
  endfacet
  facet normal -1.000000e+00 0.000000e+00 0.000000e+00
    outer loop
      vertex 2.749635e+02 -4.400000e+01 7.098140e+02
      vertex 2.749635e+02 -3.900000e+01 7.249210e+02
      vertex 2.749635e+02 -3.900000e+01 7.098140e+02
    endloop
  endfacet
  facet normal -1.000000e+00 2.961232e-15 -9.800838e-16
    outer loop
      vertex 2.749635e+02 -6.400000e+01 7.073844e+02
      vertex 2.749635e+02 -3.900000e+01 7.249210e+02
      vertex 2.749635e+02 -4.400000e+01 7.098140e+02
    endloop
  endfacet
  facet normal -1.000000e+00 4.547474e-15 -3.241410e-15
    outer loop
      vertex 2.749635e+02 -6.400000e+01 7.073844e+02
      vertex 2.749635e+02 -6.400000e+01 7.249210e+02
      vertex 2.749635e+02 -3.900000e+01 7.249210e+02
    endloop
  endfacet
  facet normal 0.000000e+00 1.000000e+00 0.000000e+00
    outer loop
      vertex 2.684586e+02 -3.900000e+01 6.917194e+02
      vertex 2.653135e+02 -3.900000e+01 7.098140e+02
      vertex 2.749635e+02 -3.900000e+01 7.098140e+02
    endloop
  endfacet
  facet normal -1.178102e-14 0.000000e+00 1.000000e+00
    outer loop
      vertex 2.749635e+02 -4.400000e+01 7.098140e+02
      vertex 2.749635e+02 -3.900000e+01 7.098140e+02
      vertex 2.653135e+02 -3.900000e+01 7.098140e+02
    endloop
  endfacet
  facet normal 0.000000e+00 1.000000e+00 0.000000e+00
    outer loop
      vertex 2.678243e+02 -3.900000e+01 7.211392e+02
      vertex 2.685249e+02 -3.900000e+01 7.138206e+02
      vertex 2.653135e+02 -3.900000e+01 7.098140e+02
    endloop
  endfacet
  facet normal 7.802832e-01 -2.478366e-15 -6.254263e-01
    outer loop
      vertex 2.685249e+02 -6.400000e+01 7.138206e+02
      vertex 2.653135e+02 -3.900000e+01 7.098140e+02
      vertex 2.685249e+02 -3.900000e+01 7.138206e+02
    endloop
  endfacet
  facet normal 0.000000e+00 1.000000e+00 0.000000e+00
    outer loop
      vertex 2.640831e+02 -3.900000e+01 7.244588e+02
      vertex 2.678243e+02 -3.900000e+01 7.211392e+02
      vertex 2.653135e+02 -3.900000e+01 7.098140e+02
    endloop
  endfacet
  facet normal 0.000000e+00 1.000000e+00 0.000000e+00
    outer loop
      vertex 2.634863e+02 -3.900000e+01 6.892232e+02
      vertex 2.640831e+02 -3.900000e+01 7.244588e+02
      vertex 2.653135e+02 -3.900000e+01 7.098140e+02
    endloop
  endfacet
  facet normal 0.000000e+00 1.000000e+00 0.000000e+00
    outer loop
      vertex 2.684586e+02 -3.900000e+01 6.917194e+02
      vertex 2.634863e+02 -3.900000e+01 6.892232e+02
      vertex 2.653135e+02 -3.900000e+01 7.098140e+02
    endloop
  endfacet
  facet normal -1.178102e-14 1.339347e-28 1.000000e+00
    outer loop
      vertex 2.749635e+02 -4.400000e+01 7.098140e+02
      vertex 2.653135e+02 -3.900000e+01 7.098140e+02
      vertex 2.653135e+02 -4.400000e+01 7.098140e+02
    endloop
  endfacet
  facet normal 7.802832e-01 -8.856166e-15 -6.254263e-01
    outer loop
      vertex 2.685249e+02 -6.400000e+01 7.138206e+02
      vertex 2.653135e+02 -4.400000e+01 7.098140e+02
      vertex 2.653135e+02 -3.900000e+01 7.098140e+02
    endloop
  endfacet
  facet normal 0.000000e+00 1.000000e+00 0.000000e+00
    outer loop
      vertex 2.686703e+02 -3.900000e+01 7.194803e+02
      vertex 2.690524e+02 -3.900000e+01 7.155961e+02
      vertex 2.685249e+02 -3.900000e+01 7.138206e+02
    endloop
  endfacet
  facet normal 9.585865e-01 -5.180508e-15 -2.848014e-01
    outer loop
      vertex 2.690524e+02 -6.400000e+01 7.155961e+02
      vertex 2.685249e+02 -3.900000e+01 7.138206e+02
      vertex 2.690524e+02 -3.900000e+01 7.155961e+02
    endloop
  endfacet
  facet normal 0.000000e+00 1.000000e+00 0.000000e+00
    outer loop
      vertex 2.678243e+02 -3.900000e+01 7.211392e+02
      vertex 2.686703e+02 -3.900000e+01 7.194803e+02
      vertex 2.685249e+02 -3.900000e+01 7.138206e+02
    endloop
  endfacet
  facet normal 9.585865e-01 -5.243668e-15 -2.848014e-01
    outer loop
      vertex 2.690524e+02 -6.400000e+01 7.155961e+02
      vertex 2.685249e+02 -6.400000e+01 7.138206e+02
      vertex 2.685249e+02 -3.900000e+01 7.138206e+02
    endloop
  endfacet
  facet normal 9.951941e-01 -4.816176e-16 9.792206e-02
    outer loop
      vertex 2.686703e+02 -6.400000e+01 7.194803e+02
      vertex 2.690524e+02 -3.900000e+01 7.155961e+02
      vertex 2.686703e+02 -3.900000e+01 7.194803e+02
    endloop
  endfacet
  facet normal 9.951941e-01 1.781192e-15 9.792206e-02
    outer loop
      vertex 2.690524e+02 -6.400000e+01 7.155961e+02
      vertex 2.690524e+02 -3.900000e+01 7.155961e+02
      vertex 2.686703e+02 -6.400000e+01 7.194803e+02
    endloop
  endfacet
  facet normal 8.908601e-01 1.703699e-15 4.542779e-01
    outer loop
      vertex 2.678243e+02 -6.400000e+01 7.211392e+02
      vertex 2.686703e+02 -3.900000e+01 7.194803e+02
      vertex 2.678243e+02 -3.900000e+01 7.211392e+02
    endloop
  endfacet
  facet normal 8.908601e-01 6.237685e-15 4.542779e-01
    outer loop
      vertex 2.686703e+02 -6.400000e+01 7.194803e+02
      vertex 2.686703e+02 -3.900000e+01 7.194803e+02
      vertex 2.678243e+02 -6.400000e+01 7.211392e+02
    endloop
  endfacet
  facet normal 6.636986e-01 -6.419663e-15 7.480001e-01
    outer loop
      vertex 2.640831e+02 -6.400000e+01 7.244588e+02
      vertex 2.678243e+02 -3.900000e+01 7.211392e+02
      vertex 2.640831e+02 -3.900000e+01 7.244588e+02
    endloop
  endfacet
  facet normal 6.636986e-01 -1.363040e-14 7.480001e-01
    outer loop
      vertex 2.678243e+02 -6.400000e+01 7.211392e+02
      vertex 2.678243e+02 -3.900000e+01 7.211392e+02
      vertex 2.640831e+02 -6.400000e+01 7.244588e+02
    endloop
  endfacet
  facet normal 1.092536e-16 1.000000e+00 1.411017e-15
    outer loop
      vertex 2.581135e+02 -3.900000e+01 7.098140e+02
      vertex 2.581135e+02 -3.900000e+01 7.249210e+02
      vertex 2.640831e+02 -3.900000e+01 7.244588e+02
    endloop
  endfacet
  facet normal 7.719787e-02 -4.884958e-15 9.970158e-01
    outer loop
      vertex 2.581135e+02 -6.400000e+01 7.249210e+02
      vertex 2.640831e+02 -3.900000e+01 7.244588e+02
      vertex 2.581135e+02 -3.900000e+01 7.249210e+02
    endloop
  endfacet
  facet normal 9.859990e-15 1.000000e+00 -2.563627e-15
    outer loop
      vertex 2.581135e+02 -3.900000e+01 7.014991e+02
      vertex 2.581135e+02 -3.900000e+01 7.098140e+02
      vertex 2.640831e+02 -3.900000e+01 7.244588e+02
    endloop
  endfacet
  facet normal 0.000000e+00 1.000000e+00 0.000000e+00
    outer loop
      vertex 2.581135e+02 -3.900000e+01 6.890210e+02
      vertex 2.581135e+02 -3.900000e+01 7.014991e+02
      vertex 2.640831e+02 -3.900000e+01 7.244588e+02
    endloop
  endfacet
  facet normal 0.000000e+00 1.000000e+00 0.000000e+00
    outer loop
      vertex 2.634863e+02 -3.900000e+01 6.892232e+02
      vertex 2.581135e+02 -3.900000e+01 6.890210e+02
      vertex 2.640831e+02 -3.900000e+01 7.244588e+02
    endloop
  endfacet
  facet normal 7.719787e-02 -4.884958e-15 9.970158e-01
    outer loop
      vertex 2.640831e+02 -6.400000e+01 7.244588e+02
      vertex 2.640831e+02 -3.900000e+01 7.244588e+02
      vertex 2.581135e+02 -6.400000e+01 7.249210e+02
    endloop
  endfacet
  facet normal -1.000000e+00 0.000000e+00 0.000000e+00
    outer loop
      vertex 2.581135e+02 -4.400000e+01 7.098140e+02
      vertex 2.581135e+02 -3.900000e+01 7.249210e+02
      vertex 2.581135e+02 -3.900000e+01 7.098140e+02
    endloop
  endfacet
  facet normal -1.000000e+00 5.920825e-15 -1.959625e-15
    outer loop
      vertex 2.581135e+02 -6.400000e+01 7.074004e+02
      vertex 2.581135e+02 -3.900000e+01 7.249210e+02
      vertex 2.581135e+02 -4.400000e+01 7.098140e+02
    endloop
  endfacet
  facet normal -1.000000e+00 4.547474e-15 0.000000e+00
    outer loop
      vertex 2.581135e+02 -6.400000e+01 7.249210e+02
      vertex 2.581135e+02 -3.900000e+01 7.249210e+02
      vertex 2.581135e+02 -6.400000e+01 7.074004e+02
    endloop
  endfacet
  facet normal 0.000000e+00 1.000000e+00 -2.563627e-15
    outer loop
      vertex 2.573635e+02 -3.900000e+01 7.014991e+02
      vertex 2.573635e+02 -3.900000e+01 7.098140e+02
      vertex 2.581135e+02 -3.900000e+01 7.098140e+02
    endloop
  endfacet
  facet normal 0.000000e+00 0.000000e+00 1.000000e+00
    outer loop
      vertex 2.573635e+02 -4.400000e+01 7.098140e+02
      vertex 2.581135e+02 -3.900000e+01 7.098140e+02
      vertex 2.573635e+02 -3.900000e+01 7.098140e+02
    endloop
  endfacet
  facet normal 0.000000e+00 1.000000e+00 -2.563627e-15
    outer loop
      vertex 2.581135e+02 -3.900000e+01 7.014991e+02
      vertex 2.573635e+02 -3.900000e+01 7.014991e+02
      vertex 2.581135e+02 -3.900000e+01 7.098140e+02
    endloop
  endfacet
  facet normal 0.000000e+00 0.000000e+00 1.000000e+00
    outer loop
      vertex 2.581135e+02 -4.400000e+01 7.098140e+02
      vertex 2.581135e+02 -3.900000e+01 7.098140e+02
      vertex 2.573635e+02 -4.400000e+01 7.098140e+02
    endloop
  endfacet
  facet normal -4.870724e-15 1.000000e+00 1.411017e-15
    outer loop
      vertex 2.469635e+02 -3.900000e+01 6.890210e+02
      vertex 2.573635e+02 -3.900000e+01 7.249210e+02
      vertex 2.573635e+02 -3.900000e+01 7.098140e+02
    endloop
  endfacet
  facet normal 1.000000e+00 -2.273737e-15 -3.208282e-30
    outer loop
      vertex 2.573635e+02 -6.400000e+01 7.249210e+02
      vertex 2.573635e+02 -3.900000e+01 7.098140e+02
      vertex 2.573635e+02 -3.900000e+01 7.249210e+02
    endloop
  endfacet
  facet normal 3.075880e-15 1.000000e+00 -2.563627e-15
    outer loop
      vertex 2.573635e+02 -3.900000e+01 7.014991e+02
      vertex 2.469635e+02 -3.900000e+01 6.890210e+02
      vertex 2.573635e+02 -3.900000e+01 7.098140e+02
    endloop
  endfacet
  facet normal 1.000000e+00 0.000000e+00 3.762712e-15
    outer loop
      vertex 2.573635e+02 -6.400000e+01 7.249210e+02
      vertex 2.573635e+02 -4.400000e+01 7.098140e+02
      vertex 2.573635e+02 -3.900000e+01 7.098140e+02
    endloop
  endfacet
  facet normal 0.000000e+00 1.000000e+00 0.000000e+00
    outer loop
      vertex 2.469635e+02 -3.900000e+01 7.098140e+02
      vertex 2.469635e+02 -3.900000e+01 7.249210e+02
      vertex 2.573635e+02 -3.900000e+01 7.249210e+02
    endloop
  endfacet
  facet normal 0.000000e+00 0.000000e+00 1.000000e+00
    outer loop
      vertex 2.469635e+02 -6.400000e+01 7.249210e+02
      vertex 2.573635e+02 -3.900000e+01 7.249210e+02
      vertex 2.469635e+02 -3.900000e+01 7.249210e+02
    endloop
  endfacet
  facet normal 0.000000e+00 1.000000e+00 0.000000e+00
    outer loop
      vertex 2.469635e+02 -3.900000e+01 7.014991e+02
      vertex 2.469635e+02 -3.900000e+01 7.098140e+02
      vertex 2.573635e+02 -3.900000e+01 7.249210e+02
    endloop
  endfacet
  facet normal 0.000000e+00 1.000000e+00 0.000000e+00
    outer loop
      vertex 2.469635e+02 -3.900000e+01 6.890210e+02
      vertex 2.469635e+02 -3.900000e+01 7.014991e+02
      vertex 2.573635e+02 -3.900000e+01 7.249210e+02
    endloop
  endfacet
  facet normal 0.000000e+00 0.000000e+00 1.000000e+00
    outer loop
      vertex 2.469635e+02 -6.400000e+01 7.249210e+02
      vertex 2.573635e+02 -6.400000e+01 7.249210e+02
      vertex 2.573635e+02 -3.900000e+01 7.249210e+02
    endloop
  endfacet
  facet normal -1.000000e+00 0.000000e+00 0.000000e+00
    outer loop
      vertex 2.469635e+02 -4.400000e+01 7.098140e+02
      vertex 2.469635e+02 -3.900000e+01 7.249210e+02
      vertex 2.469635e+02 -3.900000e+01 7.098140e+02
    endloop
  endfacet
  facet normal -1.000000e+00 4.439806e-15 -1.469450e-15
    outer loop
      vertex 2.469635e+02 -6.400000e+01 7.074111e+02
      vertex 2.469635e+02 -3.900000e+01 7.249210e+02
      vertex 2.469635e+02 -4.400000e+01 7.098140e+02
    endloop
  endfacet
  facet normal -1.000000e+00 4.547474e-15 -1.623173e-15
    outer loop
      vertex 2.469635e+02 -6.400000e+01 7.249210e+02
      vertex 2.469635e+02 -3.900000e+01 7.249210e+02
      vertex 2.469635e+02 -6.400000e+01 7.074111e+02
    endloop
  endfacet
  facet normal 0.000000e+00 1.000000e+00 0.000000e+00
    outer loop
      vertex 2.469635e+02 -3.900000e+01 7.014991e+02
      vertex 2.399802e+02 -3.900000e+01 7.014991e+02
      vertex 2.469635e+02 -3.900000e+01 7.098140e+02
    endloop
  endfacet
  facet normal -1.000000e+00 -1.966724e-27 -1.880379e-15
    outer loop
      vertex 2.270250e+02 -4.400000e+01 7.098140e+02
      vertex 2.270250e+02 -3.900000e+01 7.249289e+02
      vertex 2.270250e+02 -3.900000e+01 7.098140e+02
    endloop
  endfacet
  facet normal 0.000000e+00 1.000000e+00 -1.452722e-14
    outer loop
      vertex 2.261635e+02 -3.900000e+01 7.014991e+02
      vertex 2.260858e+02 -3.900000e+01 7.098140e+02
      vertex 2.270250e+02 -3.900000e+01 7.098140e+02
    endloop
  endfacet
  facet normal 0.000000e+00 1.045919e-12 1.000000e+00
    outer loop
      vertex 2.260858e+02 -4.400000e+01 7.098140e+02
      vertex 2.270250e+02 -3.900000e+01 7.098140e+02
      vertex 2.260858e+02 -3.900000e+01 7.098140e+02
    endloop
  endfacet
  facet normal 0.000000e+00 1.000000e+00 -1.452722e-14
    outer loop
      vertex 2.270250e+02 -3.900000e+01 7.014991e+02
      vertex 2.261635e+02 -3.900000e+01 7.014991e+02
      vertex 2.270250e+02 -3.900000e+01 7.098140e+02
    endloop
  endfacet
  facet normal 0.000000e+00 1.045919e-12 1.000000e+00
    outer loop
      vertex 2.270250e+02 -4.400000e+01 7.098140e+02
      vertex 2.270250e+02 -3.900000e+01 7.098140e+02
      vertex 2.260858e+02 -4.400000e+01 7.098140e+02
    endloop
  endfacet
  facet normal -3.889403e-14 1.000000e+00 7.991612e-15
    outer loop
      vertex 2.201871e+02 -3.900000e+01 6.962210e+02
      vertex 2.260858e+02 -3.900000e+01 7.249289e+02
      vertex 2.260858e+02 -3.900000e+01 7.098140e+02
    endloop
  endfacet
  facet normal 1.000000e+00 -2.273737e-15 -1.817082e-29
    outer loop
      vertex 2.260858e+02 -6.400000e+01 7.249289e+02
      vertex 2.260858e+02 -3.900000e+01 7.098140e+02
      vertex 2.260858e+02 -3.900000e+01 7.249289e+02
    endloop
  endfacet
  facet normal 1.272482e-14 1.000000e+00 -1.440829e-14
    outer loop
      vertex 2.261635e+02 -3.900000e+01 7.014991e+02
      vertex 2.201871e+02 -3.900000e+01 6.962210e+02
      vertex 2.260858e+02 -3.900000e+01 7.098140e+02
    endloop
  endfacet
  facet normal 1.000000e+00 3.933449e-27 3.760759e-15
    outer loop
      vertex 2.260858e+02 -4.400000e+01 7.098140e+02
      vertex 2.260858e+02 -3.900000e+01 7.098140e+02
      vertex 2.260858e+02 -6.400000e+01 7.249289e+02
    endloop
  endfacet
  facet normal 0.000000e+00 1.000000e+00 0.000000e+00
    outer loop
      vertex 2.211185e+02 -3.900000e+01 7.074357e+02
      vertex 2.211185e+02 -3.900000e+01 7.249289e+02
      vertex 2.260858e+02 -3.900000e+01 7.249289e+02
    endloop
  endfacet
  facet normal 0.000000e+00 0.000000e+00 1.000000e+00
    outer loop
      vertex 2.211185e+02 -6.400000e+01 7.249289e+02
      vertex 2.260858e+02 -3.900000e+01 7.249289e+02
      vertex 2.211185e+02 -3.900000e+01 7.249289e+02
    endloop
  endfacet
  facet normal 0.000000e+00 1.000000e+00 0.000000e+00
    outer loop
      vertex 2.211185e+02 -3.900000e+01 7.065736e+02
      vertex 2.211185e+02 -3.900000e+01 7.074357e+02
      vertex 2.260858e+02 -3.900000e+01 7.249289e+02
    endloop
  endfacet
  facet normal 0.000000e+00 1.000000e+00 0.000000e+00
    outer loop
      vertex 2.201871e+02 -3.900000e+01 6.962210e+02
      vertex 2.211185e+02 -3.900000e+01 7.065736e+02
      vertex 2.260858e+02 -3.900000e+01 7.249289e+02
    endloop
  endfacet
  facet normal 0.000000e+00 0.000000e+00 1.000000e+00
    outer loop
      vertex 2.260858e+02 -6.400000e+01 7.249289e+02
      vertex 2.260858e+02 -3.900000e+01 7.249289e+02
      vertex 2.211185e+02 -6.400000e+01 7.249289e+02
    endloop
  endfacet
  facet normal 0.000000e+00 1.000000e+00 0.000000e+00
    outer loop
      vertex 2.211185e+02 -3.900000e+01 7.074357e+02
      vertex 2.147875e+02 -3.900000e+01 7.074357e+02
      vertex 2.211185e+02 -3.900000e+01 7.249289e+02
    endloop
  endfacet
  facet normal -9.403133e-01 1.069013e-15 3.403099e-01
    outer loop
      vertex 2.147875e+02 -6.400000e+01 7.074357e+02
      vertex 2.211185e+02 -3.900000e+01 7.249289e+02
      vertex 2.147875e+02 -3.900000e+01 7.074357e+02
    endloop
  endfacet
  facet normal -9.403133e-01 1.069013e-15 3.403099e-01
    outer loop
      vertex 2.211185e+02 -6.400000e+01 7.249289e+02
      vertex 2.211185e+02 -3.900000e+01 7.249289e+02
      vertex 2.147875e+02 -6.400000e+01 7.074357e+02
    endloop
  endfacet
  facet normal 0.000000e+00 0.000000e+00 -1.000000e+00
    outer loop
      vertex 2.211185e+02 -4.400000e+01 7.074357e+02
      vertex 2.147875e+02 -3.900000e+01 7.074357e+02
      vertex 2.211185e+02 -3.900000e+01 7.074357e+02
    endloop
  endfacet
  facet normal 0.000000e+00 0.000000e+00 -1.000000e+00
    outer loop
      vertex 2.211185e+02 -6.400000e+01 7.074357e+02
      vertex 2.147875e+02 -3.900000e+01 7.074357e+02
      vertex 2.211185e+02 -4.400000e+01 7.074357e+02
    endloop
  endfacet
  facet normal 0.000000e+00 0.000000e+00 -1.000000e+00
    outer loop
      vertex 2.211185e+02 -6.400000e+01 7.074357e+02
      vertex 2.147875e+02 -6.400000e+01 7.074357e+02
      vertex 2.147875e+02 -3.900000e+01 7.074357e+02
    endloop
  endfacet
  facet normal -1.000000e+00 5.684342e-15 -1.460928e-10
    outer loop
      vertex 2.211185e+02 -4.400000e+01 7.065736e+02
      vertex 2.211185e+02 -3.900000e+01 7.074357e+02
      vertex 2.211185e+02 -3.900000e+01 7.065736e+02
    endloop
  endfacet
  facet normal -1.000000e+00 0.000000e+00 -1.460599e-10
    outer loop
      vertex 2.211185e+02 -4.400000e+01 7.074357e+02
      vertex 2.211185e+02 -3.900000e+01 7.074357e+02
      vertex 2.211185e+02 -4.400000e+01 7.065736e+02
    endloop
  endfacet
  facet normal 0.000000e+00 1.000000e+00 0.000000e+00
    outer loop
      vertex 2.175938e+02 -3.900000e+01 6.890210e+02
      vertex 2.147875e+02 -3.900000e+01 7.065736e+02
      vertex 2.211185e+02 -3.900000e+01 7.065736e+02
    endloop
  endfacet
  facet normal 0.000000e+00 0.000000e+00 1.000000e+00
    outer loop
      vertex 2.147875e+02 -6.400000e+01 7.065736e+02
      vertex 2.211185e+02 -3.900000e+01 7.065736e+02
      vertex 2.147875e+02 -3.900000e+01 7.065736e+02
    endloop
  endfacet
  facet normal 0.000000e+00 1.000000e+00 0.000000e+00
    outer loop
      vertex 2.201871e+02 -3.900000e+01 6.962210e+02
      vertex 2.175938e+02 -3.900000e+01 6.890210e+02
      vertex 2.211185e+02 -3.900000e+01 7.065736e+02
    endloop
  endfacet
  facet normal 0.000000e+00 0.000000e+00 1.000000e+00
    outer loop
      vertex 2.211185e+02 -4.400000e+01 7.065736e+02
      vertex 2.211185e+02 -3.900000e+01 7.065736e+02
      vertex 2.147875e+02 -6.400000e+01 7.065736e+02
    endloop
  endfacet
  facet normal 0.000000e+00 1.000000e+00 0.000000e+00
    outer loop
      vertex 2.175938e+02 -3.900000e+01 6.890210e+02
      vertex 2.085635e+02 -3.900000e+01 6.890210e+02
      vertex 2.147875e+02 -3.900000e+01 7.065736e+02
    endloop
  endfacet
  facet normal -9.425013e-01 1.071500e-15 3.342025e-01
    outer loop
      vertex 2.085635e+02 -6.400000e+01 6.890210e+02
      vertex 2.147875e+02 -3.900000e+01 7.065736e+02
      vertex 2.085635e+02 -3.900000e+01 6.890210e+02
    endloop
  endfacet
  facet normal -9.425013e-01 1.071500e-15 3.342025e-01
    outer loop
      vertex 2.147875e+02 -6.400000e+01 7.065736e+02
      vertex 2.147875e+02 -3.900000e+01 7.065736e+02
      vertex 2.085635e+02 -6.400000e+01 6.890210e+02
    endloop
  endfacet
  facet normal 0.000000e+00 0.000000e+00 -1.000000e+00
    outer loop
      vertex 2.175938e+02 -6.400000e+01 6.890210e+02
      vertex 2.085635e+02 -3.900000e+01 6.890210e+02
      vertex 2.175938e+02 -3.900000e+01 6.890210e+02
    endloop
  endfacet
  facet normal 0.000000e+00 0.000000e+00 -1.000000e+00
    outer loop
      vertex 2.085635e+02 -6.400000e+01 6.890210e+02
      vertex 2.085635e+02 -3.900000e+01 6.890210e+02
      vertex 2.175938e+02 -6.400000e+01 6.890210e+02
    endloop
  endfacet
  facet normal 9.408337e-01 0.000000e+00 -3.388687e-01
    outer loop
      vertex 2.201871e+02 -6.400000e+01 6.962210e+02
      vertex 2.175938e+02 -3.900000e+01 6.890210e+02
      vertex 2.201871e+02 -3.900000e+01 6.962210e+02
    endloop
  endfacet
  facet normal 9.408337e-01 0.000000e+00 -3.388687e-01
    outer loop
      vertex 2.175938e+02 -6.400000e+01 6.890210e+02
      vertex 2.175938e+02 -3.900000e+01 6.890210e+02
      vertex 2.201871e+02 -6.400000e+01 6.962210e+02
    endloop
  endfacet
  facet normal 0.000000e+00 1.000000e+00 0.000000e+00
    outer loop
      vertex 2.261635e+02 -3.900000e+01 7.014991e+02
      vertex 2.261635e+02 -3.900000e+01 6.962210e+02
      vertex 2.201871e+02 -3.900000e+01 6.962210e+02
    endloop
  endfacet
  facet normal -1.902276e-14 4.325275e-29 -1.000000e+00
    outer loop
      vertex 2.261635e+02 -6.400000e+01 6.962210e+02
      vertex 2.201871e+02 -3.900000e+01 6.962210e+02
      vertex 2.261635e+02 -3.900000e+01 6.962210e+02
    endloop
  endfacet
  facet normal -1.902276e-14 0.000000e+00 -1.000000e+00
    outer loop
      vertex 2.201871e+02 -6.400000e+01 6.962210e+02
      vertex 2.201871e+02 -3.900000e+01 6.962210e+02
      vertex 2.261635e+02 -6.400000e+01 6.962210e+02
    endloop
  endfacet
  facet normal 1.000000e+00 0.000000e+00 0.000000e+00
    outer loop
      vertex 2.261635e+02 -4.400000e+01 7.014991e+02
      vertex 2.261635e+02 -3.900000e+01 6.962210e+02
      vertex 2.261635e+02 -3.900000e+01 7.014991e+02
    endloop
  endfacet
  facet normal 1.000000e+00 -2.842171e-15 -2.692430e-15
    outer loop
      vertex 2.261635e+02 -6.400000e+01 7.014991e+02
      vertex 2.261635e+02 -3.900000e+01 6.962210e+02
      vertex 2.261635e+02 -4.400000e+01 7.014991e+02
    endloop
  endfacet
  facet normal 1.000000e+00 -2.273737e-15 0.000000e+00
    outer loop
      vertex 2.261635e+02 -6.400000e+01 7.014991e+02
      vertex 2.261635e+02 -6.400000e+01 6.962210e+02
      vertex 2.261635e+02 -3.900000e+01 6.962210e+02
    endloop
  endfacet
  facet normal 0.000000e+00 0.000000e+00 -1.000000e+00
    outer loop
      vertex 2.270250e+02 -4.400000e+01 7.014991e+02
      vertex 2.261635e+02 -3.900000e+01 7.014991e+02
      vertex 2.270250e+02 -3.900000e+01 7.014991e+02
    endloop
  endfacet
  facet normal 0.000000e+00 0.000000e+00 -1.000000e+00
    outer loop
      vertex 2.261635e+02 -4.400000e+01 7.014991e+02
      vertex 2.261635e+02 -3.900000e+01 7.014991e+02
      vertex 2.270250e+02 -4.400000e+01 7.014991e+02
    endloop
  endfacet
  facet normal -1.000000e+00 3.410605e-15 0.000000e+00
    outer loop
      vertex 2.270250e+02 -6.400000e+01 6.962427e+02
      vertex 2.270250e+02 -3.900000e+01 7.014991e+02
      vertex 2.270250e+02 -3.900000e+01 6.962427e+02
    endloop
  endfacet
  facet normal -1.000000e+00 5.684342e-15 -1.081408e-14
    outer loop
      vertex 2.270250e+02 -4.400000e+01 7.014991e+02
      vertex 2.270250e+02 -3.900000e+01 7.014991e+02
      vertex 2.270250e+02 -6.400000e+01 6.962427e+02
    endloop
  endfacet
  facet normal 0.000000e+00 4.547474e-15 -1.000000e+00
    outer loop
      vertex 2.330349e+02 -6.400000e+01 6.962427e+02
      vertex 2.270250e+02 -3.900000e+01 6.962427e+02
      vertex 2.330349e+02 -3.900000e+01 6.962427e+02
    endloop
  endfacet
  facet normal -1.891663e-14 6.451716e-29 -1.000000e+00
    outer loop
      vertex 2.270250e+02 -6.400000e+01 6.962427e+02
      vertex 2.270250e+02 -3.900000e+01 6.962427e+02
      vertex 2.330349e+02 -6.400000e+01 6.962427e+02
    endloop
  endfacet
  facet normal -9.500858e-01 0.000000e+00 -3.119888e-01
    outer loop
      vertex 2.354063e+02 -6.400000e+01 6.890210e+02
      vertex 2.330349e+02 -3.900000e+01 6.962427e+02
      vertex 2.354063e+02 -3.900000e+01 6.890210e+02
    endloop
  endfacet
  facet normal -9.500858e-01 6.819373e-15 -3.119888e-01
    outer loop
      vertex 2.330349e+02 -6.400000e+01 6.962427e+02
      vertex 2.330349e+02 -3.900000e+01 6.962427e+02
      vertex 2.354063e+02 -6.400000e+01 6.890210e+02
    endloop
  endfacet
  facet normal 0.000000e+00 1.000000e+00 0.000000e+00
    outer loop
      vertex 2.399802e+02 -3.900000e+01 7.014991e+02
      vertex 2.444176e+02 -3.900000e+01 6.890210e+02
      vertex 2.354063e+02 -3.900000e+01 6.890210e+02
    endloop
  endfacet
  facet normal 0.000000e+00 -4.547474e-15 -1.000000e+00
    outer loop
      vertex 2.444176e+02 -6.400000e+01 6.890210e+02
      vertex 2.354063e+02 -3.900000e+01 6.890210e+02
      vertex 2.444176e+02 -3.900000e+01 6.890210e+02
    endloop
  endfacet
  facet normal 1.261602e-14 0.000000e+00 -1.000000e+00
    outer loop
      vertex 2.354063e+02 -6.400000e+01 6.890210e+02
      vertex 2.354063e+02 -3.900000e+01 6.890210e+02
      vertex 2.444176e+02 -6.400000e+01 6.890210e+02
    endloop
  endfacet
  facet normal 9.421955e-01 -5.355761e-15 3.350636e-01
    outer loop
      vertex 2.399802e+02 -4.400000e+01 7.014991e+02
      vertex 2.444176e+02 -3.900000e+01 6.890210e+02
      vertex 2.399802e+02 -3.900000e+01 7.014991e+02
    endloop
  endfacet
  facet normal 9.421955e-01 -4.166839e-15 3.350636e-01
    outer loop
      vertex 2.381713e+02 -6.400000e+01 7.065855e+02
      vertex 2.444176e+02 -3.900000e+01 6.890210e+02
      vertex 2.399802e+02 -4.400000e+01 7.014991e+02
    endloop
  endfacet
  facet normal 9.421955e-01 1.524597e-15 3.350636e-01
    outer loop
      vertex 2.381713e+02 -6.400000e+01 7.065855e+02
      vertex 2.444176e+02 -6.400000e+01 6.890210e+02
      vertex 2.444176e+02 -3.900000e+01 6.890210e+02
    endloop
  endfacet
  facet normal 0.000000e+00 0.000000e+00 -1.000000e+00
    outer loop
      vertex 2.399802e+02 -4.400000e+01 7.014991e+02
      vertex 2.399802e+02 -3.900000e+01 7.014991e+02
      vertex 2.469635e+02 -3.900000e+01 7.014991e+02
    endloop
  endfacet
  facet normal -1.000000e+00 0.000000e+00 4.555463e-15
    outer loop
      vertex 2.469635e+02 -6.400000e+01 6.890210e+02
      vertex 2.469635e+02 -3.900000e+01 7.014991e+02
      vertex 2.469635e+02 -3.900000e+01 6.890210e+02
    endloop
  endfacet
  facet normal -1.000000e+00 5.684342e-15 -6.833194e-15
    outer loop
      vertex 2.469635e+02 -4.400000e+01 7.014991e+02
      vertex 2.469635e+02 -3.900000e+01 7.014991e+02
      vertex 2.469635e+02 -6.400000e+01 6.890210e+02
    endloop
  endfacet
  facet normal 0.000000e+00 0.000000e+00 -1.000000e+00
    outer loop
      vertex 2.399802e+02 -4.400000e+01 7.014991e+02
      vertex 2.469635e+02 -3.900000e+01 7.014991e+02
      vertex 2.469635e+02 -4.400000e+01 7.014991e+02
    endloop
  endfacet
  facet normal 0.000000e+00 1.000000e+00 0.000000e+00
    outer loop
      vertex 2.573635e+02 -3.900000e+01 7.014991e+02
      vertex 2.573635e+02 -3.900000e+01 6.890210e+02
      vertex 2.469635e+02 -3.900000e+01 6.890210e+02
    endloop
  endfacet
  facet normal 0.000000e+00 0.000000e+00 -1.000000e+00
    outer loop
      vertex 2.573635e+02 -6.400000e+01 6.890210e+02
      vertex 2.469635e+02 -3.900000e+01 6.890210e+02
      vertex 2.573635e+02 -3.900000e+01 6.890210e+02
    endloop
  endfacet
  facet normal 0.000000e+00 0.000000e+00 -1.000000e+00
    outer loop
      vertex 2.469635e+02 -6.400000e+01 6.890210e+02
      vertex 2.469635e+02 -3.900000e+01 6.890210e+02
      vertex 2.573635e+02 -6.400000e+01 6.890210e+02
    endloop
  endfacet
  facet normal 1.000000e+00 -1.136868e-14 0.000000e+00
    outer loop
      vertex 2.573635e+02 -4.400000e+01 7.014991e+02
      vertex 2.573635e+02 -3.900000e+01 6.890210e+02
      vertex 2.573635e+02 -3.900000e+01 7.014991e+02
    endloop
  endfacet
  facet normal 1.000000e+00 -5.037441e-15 2.536946e-15
    outer loop
      vertex 2.573635e+02 -6.400000e+01 7.065989e+02
      vertex 2.573635e+02 -3.900000e+01 6.890210e+02
      vertex 2.573635e+02 -4.400000e+01 7.014991e+02
    endloop
  endfacet
  facet normal 1.000000e+00 0.000000e+00 9.701394e-15
    outer loop
      vertex 2.573635e+02 -6.400000e+01 7.065989e+02
      vertex 2.573635e+02 -6.400000e+01 6.890210e+02
      vertex 2.573635e+02 -3.900000e+01 6.890210e+02
    endloop
  endfacet
  facet normal 0.000000e+00 0.000000e+00 -1.000000e+00
    outer loop
      vertex 2.581135e+02 -4.400000e+01 7.014991e+02
      vertex 2.573635e+02 -3.900000e+01 7.014991e+02
      vertex 2.581135e+02 -3.900000e+01 7.014991e+02
    endloop
  endfacet
  facet normal 0.000000e+00 0.000000e+00 -1.000000e+00
    outer loop
      vertex 2.573635e+02 -4.400000e+01 7.014991e+02
      vertex 2.573635e+02 -3.900000e+01 7.014991e+02
      vertex 2.581135e+02 -4.400000e+01 7.014991e+02
    endloop
  endfacet
  facet normal -1.000000e+00 0.000000e+00 1.366639e-14
    outer loop
      vertex 2.581135e+02 -6.400000e+01 6.890210e+02
      vertex 2.581135e+02 -3.900000e+01 7.014991e+02
      vertex 2.581135e+02 -3.900000e+01 6.890210e+02
    endloop
  endfacet
  facet normal -1.000000e+00 1.136868e-14 -9.110925e-15
    outer loop
      vertex 2.581135e+02 -4.400000e+01 7.014991e+02
      vertex 2.581135e+02 -3.900000e+01 7.014991e+02
      vertex 2.581135e+02 -6.400000e+01 6.890210e+02
    endloop
  endfacet
  facet normal 3.759939e-02 -4.274555e-16 -9.992929e-01
    outer loop
      vertex 2.634863e+02 -6.400000e+01 6.892232e+02
      vertex 2.581135e+02 -3.900000e+01 6.890210e+02
      vertex 2.634863e+02 -3.900000e+01 6.892232e+02
    endloop
  endfacet
  facet normal 3.759939e-02 0.000000e+00 -9.992929e-01
    outer loop
      vertex 2.581135e+02 -6.400000e+01 6.890210e+02
      vertex 2.581135e+02 -3.900000e+01 6.890210e+02
      vertex 2.634863e+02 -6.400000e+01 6.892232e+02
    endloop
  endfacet
  facet normal 4.486595e-01 -7.124491e-15 -8.937028e-01
    outer loop
      vertex 2.684586e+02 -6.400000e+01 6.917194e+02
      vertex 2.634863e+02 -3.900000e+01 6.892232e+02
      vertex 2.684586e+02 -3.900000e+01 6.917194e+02
    endloop
  endfacet
  facet normal 4.486595e-01 -5.100668e-15 -8.937028e-01
    outer loop
      vertex 2.634863e+02 -6.400000e+01 6.892232e+02
      vertex 2.634863e+02 -3.900000e+01 6.892232e+02
      vertex 2.684586e+02 -6.400000e+01 6.917194e+02
    endloop
  endfacet
  facet normal 8.202348e-01 -9.324990e-15 -5.720269e-01
    outer loop
      vertex 2.709056e+02 -6.400000e+01 6.952281e+02
      vertex 2.684586e+02 -3.900000e+01 6.917194e+02
      vertex 2.709056e+02 -3.900000e+01 6.952281e+02
    endloop
  endfacet
  facet normal 8.202348e-01 -8.196272e-15 -5.720269e-01
    outer loop
      vertex 2.684586e+02 -6.400000e+01 6.917194e+02
      vertex 2.684586e+02 -3.900000e+01 6.917194e+02
      vertex 2.709056e+02 -6.400000e+01 6.952281e+02
    endloop
  endfacet
  facet normal 9.390241e-01 -1.067380e-14 -3.438514e-01
    outer loop
      vertex 2.715705e+02 -6.400000e+01 6.970440e+02
      vertex 2.709056e+02 -6.400000e+01 6.952281e+02
      vertex 2.709056e+02 -3.900000e+01 6.952281e+02
    endloop
  endfacet
  facet normal -2.419436e-15 -1.000000e+00 -3.026930e-15
    outer loop
      vertex 2.581135e+02 -6.400000e+01 6.890210e+02
      vertex 2.709056e+02 -6.400000e+01 6.952281e+02
      vertex 2.715705e+02 -6.400000e+01 6.970440e+02
    endloop
  endfacet
  facet normal -4.391707e-15 -1.000000e+00 1.037685e-15
    outer loop
      vertex 2.581135e+02 -6.400000e+01 6.890210e+02
      vertex 2.684586e+02 -6.400000e+01 6.917194e+02
      vertex 2.709056e+02 -6.400000e+01 6.952281e+02
    endloop
  endfacet
  facet normal -3.176253e-15 -1.000000e+00 -1.757516e-15
    outer loop
      vertex 2.718934e+02 -6.400000e+01 7.005034e+02
      vertex 2.581135e+02 -6.400000e+01 6.890210e+02
      vertex 2.715705e+02 -6.400000e+01 6.970440e+02
    endloop
  endfacet
  facet normal -3.941523e-15 -1.000000e+00 -6.882586e-16
    outer loop
      vertex 2.581135e+02 -6.400000e+01 6.890210e+02
      vertex 2.634863e+02 -6.400000e+01 6.892232e+02
      vertex 2.684586e+02 -6.400000e+01 6.917194e+02
    endloop
  endfacet
  facet normal -1.000000e+00 -1.269057e-15 1.114498e-14
    outer loop
      vertex 2.581135e+02 -4.400000e+01 7.065995e+02
      vertex 2.581135e+02 -4.400000e+01 7.014991e+02
      vertex 2.581135e+02 -6.400000e+01 6.890210e+02
    endloop
  endfacet
  facet normal -1.000000e+00 8.526513e-15 3.446525e-30
    outer loop
      vertex 2.581135e+02 -6.400000e+01 7.065995e+02
      vertex 2.581135e+02 -4.400000e+01 7.065995e+02
      vertex 2.581135e+02 -6.400000e+01 6.890210e+02
    endloop
  endfacet
  facet normal -4.350801e-15 -1.000000e+00 -4.042127e-16
    outer loop
      vertex 2.715680e+02 -6.400000e+01 7.024074e+02
      vertex 2.581135e+02 -6.400000e+01 7.065995e+02
      vertex 2.581135e+02 -6.400000e+01 6.890210e+02
    endloop
  endfacet
  facet normal -4.062318e-15 -1.000000e+00 -6.941632e-16
    outer loop
      vertex 2.715680e+02 -6.400000e+01 7.024074e+02
      vertex 2.581135e+02 -6.400000e+01 6.890210e+02
      vertex 2.718934e+02 -6.400000e+01 7.005034e+02
    endloop
  endfacet
  facet normal -9.473903e-15 -1.000000e+00 1.055865e-28
    outer loop
      vertex 2.573635e+02 -4.400000e+01 7.098140e+02
      vertex 2.581135e+02 -4.400000e+01 7.014991e+02
      vertex 2.581135e+02 -4.400000e+01 7.065995e+02
    endloop
  endfacet
  facet normal -9.473903e-15 -1.000000e+00 0.000000e+00
    outer loop
      vertex 2.573635e+02 -4.400000e+01 7.065989e+02
      vertex 2.573635e+02 -4.400000e+01 7.014991e+02
      vertex 2.581135e+02 -4.400000e+01 7.014991e+02
    endloop
  endfacet
  facet normal 1.109810e-13 -1.000000e+00 1.771453e-14
    outer loop
      vertex 2.573635e+02 -4.400000e+01 7.074012e+02
      vertex 2.573635e+02 -4.400000e+01 7.065989e+02
      vertex 2.581135e+02 -4.400000e+01 7.014991e+02
    endloop
  endfacet
  facet normal -7.476993e-14 -1.000000e+00 -5.889677e-15
    outer loop
      vertex 2.573635e+02 -4.400000e+01 7.098140e+02
      vertex 2.573635e+02 -4.400000e+01 7.074012e+02
      vertex 2.581135e+02 -4.400000e+01 7.014991e+02
    endloop
  endfacet
  facet normal -6.981088e-04 5.962897e-18 9.999998e-01
    outer loop
      vertex 2.696339e+02 -4.400000e+01 7.066075e+02
      vertex 2.581135e+02 -4.400000e+01 7.065995e+02
      vertex 2.581135e+02 -6.400000e+01 7.065995e+02
    endloop
  endfacet
  facet normal -6.043827e-16 -1.000000e+00 -1.774191e-14
    outer loop
      vertex 2.581135e+02 -4.400000e+01 7.074004e+02
      vertex 2.581135e+02 -4.400000e+01 7.065995e+02
      vertex 2.696339e+02 -4.400000e+01 7.066075e+02
    endloop
  endfacet
  facet normal -8.551648e-14 -1.000000e+00 -1.774191e-14
    outer loop
      vertex 2.581135e+02 -4.400000e+01 7.074004e+02
      vertex 2.573635e+02 -4.400000e+01 7.098140e+02
      vertex 2.581135e+02 -4.400000e+01 7.065995e+02
    endloop
  endfacet
  facet normal -6.981088e-04 0.000000e+00 9.999998e-01
    outer loop
      vertex 2.696339e+02 -6.400000e+01 7.066075e+02
      vertex 2.696339e+02 -4.400000e+01 7.066075e+02
      vertex 2.581135e+02 -6.400000e+01 7.065995e+02
    endloop
  endfacet
  facet normal -3.701783e-15 -1.000000e+00 1.678835e-15
    outer loop
      vertex 2.715680e+02 -6.400000e+01 7.024074e+02
      vertex 2.696339e+02 -6.400000e+01 7.066075e+02
      vertex 2.581135e+02 -6.400000e+01 7.065995e+02
    endloop
  endfacet
  facet normal 1.000000e+00 -5.684342e-15 0.000000e+00
    outer loop
      vertex 2.573635e+02 -4.400000e+01 7.065989e+02
      vertex 2.573635e+02 -6.400000e+01 7.065989e+02
      vertex 2.573635e+02 -4.400000e+01 7.014991e+02
    endloop
  endfacet
  facet normal 0.000000e+00 -1.000000e+00 0.000000e+00
    outer loop
      vertex 2.469635e+02 -6.400000e+01 6.890210e+02
      vertex 2.573635e+02 -6.400000e+01 6.890210e+02
      vertex 2.573635e+02 -6.400000e+01 7.065989e+02
    endloop
  endfacet
  facet normal -6.981088e-04 4.003208e-18 9.999998e-01
    outer loop
      vertex 2.469635e+02 -6.400000e+01 7.065917e+02
      vertex 2.573635e+02 -6.400000e+01 7.065989e+02
      vertex 2.573635e+02 -4.400000e+01 7.065989e+02
    endloop
  endfacet
  facet normal -2.733987e-15 -1.000000e+00 1.617567e-15
    outer loop
      vertex 2.469635e+02 -6.400000e+01 7.065917e+02
      vertex 2.469635e+02 -6.400000e+01 6.890210e+02
      vertex 2.573635e+02 -6.400000e+01 7.065989e+02
    endloop
  endfacet
  facet normal -6.981088e-04 3.968289e-18 9.999998e-01
    outer loop
      vertex 2.469635e+02 -6.400000e+01 7.065917e+02
      vertex 2.573635e+02 -4.400000e+01 7.065989e+02
      vertex 2.469635e+02 -4.400000e+01 7.065917e+02
    endloop
  endfacet
  facet normal -3.397910e-15 -1.000000e+00 -2.601520e-14
    outer loop
      vertex 2.469635e+02 -4.400000e+01 7.074111e+02
      vertex 2.469635e+02 -4.400000e+01 7.065917e+02
      vertex 2.573635e+02 -4.400000e+01 7.065989e+02
    endloop
  endfacet
  facet normal 1.686848e-17 -1.000000e+00 1.771453e-14
    outer loop
      vertex 2.573635e+02 -4.400000e+01 7.074012e+02
      vertex 2.469635e+02 -4.400000e+01 7.074111e+02
      vertex 2.573635e+02 -4.400000e+01 7.065989e+02
    endloop
  endfacet
  facet normal -1.000000e+00 -2.060928e-15 5.581009e-15
    outer loop
      vertex 2.469635e+02 -4.400000e+01 7.065917e+02
      vertex 2.469635e+02 -4.400000e+01 7.014991e+02
      vertex 2.469635e+02 -6.400000e+01 6.890210e+02
    endloop
  endfacet
  facet normal -1.000000e+00 5.684342e-15 -3.235134e-15
    outer loop
      vertex 2.469635e+02 -6.400000e+01 7.065917e+02
      vertex 2.469635e+02 -4.400000e+01 7.065917e+02
      vertex 2.469635e+02 -6.400000e+01 6.890210e+02
    endloop
  endfacet
  facet normal -3.052458e-15 -1.000000e+00 -1.085515e-15
    outer loop
      vertex 2.381713e+02 -4.400000e+01 7.065855e+02
      vertex 2.399802e+02 -4.400000e+01 7.014991e+02
      vertex 2.469635e+02 -4.400000e+01 7.014991e+02
    endloop
  endfacet
  facet normal 9.421955e-01 -5.355761e-15 3.350636e-01
    outer loop
      vertex 2.381713e+02 -4.400000e+01 7.065855e+02
      vertex 2.381713e+02 -6.400000e+01 7.065855e+02
      vertex 2.399802e+02 -4.400000e+01 7.014991e+02
    endloop
  endfacet
  facet normal -1.020719e-29 -1.000000e+00 8.090662e-16
    outer loop
      vertex 2.354063e+02 -6.400000e+01 6.890210e+02
      vertex 2.444176e+02 -6.400000e+01 6.890210e+02
      vertex 2.381713e+02 -6.400000e+01 7.065855e+02
    endloop
  endfacet
  facet normal -6.981088e-04 3.984167e-18 9.999998e-01
    outer loop
      vertex 2.270250e+02 -6.400000e+01 7.065778e+02
      vertex 2.381713e+02 -6.400000e+01 7.065855e+02
      vertex 2.381713e+02 -4.400000e+01 7.065855e+02
    endloop
  endfacet
  facet normal -6.435891e-15 -1.000000e+00 1.822208e-15
    outer loop
      vertex 2.330349e+02 -6.400000e+01 6.962427e+02
      vertex 2.354063e+02 -6.400000e+01 6.890210e+02
      vertex 2.381713e+02 -6.400000e+01 7.065855e+02
    endloop
  endfacet
  facet normal -7.093737e-15 -1.000000e+00 2.148906e-15
    outer loop
      vertex 2.270250e+02 -6.400000e+01 6.962427e+02
      vertex 2.330349e+02 -6.400000e+01 6.962427e+02
      vertex 2.381713e+02 -6.400000e+01 7.065855e+02
    endloop
  endfacet
  facet normal -5.099735e-15 -1.000000e+00 -1.402439e-29
    outer loop
      vertex 2.270250e+02 -6.400000e+01 7.065778e+02
      vertex 2.270250e+02 -6.400000e+01 6.962427e+02
      vertex 2.381713e+02 -6.400000e+01 7.065855e+02
    endloop
  endfacet
  facet normal -6.981088e-04 2.976217e-18 9.999998e-01
    outer loop
      vertex 2.270250e+02 -6.400000e+01 7.065778e+02
      vertex 2.381713e+02 -4.400000e+01 7.065855e+02
      vertex 2.270250e+02 -4.400000e+01 7.065778e+02
    endloop
  endfacet
  facet normal -1.000000e+00 2.842171e-15 0.000000e+00
    outer loop
      vertex 2.270250e+02 -4.400000e+01 7.065778e+02
      vertex 2.270250e+02 -4.400000e+01 7.014991e+02
      vertex 2.270250e+02 -6.400000e+01 6.962427e+02
    endloop
  endfacet
  facet normal -1.000000e+00 4.263256e-15 -2.750023e-15
    outer loop
      vertex 2.270250e+02 -6.400000e+01 7.065778e+02
      vertex 2.270250e+02 -4.400000e+01 7.065778e+02
      vertex 2.270250e+02 -6.400000e+01 6.962427e+02
    endloop
  endfacet
  facet normal 0.000000e+00 -1.000000e+00 0.000000e+00
    outer loop
      vertex 2.260858e+02 -4.400000e+01 7.098140e+02
      vertex 2.270250e+02 -4.400000e+01 7.014991e+02
      vertex 2.270250e+02 -4.400000e+01 7.065778e+02
    endloop
  endfacet
  facet normal -8.247770e-15 -1.000000e+00 4.120666e-15
    outer loop
      vertex 2.261160e+02 -4.400000e+01 7.065771e+02
      vertex 2.261635e+02 -4.400000e+01 7.014991e+02
      vertex 2.270250e+02 -4.400000e+01 7.014991e+02
    endloop
  endfacet
  facet normal -5.755522e-14 -1.000000e+00 -6.501175e-15
    outer loop
      vertex 2.261080e+02 -4.400000e+01 7.074309e+02
      vertex 2.270250e+02 -4.400000e+01 7.014991e+02
      vertex 2.260858e+02 -4.400000e+01 7.098140e+02
    endloop
  endfacet
  facet normal -1.311002e-13 -1.000000e+00 -1.786975e-14
    outer loop
      vertex 2.261080e+02 -4.400000e+01 7.074309e+02
      vertex 2.261160e+02 -4.400000e+01 7.065771e+02
      vertex 2.270250e+02 -4.400000e+01 7.014991e+02
    endloop
  endfacet
  facet normal 9.999563e-01 -2.842105e-15 9.346113e-03
    outer loop
      vertex 2.261160e+02 -6.400000e+01 7.065771e+02
      vertex 2.261635e+02 -6.400000e+01 7.014991e+02
      vertex 2.261635e+02 -4.400000e+01 7.014991e+02
    endloop
  endfacet
  facet normal 9.999563e-01 0.000000e+00 9.346113e-03
    outer loop
      vertex 2.261160e+02 -6.400000e+01 7.065771e+02
      vertex 2.261635e+02 -4.400000e+01 7.014991e+02
      vertex 2.261160e+02 -4.400000e+01 7.065771e+02
    endloop
  endfacet
  facet normal -2.994165e-13 -1.000000e+00 0.000000e+00
    outer loop
      vertex 2.261160e+02 -6.400000e+01 7.065771e+02
      vertex 2.261635e+02 -6.400000e+01 6.962210e+02
      vertex 2.261635e+02 -6.400000e+01 7.014991e+02
    endloop
  endfacet
  facet normal 5.222445e-29 -1.000000e+00 2.745366e-15
    outer loop
      vertex 2.211185e+02 -6.400000e+01 7.065736e+02
      vertex 2.201871e+02 -6.400000e+01 6.962210e+02
      vertex 2.261635e+02 -6.400000e+01 6.962210e+02
    endloop
  endfacet
  facet normal -2.844511e-15 -1.000000e+00 1.359184e-15
    outer loop
      vertex 2.261160e+02 -6.400000e+01 7.065771e+02
      vertex 2.211185e+02 -6.400000e+01 7.065736e+02
      vertex 2.261635e+02 -6.400000e+01 6.962210e+02
    endloop
  endfacet
  facet normal -1.070390e-14 -1.000000e+00 -9.213627e-17
    outer loop
      vertex 2.147875e+02 -6.400000e+01 7.065736e+02
      vertex 2.175938e+02 -6.400000e+01 6.890210e+02
      vertex 2.201871e+02 -6.400000e+01 6.962210e+02
    endloop
  endfacet
  facet normal -4.489302e-15 -1.000000e+00 3.149234e-15
    outer loop
      vertex 2.211185e+02 -6.400000e+01 7.065736e+02
      vertex 2.147875e+02 -6.400000e+01 7.065736e+02
      vertex 2.201871e+02 -6.400000e+01 6.962210e+02
    endloop
  endfacet
  facet normal -3.147353e-15 -1.000000e+00 1.116023e-15
    outer loop
      vertex 2.147875e+02 -6.400000e+01 7.065736e+02
      vertex 2.085635e+02 -6.400000e+01 6.890210e+02
      vertex 2.175938e+02 -6.400000e+01 6.890210e+02
    endloop
  endfacet
  facet normal 0.000000e+00 0.000000e+00 1.000000e+00
    outer loop
      vertex 2.211185e+02 -6.400000e+01 7.065736e+02
      vertex 2.211185e+02 -4.400000e+01 7.065736e+02
      vertex 2.147875e+02 -6.400000e+01 7.065736e+02
    endloop
  endfacet
  facet normal -6.981088e-04 2.013264e-18 9.999998e-01
    outer loop
      vertex 2.261160e+02 -4.400000e+01 7.065771e+02
      vertex 2.211185e+02 -4.400000e+01 7.065736e+02
      vertex 2.211185e+02 -6.400000e+01 7.065736e+02
    endloop
  endfacet
  facet normal 1.421781e-15 -1.000000e+00 2.076652e-25
    outer loop
      vertex 2.261160e+02 -4.400000e+01 7.065771e+02
      vertex 2.211185e+02 -4.400000e+01 7.074357e+02
      vertex 2.211185e+02 -4.400000e+01 7.065736e+02
    endloop
  endfacet
  facet normal -6.981088e-04 0.000000e+00 9.999998e-01
    outer loop
      vertex 2.261160e+02 -6.400000e+01 7.065771e+02
      vertex 2.261160e+02 -4.400000e+01 7.065771e+02
      vertex 2.211185e+02 -6.400000e+01 7.065736e+02
    endloop
  endfacet
  facet normal -9.522390e-04 0.000000e+00 -9.999995e-01
    outer loop
      vertex 2.261080e+02 -6.400000e+01 7.074309e+02
      vertex 2.211185e+02 -6.400000e+01 7.074357e+02
      vertex 2.211185e+02 -4.400000e+01 7.074357e+02
    endloop
  endfacet
  facet normal -9.522390e-04 5.115905e-14 -9.999995e-01
    outer loop
      vertex 2.261080e+02 -4.400000e+01 7.074309e+02
      vertex 2.261080e+02 -6.400000e+01 7.074309e+02
      vertex 2.211185e+02 -4.400000e+01 7.074357e+02
    endloop
  endfacet
  facet normal -1.439917e-15 -1.000000e+00 -1.665787e-14
    outer loop
      vertex 2.261080e+02 -4.400000e+01 7.074309e+02
      vertex 2.211185e+02 -4.400000e+01 7.074357e+02
      vertex 2.261160e+02 -4.400000e+01 7.065771e+02
    endloop
  endfacet
  facet normal 0.000000e+00 -1.000000e+00 -1.195029e-14
    outer loop
      vertex 2.260858e+02 -6.400000e+01 7.098140e+02
      vertex 2.147875e+02 -6.400000e+01 7.074357e+02
      vertex 2.211185e+02 -6.400000e+01 7.074357e+02
    endloop
  endfacet
  facet normal -5.721762e-15 -1.000000e+00 2.070770e-15
    outer loop
      vertex 2.260858e+02 -6.400000e+01 7.249289e+02
      vertex 2.211185e+02 -6.400000e+01 7.249289e+02
      vertex 2.147875e+02 -6.400000e+01 7.074357e+02
    endloop
  endfacet
  facet normal -2.515577e-15 -1.000000e+00 0.000000e+00
    outer loop
      vertex 2.260858e+02 -6.400000e+01 7.098140e+02
      vertex 2.260858e+02 -6.400000e+01 7.249289e+02
      vertex 2.147875e+02 -6.400000e+01 7.074357e+02
    endloop
  endfacet
  facet normal -5.696271e-15 -1.000000e+00 -5.324032e-17
    outer loop
      vertex 2.261080e+02 -6.400000e+01 7.074309e+02
      vertex 2.260858e+02 -6.400000e+01 7.098140e+02
      vertex 2.211185e+02 -6.400000e+01 7.074357e+02
    endloop
  endfacet
  facet normal 1.000000e+00 -2.842171e-15 0.000000e+00
    outer loop
      vertex 2.260858e+02 -4.400000e+01 7.098140e+02
      vertex 2.260858e+02 -6.400000e+01 7.249289e+02
      vertex 2.260858e+02 -6.400000e+01 7.098140e+02
    endloop
  endfacet
  facet normal 9.999563e-01 -4.781385e-16 9.346113e-03
    outer loop
      vertex 2.261080e+02 -4.400000e+01 7.074309e+02
      vertex 2.260858e+02 -6.400000e+01 7.098140e+02
      vertex 2.261080e+02 -6.400000e+01 7.074309e+02
    endloop
  endfacet
  facet normal 9.999563e-01 1.992414e-15 9.346113e-03
    outer loop
      vertex 2.261080e+02 -4.400000e+01 7.074309e+02
      vertex 2.260858e+02 -4.400000e+01 7.098140e+02
      vertex 2.260858e+02 -6.400000e+01 7.098140e+02
    endloop
  endfacet
  facet normal -5.154195e-15 -1.000000e+00 2.924525e-15
    outer loop
      vertex 2.749635e+02 -4.400000e+01 7.073844e+02
      vertex 2.749635e+02 -4.400000e+01 7.098140e+02
      vertex 2.653135e+02 -4.400000e+01 7.098140e+02
    endloop
  endfacet
  facet normal -8.204297e-15 -1.000000e+00 -9.190014e-15
    outer loop
      vertex 2.749635e+02 -4.400000e+01 7.066112e+02
      vertex 2.749635e+02 -4.400000e+01 7.073844e+02
      vertex 2.653135e+02 -4.400000e+01 7.098140e+02
    endloop
  endfacet
  facet normal -1.048290e-14 -1.000000e+00 -1.605547e-14
    outer loop
      vertex 2.690260e+02 -4.400000e+01 7.073900e+02
      vertex 2.749635e+02 -4.400000e+01 7.066112e+02
      vertex 2.653135e+02 -4.400000e+01 7.098140e+02
    endloop
  endfacet
  facet normal 5.467044e-01 -1.553827e-15 8.373257e-01
    outer loop
      vertex 2.653135e+02 -6.400000e+01 7.098140e+02
      vertex 2.690260e+02 -4.400000e+01 7.073900e+02
      vertex 2.653135e+02 -4.400000e+01 7.098140e+02
    endloop
  endfacet
  facet normal 7.802832e-01 -2.214041e-15 -6.254263e-01
    outer loop
      vertex 2.685249e+02 -6.400000e+01 7.138206e+02
      vertex 2.653135e+02 -6.400000e+01 7.098140e+02
      vertex 2.653135e+02 -4.400000e+01 7.098140e+02
    endloop
  endfacet
  facet normal -1.000000e+00 0.000000e+00 2.339620e-14
    outer loop
      vertex 2.749635e+02 -6.400000e+01 7.073844e+02
      vertex 2.749635e+02 -4.400000e+01 7.098140e+02
      vertex 2.749635e+02 -4.400000e+01 7.073844e+02
    endloop
  endfacet
  facet normal 2.684931e-17 -1.000000e+00 2.819597e-14
    outer loop
      vertex 2.853635e+02 -4.400000e+01 7.066185e+02
      vertex 2.853635e+02 -4.400000e+01 7.073745e+02
      vertex 2.749635e+02 -4.400000e+01 7.073844e+02
    endloop
  endfacet
  facet normal -9.522390e-04 0.000000e+00 -9.999995e-01
    outer loop
      vertex 2.853635e+02 -6.400000e+01 7.073745e+02
      vertex 2.749635e+02 -4.400000e+01 7.073844e+02
      vertex 2.853635e+02 -4.400000e+01 7.073745e+02
    endloop
  endfacet
  facet normal -2.726441e-15 -1.000000e+00 -9.190014e-15
    outer loop
      vertex 2.749635e+02 -4.400000e+01 7.066112e+02
      vertex 2.853635e+02 -4.400000e+01 7.066185e+02
      vertex 2.749635e+02 -4.400000e+01 7.073844e+02
    endloop
  endfacet
  facet normal -9.522390e-04 0.000000e+00 -9.999995e-01
    outer loop
      vertex 2.853635e+02 -6.400000e+01 7.073745e+02
      vertex 2.749635e+02 -6.400000e+01 7.073844e+02
      vertex 2.749635e+02 -4.400000e+01 7.073844e+02
    endloop
  endfacet
  facet normal -6.458237e-14 -1.000000e+00 -5.825306e-15
    outer loop
      vertex 2.861135e+02 -4.400000e+01 7.014991e+02
      vertex 2.853635e+02 -4.400000e+01 7.098140e+02
      vertex 2.853635e+02 -4.400000e+01 7.073745e+02
    endloop
  endfacet
  facet normal 1.000000e+00 -2.842171e-15 -1.655651e-29
    outer loop
      vertex 2.853635e+02 -6.400000e+01 7.249210e+02
      vertex 2.853635e+02 -4.400000e+01 7.073745e+02
      vertex 2.853635e+02 -4.400000e+01 7.098140e+02
    endloop
  endfacet
  facet normal 2.019352e-13 -1.000000e+00 2.819597e-14
    outer loop
      vertex 2.853635e+02 -4.400000e+01 7.066185e+02
      vertex 2.861135e+02 -4.400000e+01 7.014991e+02
      vertex 2.853635e+02 -4.400000e+01 7.073745e+02
    endloop
  endfacet
  facet normal 1.000000e+00 0.000000e+00 3.239581e-15
    outer loop
      vertex 2.853635e+02 -6.400000e+01 7.073745e+02
      vertex 2.853635e+02 -4.400000e+01 7.073745e+02
      vertex 2.853635e+02 -6.400000e+01 7.249210e+02
    endloop
  endfacet
  facet normal 0.000000e+00 -1.000000e+00 5.823601e-15
    outer loop
      vertex 2.861135e+02 -4.400000e+01 7.073738e+02
      vertex 2.861135e+02 -4.400000e+01 7.098140e+02
      vertex 2.853635e+02 -4.400000e+01 7.098140e+02
    endloop
  endfacet
  facet normal -8.020748e-14 -1.000000e+00 -1.882814e-14
    outer loop
      vertex 2.861135e+02 -4.400000e+01 7.066190e+02
      vertex 2.861135e+02 -4.400000e+01 7.073738e+02
      vertex 2.853635e+02 -4.400000e+01 7.098140e+02
    endloop
  endfacet
  facet normal 0.000000e+00 -1.000000e+00 0.000000e+00
    outer loop
      vertex 2.861135e+02 -4.400000e+01 7.014991e+02
      vertex 2.861135e+02 -4.400000e+01 7.066190e+02
      vertex 2.853635e+02 -4.400000e+01 7.098140e+02
    endloop
  endfacet
  facet normal -1.000000e+00 2.840569e-15 2.329440e-14
    outer loop
      vertex 2.861135e+02 -6.400000e+01 7.073724e+02
      vertex 2.861135e+02 -4.400000e+01 7.098140e+02
      vertex 2.861135e+02 -4.400000e+01 7.073738e+02
    endloop
  endfacet
  facet normal 2.459979e-15 -1.000000e+00 -2.591583e-26
    outer loop
      vertex 2.890019e+02 -4.400000e+01 7.066210e+02
      vertex 2.890019e+02 -4.400000e+01 7.073710e+02
      vertex 2.861135e+02 -4.400000e+01 7.073738e+02
    endloop
  endfacet
  facet normal -9.522390e-04 -3.438070e-05 -9.999995e-01
    outer loop
      vertex 2.890019e+02 -6.400000e+01 7.073717e+02
      vertex 2.861135e+02 -4.400000e+01 7.073738e+02
      vertex 2.890019e+02 -4.400000e+01 7.073710e+02
    endloop
  endfacet
  facet normal -2.446835e-15 -1.000000e+00 -1.882814e-14
    outer loop
      vertex 2.861135e+02 -4.400000e+01 7.066190e+02
      vertex 2.890019e+02 -4.400000e+01 7.066210e+02
      vertex 2.861135e+02 -4.400000e+01 7.073738e+02
    endloop
  endfacet
  facet normal -2.380599e-04 6.876143e-05 -1.000000e+00
    outer loop
      vertex 2.890019e+02 -6.400000e+01 7.073717e+02
      vertex 2.861135e+02 -6.400000e+01 7.073724e+02
      vertex 2.861135e+02 -4.400000e+01 7.073738e+02
    endloop
  endfacet
  facet normal -8.582751e-05 -3.438072e-05 -1.000000e+00
    outer loop
      vertex 2.890019e+02 -6.400000e+01 7.073717e+02
      vertex 2.890019e+02 -4.400000e+01 7.073710e+02
      vertex 2.970135e+02 -6.400000e+01 7.073710e+02
    endloop
  endfacet
  facet normal -6.981088e-04 -5.684341e-15 9.999998e-01
    outer loop
      vertex 2.861135e+02 -6.400000e+01 7.066190e+02
      vertex 2.890019e+02 -4.400000e+01 7.066210e+02
      vertex 2.861135e+02 -4.400000e+01 7.066190e+02
    endloop
  endfacet
  facet normal -6.981088e-04 -2.273737e-14 9.999998e-01
    outer loop
      vertex 2.861135e+02 -6.400000e+01 7.066190e+02
      vertex 2.890019e+02 -6.400000e+01 7.066210e+02
      vertex 2.890019e+02 -4.400000e+01 7.066210e+02
    endloop
  endfacet
  facet normal -1.000000e+00 2.522239e-14 -2.220487e-14
    outer loop
      vertex 2.861135e+02 -6.400000e+01 6.890210e+02
      vertex 2.861135e+02 -4.400000e+01 7.066190e+02
      vertex 2.861135e+02 -4.400000e+01 7.014991e+02
    endloop
  endfacet
  facet normal -1.000000e+00 -3.672210e-29 6.460219e-15
    outer loop
      vertex 2.861135e+02 -6.400000e+01 7.066190e+02
      vertex 2.861135e+02 -4.400000e+01 7.066190e+02
      vertex 2.861135e+02 -6.400000e+01 6.890210e+02
    endloop
  endfacet
  facet normal 0.000000e+00 -1.000000e+00 -1.387946e-15
    outer loop
      vertex 2.853635e+02 -4.400000e+01 7.066185e+02
      vertex 2.853635e+02 -4.400000e+01 7.014991e+02
      vertex 2.861135e+02 -4.400000e+01 7.014991e+02
    endloop
  endfacet
  facet normal 1.000000e+00 -5.684342e-15 1.110357e-14
    outer loop
      vertex 2.853635e+02 -6.400000e+01 7.066185e+02
      vertex 2.853635e+02 -4.400000e+01 7.014991e+02
      vertex 2.853635e+02 -4.400000e+01 7.066185e+02
    endloop
  endfacet
  facet normal -6.981088e-04 5.952434e-18 9.999998e-01
    outer loop
      vertex 2.749635e+02 -6.400000e+01 7.066112e+02
      vertex 2.853635e+02 -4.400000e+01 7.066185e+02
      vertex 2.749635e+02 -4.400000e+01 7.066112e+02
    endloop
  endfacet
  facet normal -6.981088e-04 -5.680417e-15 9.999998e-01
    outer loop
      vertex 2.749635e+02 -6.400000e+01 7.066112e+02
      vertex 2.853635e+02 -6.400000e+01 7.066185e+02
      vertex 2.853635e+02 -4.400000e+01 7.066185e+02
    endloop
  endfacet
  facet normal -8.376904e-15 -1.000000e+00 0.000000e+00
    outer loop
      vertex 2.690260e+02 -4.400000e+01 7.073900e+02
      vertex 2.749635e+02 -4.400000e+01 7.014991e+02
      vertex 2.749635e+02 -4.400000e+01 7.066112e+02
    endloop
  endfacet
  facet normal -1.000000e+00 8.526513e-15 0.000000e+00
    outer loop
      vertex 2.749635e+02 -6.400000e+01 6.890210e+02
      vertex 2.749635e+02 -4.400000e+01 7.066112e+02
      vertex 2.749635e+02 -4.400000e+01 7.014991e+02
    endloop
  endfacet
  facet normal -1.000000e+00 8.526513e-15 0.000000e+00
    outer loop
      vertex 2.749635e+02 -6.400000e+01 7.066112e+02
      vertex 2.749635e+02 -4.400000e+01 7.066112e+02
      vertex 2.749635e+02 -6.400000e+01 6.890210e+02
    endloop
  endfacet
  facet normal -7.159797e-15 -1.000000e+00 -1.894221e-14
    outer loop
      vertex 2.715680e+02 -4.400000e+01 7.024074e+02
      vertex 2.719863e+02 -4.400000e+01 7.014991e+02
      vertex 2.749635e+02 -4.400000e+01 7.014991e+02
    endloop
  endfacet
  facet normal 1.226329e-15 -1.000000e+00 1.240687e-14
    outer loop
      vertex 2.696339e+02 -4.400000e+01 7.066075e+02
      vertex 2.715680e+02 -4.400000e+01 7.024074e+02
      vertex 2.749635e+02 -4.400000e+01 7.014991e+02
    endloop
  endfacet
  facet normal -7.584192e-14 -1.000000e+00 -6.799836e-14
    outer loop
      vertex 2.690260e+02 -4.400000e+01 7.073900e+02
      vertex 2.696339e+02 -4.400000e+01 7.066075e+02
      vertex 2.749635e+02 -4.400000e+01 7.014991e+02
    endloop
  endfacet
  facet normal 5.402118e-14 -1.000000e+00 9.231063e-15
    outer loop
      vertex 2.715680e+02 -4.400000e+01 7.024074e+02
      vertex 2.718934e+02 -4.400000e+01 7.005034e+02
      vertex 2.719863e+02 -4.400000e+01 7.014991e+02
    endloop
  endfacet
  facet normal 9.857124e-01 -2.801563e-15 1.684371e-01
    outer loop
      vertex 2.715680e+02 -6.400000e+01 7.024074e+02
      vertex 2.718934e+02 -4.400000e+01 7.005034e+02
      vertex 2.715680e+02 -4.400000e+01 7.024074e+02
    endloop
  endfacet
  facet normal 9.857124e-01 -2.802008e-15 1.684371e-01
    outer loop
      vertex 2.715680e+02 -6.400000e+01 7.024074e+02
      vertex 2.718934e+02 -6.400000e+01 7.005034e+02
      vertex 2.718934e+02 -4.400000e+01 7.005034e+02
    endloop
  endfacet
  facet normal 9.083212e-01 0.000000e+00 4.182735e-01
    outer loop
      vertex 2.696339e+02 -6.400000e+01 7.066075e+02
      vertex 2.715680e+02 -4.400000e+01 7.024074e+02
      vertex 2.696339e+02 -4.400000e+01 7.066075e+02
    endloop
  endfacet
  facet normal 9.083212e-01 -2.581604e-15 4.182735e-01
    outer loop
      vertex 2.715680e+02 -6.400000e+01 7.024074e+02
      vertex 2.715680e+02 -4.400000e+01 7.024074e+02
      vertex 2.696339e+02 -6.400000e+01 7.066075e+02
    endloop
  endfacet
  facet normal -8.652660e-18 -1.000000e+00 -9.086643e-15
    outer loop
      vertex 2.690260e+02 -4.400000e+01 7.073900e+02
      vertex 2.581135e+02 -4.400000e+01 7.074004e+02
      vertex 2.696339e+02 -4.400000e+01 7.066075e+02
    endloop
  endfacet
  facet normal -1.000000e+00 1.421085e-15 2.365580e-14
    outer loop
      vertex 2.469635e+02 -6.400000e+01 7.074111e+02
      vertex 2.469635e+02 -4.400000e+01 7.098140e+02
      vertex 2.469635e+02 -4.400000e+01 7.074111e+02
    endloop
  endfacet
  facet normal -9.522390e-04 0.000000e+00 -9.999995e-01
    outer loop
      vertex 2.573635e+02 -6.400000e+01 7.074012e+02
      vertex 2.469635e+02 -4.400000e+01 7.074111e+02
      vertex 2.573635e+02 -4.400000e+01 7.074012e+02
    endloop
  endfacet
  facet normal -9.522390e-04 1.353213e-18 -9.999995e-01
    outer loop
      vertex 2.469635e+02 -6.400000e+01 7.074111e+02
      vertex 2.469635e+02 -4.400000e+01 7.074111e+02
      vertex 2.573635e+02 -6.400000e+01 7.074012e+02
    endloop
  endfacet
  facet normal 1.000000e+00 -2.842171e-15 -1.673947e-29
    outer loop
      vertex 2.573635e+02 -6.400000e+01 7.249210e+02
      vertex 2.573635e+02 -4.400000e+01 7.074012e+02
      vertex 2.573635e+02 -4.400000e+01 7.098140e+02
    endloop
  endfacet
  facet normal 1.000000e+00 0.000000e+00 3.244511e-15
    outer loop
      vertex 2.573635e+02 -6.400000e+01 7.249210e+02
      vertex 2.573635e+02 -6.400000e+01 7.074012e+02
      vertex 2.573635e+02 -4.400000e+01 7.074012e+02
    endloop
  endfacet
  facet normal 0.000000e+00 -1.000000e+00 8.831902e-15
    outer loop
      vertex 2.581135e+02 -4.400000e+01 7.074004e+02
      vertex 2.581135e+02 -4.400000e+01 7.098140e+02
      vertex 2.573635e+02 -4.400000e+01 7.098140e+02
    endloop
  endfacet
  facet normal -1.000000e+00 2.842171e-15 2.355174e-14
    outer loop
      vertex 2.581135e+02 -6.400000e+01 7.074004e+02
      vertex 2.581135e+02 -4.400000e+01 7.098140e+02
      vertex 2.581135e+02 -4.400000e+01 7.074004e+02
    endloop
  endfacet
  facet normal -9.522390e-04 5.684339e-15 -9.999995e-01
    outer loop
      vertex 2.690260e+02 -6.400000e+01 7.073900e+02
      vertex 2.581135e+02 -4.400000e+01 7.074004e+02
      vertex 2.690260e+02 -4.400000e+01 7.073900e+02
    endloop
  endfacet
  facet normal -9.522390e-04 2.706426e-18 -9.999995e-01
    outer loop
      vertex 2.581135e+02 -6.400000e+01 7.074004e+02
      vertex 2.581135e+02 -4.400000e+01 7.074004e+02
      vertex 2.690260e+02 -6.400000e+01 7.073900e+02
    endloop
  endfacet
  facet normal 5.467044e-01 -4.767676e-15 8.373257e-01
    outer loop
      vertex 2.653135e+02 -6.400000e+01 7.098140e+02
      vertex 2.690260e+02 -6.400000e+01 7.073900e+02
      vertex 2.690260e+02 -4.400000e+01 7.073900e+02
    endloop
  endfacet
  facet normal -3.254805e-15 -1.000000e+00 8.776744e-16
    outer loop
      vertex 2.581135e+02 -6.400000e+01 7.074004e+02
      vertex 2.690260e+02 -6.400000e+01 7.073900e+02
      vertex 2.653135e+02 -6.400000e+01 7.098140e+02
    endloop
  endfacet
  facet normal -2.422540e-15 -1.000000e+00 -1.605099e-15
    outer loop
      vertex 2.581135e+02 -6.400000e+01 7.074004e+02
      vertex 2.653135e+02 -6.400000e+01 7.098140e+02
      vertex 2.685249e+02 -6.400000e+01 7.138206e+02
    endloop
  endfacet
  facet normal -4.177707e-15 -1.000000e+00 1.241220e-15
    outer loop
      vertex 2.690524e+02 -6.400000e+01 7.155961e+02
      vertex 2.581135e+02 -6.400000e+01 7.074004e+02
      vertex 2.685249e+02 -6.400000e+01 7.138206e+02
    endloop
  endfacet
  facet normal -3.416070e-15 -1.000000e+00 2.431058e-15
    outer loop
      vertex 2.853635e+02 -6.400000e+01 7.249210e+02
      vertex 2.749635e+02 -6.400000e+01 7.249210e+02
      vertex 2.749635e+02 -6.400000e+01 7.073844e+02
    endloop
  endfacet
  facet normal 3.856071e-19 -1.000000e+00 4.049476e-16
    outer loop
      vertex 2.853635e+02 -6.400000e+01 7.073745e+02
      vertex 2.853635e+02 -6.400000e+01 7.249210e+02
      vertex 2.749635e+02 -6.400000e+01 7.073844e+02
    endloop
  endfacet
  facet normal -1.116586e-15 -1.000000e+00 4.048994e-16
    outer loop
      vertex 2.922824e+02 -6.400000e+01 7.243842e+02
      vertex 2.861135e+02 -6.400000e+01 7.249210e+02
      vertex 2.861135e+02 -6.400000e+01 7.073724e+02
    endloop
  endfacet
  facet normal 0.000000e+00 -1.000000e+00 0.000000e+00
    outer loop
      vertex 2.959603e+02 -6.400000e+01 7.209234e+02
      vertex 2.922824e+02 -6.400000e+01 7.243842e+02
      vertex 2.861135e+02 -6.400000e+01 7.073724e+02
    endloop
  endfacet
  facet normal 0.000000e+00 -1.000000e+00 0.000000e+00
    outer loop
      vertex 2.967557e+02 -6.400000e+01 7.192403e+02
      vertex 2.959603e+02 -6.400000e+01 7.209234e+02
      vertex 2.861135e+02 -6.400000e+01 7.073724e+02
    endloop
  endfacet
  facet normal 0.000000e+00 -1.000000e+00 0.000000e+00
    outer loop
      vertex 2.970172e+02 -6.400000e+01 7.153537e+02
      vertex 2.967557e+02 -6.400000e+01 7.192403e+02
      vertex 2.861135e+02 -6.400000e+01 7.073724e+02
    endloop
  endfacet
  facet normal 0.000000e+00 -1.000000e+00 0.000000e+00
    outer loop
      vertex 2.964456e+02 -6.400000e+01 7.135866e+02
      vertex 2.970172e+02 -6.400000e+01 7.153537e+02
      vertex 2.861135e+02 -6.400000e+01 7.073724e+02
    endloop
  endfacet
  facet normal 0.000000e+00 -1.000000e+00 0.000000e+00
    outer loop
      vertex 2.933135e+02 -6.400000e+01 7.098140e+02
      vertex 2.964456e+02 -6.400000e+01 7.135866e+02
      vertex 2.861135e+02 -6.400000e+01 7.073724e+02
    endloop
  endfacet
  facet normal 0.000000e+00 -1.000000e+00 0.000000e+00
    outer loop
      vertex 2.890019e+02 -6.400000e+01 7.073717e+02
      vertex 2.933135e+02 -6.400000e+01 7.098140e+02
      vertex 2.861135e+02 -6.400000e+01 7.073724e+02
    endloop
  endfacet
  facet normal 0.000000e+00 -1.000000e+00 0.000000e+00
    outer loop
      vertex 2.890019e+02 -6.400000e+01 7.073717e+02
      vertex 2.970135e+02 -6.400000e+01 7.073710e+02
      vertex 2.933135e+02 -6.400000e+01 7.098140e+02
    endloop
  endfacet
  facet normal -2.351676e-18 -1.000000e+00 3.368637e-15
    outer loop
      vertex 2.890019e+02 -6.400000e+01 7.066210e+02
      vertex 2.861135e+02 -6.400000e+01 7.066190e+02
      vertex 2.995733e+02 -6.400000e+01 7.024098e+02
    endloop
  endfacet
  facet normal -1.640676e-15 -1.000000e+00 -7.440441e-16
    outer loop
      vertex 2.995733e+02 -6.400000e+01 7.024098e+02
      vertex 2.976635e+02 -6.400000e+01 7.066210e+02
      vertex 2.890019e+02 -6.400000e+01 7.066210e+02
    endloop
  endfacet
  facet normal 0.000000e+00 -1.000000e+00 0.000000e+00
    outer loop
      vertex 2.861135e+02 -6.400000e+01 6.890210e+02
      vertex 2.998934e+02 -6.400000e+01 7.005034e+02
      vertex 2.995733e+02 -6.400000e+01 7.024098e+02
    endloop
  endfacet
  facet normal -8.032699e-16 -1.000000e+00 8.075274e-16
    outer loop
      vertex 2.861135e+02 -6.400000e+01 7.066190e+02
      vertex 2.861135e+02 -6.400000e+01 6.890210e+02
      vertex 2.995733e+02 -6.400000e+01 7.024098e+02
    endloop
  endfacet
  facet normal 0.000000e+00 -1.000000e+00 0.000000e+00
    outer loop
      vertex 2.861135e+02 -6.400000e+01 6.890210e+02
      vertex 2.995705e+02 -6.400000e+01 6.970440e+02
      vertex 2.998934e+02 -6.400000e+01 7.005034e+02
    endloop
  endfacet
  facet normal 0.000000e+00 -1.000000e+00 0.000000e+00
    outer loop
      vertex 2.861135e+02 -6.400000e+01 6.890210e+02
      vertex 2.989056e+02 -6.400000e+01 6.952281e+02
      vertex 2.995705e+02 -6.400000e+01 6.970440e+02
    endloop
  endfacet
  facet normal 0.000000e+00 -1.000000e+00 0.000000e+00
    outer loop
      vertex 2.861135e+02 -6.400000e+01 6.890210e+02
      vertex 2.964586e+02 -6.400000e+01 6.917194e+02
      vertex 2.989056e+02 -6.400000e+01 6.952281e+02
    endloop
  endfacet
  facet normal 0.000000e+00 -1.000000e+00 0.000000e+00
    outer loop
      vertex 2.861135e+02 -6.400000e+01 6.890210e+02
      vertex 2.914863e+02 -6.400000e+01 6.892232e+02
      vertex 2.964586e+02 -6.400000e+01 6.917194e+02
    endloop
  endfacet
  facet normal -3.416070e-15 -1.000000e+00 0.000000e+00
    outer loop
      vertex 2.749635e+02 -6.400000e+01 6.890210e+02
      vertex 2.853635e+02 -6.400000e+01 6.890210e+02
      vertex 2.853635e+02 -6.400000e+01 7.066185e+02
    endloop
  endfacet
  facet normal -3.416070e-15 -1.000000e+00 0.000000e+00
    outer loop
      vertex 2.749635e+02 -6.400000e+01 7.066112e+02
      vertex 2.749635e+02 -6.400000e+01 6.890210e+02
      vertex 2.853635e+02 -6.400000e+01 7.066185e+02
    endloop
  endfacet
  facet normal -3.570810e-15 -1.000000e+00 0.000000e+00
    outer loop
      vertex 2.640831e+02 -6.400000e+01 7.244588e+02
      vertex 2.581135e+02 -6.400000e+01 7.249210e+02
      vertex 2.581135e+02 -6.400000e+01 7.074004e+02
    endloop
  endfacet
  facet normal -2.295280e-15 -1.000000e+00 -4.463731e-16
    outer loop
      vertex 2.678243e+02 -6.400000e+01 7.211392e+02
      vertex 2.640831e+02 -6.400000e+01 7.244588e+02
      vertex 2.581135e+02 -6.400000e+01 7.074004e+02
    endloop
  endfacet
  facet normal -5.220422e-15 -1.000000e+00 1.621176e-15
    outer loop
      vertex 2.686703e+02 -6.400000e+01 7.194803e+02
      vertex 2.678243e+02 -6.400000e+01 7.211392e+02
      vertex 2.581135e+02 -6.400000e+01 7.074004e+02
    endloop
  endfacet
  facet normal -3.024781e-15 -1.000000e+00 -2.976231e-16
    outer loop
      vertex 2.690524e+02 -6.400000e+01 7.155961e+02
      vertex 2.686703e+02 -6.400000e+01 7.194803e+02
      vertex 2.581135e+02 -6.400000e+01 7.074004e+02
    endloop
  endfacet
  facet normal -3.861939e-19 -1.000000e+00 -4.055638e-16
    outer loop
      vertex 2.469635e+02 -6.400000e+01 7.074111e+02
      vertex 2.573635e+02 -6.400000e+01 7.074012e+02
      vertex 2.573635e+02 -6.400000e+01 7.249210e+02
    endloop
  endfacet
  facet normal -3.416072e-15 -1.000000e+00 1.623173e-15
    outer loop
      vertex 2.469635e+02 -6.400000e+01 7.249210e+02
      vertex 2.469635e+02 -6.400000e+01 7.074111e+02
      vertex 2.573635e+02 -6.400000e+01 7.249210e+02
    endloop
  endfacet
endsolid IRB140_-_M2004C_COMPLETE
