solid IRB140_-_M2004C_COMPLETE
	color 0 0 0
  facet normal 0.000000e+00 0.000000e+00 -1.000000e+00
    outer loop
      vertex 2.488865e+02 4.400000e+01 7.014991e+02
      vertex 2.496365e+02 3.900000e+01 7.014991e+02
      vertex 2.488865e+02 3.900000e+01 7.014991e+02
    endloop
  endfacet
  facet normal 0.000000e+00 -1.000000e+00 0.000000e+00
    outer loop
      vertex 2.488865e+02 3.900000e+01 7.098140e+02
      vertex 2.488865e+02 3.900000e+01 7.014991e+02
      vertex 2.496365e+02 3.900000e+01 7.014991e+02
    endloop
  endfacet
  facet normal 1.000000e+00 0.000000e+00 2.277731e-15
    outer loop
      vertex 2.488865e+02 6.400000e+01 6.890210e+02
      vertex 2.488865e+02 4.400000e+01 7.014991e+02
      vertex 2.488865e+02 3.900000e+01 7.014991e+02
    endloop
  endfacet
  facet normal 1.000000e+00 -1.136868e-15 0.000000e+00
    outer loop
      vertex 2.488865e+02 3.900000e+01 6.890210e+02
      vertex 2.488865e+02 6.400000e+01 6.890210e+02
      vertex 2.488865e+02 3.900000e+01 7.014991e+02
    endloop
  endfacet
  facet normal 2.190101e-15 -1.000000e+00 5.694328e-16
    outer loop
      vertex 2.429169e+02 3.900000e+01 7.244588e+02
      vertex 2.488865e+02 3.900000e+01 6.890210e+02
      vertex 2.488865e+02 3.900000e+01 7.014991e+02
    endloop
  endfacet
  facet normal 0.000000e+00 -1.000000e+00 0.000000e+00
    outer loop
      vertex 2.488865e+02 3.900000e+01 7.098140e+02
      vertex 2.429169e+02 3.900000e+01 7.244588e+02
      vertex 2.488865e+02 3.900000e+01 7.014991e+02
    endloop
  endfacet
  facet normal 0.000000e+00 0.000000e+00 -1.000000e+00
    outer loop
      vertex 2.488865e+02 4.400000e+01 7.014991e+02
      vertex 2.496365e+02 4.400000e+01 7.014991e+02
      vertex 2.496365e+02 3.900000e+01 7.014991e+02
    endloop
  endfacet
  facet normal -1.000000e+00 0.000000e+00 0.000000e+00
    outer loop
      vertex 2.496365e+02 3.900000e+01 6.890210e+02
      vertex 2.496365e+02 3.900000e+01 7.014991e+02
      vertex 2.496365e+02 4.400000e+01 7.014991e+02
    endloop
  endfacet
  facet normal 0.000000e+00 -1.000000e+00 0.000000e+00
    outer loop
      vertex 2.496365e+02 3.900000e+01 7.098140e+02
      vertex 2.488865e+02 3.900000e+01 7.098140e+02
      vertex 2.496365e+02 3.900000e+01 7.014991e+02
    endloop
  endfacet
  facet normal -6.832143e-16 -1.000000e+00 0.000000e+00
    outer loop
      vertex 2.600365e+02 3.900000e+01 6.890210e+02
      vertex 2.496365e+02 3.900000e+01 7.098140e+02
      vertex 2.496365e+02 3.900000e+01 7.014991e+02
    endloop
  endfacet
  facet normal 0.000000e+00 -1.000000e+00 5.694328e-16
    outer loop
      vertex 2.496365e+02 3.900000e+01 6.890210e+02
      vertex 2.600365e+02 3.900000e+01 6.890210e+02
      vertex 2.496365e+02 3.900000e+01 7.014991e+02
    endloop
  endfacet
  facet normal 0.000000e+00 1.000000e+00 1.393266e-15
    outer loop
      vertex 2.496365e+02 4.400000e+01 7.065989e+02
      vertex 2.496365e+02 4.400000e+01 7.014991e+02
      vertex 2.488865e+02 4.400000e+01 7.014991e+02
    endloop
  endfacet
  facet normal -1.000000e+00 0.000000e+00 0.000000e+00
    outer loop
      vertex 2.496365e+02 6.400000e+01 7.065989e+02
      vertex 2.496365e+02 3.900000e+01 6.890210e+02
      vertex 2.496365e+02 4.400000e+01 7.014991e+02
    endloop
  endfacet
  facet normal -1.000000e+00 0.000000e+00 0.000000e+00
    outer loop
      vertex 2.496365e+02 6.400000e+01 7.065989e+02
      vertex 2.496365e+02 4.400000e+01 7.014991e+02
      vertex 2.496365e+02 4.400000e+01 7.065989e+02
    endloop
  endfacet
  facet normal 1.000000e+00 -1.421085e-15 -1.979747e-30
    outer loop
      vertex 2.488865e+02 6.400000e+01 6.890210e+02
      vertex 2.488865e+02 4.400000e+01 7.065995e+02
      vertex 2.488865e+02 4.400000e+01 7.014991e+02
    endloop
  endfacet
  facet normal -1.544489e-14 1.000000e+00 1.393123e-15
    outer loop
      vertex 2.496365e+02 4.400000e+01 7.098140e+02
      vertex 2.488865e+02 4.400000e+01 7.014991e+02
      vertex 2.488865e+02 4.400000e+01 7.065995e+02
    endloop
  endfacet
  facet normal 6.970138e-14 1.000000e+00 -8.857267e-15
    outer loop
      vertex 2.496365e+02 4.400000e+01 7.074012e+02
      vertex 2.496365e+02 4.400000e+01 7.065989e+02
      vertex 2.488865e+02 4.400000e+01 7.014991e+02
    endloop
  endfacet
  facet normal 0.000000e+00 1.000000e+00 0.000000e+00
    outer loop
      vertex 2.496365e+02 4.400000e+01 7.098140e+02
      vertex 2.496365e+02 4.400000e+01 7.074012e+02
      vertex 2.488865e+02 4.400000e+01 7.014991e+02
    endloop
  endfacet
  facet normal 1.000000e+00 -9.190733e-30 1.616851e-15
    outer loop
      vertex 2.488865e+02 6.400000e+01 6.890210e+02
      vertex 2.488865e+02 6.400000e+01 7.065995e+02
      vertex 2.488865e+02 4.400000e+01 7.065995e+02
    endloop
  endfacet
  facet normal 6.981088e-04 -5.684327e-15 9.999998e-01
    outer loop
      vertex 2.373661e+02 4.400000e+01 7.066075e+02
      vertex 2.488865e+02 4.400000e+01 7.065995e+02
      vertex 2.488865e+02 6.400000e+01 7.065995e+02
    endloop
  endfacet
  facet normal 6.043827e-16 1.000000e+00 -1.774191e-14
    outer loop
      vertex 2.488865e+02 4.400000e+01 7.074004e+02
      vertex 2.488865e+02 4.400000e+01 7.065995e+02
      vertex 2.373661e+02 4.400000e+01 7.066075e+02
    endloop
  endfacet
  facet normal 6.656867e-14 1.000000e+00 -1.774191e-14
    outer loop
      vertex 2.496365e+02 4.400000e+01 7.098140e+02
      vertex 2.488865e+02 4.400000e+01 7.065995e+02
      vertex 2.488865e+02 4.400000e+01 7.074004e+02
    endloop
  endfacet
  facet normal 2.518821e-16 1.000000e+00 -8.084254e-16
    outer loop
      vertex 2.354320e+02 6.400000e+01 7.024074e+02
      vertex 2.488865e+02 6.400000e+01 7.065995e+02
      vertex 2.488865e+02 6.400000e+01 6.890210e+02
    endloop
  endfacet
  facet normal 0.000000e+00 1.000000e+00 0.000000e+00
    outer loop
      vertex 2.354320e+02 6.400000e+01 7.024074e+02
      vertex 2.373661e+02 6.400000e+01 7.066075e+02
      vertex 2.488865e+02 6.400000e+01 7.065995e+02
    endloop
  endfacet
  facet normal 6.981088e-04 0.000000e+00 9.999998e-01
    outer loop
      vertex 2.373661e+02 4.400000e+01 7.066075e+02
      vertex 2.488865e+02 6.400000e+01 7.065995e+02
      vertex 2.373661e+02 6.400000e+01 7.066075e+02
    endloop
  endfacet
  facet normal -3.759939e-02 -4.501489e-15 -9.992929e-01
    outer loop
      vertex 2.435137e+02 6.400000e+01 6.892232e+02
      vertex 2.488865e+02 6.400000e+01 6.890210e+02
      vertex 2.488865e+02 3.900000e+01 6.890210e+02
    endloop
  endfacet
  facet normal -2.308889e-15 1.000000e+00 -4.758346e-15
    outer loop
      vertex 2.354295e+02 6.400000e+01 6.970440e+02
      vertex 2.488865e+02 6.400000e+01 6.890210e+02
      vertex 2.360944e+02 6.400000e+01 6.952281e+02
    endloop
  endfacet
  facet normal 0.000000e+00 1.000000e+00 0.000000e+00
    outer loop
      vertex 2.385414e+02 6.400000e+01 6.917194e+02
      vertex 2.360944e+02 6.400000e+01 6.952281e+02
      vertex 2.488865e+02 6.400000e+01 6.890210e+02
    endloop
  endfacet
  facet normal 3.152511e-15 1.000000e+00 4.402092e-15
    outer loop
      vertex 2.351066e+02 6.400000e+01 7.005034e+02
      vertex 2.488865e+02 6.400000e+01 6.890210e+02
      vertex 2.354295e+02 6.400000e+01 6.970440e+02
    endloop
  endfacet
  facet normal 0.000000e+00 1.000000e+00 0.000000e+00
    outer loop
      vertex 2.435137e+02 6.400000e+01 6.892232e+02
      vertex 2.385414e+02 6.400000e+01 6.917194e+02
      vertex 2.488865e+02 6.400000e+01 6.890210e+02
    endloop
  endfacet
  facet normal -8.617565e-15 1.000000e+00 -9.723001e-15
    outer loop
      vertex 2.351066e+02 6.400000e+01 7.005034e+02
      vertex 2.354320e+02 6.400000e+01 7.024074e+02
      vertex 2.488865e+02 6.400000e+01 6.890210e+02
    endloop
  endfacet
  facet normal 7.592294e-18 -1.000000e+00 2.017832e-16
    outer loop
      vertex 2.435137e+02 3.900000e+01 6.892232e+02
      vertex 2.488865e+02 3.900000e+01 6.890210e+02
      vertex 2.429169e+02 3.900000e+01 7.244588e+02
    endloop
  endfacet
  facet normal -3.759939e-02 -3.774838e-15 -9.992929e-01
    outer loop
      vertex 2.435137e+02 6.400000e+01 6.892232e+02
      vertex 2.488865e+02 3.900000e+01 6.890210e+02
      vertex 2.435137e+02 3.900000e+01 6.892232e+02
    endloop
  endfacet
  facet normal 0.000000e+00 -1.000000e+00 0.000000e+00
    outer loop
      vertex 2.360944e+02 3.900000e+01 6.952281e+02
      vertex 2.350137e+02 3.900000e+01 7.014991e+02
      vertex 2.354295e+02 3.900000e+01 6.970440e+02
    endloop
  endfacet
  facet normal -9.956734e-01 1.554508e-14 -9.292154e-02
    outer loop
      vertex 2.350137e+02 4.400000e+01 7.014991e+02
      vertex 2.354295e+02 3.900000e+01 6.970440e+02
      vertex 2.350137e+02 3.900000e+01 7.014991e+02
    endloop
  endfacet
  facet normal -9.390241e-01 1.129104e-14 -3.438514e-01
    outer loop
      vertex 2.354295e+02 6.400000e+01 6.970440e+02
      vertex 2.360944e+02 3.900000e+01 6.952281e+02
      vertex 2.354295e+02 3.900000e+01 6.970440e+02
    endloop
  endfacet
  facet normal -9.956734e-01 -2.852851e-15 -9.292154e-02
    outer loop
      vertex 2.351066e+02 6.400000e+01 7.005034e+02
      vertex 2.354295e+02 6.400000e+01 6.970440e+02
      vertex 2.354295e+02 3.900000e+01 6.970440e+02
    endloop
  endfacet
  facet normal -9.956734e-01 0.000000e+00 -9.292154e-02
    outer loop
      vertex 2.351066e+02 4.400000e+01 7.005034e+02
      vertex 2.351066e+02 6.400000e+01 7.005034e+02
      vertex 2.354295e+02 3.900000e+01 6.970440e+02
    endloop
  endfacet
  facet normal -9.956734e-01 6.884493e-14 -9.292154e-02
    outer loop
      vertex 2.351066e+02 4.400000e+01 7.005034e+02
      vertex 2.354295e+02 3.900000e+01 6.970440e+02
      vertex 2.350137e+02 4.400000e+01 7.014991e+02
    endloop
  endfacet
  facet normal 0.000000e+00 -1.000000e+00 0.000000e+00
    outer loop
      vertex 2.320365e+02 3.900000e+01 7.098140e+02
      vertex 2.320365e+02 3.900000e+01 7.014991e+02
      vertex 2.350137e+02 3.900000e+01 7.014991e+02
    endloop
  endfacet
  facet normal 0.000000e+00 4.547474e-14 -1.000000e+00
    outer loop
      vertex 2.320365e+02 4.400000e+01 7.014991e+02
      vertex 2.350137e+02 3.900000e+01 7.014991e+02
      vertex 2.320365e+02 3.900000e+01 7.014991e+02
    endloop
  endfacet
  facet normal 0.000000e+00 -1.000000e+00 0.000000e+00
    outer loop
      vertex 2.385414e+02 3.900000e+01 6.917194e+02
      vertex 2.320365e+02 3.900000e+01 7.098140e+02
      vertex 2.350137e+02 3.900000e+01 7.014991e+02
    endloop
  endfacet
  facet normal 0.000000e+00 -1.000000e+00 0.000000e+00
    outer loop
      vertex 2.360944e+02 3.900000e+01 6.952281e+02
      vertex 2.385414e+02 3.900000e+01 6.917194e+02
      vertex 2.350137e+02 3.900000e+01 7.014991e+02
    endloop
  endfacet
  facet normal 0.000000e+00 4.547474e-14 -1.000000e+00
    outer loop
      vertex 2.350137e+02 4.400000e+01 7.014991e+02
      vertex 2.350137e+02 3.900000e+01 7.014991e+02
      vertex 2.320365e+02 4.400000e+01 7.014991e+02
    endloop
  endfacet
  facet normal -6.832141e-16 -1.000000e+00 0.000000e+00
    outer loop
      vertex 2.216365e+02 3.900000e+01 7.249210e+02
      vertex 2.320365e+02 3.900000e+01 6.890210e+02
      vertex 2.320365e+02 3.900000e+01 7.014991e+02
    endloop
  endfacet
  facet normal 1.000000e+00 0.000000e+00 0.000000e+00
    outer loop
      vertex 2.320365e+02 6.400000e+01 6.890210e+02
      vertex 2.320365e+02 3.900000e+01 7.014991e+02
      vertex 2.320365e+02 3.900000e+01 6.890210e+02
    endloop
  endfacet
  facet normal -6.832141e-16 -1.000000e+00 0.000000e+00
    outer loop
      vertex 2.320365e+02 3.900000e+01 7.098140e+02
      vertex 2.216365e+02 3.900000e+01 7.249210e+02
      vertex 2.320365e+02 3.900000e+01 7.014991e+02
    endloop
  endfacet
  facet normal 1.000000e+00 0.000000e+00 0.000000e+00
    outer loop
      vertex 2.320365e+02 6.400000e+01 6.890210e+02
      vertex 2.320365e+02 4.400000e+01 7.014991e+02
      vertex 2.320365e+02 3.900000e+01 7.014991e+02
    endloop
  endfacet
  facet normal 0.000000e+00 -1.000000e+00 5.694328e-16
    outer loop
      vertex 2.216365e+02 3.900000e+01 7.014991e+02
      vertex 2.216365e+02 3.900000e+01 6.890210e+02
      vertex 2.320365e+02 3.900000e+01 6.890210e+02
    endloop
  endfacet
  facet normal 0.000000e+00 0.000000e+00 -1.000000e+00
    outer loop
      vertex 2.216365e+02 6.400000e+01 6.890210e+02
      vertex 2.320365e+02 3.900000e+01 6.890210e+02
      vertex 2.216365e+02 3.900000e+01 6.890210e+02
    endloop
  endfacet
  facet normal -6.832141e-16 -1.000000e+00 4.670683e-30
    outer loop
      vertex 2.216365e+02 3.900000e+01 7.098140e+02
      vertex 2.216365e+02 3.900000e+01 7.014991e+02
      vertex 2.320365e+02 3.900000e+01 6.890210e+02
    endloop
  endfacet
  facet normal -6.832141e-16 -1.000000e+00 -1.285369e-30
    outer loop
      vertex 2.216365e+02 3.900000e+01 7.249210e+02
      vertex 2.216365e+02 3.900000e+01 7.098140e+02
      vertex 2.320365e+02 3.900000e+01 6.890210e+02
    endloop
  endfacet
  facet normal 0.000000e+00 0.000000e+00 -1.000000e+00
    outer loop
      vertex 2.320365e+02 6.400000e+01 6.890210e+02
      vertex 2.320365e+02 3.900000e+01 6.890210e+02
      vertex 2.216365e+02 6.400000e+01 6.890210e+02
    endloop
  endfacet
  facet normal -1.000000e+00 0.000000e+00 -2.277731e-15
    outer loop
      vertex 2.216365e+02 4.400000e+01 7.014991e+02
      vertex 2.216365e+02 3.900000e+01 6.890210e+02
      vertex 2.216365e+02 3.900000e+01 7.014991e+02
    endloop
  endfacet
  facet normal -1.000000e+00 -9.338380e-16 -1.903540e-15
    outer loop
      vertex 2.216365e+02 6.400000e+01 7.066185e+02
      vertex 2.216365e+02 3.900000e+01 6.890210e+02
      vertex 2.216365e+02 4.400000e+01 7.014991e+02
    endloop
  endfacet
  facet normal -1.000000e+00 -1.136868e-15 -1.615103e-15
    outer loop
      vertex 2.216365e+02 6.400000e+01 7.066185e+02
      vertex 2.216365e+02 6.400000e+01 6.890210e+02
      vertex 2.216365e+02 3.900000e+01 6.890210e+02
    endloop
  endfacet
  facet normal 0.000000e+00 -1.000000e+00 0.000000e+00
    outer loop
      vertex 2.208865e+02 3.900000e+01 7.098140e+02
      vertex 2.208865e+02 3.900000e+01 7.014991e+02
      vertex 2.216365e+02 3.900000e+01 7.014991e+02
    endloop
  endfacet
  facet normal 0.000000e+00 0.000000e+00 -1.000000e+00
    outer loop
      vertex 2.208865e+02 4.400000e+01 7.014991e+02
      vertex 2.216365e+02 3.900000e+01 7.014991e+02
      vertex 2.208865e+02 3.900000e+01 7.014991e+02
    endloop
  endfacet
  facet normal 0.000000e+00 -1.000000e+00 0.000000e+00
    outer loop
      vertex 2.216365e+02 3.900000e+01 7.098140e+02
      vertex 2.208865e+02 3.900000e+01 7.098140e+02
      vertex 2.216365e+02 3.900000e+01 7.014991e+02
    endloop
  endfacet
  facet normal 0.000000e+00 0.000000e+00 -1.000000e+00
    outer loop
      vertex 2.216365e+02 4.400000e+01 7.014991e+02
      vertex 2.216365e+02 3.900000e+01 7.014991e+02
      vertex 2.208865e+02 4.400000e+01 7.014991e+02
    endloop
  endfacet
  facet normal 1.157615e-15 -1.000000e+00 5.694328e-16
    outer loop
      vertex 2.179981e+02 3.900000e+01 7.073710e+02
      vertex 2.208865e+02 3.900000e+01 6.890210e+02
      vertex 2.208865e+02 3.900000e+01 7.014991e+02
    endloop
  endfacet
  facet normal 1.000000e+00 0.000000e+00 0.000000e+00
    outer loop
      vertex 2.208865e+02 6.400000e+01 6.890210e+02
      vertex 2.208865e+02 3.900000e+01 7.014991e+02
      vertex 2.208865e+02 3.900000e+01 6.890210e+02
    endloop
  endfacet
  facet normal 0.000000e+00 -1.000000e+00 0.000000e+00
    outer loop
      vertex 2.147176e+02 3.900000e+01 7.243842e+02
      vertex 2.179981e+02 3.900000e+01 7.073710e+02
      vertex 2.208865e+02 3.900000e+01 7.014991e+02
    endloop
  endfacet
  facet normal 0.000000e+00 -1.000000e+00 0.000000e+00
    outer loop
      vertex 2.208865e+02 3.900000e+01 7.098140e+02
      vertex 2.147176e+02 3.900000e+01 7.243842e+02
      vertex 2.208865e+02 3.900000e+01 7.014991e+02
    endloop
  endfacet
  facet normal 1.000000e+00 0.000000e+00 0.000000e+00
    outer loop
      vertex 2.208865e+02 6.400000e+01 6.890210e+02
      vertex 2.208865e+02 4.400000e+01 7.014991e+02
      vertex 2.208865e+02 3.900000e+01 7.014991e+02
    endloop
  endfacet
  facet normal 1.528467e-17 -1.000000e+00 4.062259e-16
    outer loop
      vertex 2.179981e+02 3.900000e+01 7.066210e+02
      vertex 2.155137e+02 3.900000e+01 6.892232e+02
      vertex 2.208865e+02 3.900000e+01 6.890210e+02
    endloop
  endfacet
  facet normal -3.759944e-02 4.373275e-15 -9.992929e-01
    outer loop
      vertex 2.155137e+02 6.400000e+01 6.892232e+02
      vertex 2.208865e+02 3.900000e+01 6.890210e+02
      vertex 2.155137e+02 3.900000e+01 6.892232e+02
    endloop
  endfacet
  facet normal -2.459979e-15 -1.000000e+00 3.365330e-26
    outer loop
      vertex 2.179981e+02 3.900000e+01 7.073710e+02
      vertex 2.179981e+02 3.900000e+01 7.066210e+02
      vertex 2.208865e+02 3.900000e+01 6.890210e+02
    endloop
  endfacet
  facet normal -3.759944e-02 0.000000e+00 -9.992929e-01
    outer loop
      vertex 2.208865e+02 6.400000e+01 6.890210e+02
      vertex 2.208865e+02 3.900000e+01 6.890210e+02
      vertex 2.155137e+02 6.400000e+01 6.892232e+02
    endloop
  endfacet
  facet normal 0.000000e+00 -1.000000e+00 0.000000e+00
    outer loop
      vertex 2.093365e+02 3.900000e+01 7.066210e+02
      vertex 2.105414e+02 3.900000e+01 6.917194e+02
      vertex 2.155137e+02 3.900000e+01 6.892232e+02
    endloop
  endfacet
  facet normal -4.486592e-01 -1.020133e-15 -8.937029e-01
    outer loop
      vertex 2.105414e+02 6.400000e+01 6.917194e+02
      vertex 2.155137e+02 3.900000e+01 6.892232e+02
      vertex 2.105414e+02 3.900000e+01 6.917194e+02
    endloop
  endfacet
  facet normal 8.203379e-16 -1.000000e+00 2.912641e-16
    outer loop
      vertex 2.179981e+02 3.900000e+01 7.066210e+02
      vertex 2.093365e+02 3.900000e+01 7.066210e+02
      vertex 2.155137e+02 3.900000e+01 6.892232e+02
    endloop
  endfacet
  facet normal -4.486592e-01 2.023824e-15 -8.937029e-01
    outer loop
      vertex 2.155137e+02 6.400000e+01 6.892232e+02
      vertex 2.155137e+02 3.900000e+01 6.892232e+02
      vertex 2.105414e+02 6.400000e+01 6.917194e+02
    endloop
  endfacet
  facet normal 0.000000e+00 -1.000000e+00 0.000000e+00
    outer loop
      vertex 2.093365e+02 3.900000e+01 7.066210e+02
      vertex 2.080944e+02 3.900000e+01 6.952281e+02
      vertex 2.105414e+02 3.900000e+01 6.917194e+02
    endloop
  endfacet
  facet normal -8.202345e-01 -1.128715e-15 -5.720274e-01
    outer loop
      vertex 2.080944e+02 6.400000e+01 6.952281e+02
      vertex 2.105414e+02 3.900000e+01 6.917194e+02
      vertex 2.080944e+02 3.900000e+01 6.952281e+02
    endloop
  endfacet
  facet normal -8.202345e-01 -1.864997e-15 -5.720274e-01
    outer loop
      vertex 2.105414e+02 6.400000e+01 6.917194e+02
      vertex 2.105414e+02 3.900000e+01 6.917194e+02
      vertex 2.080944e+02 6.400000e+01 6.952281e+02
    endloop
  endfacet
  facet normal 0.000000e+00 -1.000000e+00 0.000000e+00
    outer loop
      vertex 2.074267e+02 3.900000e+01 7.024098e+02
      vertex 2.074295e+02 3.900000e+01 6.970440e+02
      vertex 2.080944e+02 3.900000e+01 6.952281e+02
    endloop
  endfacet
  facet normal -9.390241e-01 -3.774079e-15 -3.438514e-01
    outer loop
      vertex 2.074295e+02 6.400000e+01 6.970440e+02
      vertex 2.080944e+02 3.900000e+01 6.952281e+02
      vertex 2.074295e+02 3.900000e+01 6.970440e+02
    endloop
  endfacet
  facet normal 0.000000e+00 -1.000000e+00 0.000000e+00
    outer loop
      vertex 2.093365e+02 3.900000e+01 7.066210e+02
      vertex 2.074267e+02 3.900000e+01 7.024098e+02
      vertex 2.080944e+02 3.900000e+01 6.952281e+02
    endloop
  endfacet
  facet normal -9.390241e-01 -2.706532e-15 -3.438514e-01
    outer loop
      vertex 2.080944e+02 6.400000e+01 6.952281e+02
      vertex 2.080944e+02 3.900000e+01 6.952281e+02
      vertex 2.074295e+02 6.400000e+01 6.970440e+02
    endloop
  endfacet
  facet normal 0.000000e+00 -1.000000e+00 0.000000e+00
    outer loop
      vertex 2.074267e+02 3.900000e+01 7.024098e+02
      vertex 2.071066e+02 3.900000e+01 7.005034e+02
      vertex 2.074295e+02 3.900000e+01 6.970440e+02
    endloop
  endfacet
  facet normal -9.956735e-01 -7.093946e-16 -9.292084e-02
    outer loop
      vertex 2.071066e+02 6.400000e+01 7.005034e+02
      vertex 2.074295e+02 3.900000e+01 6.970440e+02
      vertex 2.071066e+02 3.900000e+01 7.005034e+02
    endloop
  endfacet
  facet normal -9.956735e-01 -5.237193e-15 -9.292084e-02
    outer loop
      vertex 2.074295e+02 6.400000e+01 6.970440e+02
      vertex 2.074295e+02 3.900000e+01 6.970440e+02
      vertex 2.071066e+02 6.400000e+01 7.005034e+02
    endloop
  endfacet
  facet normal -9.861953e-01 -2.978701e-15 1.655860e-01
    outer loop
      vertex 2.074267e+02 6.400000e+01 7.024098e+02
      vertex 2.071066e+02 3.900000e+01 7.005034e+02
      vertex 2.074267e+02 3.900000e+01 7.024098e+02
    endloop
  endfacet
  facet normal -9.861953e-01 -1.874172e-15 1.655860e-01
    outer loop
      vertex 2.071066e+02 6.400000e+01 7.005034e+02
      vertex 2.071066e+02 3.900000e+01 7.005034e+02
      vertex 2.074267e+02 6.400000e+01 7.024098e+02
    endloop
  endfacet
  facet normal -9.107253e-01 0.000000e+00 4.130126e-01
    outer loop
      vertex 2.093365e+02 6.400000e+01 7.066210e+02
      vertex 2.074267e+02 3.900000e+01 7.024098e+02
      vertex 2.093365e+02 3.900000e+01 7.066210e+02
    endloop
  endfacet
  facet normal -9.107253e-01 -3.851714e-16 4.130126e-01
    outer loop
      vertex 2.074267e+02 6.400000e+01 7.024098e+02
      vertex 2.074267e+02 3.900000e+01 7.024098e+02
      vertex 2.093365e+02 6.400000e+01 7.066210e+02
    endloop
  endfacet
  facet normal 0.000000e+00 0.000000e+00 1.000000e+00
    outer loop
      vertex 2.179981e+02 4.400000e+01 7.066210e+02
      vertex 2.093365e+02 3.900000e+01 7.066210e+02
      vertex 2.179981e+02 3.900000e+01 7.066210e+02
    endloop
  endfacet
  facet normal -1.455005e-05 2.520531e-05 1.000000e+00
    outer loop
      vertex 2.179981e+02 6.400000e+01 7.066205e+02
      vertex 2.093365e+02 3.900000e+01 7.066210e+02
      vertex 2.179981e+02 4.400000e+01 7.066210e+02
    endloop
  endfacet
  facet normal 5.820021e-05 0.000000e+00 1.000000e+00
    outer loop
      vertex 2.179981e+02 6.400000e+01 7.066205e+02
      vertex 2.093365e+02 6.400000e+01 7.066210e+02
      vertex 2.093365e+02 3.900000e+01 7.066210e+02
    endloop
  endfacet
  facet normal -1.000000e+00 2.052047e-12 1.368032e-11
    outer loop
      vertex 2.179981e+02 4.400000e+01 7.073710e+02
      vertex 2.179981e+02 3.900000e+01 7.066210e+02
      vertex 2.179981e+02 3.900000e+01 7.073710e+02
    endloop
  endfacet
  facet normal -1.000000e+00 2.052047e-12 1.368032e-11
    outer loop
      vertex 2.179981e+02 4.400000e+01 7.066210e+02
      vertex 2.179981e+02 3.900000e+01 7.066210e+02
      vertex 2.179981e+02 4.400000e+01 7.073710e+02
    endloop
  endfacet
  facet normal 8.868941e-16 -1.000000e+00 -1.343245e-15
    outer loop
      vertex 2.136865e+02 3.900000e+01 7.098140e+02
      vertex 2.099865e+02 3.900000e+01 7.073710e+02
      vertex 2.179981e+02 3.900000e+01 7.073710e+02
    endloop
  endfacet
  facet normal -4.033128e-30 4.547474e-15 -1.000000e+00
    outer loop
      vertex 2.099865e+02 6.400000e+01 7.073710e+02
      vertex 2.179981e+02 3.900000e+01 7.073710e+02
      vertex 2.099865e+02 3.900000e+01 7.073710e+02
    endloop
  endfacet
  facet normal 1.850112e-15 -1.000000e+00 3.567359e-16
    outer loop
      vertex 2.147176e+02 3.900000e+01 7.243842e+02
      vertex 2.136865e+02 3.900000e+01 7.098140e+02
      vertex 2.179981e+02 3.900000e+01 7.073710e+02
    endloop
  endfacet
  facet normal -1.419031e-14 2.911918e-26 -1.000000e+00
    outer loop
      vertex 2.099865e+02 6.400000e+01 7.073710e+02
      vertex 2.179981e+02 4.400000e+01 7.073710e+02
      vertex 2.179981e+02 3.900000e+01 7.073710e+02
    endloop
  endfacet
  facet normal -5.509947e-01 6.264084e-16 8.345088e-01
    outer loop
      vertex 2.136865e+02 6.400000e+01 7.098140e+02
      vertex 2.099865e+02 3.900000e+01 7.073710e+02
      vertex 2.136865e+02 3.900000e+01 7.098140e+02
    endloop
  endfacet
  facet normal -5.509947e-01 -6.628646e-16 8.345088e-01
    outer loop
      vertex 2.099865e+02 6.400000e+01 7.073710e+02
      vertex 2.099865e+02 3.900000e+01 7.073710e+02
      vertex 2.136865e+02 6.400000e+01 7.098140e+02
    endloop
  endfacet
  facet normal -2.101202e-15 -1.000000e+00 1.389733e-16
    outer loop
      vertex 2.110397e+02 3.900000e+01 7.209234e+02
      vertex 2.105544e+02 3.900000e+01 7.135866e+02
      vertex 2.136865e+02 3.900000e+01 7.098140e+02
    endloop
  endfacet
  facet normal -7.693986e-01 8.747049e-16 -6.387690e-01
    outer loop
      vertex 2.105544e+02 6.400000e+01 7.135866e+02
      vertex 2.136865e+02 3.900000e+01 7.098140e+02
      vertex 2.105544e+02 3.900000e+01 7.135866e+02
    endloop
  endfacet
  facet normal -4.916142e-16 -1.000000e+00 5.224603e-16
    outer loop
      vertex 2.147176e+02 3.900000e+01 7.243842e+02
      vertex 2.110397e+02 3.900000e+01 7.209234e+02
      vertex 2.136865e+02 3.900000e+01 7.098140e+02
    endloop
  endfacet
  facet normal -7.693986e-01 8.747049e-16 -6.387690e-01
    outer loop
      vertex 2.136865e+02 6.400000e+01 7.098140e+02
      vertex 2.136865e+02 3.900000e+01 7.098140e+02
      vertex 2.105544e+02 6.400000e+01 7.135866e+02
    endloop
  endfacet
  facet normal 0.000000e+00 -1.000000e+00 0.000000e+00
    outer loop
      vertex 2.102443e+02 3.900000e+01 7.192403e+02
      vertex 2.099828e+02 3.900000e+01 7.153537e+02
      vertex 2.105544e+02 3.900000e+01 7.135866e+02
    endloop
  endfacet
  facet normal -9.514574e-01 2.035509e-15 -3.077806e-01
    outer loop
      vertex 2.099828e+02 6.400000e+01 7.153537e+02
      vertex 2.105544e+02 3.900000e+01 7.135866e+02
      vertex 2.099828e+02 3.900000e+01 7.153537e+02
    endloop
  endfacet
  facet normal 0.000000e+00 -1.000000e+00 0.000000e+00
    outer loop
      vertex 2.110397e+02 3.900000e+01 7.209234e+02
      vertex 2.102443e+02 3.900000e+01 7.192403e+02
      vertex 2.105544e+02 3.900000e+01 7.135866e+02
    endloop
  endfacet
  facet normal -9.514574e-01 1.081682e-15 -3.077806e-01
    outer loop
      vertex 2.105544e+02 6.400000e+01 7.135866e+02
      vertex 2.105544e+02 3.900000e+01 7.135866e+02
      vertex 2.099828e+02 6.400000e+01 7.153537e+02
    endloop
  endfacet
  facet normal -9.977444e-01 1.439565e-15 6.712768e-02
    outer loop
      vertex 2.102443e+02 6.400000e+01 7.192403e+02
      vertex 2.099828e+02 3.900000e+01 7.153537e+02
      vertex 2.102443e+02 3.900000e+01 7.192403e+02
    endloop
  endfacet
  facet normal -9.977444e-01 -3.184392e-15 6.712768e-02
    outer loop
      vertex 2.099828e+02 6.400000e+01 7.153537e+02
      vertex 2.099828e+02 3.900000e+01 7.153537e+02
      vertex 2.102443e+02 6.400000e+01 7.192403e+02
    endloop
  endfacet
  facet normal -9.041149e-01 -3.378974e-16 4.272893e-01
    outer loop
      vertex 2.110397e+02 6.400000e+01 7.209234e+02
      vertex 2.102443e+02 3.900000e+01 7.192403e+02
      vertex 2.110397e+02 3.900000e+01 7.209234e+02
    endloop
  endfacet
  facet normal -9.041149e-01 2.970947e-15 4.272893e-01
    outer loop
      vertex 2.102443e+02 6.400000e+01 7.192403e+02
      vertex 2.102443e+02 3.900000e+01 7.192403e+02
      vertex 2.110397e+02 6.400000e+01 7.209234e+02
    endloop
  endfacet
  facet normal -6.852810e-01 9.746052e-16 7.282787e-01
    outer loop
      vertex 2.147176e+02 6.400000e+01 7.243842e+02
      vertex 2.110397e+02 3.900000e+01 7.209234e+02
      vertex 2.147176e+02 3.900000e+01 7.243842e+02
    endloop
  endfacet
  facet normal -6.852810e-01 5.261039e-15 7.282787e-01
    outer loop
      vertex 2.110397e+02 6.400000e+01 7.209234e+02
      vertex 2.110397e+02 3.900000e+01 7.209234e+02
      vertex 2.147176e+02 6.400000e+01 7.243842e+02
    endloop
  endfacet
  facet normal 0.000000e+00 -1.000000e+00 0.000000e+00
    outer loop
      vertex 2.208865e+02 3.900000e+01 7.098140e+02
      vertex 2.208865e+02 3.900000e+01 7.249210e+02
      vertex 2.147176e+02 3.900000e+01 7.243842e+02
    endloop
  endfacet
  facet normal -8.669626e-02 1.971245e-16 9.962348e-01
    outer loop
      vertex 2.208865e+02 6.400000e+01 7.249210e+02
      vertex 2.147176e+02 3.900000e+01 7.243842e+02
      vertex 2.208865e+02 3.900000e+01 7.249210e+02
    endloop
  endfacet
  facet normal -8.669626e-02 4.234665e-15 9.962348e-01
    outer loop
      vertex 2.147176e+02 6.400000e+01 7.243842e+02
      vertex 2.147176e+02 3.900000e+01 7.243842e+02
      vertex 2.208865e+02 6.400000e+01 7.249210e+02
    endloop
  endfacet
  facet normal 1.000000e+00 0.000000e+00 0.000000e+00
    outer loop
      vertex 2.208865e+02 4.400000e+01 7.098140e+02
      vertex 2.208865e+02 3.900000e+01 7.249210e+02
      vertex 2.208865e+02 3.900000e+01 7.098140e+02
    endloop
  endfacet
  facet normal 1.000000e+00 -2.961844e-15 -9.802865e-16
    outer loop
      vertex 2.208865e+02 6.400000e+01 7.073724e+02
      vertex 2.208865e+02 3.900000e+01 7.249210e+02
      vertex 2.208865e+02 4.400000e+01 7.098140e+02
    endloop
  endfacet
  facet normal 1.000000e+00 -2.273737e-15 0.000000e+00
    outer loop
      vertex 2.208865e+02 6.400000e+01 7.073724e+02
      vertex 2.208865e+02 6.400000e+01 7.249210e+02
      vertex 2.208865e+02 3.900000e+01 7.249210e+02
    endloop
  endfacet
  facet normal 0.000000e+00 0.000000e+00 1.000000e+00
    outer loop
      vertex 2.216365e+02 4.400000e+01 7.098140e+02
      vertex 2.208865e+02 3.900000e+01 7.098140e+02
      vertex 2.216365e+02 3.900000e+01 7.098140e+02
    endloop
  endfacet
  facet normal 0.000000e+00 0.000000e+00 1.000000e+00
    outer loop
      vertex 2.208865e+02 4.400000e+01 7.098140e+02
      vertex 2.208865e+02 3.900000e+01 7.098140e+02
      vertex 2.216365e+02 4.400000e+01 7.098140e+02
    endloop
  endfacet
  facet normal -1.000000e+00 1.136868e-15 -1.881356e-15
    outer loop
      vertex 2.216365e+02 6.400000e+01 7.249210e+02
      vertex 2.216365e+02 3.900000e+01 7.098140e+02
      vertex 2.216365e+02 3.900000e+01 7.249210e+02
    endloop
  endfacet
  facet normal -1.000000e+00 0.000000e+00 0.000000e+00
    outer loop
      vertex 2.216365e+02 6.400000e+01 7.249210e+02
      vertex 2.216365e+02 4.400000e+01 7.098140e+02
      vertex 2.216365e+02 3.900000e+01 7.098140e+02
    endloop
  endfacet
  facet normal 0.000000e+00 -1.000000e+00 4.703390e-16
    outer loop
      vertex 2.320365e+02 3.900000e+01 7.098140e+02
      vertex 2.320365e+02 3.900000e+01 7.249210e+02
      vertex 2.216365e+02 3.900000e+01 7.249210e+02
    endloop
  endfacet
  facet normal 0.000000e+00 0.000000e+00 1.000000e+00
    outer loop
      vertex 2.320365e+02 6.400000e+01 7.249210e+02
      vertex 2.216365e+02 3.900000e+01 7.249210e+02
      vertex 2.320365e+02 3.900000e+01 7.249210e+02
    endloop
  endfacet
  facet normal 0.000000e+00 0.000000e+00 1.000000e+00
    outer loop
      vertex 2.216365e+02 6.400000e+01 7.249210e+02
      vertex 2.216365e+02 3.900000e+01 7.249210e+02
      vertex 2.320365e+02 6.400000e+01 7.249210e+02
    endloop
  endfacet
  facet normal 1.000000e+00 0.000000e+00 0.000000e+00
    outer loop
      vertex 2.320365e+02 4.400000e+01 7.098140e+02
      vertex 2.320365e+02 3.900000e+01 7.249210e+02
      vertex 2.320365e+02 3.900000e+01 7.098140e+02
    endloop
  endfacet
  facet normal 1.000000e+00 -1.480616e-15 -4.900419e-16
    outer loop
      vertex 2.320365e+02 6.400000e+01 7.073844e+02
      vertex 2.320365e+02 3.900000e+01 7.249210e+02
      vertex 2.320365e+02 4.400000e+01 7.098140e+02
    endloop
  endfacet
  facet normal 1.000000e+00 -1.136868e-15 0.000000e+00
    outer loop
      vertex 2.320365e+02 6.400000e+01 7.073844e+02
      vertex 2.320365e+02 6.400000e+01 7.249210e+02
      vertex 2.320365e+02 3.900000e+01 7.249210e+02
    endloop
  endfacet
  facet normal 0.000000e+00 -1.000000e+00 0.000000e+00
    outer loop
      vertex 2.385414e+02 3.900000e+01 6.917194e+02
      vertex 2.416865e+02 3.900000e+01 7.098140e+02
      vertex 2.320365e+02 3.900000e+01 7.098140e+02
    endloop
  endfacet
  facet normal -1.178102e-14 0.000000e+00 1.000000e+00
    outer loop
      vertex 2.320365e+02 4.400000e+01 7.098140e+02
      vertex 2.320365e+02 3.900000e+01 7.098140e+02
      vertex 2.416865e+02 3.900000e+01 7.098140e+02
    endloop
  endfacet
  facet normal 1.082032e-15 -1.000000e+00 8.672890e-16
    outer loop
      vertex 2.391757e+02 3.900000e+01 7.211392e+02
      vertex 2.384751e+02 3.900000e+01 7.138206e+02
      vertex 2.416865e+02 3.900000e+01 7.098140e+02
    endloop
  endfacet
  facet normal -7.802832e-01 -5.213362e-16 -6.254263e-01
    outer loop
      vertex 2.384751e+02 6.400000e+01 7.138206e+02
      vertex 2.416865e+02 3.900000e+01 7.098140e+02
      vertex 2.384751e+02 3.900000e+01 7.138206e+02
    endloop
  endfacet
  facet normal -4.651806e-16 -1.000000e+00 5.242668e-16
    outer loop
      vertex 2.429169e+02 3.900000e+01 7.244588e+02
      vertex 2.391757e+02 3.900000e+01 7.211392e+02
      vertex 2.416865e+02 3.900000e+01 7.098140e+02
    endloop
  endfacet
  facet normal 2.808530e-15 -1.000000e+00 2.492207e-16
    outer loop
      vertex 2.435137e+02 3.900000e+01 6.892232e+02
      vertex 2.429169e+02 3.900000e+01 7.244588e+02
      vertex 2.416865e+02 3.900000e+01 7.098140e+02
    endloop
  endfacet
  facet normal 0.000000e+00 -1.000000e+00 0.000000e+00
    outer loop
      vertex 2.385414e+02 3.900000e+01 6.917194e+02
      vertex 2.435137e+02 3.900000e+01 6.892232e+02
      vertex 2.416865e+02 3.900000e+01 7.098140e+02
    endloop
  endfacet
  facet normal 0.000000e+00 2.273737e-14 1.000000e+00
    outer loop
      vertex 2.320365e+02 4.400000e+01 7.098140e+02
      vertex 2.416865e+02 3.900000e+01 7.098140e+02
      vertex 2.416865e+02 4.400000e+01 7.098140e+02
    endloop
  endfacet
  facet normal -7.802832e-01 -1.861179e-14 -6.254263e-01
    outer loop
      vertex 2.384751e+02 6.400000e+01 7.138206e+02
      vertex 2.416865e+02 4.400000e+01 7.098140e+02
      vertex 2.416865e+02 3.900000e+01 7.098140e+02
    endloop
  endfacet
  facet normal -1.011878e-14 -1.000000e+00 9.956363e-16
    outer loop
      vertex 2.383297e+02 3.900000e+01 7.194803e+02
      vertex 2.379476e+02 3.900000e+01 7.155961e+02
      vertex 2.384751e+02 3.900000e+01 7.138206e+02
    endloop
  endfacet
  facet normal -9.585865e-01 -8.844465e-16 -2.848014e-01
    outer loop
      vertex 2.379476e+02 6.400000e+01 7.155961e+02
      vertex 2.384751e+02 3.900000e+01 7.138206e+02
      vertex 2.379476e+02 3.900000e+01 7.155961e+02
    endloop
  endfacet
  facet normal -2.343955e-15 -1.000000e+00 1.195257e-15
    outer loop
      vertex 2.391757e+02 3.900000e+01 7.211392e+02
      vertex 2.383297e+02 3.900000e+01 7.194803e+02
      vertex 2.384751e+02 3.900000e+01 7.138206e+02
    endloop
  endfacet
  facet normal -9.585865e-01 -5.039868e-15 -2.848014e-01
    outer loop
      vertex 2.379476e+02 6.400000e+01 7.155961e+02
      vertex 2.384751e+02 6.400000e+01 7.138206e+02
      vertex 2.384751e+02 3.900000e+01 7.138206e+02
    endloop
  endfacet
  facet normal -9.951941e-01 4.452980e-16 9.792206e-02
    outer loop
      vertex 2.383297e+02 6.400000e+01 7.194803e+02
      vertex 2.379476e+02 3.900000e+01 7.155961e+02
      vertex 2.383297e+02 3.900000e+01 7.194803e+02
    endloop
  endfacet
  facet normal -9.951941e-01 -2.708107e-15 9.792206e-02
    outer loop
      vertex 2.379476e+02 6.400000e+01 7.155961e+02
      vertex 2.379476e+02 3.900000e+01 7.155961e+02
      vertex 2.383297e+02 6.400000e+01 7.194803e+02
    endloop
  endfacet
  facet normal -8.908601e-01 2.186522e-15 4.542779e-01
    outer loop
      vertex 2.391757e+02 6.400000e+01 7.211392e+02
      vertex 2.383297e+02 3.900000e+01 7.194803e+02
      vertex 2.391757e+02 3.900000e+01 7.211392e+02
    endloop
  endfacet
  facet normal -8.908601e-01 2.065817e-15 4.542779e-01
    outer loop
      vertex 2.383297e+02 6.400000e+01 7.194803e+02
      vertex 2.383297e+02 3.900000e+01 7.194803e+02
      vertex 2.391757e+02 6.400000e+01 7.211392e+02
    endloop
  endfacet
  facet normal -6.636986e-01 5.281766e-15 7.480001e-01
    outer loop
      vertex 2.429169e+02 6.400000e+01 7.244588e+02
      vertex 2.391757e+02 3.900000e+01 7.211392e+02
      vertex 2.429169e+02 3.900000e+01 7.244588e+02
    endloop
  endfacet
  facet normal -6.636986e-01 9.078814e-15 7.480001e-01
    outer loop
      vertex 2.391757e+02 6.400000e+01 7.211392e+02
      vertex 2.391757e+02 3.900000e+01 7.211392e+02
      vertex 2.429169e+02 6.400000e+01 7.244588e+02
    endloop
  endfacet
  facet normal 0.000000e+00 -1.000000e+00 0.000000e+00
    outer loop
      vertex 2.488865e+02 3.900000e+01 7.098140e+02
      vertex 2.488865e+02 3.900000e+01 7.249210e+02
      vertex 2.429169e+02 3.900000e+01 7.244588e+02
    endloop
  endfacet
  facet normal -7.719787e-02 0.000000e+00 9.970158e-01
    outer loop
      vertex 2.488865e+02 6.400000e+01 7.249210e+02
      vertex 2.429169e+02 3.900000e+01 7.244588e+02
      vertex 2.488865e+02 3.900000e+01 7.249210e+02
    endloop
  endfacet
  facet normal -7.719787e-02 6.143467e-16 9.970158e-01
    outer loop
      vertex 2.429169e+02 6.400000e+01 7.244588e+02
      vertex 2.429169e+02 3.900000e+01 7.244588e+02
      vertex 2.488865e+02 6.400000e+01 7.249210e+02
    endloop
  endfacet
  facet normal 1.000000e+00 0.000000e+00 0.000000e+00
    outer loop
      vertex 2.488865e+02 4.400000e+01 7.098140e+02
      vertex 2.488865e+02 3.900000e+01 7.249210e+02
      vertex 2.488865e+02 3.900000e+01 7.098140e+02
    endloop
  endfacet
  facet normal 1.000000e+00 0.000000e+00 0.000000e+00
    outer loop
      vertex 2.488865e+02 6.400000e+01 7.074004e+02
      vertex 2.488865e+02 3.900000e+01 7.249210e+02
      vertex 2.488865e+02 4.400000e+01 7.098140e+02
    endloop
  endfacet
  facet normal 1.000000e+00 0.000000e+00 0.000000e+00
    outer loop
      vertex 2.488865e+02 6.400000e+01 7.249210e+02
      vertex 2.488865e+02 3.900000e+01 7.249210e+02
      vertex 2.488865e+02 6.400000e+01 7.074004e+02
    endloop
  endfacet
  facet normal 0.000000e+00 0.000000e+00 1.000000e+00
    outer loop
      vertex 2.496365e+02 4.400000e+01 7.098140e+02
      vertex 2.488865e+02 3.900000e+01 7.098140e+02
      vertex 2.496365e+02 3.900000e+01 7.098140e+02
    endloop
  endfacet
  facet normal 0.000000e+00 0.000000e+00 1.000000e+00
    outer loop
      vertex 2.488865e+02 4.400000e+01 7.098140e+02
      vertex 2.488865e+02 3.900000e+01 7.098140e+02
      vertex 2.496365e+02 4.400000e+01 7.098140e+02
    endloop
  endfacet
  facet normal -6.832143e-16 -1.000000e+00 0.000000e+00
    outer loop
      vertex 2.600365e+02 3.900000e+01 6.890210e+02
      vertex 2.496365e+02 3.900000e+01 7.249210e+02
      vertex 2.496365e+02 3.900000e+01 7.098140e+02
    endloop
  endfacet
  facet normal -1.000000e+00 0.000000e+00 0.000000e+00
    outer loop
      vertex 2.496365e+02 6.400000e+01 7.249210e+02
      vertex 2.496365e+02 3.900000e+01 7.098140e+02
      vertex 2.496365e+02 3.900000e+01 7.249210e+02
    endloop
  endfacet
  facet normal -1.000000e+00 0.000000e+00 0.000000e+00
    outer loop
      vertex 2.496365e+02 6.400000e+01 7.249210e+02
      vertex 2.496365e+02 4.400000e+01 7.098140e+02
      vertex 2.496365e+02 3.900000e+01 7.098140e+02
    endloop
  endfacet
  facet normal 0.000000e+00 -1.000000e+00 4.703390e-16
    outer loop
      vertex 2.600365e+02 3.900000e+01 7.098140e+02
      vertex 2.600365e+02 3.900000e+01 7.249210e+02
      vertex 2.496365e+02 3.900000e+01 7.249210e+02
    endloop
  endfacet
  facet normal 0.000000e+00 0.000000e+00 1.000000e+00
    outer loop
      vertex 2.600365e+02 6.400000e+01 7.249210e+02
      vertex 2.496365e+02 3.900000e+01 7.249210e+02
      vertex 2.600365e+02 3.900000e+01 7.249210e+02
    endloop
  endfacet
  facet normal -6.832143e-16 -1.000000e+00 0.000000e+00
    outer loop
      vertex 2.600365e+02 3.900000e+01 7.014991e+02
      vertex 2.600365e+02 3.900000e+01 7.098140e+02
      vertex 2.496365e+02 3.900000e+01 7.249210e+02
    endloop
  endfacet
  facet normal -6.832143e-16 -1.000000e+00 -6.224715e-30
    outer loop
      vertex 2.600365e+02 3.900000e+01 6.890210e+02
      vertex 2.600365e+02 3.900000e+01 7.014991e+02
      vertex 2.496365e+02 3.900000e+01 7.249210e+02
    endloop
  endfacet
  facet normal 0.000000e+00 0.000000e+00 1.000000e+00
    outer loop
      vertex 2.600365e+02 6.400000e+01 7.249210e+02
      vertex 2.496365e+02 6.400000e+01 7.249210e+02
      vertex 2.496365e+02 3.900000e+01 7.249210e+02
    endloop
  endfacet
  facet normal 1.000000e+00 0.000000e+00 0.000000e+00
    outer loop
      vertex 2.600365e+02 4.400000e+01 7.098140e+02
      vertex 2.600365e+02 3.900000e+01 7.249210e+02
      vertex 2.600365e+02 3.900000e+01 7.098140e+02
    endloop
  endfacet
  facet normal 1.000000e+00 0.000000e+00 0.000000e+00
    outer loop
      vertex 2.600365e+02 6.400000e+01 7.074111e+02
      vertex 2.600365e+02 3.900000e+01 7.249210e+02
      vertex 2.600365e+02 4.400000e+01 7.098140e+02
    endloop
  endfacet
  facet normal 1.000000e+00 0.000000e+00 0.000000e+00
    outer loop
      vertex 2.600365e+02 6.400000e+01 7.249210e+02
      vertex 2.600365e+02 3.900000e+01 7.249210e+02
      vertex 2.600365e+02 6.400000e+01 7.074111e+02
    endloop
  endfacet
  facet normal 0.000000e+00 -1.000000e+00 0.000000e+00
    outer loop
      vertex 2.670198e+02 3.900000e+01 7.014991e+02
      vertex 2.699768e+02 3.900000e+01 7.098140e+02
      vertex 2.600365e+02 3.900000e+01 7.098140e+02
    endloop
  endfacet
  facet normal 0.000000e+00 2.273737e-14 1.000000e+00
    outer loop
      vertex 2.600365e+02 4.400000e+01 7.098140e+02
      vertex 2.600365e+02 3.900000e+01 7.098140e+02
      vertex 2.699768e+02 3.900000e+01 7.098140e+02
    endloop
  endfacet
  facet normal 0.000000e+00 -1.000000e+00 0.000000e+00
    outer loop
      vertex 2.600365e+02 3.900000e+01 7.014991e+02
      vertex 2.670198e+02 3.900000e+01 7.014991e+02
      vertex 2.600365e+02 3.900000e+01 7.098140e+02
    endloop
  endfacet
  facet normal 0.000000e+00 -1.000000e+00 0.000000e+00
    outer loop
      vertex 2.739651e+02 3.900000e+01 6.962427e+02
      vertex 2.751821e+02 3.900000e+01 7.249289e+02
      vertex 2.699768e+02 3.900000e+01 7.098140e+02
    endloop
  endfacet
  facet normal -9.455014e-01 -2.818903e-15 3.256181e-01
    outer loop
      vertex 2.751821e+02 6.400000e+01 7.249289e+02
      vertex 2.699768e+02 3.900000e+01 7.098140e+02
      vertex 2.751821e+02 3.900000e+01 7.249289e+02
    endloop
  endfacet
  facet normal 0.000000e+00 -1.000000e+00 0.000000e+00
    outer loop
      vertex 2.715937e+02 3.900000e+01 6.890210e+02
      vertex 2.739651e+02 3.900000e+01 6.962427e+02
      vertex 2.699768e+02 3.900000e+01 7.098140e+02
    endloop
  endfacet
  facet normal 0.000000e+00 -1.000000e+00 0.000000e+00
    outer loop
      vertex 2.670198e+02 3.900000e+01 7.014991e+02
      vertex 2.715937e+02 3.900000e+01 6.890210e+02
      vertex 2.699768e+02 3.900000e+01 7.098140e+02
    endloop
  endfacet
  facet normal 0.000000e+00 2.273737e-14 1.000000e+00
    outer loop
      vertex 2.600365e+02 4.400000e+01 7.098140e+02
      vertex 2.699768e+02 3.900000e+01 7.098140e+02
      vertex 2.699768e+02 4.400000e+01 7.098140e+02
    endloop
  endfacet
  facet normal -9.455014e-01 -3.200222e-15 3.256181e-01
    outer loop
      vertex 2.751821e+02 6.400000e+01 7.249289e+02
      vertex 2.699768e+02 4.400000e+01 7.098140e+02
      vertex 2.699768e+02 3.900000e+01 7.098140e+02
    endloop
  endfacet
  facet normal 1.482496e-15 -1.000000e+00 0.000000e+00
    outer loop
      vertex 2.799750e+02 3.900000e+01 7.098140e+02
      vertex 2.799750e+02 3.900000e+01 7.249289e+02
      vertex 2.751821e+02 3.900000e+01 7.249289e+02
    endloop
  endfacet
  facet normal 2.371993e-14 0.000000e+00 1.000000e+00
    outer loop
      vertex 2.799750e+02 6.400000e+01 7.249289e+02
      vertex 2.751821e+02 3.900000e+01 7.249289e+02
      vertex 2.799750e+02 3.900000e+01 7.249289e+02
    endloop
  endfacet
  facet normal 1.482496e-15 -1.000000e+00 0.000000e+00
    outer loop
      vertex 2.799750e+02 3.900000e+01 7.014991e+02
      vertex 2.799750e+02 3.900000e+01 7.098140e+02
      vertex 2.751821e+02 3.900000e+01 7.249289e+02
    endloop
  endfacet
  facet normal 8.090512e-15 -1.000000e+00 1.351761e-15
    outer loop
      vertex 2.799750e+02 3.900000e+01 6.962427e+02
      vertex 2.799750e+02 3.900000e+01 7.014991e+02
      vertex 2.751821e+02 3.900000e+01 7.249289e+02
    endloop
  endfacet
  facet normal 0.000000e+00 -1.000000e+00 0.000000e+00
    outer loop
      vertex 2.739651e+02 3.900000e+01 6.962427e+02
      vertex 2.799750e+02 3.900000e+01 6.962427e+02
      vertex 2.751821e+02 3.900000e+01 7.249289e+02
    endloop
  endfacet
  facet normal 0.000000e+00 4.547474e-15 1.000000e+00
    outer loop
      vertex 2.799750e+02 6.400000e+01 7.249289e+02
      vertex 2.751821e+02 6.400000e+01 7.249289e+02
      vertex 2.751821e+02 3.900000e+01 7.249289e+02
    endloop
  endfacet
  facet normal 1.000000e+00 0.000000e+00 0.000000e+00
    outer loop
      vertex 2.799750e+02 4.400000e+01 7.098140e+02
      vertex 2.799750e+02 3.900000e+01 7.249289e+02
      vertex 2.799750e+02 3.900000e+01 7.098140e+02
    endloop
  endfacet
  facet normal 1.000000e+00 0.000000e+00 0.000000e+00
    outer loop
      vertex 2.799750e+02 6.400000e+01 7.074300e+02
      vertex 2.799750e+02 3.900000e+01 7.249289e+02
      vertex 2.799750e+02 4.400000e+01 7.098140e+02
    endloop
  endfacet
  facet normal 1.000000e+00 0.000000e+00 0.000000e+00
    outer loop
      vertex 2.799750e+02 6.400000e+01 7.249289e+02
      vertex 2.799750e+02 3.900000e+01 7.249289e+02
      vertex 2.799750e+02 6.400000e+01 7.074300e+02
    endloop
  endfacet
  facet normal 0.000000e+00 -1.000000e+00 0.000000e+00
    outer loop
      vertex 2.808365e+02 3.900000e+01 7.014991e+02
      vertex 2.809142e+02 3.900000e+01 7.098140e+02
      vertex 2.799750e+02 3.900000e+01 7.098140e+02
    endloop
  endfacet
  facet normal 0.000000e+00 -5.229595e-13 1.000000e+00
    outer loop
      vertex 2.809142e+02 4.400000e+01 7.098140e+02
      vertex 2.799750e+02 3.900000e+01 7.098140e+02
      vertex 2.809142e+02 3.900000e+01 7.098140e+02
    endloop
  endfacet
  facet normal 0.000000e+00 -1.000000e+00 0.000000e+00
    outer loop
      vertex 2.799750e+02 3.900000e+01 7.014991e+02
      vertex 2.808365e+02 3.900000e+01 7.014991e+02
      vertex 2.799750e+02 3.900000e+01 7.098140e+02
    endloop
  endfacet
  facet normal 0.000000e+00 -5.229595e-13 1.000000e+00
    outer loop
      vertex 2.799750e+02 4.400000e+01 7.098140e+02
      vertex 2.799750e+02 3.900000e+01 7.098140e+02
      vertex 2.809142e+02 4.400000e+01 7.098140e+02
    endloop
  endfacet
  facet normal -1.204587e-15 -1.000000e+00 0.000000e+00
    outer loop
      vertex 2.868129e+02 3.900000e+01 6.962210e+02
      vertex 2.809142e+02 3.900000e+01 7.249289e+02
      vertex 2.809142e+02 3.900000e+01 7.098140e+02
    endloop
  endfacet
  facet normal -1.000000e+00 0.000000e+00 0.000000e+00
    outer loop
      vertex 2.809142e+02 6.400000e+01 7.249289e+02
      vertex 2.809142e+02 3.900000e+01 7.098140e+02
      vertex 2.809142e+02 3.900000e+01 7.249289e+02
    endloop
  endfacet
  facet normal -1.179189e-15 -1.000000e+00 1.102131e-17
    outer loop
      vertex 2.808365e+02 3.900000e+01 7.014991e+02
      vertex 2.868129e+02 3.900000e+01 6.962210e+02
      vertex 2.809142e+02 3.900000e+01 7.098140e+02
    endloop
  endfacet
  facet normal -1.000000e+00 0.000000e+00 0.000000e+00
    outer loop
      vertex 2.809142e+02 6.400000e+01 7.249289e+02
      vertex 2.809142e+02 4.400000e+01 7.098140e+02
      vertex 2.809142e+02 3.900000e+01 7.098140e+02
    endloop
  endfacet
  facet normal -1.430441e-15 -1.000000e+00 -4.061821e-16
    outer loop
      vertex 2.858815e+02 3.900000e+01 7.074357e+02
      vertex 2.858815e+02 3.900000e+01 7.249289e+02
      vertex 2.809142e+02 3.900000e+01 7.249289e+02
    endloop
  endfacet
  facet normal 0.000000e+00 0.000000e+00 1.000000e+00
    outer loop
      vertex 2.858815e+02 6.400000e+01 7.249289e+02
      vertex 2.809142e+02 3.900000e+01 7.249289e+02
      vertex 2.858815e+02 3.900000e+01 7.249289e+02
    endloop
  endfacet
  facet normal 0.000000e+00 -1.000000e+00 0.000000e+00
    outer loop
      vertex 2.858815e+02 3.900000e+01 7.065736e+02
      vertex 2.858815e+02 3.900000e+01 7.074357e+02
      vertex 2.809142e+02 3.900000e+01 7.249289e+02
    endloop
  endfacet
  facet normal 3.799119e-15 -1.000000e+00 1.028119e-15
    outer loop
      vertex 2.868129e+02 3.900000e+01 6.962210e+02
      vertex 2.858815e+02 3.900000e+01 7.065736e+02
      vertex 2.809142e+02 3.900000e+01 7.249289e+02
    endloop
  endfacet
  facet normal 0.000000e+00 0.000000e+00 1.000000e+00
    outer loop
      vertex 2.858815e+02 6.400000e+01 7.249289e+02
      vertex 2.809142e+02 6.400000e+01 7.249289e+02
      vertex 2.809142e+02 3.900000e+01 7.249289e+02
    endloop
  endfacet
  facet normal -1.122325e-15 -1.000000e+00 -4.061821e-16
    outer loop
      vertex 2.858815e+02 3.900000e+01 7.074357e+02
      vertex 2.922125e+02 3.900000e+01 7.074357e+02
      vertex 2.858815e+02 3.900000e+01 7.249289e+02
    endloop
  endfacet
  facet normal 9.403133e-01 -2.138025e-15 3.403099e-01
    outer loop
      vertex 2.922125e+02 6.400000e+01 7.074357e+02
      vertex 2.858815e+02 3.900000e+01 7.249289e+02
      vertex 2.922125e+02 3.900000e+01 7.074357e+02
    endloop
  endfacet
  facet normal 9.403133e-01 -2.138025e-15 3.403099e-01
    outer loop
      vertex 2.858815e+02 6.400000e+01 7.249289e+02
      vertex 2.858815e+02 3.900000e+01 7.249289e+02
      vertex 2.922125e+02 6.400000e+01 7.074357e+02
    endloop
  endfacet
  facet normal -2.296685e-28 -2.046363e-13 -1.000000e+00
    outer loop
      vertex 2.858815e+02 4.400000e+01 7.074357e+02
      vertex 2.922125e+02 3.900000e+01 7.074357e+02
      vertex 2.858815e+02 3.900000e+01 7.074357e+02
    endloop
  endfacet
  facet normal 2.020186e-13 5.115908e-14 -1.000000e+00
    outer loop
      vertex 2.858815e+02 6.400000e+01 7.074357e+02
      vertex 2.922125e+02 3.900000e+01 7.074357e+02
      vertex 2.858815e+02 4.400000e+01 7.074357e+02
    endloop
  endfacet
  facet normal 0.000000e+00 0.000000e+00 -1.000000e+00
    outer loop
      vertex 2.922125e+02 6.400000e+01 7.074357e+02
      vertex 2.922125e+02 3.900000e+01 7.074357e+02
      vertex 2.858815e+02 6.400000e+01 7.074357e+02
    endloop
  endfacet
  facet normal 1.000000e+00 7.673862e-12 -4.437846e-11
    outer loop
      vertex 2.858815e+02 4.400000e+01 7.065736e+02
      vertex 2.858815e+02 3.900000e+01 7.074357e+02
      vertex 2.858815e+02 3.900000e+01 7.065736e+02
    endloop
  endfacet
  facet normal 1.000000e+00 -1.818988e-23 -8.888880e-11
    outer loop
      vertex 2.858815e+02 4.400000e+01 7.074357e+02
      vertex 2.858815e+02 3.900000e+01 7.074357e+02
      vertex 2.858815e+02 4.400000e+01 7.065736e+02
    endloop
  endfacet
  facet normal -1.122325e-15 -1.000000e+00 1.794401e-16
    outer loop
      vertex 2.894062e+02 3.900000e+01 6.890210e+02
      vertex 2.922125e+02 3.900000e+01 7.065736e+02
      vertex 2.858815e+02 3.900000e+01 7.065736e+02
    endloop
  endfacet
  facet normal 0.000000e+00 0.000000e+00 1.000000e+00
    outer loop
      vertex 2.922125e+02 6.400000e+01 7.065736e+02
      vertex 2.858815e+02 3.900000e+01 7.065736e+02
      vertex 2.922125e+02 3.900000e+01 7.065736e+02
    endloop
  endfacet
  facet normal 2.539965e-15 -1.000000e+00 9.148424e-16
    outer loop
      vertex 2.868129e+02 3.900000e+01 6.962210e+02
      vertex 2.894062e+02 3.900000e+01 6.890210e+02
      vertex 2.858815e+02 3.900000e+01 7.065736e+02
    endloop
  endfacet
  facet normal 0.000000e+00 0.000000e+00 1.000000e+00
    outer loop
      vertex 2.922125e+02 6.400000e+01 7.065736e+02
      vertex 2.858815e+02 4.400000e+01 7.065736e+02
      vertex 2.858815e+02 3.900000e+01 7.065736e+02
    endloop
  endfacet
  facet normal 0.000000e+00 -1.000000e+00 0.000000e+00
    outer loop
      vertex 2.894062e+02 3.900000e+01 6.890210e+02
      vertex 2.984365e+02 3.900000e+01 6.890210e+02
      vertex 2.922125e+02 3.900000e+01 7.065736e+02
    endloop
  endfacet
  facet normal 9.425013e-01 2.143000e-15 3.342025e-01
    outer loop
      vertex 2.984365e+02 6.400000e+01 6.890210e+02
      vertex 2.922125e+02 3.900000e+01 7.065736e+02
      vertex 2.984365e+02 3.900000e+01 6.890210e+02
    endloop
  endfacet
  facet normal 9.425013e-01 2.167099e-15 3.342025e-01
    outer loop
      vertex 2.984365e+02 6.400000e+01 6.890210e+02
      vertex 2.922125e+02 6.400000e+01 7.065736e+02
      vertex 2.922125e+02 3.900000e+01 7.065736e+02
    endloop
  endfacet
  facet normal 1.258941e-14 4.547474e-15 -1.000000e+00
    outer loop
      vertex 2.894062e+02 6.400000e+01 6.890210e+02
      vertex 2.984365e+02 3.900000e+01 6.890210e+02
      vertex 2.894062e+02 3.900000e+01 6.890210e+02
    endloop
  endfacet
  facet normal 0.000000e+00 0.000000e+00 -1.000000e+00
    outer loop
      vertex 2.984365e+02 6.400000e+01 6.890210e+02
      vertex 2.984365e+02 3.900000e+01 6.890210e+02
      vertex 2.894062e+02 6.400000e+01 6.890210e+02
    endloop
  endfacet
  facet normal -9.408337e-01 -2.139208e-15 -3.388687e-01
    outer loop
      vertex 2.868129e+02 6.400000e+01 6.962210e+02
      vertex 2.894062e+02 3.900000e+01 6.890210e+02
      vertex 2.868129e+02 3.900000e+01 6.962210e+02
    endloop
  endfacet
  facet normal -9.408337e-01 3.680204e-15 -3.388687e-01
    outer loop
      vertex 2.894062e+02 6.400000e+01 6.890210e+02
      vertex 2.894062e+02 3.900000e+01 6.890210e+02
      vertex 2.868129e+02 6.400000e+01 6.962210e+02
    endloop
  endfacet
  facet normal 0.000000e+00 -1.000000e+00 1.346215e-15
    outer loop
      vertex 2.808365e+02 3.900000e+01 7.014991e+02
      vertex 2.808365e+02 3.900000e+01 6.962210e+02
      vertex 2.868129e+02 3.900000e+01 6.962210e+02
    endloop
  endfacet
  facet normal 0.000000e+00 0.000000e+00 -1.000000e+00
    outer loop
      vertex 2.808365e+02 6.400000e+01 6.962210e+02
      vertex 2.868129e+02 3.900000e+01 6.962210e+02
      vertex 2.808365e+02 3.900000e+01 6.962210e+02
    endloop
  endfacet
  facet normal 0.000000e+00 0.000000e+00 -1.000000e+00
    outer loop
      vertex 2.868129e+02 6.400000e+01 6.962210e+02
      vertex 2.868129e+02 3.900000e+01 6.962210e+02
      vertex 2.808365e+02 6.400000e+01 6.962210e+02
    endloop
  endfacet
  facet normal -1.000000e+00 0.000000e+00 0.000000e+00
    outer loop
      vertex 2.808365e+02 4.400000e+01 7.014991e+02
      vertex 2.808365e+02 3.900000e+01 6.962210e+02
      vertex 2.808365e+02 3.900000e+01 7.014991e+02
    endloop
  endfacet
  facet normal -1.000000e+00 0.000000e+00 0.000000e+00
    outer loop
      vertex 2.808365e+02 6.400000e+01 7.014991e+02
      vertex 2.808365e+02 3.900000e+01 6.962210e+02
      vertex 2.808365e+02 4.400000e+01 7.014991e+02
    endloop
  endfacet
  facet normal -1.000000e+00 0.000000e+00 0.000000e+00
    outer loop
      vertex 2.808365e+02 6.400000e+01 6.962210e+02
      vertex 2.808365e+02 3.900000e+01 6.962210e+02
      vertex 2.808365e+02 6.400000e+01 7.014991e+02
    endloop
  endfacet
  facet normal 1.319643e-13 0.000000e+00 -1.000000e+00
    outer loop
      vertex 2.799750e+02 4.400000e+01 7.014991e+02
      vertex 2.808365e+02 3.900000e+01 7.014991e+02
      vertex 2.799750e+02 3.900000e+01 7.014991e+02
    endloop
  endfacet
  facet normal 1.319643e-13 0.000000e+00 -1.000000e+00
    outer loop
      vertex 2.808365e+02 4.400000e+01 7.014991e+02
      vertex 2.808365e+02 3.900000e+01 7.014991e+02
      vertex 2.799750e+02 4.400000e+01 7.014991e+02
    endloop
  endfacet
  facet normal 1.000000e+00 0.000000e+00 0.000000e+00
    outer loop
      vertex 2.799750e+02 6.400000e+01 6.962427e+02
      vertex 2.799750e+02 3.900000e+01 7.014991e+02
      vertex 2.799750e+02 3.900000e+01 6.962427e+02
    endloop
  endfacet
  facet normal 1.000000e+00 0.000000e+00 0.000000e+00
    outer loop
      vertex 2.799750e+02 6.400000e+01 6.962427e+02
      vertex 2.799750e+02 4.400000e+01 7.014991e+02
      vertex 2.799750e+02 3.900000e+01 7.014991e+02
    endloop
  endfacet
  facet normal 0.000000e+00 4.547474e-15 -1.000000e+00
    outer loop
      vertex 2.739651e+02 6.400000e+01 6.962427e+02
      vertex 2.799750e+02 3.900000e+01 6.962427e+02
      vertex 2.739651e+02 3.900000e+01 6.962427e+02
    endloop
  endfacet
  facet normal 0.000000e+00 4.547474e-15 -1.000000e+00
    outer loop
      vertex 2.739651e+02 6.400000e+01 6.962427e+02
      vertex 2.799750e+02 6.400000e+01 6.962427e+02
      vertex 2.799750e+02 3.900000e+01 6.962427e+02
    endloop
  endfacet
  facet normal 9.500858e-01 -2.160245e-15 -3.119888e-01
    outer loop
      vertex 2.715937e+02 6.400000e+01 6.890210e+02
      vertex 2.739651e+02 3.900000e+01 6.962427e+02
      vertex 2.715937e+02 3.900000e+01 6.890210e+02
    endloop
  endfacet
  facet normal 9.500858e-01 -7.414840e-16 -3.119888e-01
    outer loop
      vertex 2.739651e+02 6.400000e+01 6.962427e+02
      vertex 2.739651e+02 3.900000e+01 6.962427e+02
      vertex 2.715937e+02 6.400000e+01 6.890210e+02
    endloop
  endfacet
  facet normal 0.000000e+00 -1.000000e+00 0.000000e+00
    outer loop
      vertex 2.670198e+02 3.900000e+01 7.014991e+02
      vertex 2.625824e+02 3.900000e+01 6.890210e+02
      vertex 2.715937e+02 3.900000e+01 6.890210e+02
    endloop
  endfacet
  facet normal 0.000000e+00 0.000000e+00 -1.000000e+00
    outer loop
      vertex 2.625824e+02 6.400000e+01 6.890210e+02
      vertex 2.715937e+02 3.900000e+01 6.890210e+02
      vertex 2.625824e+02 3.900000e+01 6.890210e+02
    endloop
  endfacet
  facet normal 0.000000e+00 0.000000e+00 -1.000000e+00
    outer loop
      vertex 2.715937e+02 6.400000e+01 6.890210e+02
      vertex 2.715937e+02 3.900000e+01 6.890210e+02
      vertex 2.625824e+02 6.400000e+01 6.890210e+02
    endloop
  endfacet
  facet normal -9.421955e-01 3.093059e-15 3.350636e-01
    outer loop
      vertex 2.670198e+02 4.400000e+01 7.014991e+02
      vertex 2.625824e+02 3.900000e+01 6.890210e+02
      vertex 2.670198e+02 3.900000e+01 7.014991e+02
    endloop
  endfacet
  facet normal -9.421955e-01 3.076590e-15 3.350636e-01
    outer loop
      vertex 2.688287e+02 6.400000e+01 7.065855e+02
      vertex 2.625824e+02 3.900000e+01 6.890210e+02
      vertex 2.670198e+02 4.400000e+01 7.014991e+02
    endloop
  endfacet
  facet normal -9.421955e-01 2.142305e-15 3.350636e-01
    outer loop
      vertex 2.625824e+02 6.400000e+01 6.890210e+02
      vertex 2.625824e+02 3.900000e+01 6.890210e+02
      vertex 2.688287e+02 6.400000e+01 7.065855e+02
    endloop
  endfacet
  facet normal 1.627978e-14 2.273737e-14 -1.000000e+00
    outer loop
      vertex 2.670198e+02 4.400000e+01 7.014991e+02
      vertex 2.670198e+02 3.900000e+01 7.014991e+02
      vertex 2.600365e+02 3.900000e+01 7.014991e+02
    endloop
  endfacet
  facet normal 1.000000e+00 0.000000e+00 9.110925e-15
    outer loop
      vertex 2.600365e+02 6.400000e+01 6.890210e+02
      vertex 2.600365e+02 3.900000e+01 7.014991e+02
      vertex 2.600365e+02 3.900000e+01 6.890210e+02
    endloop
  endfacet
  facet normal 0.000000e+00 4.547474e-14 -1.000000e+00
    outer loop
      vertex 2.670198e+02 4.400000e+01 7.014991e+02
      vertex 2.600365e+02 3.900000e+01 7.014991e+02
      vertex 2.600365e+02 4.400000e+01 7.014991e+02
    endloop
  endfacet
  facet normal 1.000000e+00 -2.273737e-14 -3.644370e-14
    outer loop
      vertex 2.600365e+02 6.400000e+01 6.890210e+02
      vertex 2.600365e+02 4.400000e+01 7.014991e+02
      vertex 2.600365e+02 3.900000e+01 7.014991e+02
    endloop
  endfacet
  facet normal 0.000000e+00 0.000000e+00 -1.000000e+00
    outer loop
      vertex 2.496365e+02 6.400000e+01 6.890210e+02
      vertex 2.600365e+02 3.900000e+01 6.890210e+02
      vertex 2.496365e+02 3.900000e+01 6.890210e+02
    endloop
  endfacet
  facet normal 0.000000e+00 0.000000e+00 -1.000000e+00
    outer loop
      vertex 2.496365e+02 6.400000e+01 6.890210e+02
      vertex 2.600365e+02 6.400000e+01 6.890210e+02
      vertex 2.600365e+02 3.900000e+01 6.890210e+02
    endloop
  endfacet
  facet normal -1.000000e+00 0.000000e+00 0.000000e+00
    outer loop
      vertex 2.496365e+02 6.400000e+01 6.890210e+02
      vertex 2.496365e+02 3.900000e+01 6.890210e+02
      vertex 2.496365e+02 6.400000e+01 7.065989e+02
    endloop
  endfacet
  facet normal -4.486595e-01 1.530200e-15 -8.937028e-01
    outer loop
      vertex 2.385414e+02 6.400000e+01 6.917194e+02
      vertex 2.435137e+02 3.900000e+01 6.892232e+02
      vertex 2.385414e+02 3.900000e+01 6.917194e+02
    endloop
  endfacet
  facet normal -4.486595e-01 5.117113e-15 -8.937028e-01
    outer loop
      vertex 2.435137e+02 6.400000e+01 6.892232e+02
      vertex 2.435137e+02 3.900000e+01 6.892232e+02
      vertex 2.385414e+02 6.400000e+01 6.917194e+02
    endloop
  endfacet
  facet normal -8.202348e-01 2.306037e-15 -5.720269e-01
    outer loop
      vertex 2.360944e+02 6.400000e+01 6.952281e+02
      vertex 2.385414e+02 3.900000e+01 6.917194e+02
      vertex 2.360944e+02 3.900000e+01 6.952281e+02
    endloop
  endfacet
  facet normal -8.202348e-01 2.797497e-15 -5.720269e-01
    outer loop
      vertex 2.385414e+02 6.400000e+01 6.917194e+02
      vertex 2.385414e+02 3.900000e+01 6.917194e+02
      vertex 2.360944e+02 6.400000e+01 6.952281e+02
    endloop
  endfacet
  facet normal -9.390241e-01 1.253850e-14 -3.438514e-01
    outer loop
      vertex 2.354295e+02 6.400000e+01 6.970440e+02
      vertex 2.360944e+02 6.400000e+01 6.952281e+02
      vertex 2.360944e+02 3.900000e+01 6.952281e+02
    endloop
  endfacet
  facet normal -9.083212e-01 0.000000e+00 4.182735e-01
    outer loop
      vertex 2.354320e+02 4.400000e+01 7.024074e+02
      vertex 2.373661e+02 6.400000e+01 7.066075e+02
      vertex 2.354320e+02 6.400000e+01 7.024074e+02
    endloop
  endfacet
  facet normal -9.083212e-01 0.000000e+00 4.182735e-01
    outer loop
      vertex 2.354320e+02 4.400000e+01 7.024074e+02
      vertex 2.373661e+02 4.400000e+01 7.066075e+02
      vertex 2.373661e+02 6.400000e+01 7.066075e+02
    endloop
  endfacet
  facet normal -9.857124e-01 0.000000e+00 1.684371e-01
    outer loop
      vertex 2.351066e+02 4.400000e+01 7.005034e+02
      vertex 2.354320e+02 6.400000e+01 7.024074e+02
      vertex 2.351066e+02 6.400000e+01 7.005034e+02
    endloop
  endfacet
  facet normal -9.857124e-01 0.000000e+00 1.684371e-01
    outer loop
      vertex 2.354320e+02 4.400000e+01 7.024074e+02
      vertex 2.354320e+02 6.400000e+01 7.024074e+02
      vertex 2.351066e+02 4.400000e+01 7.005034e+02
    endloop
  endfacet
  facet normal 8.652660e-18 1.000000e+00 -9.086643e-15
    outer loop
      vertex 2.379740e+02 4.400000e+01 7.073900e+02
      vertex 2.488865e+02 4.400000e+01 7.074004e+02
      vertex 2.373661e+02 4.400000e+01 7.066075e+02
    endloop
  endfacet
  facet normal 3.407861e-14 1.000000e+00 -3.555418e-14
    outer loop
      vertex 2.320365e+02 4.400000e+01 7.014991e+02
      vertex 2.379740e+02 4.400000e+01 7.073900e+02
      vertex 2.373661e+02 4.400000e+01 7.066075e+02
    endloop
  endfacet
  facet normal 0.000000e+00 1.000000e+00 0.000000e+00
    outer loop
      vertex 2.354320e+02 4.400000e+01 7.024074e+02
      vertex 2.320365e+02 4.400000e+01 7.014991e+02
      vertex 2.373661e+02 4.400000e+01 7.066075e+02
    endloop
  endfacet
  facet normal 9.522390e-04 -5.682986e-15 -9.999995e-01
    outer loop
      vertex 2.379740e+02 6.400000e+01 7.073900e+02
      vertex 2.488865e+02 4.400000e+01 7.074004e+02
      vertex 2.379740e+02 4.400000e+01 7.073900e+02
    endloop
  endfacet
  facet normal 0.000000e+00 1.000000e+00 2.943967e-15
    outer loop
      vertex 2.488865e+02 4.400000e+01 7.098140e+02
      vertex 2.496365e+02 4.400000e+01 7.098140e+02
      vertex 2.488865e+02 4.400000e+01 7.074004e+02
    endloop
  endfacet
  facet normal 1.000000e+00 0.000000e+00 0.000000e+00
    outer loop
      vertex 2.488865e+02 6.400000e+01 7.074004e+02
      vertex 2.488865e+02 4.400000e+01 7.098140e+02
      vertex 2.488865e+02 4.400000e+01 7.074004e+02
    endloop
  endfacet
  facet normal 9.522390e-04 5.684333e-15 -9.999995e-01
    outer loop
      vertex 2.379740e+02 6.400000e+01 7.073900e+02
      vertex 2.488865e+02 6.400000e+01 7.074004e+02
      vertex 2.488865e+02 4.400000e+01 7.074004e+02
    endloop
  endfacet
  facet normal -3.476283e-15 1.000000e+00 8.255578e-15
    outer loop
      vertex 2.320365e+02 4.400000e+01 7.066112e+02
      vertex 2.416865e+02 4.400000e+01 7.098140e+02
      vertex 2.379740e+02 4.400000e+01 7.073900e+02
    endloop
  endfacet
  facet normal -5.467044e-01 -5.536559e-15 8.373257e-01
    outer loop
      vertex 2.416865e+02 6.400000e+01 7.098140e+02
      vertex 2.379740e+02 4.400000e+01 7.073900e+02
      vertex 2.416865e+02 4.400000e+01 7.098140e+02
    endloop
  endfacet
  facet normal -2.575716e-15 1.000000e+00 1.389917e-15
    outer loop
      vertex 2.320365e+02 4.400000e+01 7.014991e+02
      vertex 2.320365e+02 4.400000e+01 7.066112e+02
      vertex 2.379740e+02 4.400000e+01 7.073900e+02
    endloop
  endfacet
  facet normal -5.467044e-01 3.986418e-15 8.373257e-01
    outer loop
      vertex 2.416865e+02 6.400000e+01 7.098140e+02
      vertex 2.379740e+02 6.400000e+01 7.073900e+02
      vertex 2.379740e+02 4.400000e+01 7.073900e+02
    endloop
  endfacet
  facet normal 0.000000e+00 1.000000e+00 0.000000e+00
    outer loop
      vertex 2.320365e+02 4.400000e+01 7.073844e+02
      vertex 2.320365e+02 4.400000e+01 7.098140e+02
      vertex 2.416865e+02 4.400000e+01 7.098140e+02
    endloop
  endfacet
  facet normal 2.313788e-15 1.000000e+00 -9.190014e-15
    outer loop
      vertex 2.320365e+02 4.400000e+01 7.066112e+02
      vertex 2.320365e+02 4.400000e+01 7.073844e+02
      vertex 2.416865e+02 4.400000e+01 7.098140e+02
    endloop
  endfacet
  facet normal -7.802832e-01 2.438905e-15 -6.254263e-01
    outer loop
      vertex 2.384751e+02 6.400000e+01 7.138206e+02
      vertex 2.416865e+02 6.400000e+01 7.098140e+02
      vertex 2.416865e+02 4.400000e+01 7.098140e+02
    endloop
  endfacet
  facet normal 1.000000e+00 0.000000e+00 1.169810e-14
    outer loop
      vertex 2.320365e+02 6.400000e+01 7.073844e+02
      vertex 2.320365e+02 4.400000e+01 7.098140e+02
      vertex 2.320365e+02 4.400000e+01 7.073844e+02
    endloop
  endfacet
  facet normal 8.949771e-18 1.000000e+00 -9.398656e-15
    outer loop
      vertex 2.216365e+02 4.400000e+01 7.066185e+02
      vertex 2.216365e+02 4.400000e+01 7.073745e+02
      vertex 2.320365e+02 4.400000e+01 7.073844e+02
    endloop
  endfacet
  facet normal 9.522390e-04 0.000000e+00 -9.999995e-01
    outer loop
      vertex 2.216365e+02 6.400000e+01 7.073745e+02
      vertex 2.320365e+02 4.400000e+01 7.073844e+02
      vertex 2.216365e+02 4.400000e+01 7.073745e+02
    endloop
  endfacet
  facet normal -6.415632e-18 1.000000e+00 -9.190014e-15
    outer loop
      vertex 2.320365e+02 4.400000e+01 7.066112e+02
      vertex 2.216365e+02 4.400000e+01 7.066185e+02
      vertex 2.320365e+02 4.400000e+01 7.073844e+02
    endloop
  endfacet
  facet normal 9.522390e-04 0.000000e+00 -9.999995e-01
    outer loop
      vertex 2.216365e+02 6.400000e+01 7.073745e+02
      vertex 2.320365e+02 6.400000e+01 7.073844e+02
      vertex 2.320365e+02 4.400000e+01 7.073844e+02
    endloop
  endfacet
  facet normal 0.000000e+00 1.000000e+00 0.000000e+00
    outer loop
      vertex 2.208865e+02 4.400000e+01 7.014991e+02
      vertex 2.216365e+02 4.400000e+01 7.098140e+02
      vertex 2.216365e+02 4.400000e+01 7.073745e+02
    endloop
  endfacet
  facet normal -1.000000e+00 0.000000e+00 0.000000e+00
    outer loop
      vertex 2.216365e+02 6.400000e+01 7.249210e+02
      vertex 2.216365e+02 4.400000e+01 7.073745e+02
      vertex 2.216365e+02 4.400000e+01 7.098140e+02
    endloop
  endfacet
  facet normal 7.362765e-14 1.000000e+00 -9.398656e-15
    outer loop
      vertex 2.216365e+02 4.400000e+01 7.066185e+02
      vertex 2.208865e+02 4.400000e+01 7.014991e+02
      vertex 2.216365e+02 4.400000e+01 7.073745e+02
    endloop
  endfacet
  facet normal -1.000000e+00 0.000000e+00 0.000000e+00
    outer loop
      vertex 2.216365e+02 6.400000e+01 7.073745e+02
      vertex 2.216365e+02 4.400000e+01 7.073745e+02
      vertex 2.216365e+02 6.400000e+01 7.249210e+02
    endloop
  endfacet
  facet normal 0.000000e+00 1.000000e+00 2.911800e-15
    outer loop
      vertex 2.208865e+02 4.400000e+01 7.073738e+02
      vertex 2.208865e+02 4.400000e+01 7.098140e+02
      vertex 2.216365e+02 4.400000e+01 7.098140e+02
    endloop
  endfacet
  facet normal 9.473903e-15 1.000000e+00 7.135038e-28
    outer loop
      vertex 2.208865e+02 4.400000e+01 7.066190e+02
      vertex 2.208865e+02 4.400000e+01 7.073738e+02
      vertex 2.216365e+02 4.400000e+01 7.098140e+02
    endloop
  endfacet
  facet normal 1.538592e-14 1.000000e+00 -1.387804e-15
    outer loop
      vertex 2.208865e+02 4.400000e+01 7.014991e+02
      vertex 2.208865e+02 4.400000e+01 7.066190e+02
      vertex 2.216365e+02 4.400000e+01 7.098140e+02
    endloop
  endfacet
  facet normal 1.000000e+00 -1.420285e-15 1.164720e-14
    outer loop
      vertex 2.208865e+02 6.400000e+01 7.073724e+02
      vertex 2.208865e+02 4.400000e+01 7.098140e+02
      vertex 2.208865e+02 4.400000e+01 7.073738e+02
    endloop
  endfacet
  facet normal -2.459979e-15 1.000000e+00 3.365330e-26
    outer loop
      vertex 2.179981e+02 4.400000e+01 7.066210e+02
      vertex 2.179981e+02 4.400000e+01 7.073710e+02
      vertex 2.208865e+02 4.400000e+01 7.073738e+02
    endloop
  endfacet
  facet normal 9.522390e-04 3.438070e-05 -9.999995e-01
    outer loop
      vertex 2.179981e+02 6.400000e+01 7.073717e+02
      vertex 2.208865e+02 4.400000e+01 7.073738e+02
      vertex 2.179981e+02 4.400000e+01 7.073710e+02
    endloop
  endfacet
  facet normal -2.459979e-15 1.000000e+00 -1.852673e-28
    outer loop
      vertex 2.208865e+02 4.400000e+01 7.066190e+02
      vertex 2.179981e+02 4.400000e+01 7.066210e+02
      vertex 2.208865e+02 4.400000e+01 7.073738e+02
    endloop
  endfacet
  facet normal 2.380599e-04 -6.876143e-05 -1.000000e+00
    outer loop
      vertex 2.179981e+02 6.400000e+01 7.073717e+02
      vertex 2.208865e+02 6.400000e+01 7.073724e+02
      vertex 2.208865e+02 4.400000e+01 7.073738e+02
    endloop
  endfacet
  facet normal 8.582751e-05 3.438072e-05 -1.000000e+00
    outer loop
      vertex 2.179981e+02 6.400000e+01 7.073717e+02
      vertex 2.179981e+02 4.400000e+01 7.073710e+02
      vertex 2.099865e+02 6.400000e+01 7.073710e+02
    endloop
  endfacet
  facet normal 6.981088e-04 -5.041060e-05 9.999998e-01
    outer loop
      vertex 2.208865e+02 6.400000e+01 7.066200e+02
      vertex 2.179981e+02 4.400000e+01 7.066210e+02
      vertex 2.208865e+02 4.400000e+01 7.066190e+02
    endloop
  endfacet
  facet normal 1.745272e-04 2.520531e-05 1.000000e+00
    outer loop
      vertex 2.208865e+02 6.400000e+01 7.066200e+02
      vertex 2.179981e+02 6.400000e+01 7.066205e+02
      vertex 2.179981e+02 4.400000e+01 7.066210e+02
    endloop
  endfacet
  facet normal 1.000000e+00 0.000000e+00 0.000000e+00
    outer loop
      vertex 2.208865e+02 6.400000e+01 6.890210e+02
      vertex 2.208865e+02 4.400000e+01 7.066190e+02
      vertex 2.208865e+02 4.400000e+01 7.014991e+02
    endloop
  endfacet
  facet normal 1.000000e+00 0.000000e+00 0.000000e+00
    outer loop
      vertex 2.208865e+02 6.400000e+01 7.066200e+02
      vertex 2.208865e+02 4.400000e+01 7.066190e+02
      vertex 2.208865e+02 6.400000e+01 6.890210e+02
    endloop
  endfacet
  facet normal 0.000000e+00 1.000000e+00 1.387946e-15
    outer loop
      vertex 2.216365e+02 4.400000e+01 7.066185e+02
      vertex 2.216365e+02 4.400000e+01 7.014991e+02
      vertex 2.208865e+02 4.400000e+01 7.014991e+02
    endloop
  endfacet
  facet normal -1.000000e+00 -1.421085e-15 -1.972390e-30
    outer loop
      vertex 2.216365e+02 6.400000e+01 7.066185e+02
      vertex 2.216365e+02 4.400000e+01 7.014991e+02
      vertex 2.216365e+02 4.400000e+01 7.066185e+02
    endloop
  endfacet
  facet normal 6.981088e-04 1.136868e-14 9.999998e-01
    outer loop
      vertex 2.320365e+02 6.400000e+01 7.066112e+02
      vertex 2.216365e+02 4.400000e+01 7.066185e+02
      vertex 2.320365e+02 4.400000e+01 7.066112e+02
    endloop
  endfacet
  facet normal 6.981088e-04 1.136964e-14 9.999998e-01
    outer loop
      vertex 2.320365e+02 6.400000e+01 7.066112e+02
      vertex 2.216365e+02 6.400000e+01 7.066185e+02
      vertex 2.216365e+02 4.400000e+01 7.066185e+02
    endloop
  endfacet
  facet normal 1.000000e+00 0.000000e+00 0.000000e+00
    outer loop
      vertex 2.320365e+02 6.400000e+01 6.890210e+02
      vertex 2.320365e+02 4.400000e+01 7.066112e+02
      vertex 2.320365e+02 4.400000e+01 7.014991e+02
    endloop
  endfacet
  facet normal 1.000000e+00 0.000000e+00 0.000000e+00
    outer loop
      vertex 2.320365e+02 6.400000e+01 7.066112e+02
      vertex 2.320365e+02 4.400000e+01 7.066112e+02
      vertex 2.320365e+02 6.400000e+01 6.890210e+02
    endloop
  endfacet
  facet normal 0.000000e+00 1.000000e+00 0.000000e+00
    outer loop
      vertex 2.354320e+02 4.400000e+01 7.024074e+02
      vertex 2.350137e+02 4.400000e+01 7.014991e+02
      vertex 2.320365e+02 4.400000e+01 7.014991e+02
    endloop
  endfacet
  facet normal 1.288569e-14 1.000000e+00 -5.933742e-15
    outer loop
      vertex 2.354320e+02 4.400000e+01 7.024074e+02
      vertex 2.351066e+02 4.400000e+01 7.005034e+02
      vertex 2.350137e+02 4.400000e+01 7.014991e+02
    endloop
  endfacet
  facet normal -6.053815e-18 1.000000e+00 -8.671733e-15
    outer loop
      vertex 2.600365e+02 4.400000e+01 7.074111e+02
      vertex 2.600365e+02 4.400000e+01 7.065917e+02
      vertex 2.496365e+02 4.400000e+01 7.065989e+02
    endloop
  endfacet
  facet normal 6.981088e-04 1.136868e-14 9.999998e-01
    outer loop
      vertex 2.600365e+02 6.400000e+01 7.065917e+02
      vertex 2.496365e+02 4.400000e+01 7.065989e+02
      vertex 2.600365e+02 4.400000e+01 7.065917e+02
    endloop
  endfacet
  facet normal 8.434239e-18 1.000000e+00 -8.857267e-15
    outer loop
      vertex 2.496365e+02 4.400000e+01 7.074012e+02
      vertex 2.600365e+02 4.400000e+01 7.074111e+02
      vertex 2.496365e+02 4.400000e+01 7.065989e+02
    endloop
  endfacet
  facet normal 6.981088e-04 1.136868e-14 9.999998e-01
    outer loop
      vertex 2.496365e+02 6.400000e+01 7.065989e+02
      vertex 2.496365e+02 4.400000e+01 7.065989e+02
      vertex 2.600365e+02 6.400000e+01 7.065917e+02
    endloop
  endfacet
  facet normal -1.167110e-15 1.000000e+00 1.395252e-15
    outer loop
      vertex 2.699768e+02 4.400000e+01 7.098140e+02
      vertex 2.600365e+02 4.400000e+01 7.014991e+02
      vertex 2.600365e+02 4.400000e+01 7.065917e+02
    endloop
  endfacet
  facet normal 1.000000e+00 0.000000e+00 0.000000e+00
    outer loop
      vertex 2.600365e+02 6.400000e+01 6.890210e+02
      vertex 2.600365e+02 4.400000e+01 7.065917e+02
      vertex 2.600365e+02 4.400000e+01 7.014991e+02
    endloop
  endfacet
  facet normal 2.096287e-15 1.000000e+00 -8.671733e-15
    outer loop
      vertex 2.600365e+02 4.400000e+01 7.074111e+02
      vertex 2.699768e+02 4.400000e+01 7.098140e+02
      vertex 2.600365e+02 4.400000e+01 7.065917e+02
    endloop
  endfacet
  facet normal 1.000000e+00 0.000000e+00 0.000000e+00
    outer loop
      vertex 2.600365e+02 6.400000e+01 6.890210e+02
      vertex 2.600365e+02 6.400000e+01 7.065917e+02
      vertex 2.600365e+02 4.400000e+01 7.065917e+02
    endloop
  endfacet
  facet normal 0.000000e+00 1.000000e+00 1.396936e-15
    outer loop
      vertex 2.688287e+02 4.400000e+01 7.065855e+02
      vertex 2.670198e+02 4.400000e+01 7.014991e+02
      vertex 2.600365e+02 4.400000e+01 7.014991e+02
    endloop
  endfacet
  facet normal 2.620538e-15 1.000000e+00 -3.132792e-15
    outer loop
      vertex 2.699768e+02 4.400000e+01 7.098140e+02
      vertex 2.688287e+02 4.400000e+01 7.065855e+02
      vertex 2.600365e+02 4.400000e+01 7.014991e+02
    endloop
  endfacet
  facet normal -9.421955e-01 0.000000e+00 3.350636e-01
    outer loop
      vertex 2.688287e+02 6.400000e+01 7.065855e+02
      vertex 2.670198e+02 4.400000e+01 7.014991e+02
      vertex 2.688287e+02 4.400000e+01 7.065855e+02
    endloop
  endfacet
  facet normal -5.820085e-18 1.000000e+00 -8.336929e-15
    outer loop
      vertex 2.799750e+02 4.400000e+01 7.074300e+02
      vertex 2.799750e+02 4.400000e+01 7.065778e+02
      vertex 2.688287e+02 4.400000e+01 7.065855e+02
    endloop
  endfacet
  facet normal 6.981088e-04 0.000000e+00 9.999998e-01
    outer loop
      vertex 2.799750e+02 6.400000e+01 7.065778e+02
      vertex 2.688287e+02 4.400000e+01 7.065855e+02
      vertex 2.799750e+02 4.400000e+01 7.065778e+02
    endloop
  endfacet
  facet normal 8.113880e-18 1.000000e+00 -8.520840e-15
    outer loop
      vertex 2.691522e+02 4.400000e+01 7.074197e+02
      vertex 2.799750e+02 4.400000e+01 7.074300e+02
      vertex 2.688287e+02 4.400000e+01 7.065855e+02
    endloop
  endfacet
  facet normal -1.959234e-13 1.000000e+00 6.747340e-14
    outer loop
      vertex 2.699768e+02 4.400000e+01 7.098140e+02
      vertex 2.691522e+02 4.400000e+01 7.074197e+02
      vertex 2.688287e+02 4.400000e+01 7.065855e+02
    endloop
  endfacet
  facet normal 6.981088e-04 0.000000e+00 9.999998e-01
    outer loop
      vertex 2.688287e+02 6.400000e+01 7.065855e+02
      vertex 2.688287e+02 4.400000e+01 7.065855e+02
      vertex 2.799750e+02 6.400000e+01 7.065778e+02
    endloop
  endfacet
  facet normal -1.238609e-14 1.000000e+00 1.399076e-15
    outer loop
      vertex 2.809142e+02 4.400000e+01 7.098140e+02
      vertex 2.799750e+02 4.400000e+01 7.014991e+02
      vertex 2.799750e+02 4.400000e+01 7.065778e+02
    endloop
  endfacet
  facet normal 1.000000e+00 0.000000e+00 0.000000e+00
    outer loop
      vertex 2.799750e+02 6.400000e+01 6.962427e+02
      vertex 2.799750e+02 4.400000e+01 7.065778e+02
      vertex 2.799750e+02 4.400000e+01 7.014991e+02
    endloop
  endfacet
  facet normal 2.116118e-14 1.000000e+00 -8.336929e-15
    outer loop
      vertex 2.799750e+02 4.400000e+01 7.074300e+02
      vertex 2.809142e+02 4.400000e+01 7.098140e+02
      vertex 2.799750e+02 4.400000e+01 7.065778e+02
    endloop
  endfacet
  facet normal 1.000000e+00 0.000000e+00 0.000000e+00
    outer loop
      vertex 2.799750e+02 6.400000e+01 6.962427e+02
      vertex 2.799750e+02 6.400000e+01 7.065778e+02
      vertex 2.799750e+02 4.400000e+01 7.065778e+02
    endloop
  endfacet
  facet normal -1.846512e-28 1.000000e+00 1.399251e-15
    outer loop
      vertex 2.808840e+02 4.400000e+01 7.065771e+02
      vertex 2.808365e+02 4.400000e+01 7.014991e+02
      vertex 2.799750e+02 4.400000e+01 7.014991e+02
    endloop
  endfacet
  facet normal 1.063569e-13 1.000000e+00 -1.763848e-14
    outer loop
      vertex 2.808920e+02 4.400000e+01 7.074309e+02
      vertex 2.808840e+02 4.400000e+01 7.065771e+02
      vertex 2.799750e+02 4.400000e+01 7.014991e+02
    endloop
  endfacet
  facet normal -2.877761e-14 1.000000e+00 3.250588e-15
    outer loop
      vertex 2.809142e+02 4.400000e+01 7.098140e+02
      vertex 2.808920e+02 4.400000e+01 7.074309e+02
      vertex 2.799750e+02 4.400000e+01 7.014991e+02
    endloop
  endfacet
  facet normal -9.999563e-01 0.000000e+00 9.346113e-03
    outer loop
      vertex 2.808840e+02 6.400000e+01 7.065771e+02
      vertex 2.808365e+02 4.400000e+01 7.014991e+02
      vertex 2.808840e+02 4.400000e+01 7.065771e+02
    endloop
  endfacet
  facet normal -9.999563e-01 -1.827552e-14 9.346113e-03
    outer loop
      vertex 2.808365e+02 6.400000e+01 7.014991e+02
      vertex 2.808365e+02 4.400000e+01 7.014991e+02
      vertex 2.808840e+02 6.400000e+01 7.065771e+02
    endloop
  endfacet
  facet normal -1.150854e-17 1.000000e+00 -1.648531e-14
    outer loop
      vertex 2.858815e+02 4.400000e+01 7.074357e+02
      vertex 2.858815e+02 4.400000e+01 7.065736e+02
      vertex 2.808840e+02 4.400000e+01 7.065771e+02
    endloop
  endfacet
  facet normal 6.981088e-04 0.000000e+00 9.999998e-01
    outer loop
      vertex 2.858815e+02 6.400000e+01 7.065736e+02
      vertex 2.808840e+02 4.400000e+01 7.065771e+02
      vertex 2.858815e+02 4.400000e+01 7.065736e+02
    endloop
  endfacet
  facet normal 1.584961e-17 1.000000e+00 -1.664456e-14
    outer loop
      vertex 2.808920e+02 4.400000e+01 7.074309e+02
      vertex 2.858815e+02 4.400000e+01 7.074357e+02
      vertex 2.808840e+02 4.400000e+01 7.065771e+02
    endloop
  endfacet
  facet normal 6.981088e-04 0.000000e+00 9.999998e-01
    outer loop
      vertex 2.808840e+02 6.400000e+01 7.065771e+02
      vertex 2.808840e+02 4.400000e+01 7.065771e+02
      vertex 2.858815e+02 6.400000e+01 7.065736e+02
    endloop
  endfacet
  facet normal 0.000000e+00 0.000000e+00 1.000000e+00
    outer loop
      vertex 2.922125e+02 6.400000e+01 7.065736e+02
      vertex 2.858815e+02 6.400000e+01 7.065736e+02
      vertex 2.858815e+02 4.400000e+01 7.065736e+02
    endloop
  endfacet
  facet normal 9.522390e-04 5.684339e-15 -9.999995e-01
    outer loop
      vertex 2.808920e+02 6.400000e+01 7.074309e+02
      vertex 2.858815e+02 4.400000e+01 7.074357e+02
      vertex 2.808920e+02 4.400000e+01 7.074309e+02
    endloop
  endfacet
  facet normal 9.522390e-04 -5.012083e-14 -9.999995e-01
    outer loop
      vertex 2.858815e+02 6.400000e+01 7.074357e+02
      vertex 2.858815e+02 4.400000e+01 7.074357e+02
      vertex 2.808920e+02 6.400000e+01 7.074309e+02
    endloop
  endfacet
  facet normal -9.999563e-01 -2.550072e-15 9.346113e-03
    outer loop
      vertex 2.809142e+02 6.400000e+01 7.098140e+02
      vertex 2.808920e+02 4.400000e+01 7.074309e+02
      vertex 2.809142e+02 4.400000e+01 7.098140e+02
    endloop
  endfacet
  facet normal -9.999563e-01 -5.312650e-17 9.346113e-03
    outer loop
      vertex 2.808920e+02 6.400000e+01 7.074309e+02
      vertex 2.808920e+02 4.400000e+01 7.074309e+02
      vertex 2.809142e+02 6.400000e+01 7.098140e+02
    endloop
  endfacet
  facet normal 0.000000e+00 1.000000e+00 0.000000e+00
    outer loop
      vertex 2.799750e+02 4.400000e+01 7.074300e+02
      vertex 2.799750e+02 4.400000e+01 7.098140e+02
      vertex 2.809142e+02 4.400000e+01 7.098140e+02
    endloop
  endfacet
  facet normal -1.000000e+00 0.000000e+00 0.000000e+00
    outer loop
      vertex 2.809142e+02 6.400000e+01 7.249289e+02
      vertex 2.809142e+02 6.400000e+01 7.098140e+02
      vertex 2.809142e+02 4.400000e+01 7.098140e+02
    endloop
  endfacet
  facet normal 1.000000e+00 0.000000e+00 0.000000e+00
    outer loop
      vertex 2.799750e+02 6.400000e+01 7.074300e+02
      vertex 2.799750e+02 4.400000e+01 7.098140e+02
      vertex 2.799750e+02 4.400000e+01 7.074300e+02
    endloop
  endfacet
  facet normal 9.522390e-04 5.684339e-15 -9.999995e-01
    outer loop
      vertex 2.691522e+02 6.400000e+01 7.074197e+02
      vertex 2.799750e+02 4.400000e+01 7.074300e+02
      vertex 2.691522e+02 4.400000e+01 7.074197e+02
    endloop
  endfacet
  facet normal 9.522390e-04 5.684339e-15 -9.999995e-01
    outer loop
      vertex 2.799750e+02 6.400000e+01 7.074300e+02
      vertex 2.799750e+02 4.400000e+01 7.074300e+02
      vertex 2.691522e+02 6.400000e+01 7.074197e+02
    endloop
  endfacet
  facet normal -9.455014e-01 4.208941e-15 3.256181e-01
    outer loop
      vertex 2.751821e+02 6.400000e+01 7.249289e+02
      vertex 2.691522e+02 4.400000e+01 7.074197e+02
      vertex 2.699768e+02 4.400000e+01 7.098140e+02
    endloop
  endfacet
  facet normal -9.455014e-01 -1.841742e-15 3.256181e-01
    outer loop
      vertex 2.751821e+02 6.400000e+01 7.249289e+02
      vertex 2.691522e+02 6.400000e+01 7.074197e+02
      vertex 2.691522e+02 4.400000e+01 7.074197e+02
    endloop
  endfacet
  facet normal 0.000000e+00 1.000000e+00 0.000000e+00
    outer loop
      vertex 2.600365e+02 4.400000e+01 7.074111e+02
      vertex 2.600365e+02 4.400000e+01 7.098140e+02
      vertex 2.699768e+02 4.400000e+01 7.098140e+02
    endloop
  endfacet
  facet normal 1.000000e+00 0.000000e+00 0.000000e+00
    outer loop
      vertex 2.600365e+02 6.400000e+01 7.074111e+02
      vertex 2.600365e+02 4.400000e+01 7.098140e+02
      vertex 2.600365e+02 4.400000e+01 7.074111e+02
    endloop
  endfacet
  facet normal 9.522390e-04 0.000000e+00 -9.999995e-01
    outer loop
      vertex 2.496365e+02 6.400000e+01 7.074012e+02
      vertex 2.600365e+02 4.400000e+01 7.074111e+02
      vertex 2.496365e+02 4.400000e+01 7.074012e+02
    endloop
  endfacet
  facet normal 9.522390e-04 0.000000e+00 -9.999995e-01
    outer loop
      vertex 2.600365e+02 6.400000e+01 7.074111e+02
      vertex 2.600365e+02 4.400000e+01 7.074111e+02
      vertex 2.496365e+02 6.400000e+01 7.074012e+02
    endloop
  endfacet
  facet normal -1.000000e+00 0.000000e+00 0.000000e+00
    outer loop
      vertex 2.496365e+02 6.400000e+01 7.249210e+02
      vertex 2.496365e+02 4.400000e+01 7.074012e+02
      vertex 2.496365e+02 4.400000e+01 7.098140e+02
    endloop
  endfacet
  facet normal -1.000000e+00 0.000000e+00 0.000000e+00
    outer loop
      vertex 2.496365e+02 6.400000e+01 7.249210e+02
      vertex 2.496365e+02 6.400000e+01 7.074012e+02
      vertex 2.496365e+02 4.400000e+01 7.074012e+02
    endloop
  endfacet
  facet normal 0.000000e+00 1.000000e+00 0.000000e+00
    outer loop
      vertex 2.416865e+02 6.400000e+01 7.098140e+02
      vertex 2.488865e+02 6.400000e+01 7.074004e+02
      vertex 2.379740e+02 6.400000e+01 7.073900e+02
    endloop
  endfacet
  facet normal 0.000000e+00 1.000000e+00 0.000000e+00
    outer loop
      vertex 2.384751e+02 6.400000e+01 7.138206e+02
      vertex 2.488865e+02 6.400000e+01 7.074004e+02
      vertex 2.416865e+02 6.400000e+01 7.098140e+02
    endloop
  endfacet
  facet normal 0.000000e+00 1.000000e+00 0.000000e+00
    outer loop
      vertex 2.379476e+02 6.400000e+01 7.155961e+02
      vertex 2.488865e+02 6.400000e+01 7.074004e+02
      vertex 2.384751e+02 6.400000e+01 7.138206e+02
    endloop
  endfacet
  facet normal 0.000000e+00 1.000000e+00 0.000000e+00
    outer loop
      vertex 2.429169e+02 6.400000e+01 7.244588e+02
      vertex 2.488865e+02 6.400000e+01 7.249210e+02
      vertex 2.488865e+02 6.400000e+01 7.074004e+02
    endloop
  endfacet
  facet normal 0.000000e+00 1.000000e+00 0.000000e+00
    outer loop
      vertex 2.391757e+02 6.400000e+01 7.211392e+02
      vertex 2.429169e+02 6.400000e+01 7.244588e+02
      vertex 2.488865e+02 6.400000e+01 7.074004e+02
    endloop
  endfacet
  facet normal 0.000000e+00 1.000000e+00 0.000000e+00
    outer loop
      vertex 2.383297e+02 6.400000e+01 7.194803e+02
      vertex 2.391757e+02 6.400000e+01 7.211392e+02
      vertex 2.488865e+02 6.400000e+01 7.074004e+02
    endloop
  endfacet
  facet normal 0.000000e+00 1.000000e+00 0.000000e+00
    outer loop
      vertex 2.379476e+02 6.400000e+01 7.155961e+02
      vertex 2.383297e+02 6.400000e+01 7.194803e+02
      vertex 2.488865e+02 6.400000e+01 7.074004e+02
    endloop
  endfacet
  facet normal 0.000000e+00 1.000000e+00 0.000000e+00
    outer loop
      vertex 2.216365e+02 6.400000e+01 7.249210e+02
      vertex 2.320365e+02 6.400000e+01 7.249210e+02
      vertex 2.320365e+02 6.400000e+01 7.073844e+02
    endloop
  endfacet
  facet normal 0.000000e+00 1.000000e+00 0.000000e+00
    outer loop
      vertex 2.216365e+02 6.400000e+01 7.073745e+02
      vertex 2.216365e+02 6.400000e+01 7.249210e+02
      vertex 2.320365e+02 6.400000e+01 7.073844e+02
    endloop
  endfacet
  facet normal 3.523593e-17 1.000000e+00 -4.048994e-16
    outer loop
      vertex 2.147176e+02 6.400000e+01 7.243842e+02
      vertex 2.208865e+02 6.400000e+01 7.249210e+02
      vertex 2.208865e+02 6.400000e+01 7.073724e+02
    endloop
  endfacet
  facet normal 2.930309e-16 1.000000e+00 -3.114170e-16
    outer loop
      vertex 2.110397e+02 6.400000e+01 7.209234e+02
      vertex 2.147176e+02 6.400000e+01 7.243842e+02
      vertex 2.208865e+02 6.400000e+01 7.073724e+02
    endloop
  endfacet
  facet normal 4.372279e-16 1.000000e+00 -2.066361e-16
    outer loop
      vertex 2.102443e+02 6.400000e+01 7.192403e+02
      vertex 2.110397e+02 6.400000e+01 7.209234e+02
      vertex 2.208865e+02 6.400000e+01 7.073724e+02
    endloop
  endfacet
  facet normal 6.210658e-16 1.000000e+00 -4.178496e-17
    outer loop
      vertex 2.099828e+02 6.400000e+01 7.153537e+02
      vertex 2.102443e+02 6.400000e+01 7.192403e+02
      vertex 2.208865e+02 6.400000e+01 7.073724e+02
    endloop
  endfacet
  facet normal 8.538236e-16 1.000000e+00 2.761977e-16
    outer loop
      vertex 2.105544e+02 6.400000e+01 7.135866e+02
      vertex 2.099828e+02 6.400000e+01 7.153537e+02
      vertex 2.208865e+02 6.400000e+01 7.073724e+02
    endloop
  endfacet
  facet normal 1.373576e-15 1.000000e+00 1.140368e-15
    outer loop
      vertex 2.136865e+02 6.400000e+01 7.098140e+02
      vertex 2.105544e+02 6.400000e+01 7.135866e+02
      vertex 2.208865e+02 6.400000e+01 7.073724e+02
    endloop
  endfacet
  facet normal 6.923064e-19 1.000000e+00 -2.908119e-15
    outer loop
      vertex 2.179981e+02 6.400000e+01 7.073717e+02
      vertex 2.136865e+02 6.400000e+01 7.098140e+02
      vertex 2.208865e+02 6.400000e+01 7.073724e+02
    endloop
  endfacet
  facet normal 2.496637e-19 1.000000e+00 -2.908900e-15
    outer loop
      vertex 2.179981e+02 6.400000e+01 7.073717e+02
      vertex 2.099865e+02 6.400000e+01 7.073710e+02
      vertex 2.136865e+02 6.400000e+01 7.098140e+02
    endloop
  endfacet
  facet normal 0.000000e+00 1.000000e+00 0.000000e+00
    outer loop
      vertex 2.179981e+02 6.400000e+01 7.066205e+02
      vertex 2.208865e+02 6.400000e+01 7.066200e+02
      vertex 2.074267e+02 6.400000e+01 7.024098e+02
    endloop
  endfacet
  facet normal 0.000000e+00 1.000000e+00 0.000000e+00
    outer loop
      vertex 2.074267e+02 6.400000e+01 7.024098e+02
      vertex 2.093365e+02 6.400000e+01 7.066210e+02
      vertex 2.179981e+02 6.400000e+01 7.066205e+02
    endloop
  endfacet
  facet normal 0.000000e+00 1.000000e+00 0.000000e+00
    outer loop
      vertex 2.208865e+02 6.400000e+01 6.890210e+02
      vertex 2.071066e+02 6.400000e+01 7.005034e+02
      vertex 2.074267e+02 6.400000e+01 7.024098e+02
    endloop
  endfacet
  facet normal 0.000000e+00 1.000000e+00 0.000000e+00
    outer loop
      vertex 2.208865e+02 6.400000e+01 7.066200e+02
      vertex 2.208865e+02 6.400000e+01 6.890210e+02
      vertex 2.074267e+02 6.400000e+01 7.024098e+02
    endloop
  endfacet
  facet normal 0.000000e+00 1.000000e+00 0.000000e+00
    outer loop
      vertex 2.208865e+02 6.400000e+01 6.890210e+02
      vertex 2.074295e+02 6.400000e+01 6.970440e+02
      vertex 2.071066e+02 6.400000e+01 7.005034e+02
    endloop
  endfacet
  facet normal 0.000000e+00 1.000000e+00 0.000000e+00
    outer loop
      vertex 2.208865e+02 6.400000e+01 6.890210e+02
      vertex 2.080944e+02 6.400000e+01 6.952281e+02
      vertex 2.074295e+02 6.400000e+01 6.970440e+02
    endloop
  endfacet
  facet normal 0.000000e+00 1.000000e+00 0.000000e+00
    outer loop
      vertex 2.208865e+02 6.400000e+01 6.890210e+02
      vertex 2.105414e+02 6.400000e+01 6.917194e+02
      vertex 2.080944e+02 6.400000e+01 6.952281e+02
    endloop
  endfacet
  facet normal 0.000000e+00 1.000000e+00 0.000000e+00
    outer loop
      vertex 2.208865e+02 6.400000e+01 6.890210e+02
      vertex 2.155137e+02 6.400000e+01 6.892232e+02
      vertex 2.105414e+02 6.400000e+01 6.917194e+02
    endloop
  endfacet
  facet normal 0.000000e+00 1.000000e+00 -4.037757e-16
    outer loop
      vertex 2.320365e+02 6.400000e+01 6.890210e+02
      vertex 2.216365e+02 6.400000e+01 6.890210e+02
      vertex 2.216365e+02 6.400000e+01 7.066185e+02
    endloop
  endfacet
  facet normal -2.819958e-19 1.000000e+00 -4.039424e-16
    outer loop
      vertex 2.320365e+02 6.400000e+01 7.066112e+02
      vertex 2.320365e+02 6.400000e+01 6.890210e+02
      vertex 2.216365e+02 6.400000e+01 7.066185e+02
    endloop
  endfacet
  facet normal 0.000000e+00 1.000000e+00 0.000000e+00
    outer loop
      vertex 2.600365e+02 6.400000e+01 7.074111e+02
      vertex 2.496365e+02 6.400000e+01 7.074012e+02
      vertex 2.496365e+02 6.400000e+01 7.249210e+02
    endloop
  endfacet
  facet normal 0.000000e+00 1.000000e+00 0.000000e+00
    outer loop
      vertex 2.600365e+02 6.400000e+01 7.249210e+02
      vertex 2.600365e+02 6.400000e+01 7.074111e+02
      vertex 2.496365e+02 6.400000e+01 7.249210e+02
    endloop
  endfacet
  facet normal 0.000000e+00 1.000000e+00 0.000000e+00
    outer loop
      vertex 2.799750e+02 6.400000e+01 7.074300e+02
      vertex 2.691522e+02 6.400000e+01 7.074197e+02
      vertex 2.751821e+02 6.400000e+01 7.249289e+02
    endloop
  endfacet
  facet normal 0.000000e+00 1.000000e+00 0.000000e+00
    outer loop
      vertex 2.799750e+02 6.400000e+01 7.249289e+02
      vertex 2.799750e+02 6.400000e+01 7.074300e+02
      vertex 2.751821e+02 6.400000e+01 7.249289e+02
    endloop
  endfacet
  facet normal 0.000000e+00 1.000000e+00 0.000000e+00
    outer loop
      vertex 2.922125e+02 6.400000e+01 7.074357e+02
      vertex 2.809142e+02 6.400000e+01 7.098140e+02
      vertex 2.809142e+02 6.400000e+01 7.249289e+02
    endloop
  endfacet
  facet normal 0.000000e+00 1.000000e+00 0.000000e+00
    outer loop
      vertex 2.858815e+02 6.400000e+01 7.074357e+02
      vertex 2.808920e+02 6.400000e+01 7.074309e+02
      vertex 2.809142e+02 6.400000e+01 7.098140e+02
    endloop
  endfacet
  facet normal 0.000000e+00 1.000000e+00 0.000000e+00
    outer loop
      vertex 2.922125e+02 6.400000e+01 7.074357e+02
      vertex 2.858815e+02 6.400000e+01 7.074357e+02
      vertex 2.809142e+02 6.400000e+01 7.098140e+02
    endloop
  endfacet
  facet normal 0.000000e+00 1.000000e+00 0.000000e+00
    outer loop
      vertex 2.858815e+02 6.400000e+01 7.249289e+02
      vertex 2.922125e+02 6.400000e+01 7.074357e+02
      vertex 2.809142e+02 6.400000e+01 7.249289e+02
    endloop
  endfacet
  facet normal 0.000000e+00 1.000000e+00 -6.863416e-16
    outer loop
      vertex 2.868129e+02 6.400000e+01 6.962210e+02
      vertex 2.858815e+02 6.400000e+01 7.065736e+02
      vertex 2.922125e+02 6.400000e+01 7.065736e+02
    endloop
  endfacet
  facet normal -4.789783e-19 1.000000e+00 -6.861082e-16
    outer loop
      vertex 2.808365e+02 6.400000e+01 6.962210e+02
      vertex 2.808840e+02 6.400000e+01 7.065771e+02
      vertex 2.858815e+02 6.400000e+01 7.065736e+02
    endloop
  endfacet
  facet normal 0.000000e+00 1.000000e+00 -6.863416e-16
    outer loop
      vertex 2.868129e+02 6.400000e+01 6.962210e+02
      vertex 2.808365e+02 6.400000e+01 6.962210e+02
      vertex 2.858815e+02 6.400000e+01 7.065736e+02
    endloop
  endfacet
  facet normal -7.783837e-16 1.000000e+00 -2.803576e-16
    outer loop
      vertex 2.894062e+02 6.400000e+01 6.890210e+02
      vertex 2.868129e+02 6.400000e+01 6.962210e+02
      vertex 2.922125e+02 6.400000e+01 7.065736e+02
    endloop
  endfacet
  facet normal 0.000000e+00 1.000000e+00 -4.048074e-16
    outer loop
      vertex 2.984365e+02 6.400000e+01 6.890210e+02
      vertex 2.894062e+02 6.400000e+01 6.890210e+02
      vertex 2.922125e+02 6.400000e+01 7.065736e+02
    endloop
  endfacet
  facet normal 1.440338e-13 1.000000e+00 -1.346215e-15
    outer loop
      vertex 2.808365e+02 6.400000e+01 6.962210e+02
      vertex 2.808365e+02 6.400000e+01 7.014991e+02
      vertex 2.808840e+02 6.400000e+01 7.065771e+02
    endloop
  endfacet
  facet normal 0.000000e+00 1.000000e+00 0.000000e+00
    outer loop
      vertex 2.688287e+02 6.400000e+01 7.065855e+02
      vertex 2.799750e+02 6.400000e+01 7.065778e+02
      vertex 2.799750e+02 6.400000e+01 6.962427e+02
    endloop
  endfacet
  facet normal 0.000000e+00 1.000000e+00 0.000000e+00
    outer loop
      vertex 2.739651e+02 6.400000e+01 6.962427e+02
      vertex 2.688287e+02 6.400000e+01 7.065855e+02
      vertex 2.799750e+02 6.400000e+01 6.962427e+02
    endloop
  endfacet
  facet normal 0.000000e+00 1.000000e+00 0.000000e+00
    outer loop
      vertex 2.715937e+02 6.400000e+01 6.890210e+02
      vertex 2.625824e+02 6.400000e+01 6.890210e+02
      vertex 2.688287e+02 6.400000e+01 7.065855e+02
    endloop
  endfacet
  facet normal 0.000000e+00 1.000000e+00 0.000000e+00
    outer loop
      vertex 2.739651e+02 6.400000e+01 6.962427e+02
      vertex 2.715937e+02 6.400000e+01 6.890210e+02
      vertex 2.688287e+02 6.400000e+01 7.065855e+02
    endloop
  endfacet
  facet normal -2.823095e-19 1.000000e+00 -4.043918e-16
    outer loop
      vertex 2.496365e+02 6.400000e+01 7.065989e+02
      vertex 2.600365e+02 6.400000e+01 7.065917e+02
      vertex 2.600365e+02 6.400000e+01 6.890210e+02
    endloop
  endfacet
  facet normal 0.000000e+00 1.000000e+00 -4.042247e-16
    outer loop
      vertex 2.496365e+02 6.400000e+01 6.890210e+02
      vertex 2.496365e+02 6.400000e+01 7.065989e+02
      vertex 2.600365e+02 6.400000e+01 6.890210e+02
    endloop
  endfacet
endsolid IRB140_-_M2004C_COMPLETE
